<?xml version="1.0" encoding="iso-8859-1"?>
<!-- Generator: Adobe Illustrator 19.0.0, SVG Export Plug-In . SVG Version: 6.00 Build 0)  -->
<svg version="1.1" id="Capa_1" xmlns="http://www.w3.org/2000/svg" xmlns:xlink="http://www.w3.org/1999/xlink" x="0px" y="0px"
	 viewBox="0 0 512 512" style="enable-background:new 0 0 512 512;" xml:space="preserve">
<g>
	<g>
		<path d="M462,0H50C22.43,0,0,23.637,0,52.69v406.62C0,488.363,22.43,512,50,512h412c27.57,0,50-23.637,50-52.69V52.69
			C512,23.637,489.57,0,462,0z M492,459.31c0,18.025-13.458,32.69-30,32.69H50c-16.542,0-30-14.665-30-32.69V52.69
			C20,34.665,33.458,20,50,20h412c16.542,0,30,14.665,30,32.69V459.31z"/>
	</g>
</g>
<g>
	<g>
		<path d="M454,48H58c-5.523,0-10,4.477-10,10v396c0,5.523,4.477,10,10,10h396c5.522,0,10-4.477,10-10V58
			C464,52.477,459.522,48,454,48z M444,444H68V68h376V444z"/>
	</g>
</g>
<g>
	<g>
		<path d="M327.609,124.168c-15.629-8.506-32.517-14.102-50.192-16.631C270.294,106.517,263.088,106,256,106
			c-7.124,0-14.329,0.515-21.418,1.53c-15.98,2.289-31.384,7.114-45.782,14.341c-24.494,12.294-45.174,31.067-59.804,54.29
			C113.952,200.041,106,227.648,106,256c0,35.64,13.287,70.445,37.412,98.004c23.856,27.25,56.21,45.143,91.103,50.383
			C241.644,405.457,248.873,406,256,406c7.125,0,14.347-0.534,21.465-1.588c34.876-5.165,67.817-23.447,91.255-50.249
			C392.761,326.671,406,291.81,406,256C406,201,375.963,150.485,327.609,124.168z M246,126.385c6.663-0.512,13.296-0.514,20,0.004
			V165h-20V126.385z M266,385.599c-6.681,0.534-13.314,0.535-20-0.007V347h20V385.599z M286,382.397V337c0-5.523-4.478-10-10-10h-40
			c-5.523,0-10,4.477-10,10v45.324C169.076,368.178,126,314.832,126,256c0-49.487,27.501-94.033,71.771-116.254
			c9.002-4.519,18.457-7.952,28.229-10.259V175c0,5.523,4.477,10,10,10h40c5.522,0,10-4.477,10-10v-45.51
			c11.182,2.632,21.922,6.733,32.049,12.245C359.963,164.547,386,208.331,386,256C386,316.016,343.757,368.43,286,382.397z"/>
	</g>
</g>
<g>
	<g>
		<path d="M185,226c-16.542,0-30,13.458-30,30s13.458,30,30,30s30-13.458,30-30S201.542,226,185,226z M185,266
			c-5.514,0-10-4.486-10-10c0-5.514,4.486-10,10-10c5.514,0,10,4.486,10,10C195,261.514,190.514,266,185,266z"/>
	</g>
</g>
<g>
	<g>
		<path d="M327,226c-16.542,0-30,13.458-30,30s13.458,30,30,30s30-13.458,30-30S343.542,226,327,226z M327,266
			c-5.514,0-10-4.486-10-10c0-5.514,4.486-10,10-10c5.514,0,10,4.486,10,10C337,261.514,332.514,266,327,266z"/>
	</g>
</g>
<g>
</g>
<g>
</g>
<g>
</g>
<g>
</g>
<g>
</g>
<g>
</g>
<g>
</g>
<g>
</g>
<g>
</g>
<g>
</g>
<g>
</g>
<g>
</g>
<g>
</g>
<g>
</g>
<g>
</g>
</svg>
