<svg height="960" viewBox="0 0 960 960" width="960" xmlns="http://www.w3.org/2000/svg"><path d="m906.638638 297.043114c42.833227 14.930662 58.171645 54.111356 39.588766 95.617458-2.308164 5.155438-5.68205 9.763563-9.899573 13.521044-14.610961 13.017219-30.056162 22.354861-46.436778 27.578943l-18.251006 5.703411-31.487529 9.935285-9.205798 2.921387-11.576776 3.684131c-5.797045 1.847722-11.604839 3.703264-17.413312 5.563631l-11.614868 3.726281-5.802518 1.866301-11.584015 3.735598c-5.782764 1.868132-11.549422 3.736097-17.289906 5.600902l-11.443085 3.724507c-1.90037.619753-3.797085 1.238933-5.689774 1.857428l-8.449231 2.765323-10.979355 3.606771-5.395081 1.778174-7.97193 2.634975-10.399387 3.451593-5.09923 1.698734-9.993187 3.341972-7.311854 2.456839-9.499514 3.20784-9.207854 3.128177-6.710306 2.292534-6.539403 2.245564-6.365567 2.197669-6.188798 2.148847-6.009095 2.0991-5.826458 2.048429-3.781393 1.33701-3.698048 1.313804-5.3889 1.926594-3.485885 1.254587-3.399498 1.230421-3.312242 1.205981-3.224118 1.181265-3.135125 1.156277-3.045261 1.131013-2.954529 1.105475-2.862928 1.079664-2.770458 1.053577-2.677118 1.027217-2.58291 1.000583-2.487832.973674c-.406667.160021-.809336.31891-1.20799.47666l-2.343586.932796-2.246335.905202c-.366237.148552-.728385.295943-1.086427.442168l-2.09883.863296c-.683088.283067-1.349605.561421-1.999406.835016l-1.899114.806462c-2.464904 1.056124-4.660044 2.035373-6.576149 2.934821-8.329708 3.910086-13.427185 7.769106-16.857331 11.946081-1.855393 2.259358-3.430422 4.845416-5.103518 8.493169l-.40362.896222-.408548.939249c-.068567.160252-.137387.322391-.206485.486465l-.418121 1.008023c-.070307.171997-.140941.346022-.211925.522122l-.430308 1.081877-.439887 1.133936-1.065684 2.836058-2.341499 6.40869-.786943 2.12471-.509154 1.357361-.743941 1.953904-.484766 1.251655-.477406 1.213946-.471417 1.178849-.466797 1.146366-.463546 1.116495-.461665 1.089237c-.076864.179413-.153706.3578-.230555.535214l-.461411 1.05325c-.076993.173742-.154049.346621-.231199.51869l-.464238 1.023143-.467834 1.006337-.472801.992144c-.07929.16432-.158844.328157-.23869.491567l-.482817.975754-.491207.968095-.500966.963047-.512094.960613c-.172705.320089-.347493.640207-.524592.960791l-.538459.963583c-.18195.32195-.366439.644801-.553696.968988l-.570302.977006c-.09651.163648-.193769.327738-.291806.492326l-.597779.993931c-.101261.166795-.203356.334197-.306315.502259-7.938739 12.958622-18.377779 23.825253-32.074615 32.687939-23.820483 15.413301-50.213533 19.356971-78.283053 14.446642l-.739122-.130927-1.46952-.270133-1.459204-.281476c-1.454574-.28727-2.896047-.592105-4.331536-.916149l-1.433758-.330509-1.431351-.34368c-1.192228-.291991-2.383595-.598083-3.57822-.919229l-1.435377-.392663c-.479156-.133337-.959097-.269144-1.440086-.407481l-1.446377-.422663c-.9667-.286919-1.938647-.584203-2.917951-.892341l-1.474738-.470408c-.987188-.319113-1.982787-.649324-2.988905-.991119l-1.517332-.521444-1.534692-.539186c-.257317-.091363-.515423-.183481-.774351-.276361l-1.563699-.566486-1.585014-.585144c-.266033-.099099-.533021-.198991-.800995-.299683l-1.619951-.613815c-.272054-.103924-.545161-.208662-.819353-.314224l-1.658447-.64331-1.686089-.66343-1.715311-.683915-1.746114-.704767-1.7785-.725983-1.812467-.747567-2.785847-1.162616-2.871169-1.213235-15.365126-6.552645-4.365215-1.830023-2.546387-1.040879-2.090887-.823992-1.215575-.458778-1.397619-.503186-1.343941-.457841-1.242735-.40444-1.483891-.468544-.905151-.277569-.612181-.181473-.621079-.179073-.951862-.264969-.98104-.26178-.67295-.173402-.689988-.172968-.708655-.172926-1.101543-.260168-1.152701-.262285-1.209355-.265726-.840423-.179718-1.770225-.367366-1.412284-.28401-1.490918-.292758-2.674528-.510969-2.933659-.54509-6.625993-1.212018-3.22449-.602415-2.955195-.567287-1.660235-.327541-1.585967-.320475-2.013795-.419927-1.917042-.416049-1.386415-.312474-1.351835-.315176-1.32576-.31997-1.308189-.326857-1.299124-.335837-1.298562-.346909-.869596-.238458-1.316526-.370015-.443337-.126935-.93674-.272699c-3.733199-1.100075-7.301801-2.312449-10.725584-3.670497l-.652523-.263198-112.195188 31.457711c-1.000924.280636-2.012407.522147-3.032146.723984-19.136346 3.787651-37.7266071 1.608125-54.2732077-7.131559-3.0734927-1.623376-6.4965825-3.704672-10.1136538-6.123949l-1.2844145-.867701-.6477731-.44401-1.3057277-.907605-1.3180359-.932744c-1.1030694-.787434-2.2173763-1.599834-3.3389612-2.434148l-1.349142-1.011499-1.3546086-1.031364-1.3585549-1.050057-1.3609808-1.067579c-1.361687-1.075948-2.7247323-2.176422-4.0822942-3.296146l-1.3554807-1.125946-1.3503049-1.137609-1.3436085-1.1481c-.4465845-.384318-.8917996-.770189-1.3353919-1.157418l-1.3256549-1.165565c-1.5592882-1.380916-3.0818881-2.761272-4.5659196-4.141671l-1.4711057-1.380434c-11.9079011-11.274021-21.2017076-22.56414-26.8574059-34.197285-5.78011806-11.889062-9.46643906-24.891924-9.46643906-37.916531 0-32.641701 12.27001666-59.497142 34.43087906-78.677027 15.9875645-13.83699 34.9057438-22.284504 57.7258625-28.190796l4.820431-1.220086 5.943129-1.470147 9.914737-2.41472 20.083924-4.849021 239.684038-57.578799 36.228587-8.729164 34.883787-8.440751 19.193462-4.683169 6.523181-1.608855 3.733388-.930023 3.477714-.878984 2.074859-.537939.32615-.086608c18.885015-5.041144 34.739822-5.728403 51.009757-1.418928l1.244184.336087 1.215726.342012.796602.232099.786846.235931.778246.240243.770803.245033.764517.250304.759387.256055.755413.262284.752596.268993.750936.276182.750433.283851.751086.291998.752895.300625.755861.309733.759983.319319.765263.329385.771699.33993.779291.350956 1.185703.548154.803332.380616.814973.39332 1.246815.614847.849133.427176 1.303478.66788 1.34268.701857 1.385786.737453 1.432796.774667 1.483708.8135 1.019351.564707 1.577237.881818 2.199047 1.243156 2.317316 1.323702 3.077058 1.773737 2.733993 1.588417c8.077072 4.731737 15.209897 9.509869 21.389203 14.503047l.197738.159168 4.150681-1.320388 3.997504-1.282559 3.998934-1.292925 5.329005-1.738089 5.319238-1.751877 5.302437-1.763014 3.96157-1.327974 5.256109-1.776123 5.219966-1.77997 3.887023-1.335906 6.41634-2.224967 5.069332-1.775602 3.7602-1.327412 4.952228-1.762035 2.447833-.87691 4.834709-1.743945 3.569232-1.298014 3.51725-1.288249 2.314489-.852854 4.552194-1.68987 3.343498-1.252239 3.279647-1.238 3.212828-1.22264 3.143041-1.206164 4.077037-1.580656 2.968667-1.163369 2.888989-1.143164 2.806345-1.121841 2.720733-1.099399 2.632153-1.075839c6.954646-2.859653 14.619474-5.710942 22.749566-8.480296l2.582578-.871723c.432912-.144805.867041-.289361 1.302353-.433658l2.625761-.862587c1.319685-.429653 2.649363-.85678 3.98807-1.281093l2.689164-.844785c.450106-.140144.901143-.279953 1.353076-.419417l2.722065-.83256c.455374-.138042.911573-.275717 1.368561-.413015l2.751108-.819176c4.600008-1.357465 9.271765-2.67507 13.979565-3.942091l2.828719-.754056c7.553262-1.994171 15.18051-3.853351 22.735488-5.533605l2.829443-.621622c2.825485-.613064 5.638235-1.200194 8.430538-1.759073l1.234047-.245612 2.45257-.479766 2.431832-.464341 2.411044-.448744 2.390207-.432972 2.369321-.417027 2.348383-.400908c.38965-.065465.778426-.130251 1.166326-.194355l2.316886-.376403c1.153182-.184078 2.298467-.361948 3.435827-.533513l2.264143-.334693c.375593-.054371.750304-.108035 1.124131-.160987l2.232349-.309146c28.141889-3.80697 51.167646-3.462707 68.624463 2.622332zm7.258845 62.788858-8.501239 2.444741-27.269666 7.857938-20.981619 6.060724-20.239937 5.860086-19.498026 5.659371-23.328869 6.791845-13.440529 3.924454-17.270914 5.056778-12.465718 3.660671-12.047779 3.547568-11.629744 3.434433-11.211614 3.321267-10.793385 3.208069-10.375061 3.094839-9.956639 2.981577-9.538121 2.868283-6.126189 1.849232-5.94011 1.798857-8.561203 2.603808-5.474785 1.672874-5.288605 1.622466-5.102397 1.572046-4.916159 1.521619-4.729893 1.471181-4.543599 1.420735-4.357275 1.370278-4.170924 1.319813-3.984543 1.269337-3.798133 1.218853-3.611696 1.168359-3.425229 1.117856c-.555331.1821-1.102892.362095-1.642681.539986l-3.145476 1.042083-2.958937.991556-2.772371.94102c-.446513.152625-.885251.303144-1.316214.451556l-2.492466.865198c-1.599435.559946-3.074444 1.086186-4.424989 1.578707-41.625803 15.180216-87.963207 35.057013-126.254323 56.241849-52.323062 28.948111-81.022358 56.165864-78.305461 75.815972.584142 4.224833 1.368198 7.966188 2.341061 11.248217l.283089.925244c1.934295 6.126144 4.558956 10.571787 7.795672 13.507236 21.875329 6.6405 44.275587 8.43049 64.929949-4.926103 17.158868-11.096154 23.292169-25.023105 28.652786-39.516053l.780155-2.124697 1.165168-3.198746.783815-2.137999c6.843249-18.54269 15.259368-37.373837 46.165599-51.87295 25.557075-11.989651 90.111969-34.430735 156.697043-56.518529l9.300397-3.078637 9.30443-3.067529c1.549835-.509967 3.098907-1.019199 4.646753-1.527561l9.268635-3.038635c1.541079-.504335 3.080001-1.007529 4.616301-1.509444l9.182623-2.995065 9.097383-2.957863 8.989827-2.91414 8.859951-2.863893 8.707759-2.807123 8.533247-2.74383 8.336417-2.674014 12.086751-3.865846 11.518344-3.672069 10.874616-3.456275 13.367941-4.234637 14.640292-4.619276 14.072576-4.42003 8.404835-2.627851 5.577343-1.734336c10.866882-3.357319 21.719476-9.861115 32.557782-19.511387 2.693773-6.013106 4.145099-11.447794 4.353978-16.304064zm-683.906777 136.11225-64.22358 16.594882-23.080279 5.921259-9.728215 2.462353c-28.064405 6.984255-51.9555612 35.297664-51.9555612 60.131743 0 5.367367 1.2636153 10.022314 3.9423202 14.018951l1.0076437.760541 1.1218408.835431c.1855474.137077.370356.273058.5543866.407919l1.0945364.795521c.180763.130282.36067.259394.5396822.387314l1.0630229.753014 1.0396754.723232c.1712297.117992.3414086.234696.5104978.350086l1.0011464.676393.9731219.643724c.3194954.209001.6340082.412365.9432266.609899l.9114606.57492.8778237.538785.842316.501497c.6866156.402056 1.3342952.764066 1.9381671 1.083023 8.0516259 4.252756 17.3266419 5.340161 27.8250509 3.262214l104.815025-29.387864c-8.216353-10.079701-12.520002-23.105447-12.520002-38.918264 0-16.568913 3.551408-31.091362 10.506693-43.726573zm501.509757-132.427675-3.170541 1.295934-1.852889.75209-2.907664 1.168504-3.057464 1.215042-3.202546 1.259434-3.342907 1.301681-3.478547 1.341784-3.609468 1.379742-3.735668 1.415555-3.85715 1.449222-2.636591.983794-2.687086.997168-2.736183 1.009908-2.783881 1.022011-4.262195 1.554321-2.897007 1.049491-2.939811 1.059369-2.981214 1.068614-4.546397 1.618862-3.078608 1.088942-4.68593 1.646377-4.763358 1.660026-3.216255 1.113208-3.247171 1.117685-4.925665 1.683533-3.318341 1.126098-3.344363 1.128351-3.368984 1.129969-3.392208 1.130952-5.128798 1.696877-3.444149 1.130626-3.462477 1.129384-5.225024 1.690356-5.258397 1.683986-3.521808 1.11806-3.533143 1.11364-3.543082 1.108584-3.55162 1.102893-3.558761 1.096567-3.564503 1.089606-3.568847 1.082007-3.571791 1.073775.554871-.266817-.074562-.171008c-34.503506 10.343582-69.270835 19.469382-98.639136 24.805636-28.739856 5.222064-51.467496 6.761669-71.050156 7.378024l-3.235148.094651-3.179858.080392-3.127517.068972-4.59959.088255-8.905613.156911-2.892372.056904-2.859204.063937c-.473934.011399-.946609.02321-1.418087.035492l-2.814985.079806c-19.611184.604782-37.326642 2.248001-57.699438 9.311179-1.4552.504513-2.897893 1.010597-4.327521 1.518976l-2.841668 1.020034c-44.711994 16.205771-75.947974 35.196752-75.947974 79.948876 0 16.282993 5.784805 26.18141 14.895398 32.644987l.263888-.074129c5.234614 3.800286 11.598574 6.43177 18.611792 8.470692 4.658672 1.326035 9.595371 2.399729 14.671212 3.387987l2.307932.442321 2.324102.434065 8.22043 1.503717c.786773.145062 1.574097.29132 2.361496.439344l2.361947.449945c6.352744 1.227888 12.679344 2.608106 18.729331 4.441106.507469.151993 1.013983.306502 1.51846.464306 5.962793 1.865209 12.225608 4.331097 18.711099 7.046849l2.442346 1.029434c.408747.173296.818326.347397 1.228718.522217l2.47196 1.056863 6.259337 2.690683 2.53313 1.084892 1.297056.552512c-.787193-2.879814-1.450104-5.923175-1.990756-9.125684l-.213944-1.316326c-.103581-.662573-.202079-1.331753-.295511-2.007502-2.320509-16.783209 6.177854-33.53125 23.279637-50.414884l1.080044-1.055405c.363735-.351861.731185-.703783 1.102328-1.055767 14.199509-13.466488 33.921534-27.119838 58.277772-40.902507l2.333625-1.313025c.782526-.437804 1.569694-.875736 2.361476-1.313795 39.35903-21.775667 86.567073-42.025932 129.084206-57.531201 1.720618-.62748 3.634199-1.307087 5.740818-2.038847l2.620605-.903146c.452212-.154697.912147-.31148 1.379805-.470351l2.898633-.978262c.498554-.167218 1.004832-.336523 1.518836-.507915l3.176725-1.0534c.544906-.179742 1.097538-.361571 1.657897-.545489l3.454883-1.128559 3.640356-1.178678c.622183-.200623 1.252096-.403335 1.889739-.608135l3.91862-1.253872 4.104166-1.304013 6.504208-2.050055 4.568154-1.429408 4.7538-1.479581 7.478847-2.31347 5.21804-1.605059 5.403785-1.655266 8.454013-2.577058 8.872103-2.690077 9.29029-2.803128 9.708572-2.916211 6.704809-2.00698 10.405925-3.104753 10.824466-3.21792 11.243104-3.33112 11.661837-3.444351 12.080669-3.557613 12.499596-3.670908 8.56585-2.51023 13.198024-3.859803 9.031557-2.636188 13.89672-4.048787 9.497445-2.762207 14.595685-4.237857 20.113498-5.827016 20.859519-6.028842 10.709589-3.09013 16.414251-4.729857 11.525337-3.315368c-3.188597-2.607247-7.295521-4.786714-12.320773-6.538399-29.824744-10.396209-115.772351 10.002267-161.972064 28.702366zm-237.280662 12.179863-.762504.201053c-.51142.136518-1.145264.301929-1.896661.495081l-2.601985.661529-3.278097.821072-3.924998.973707-4.542688 1.119435-7.9083 1.937286-5.959112 1.45354-9.896007 2.406067-14.82835 3.593244-25.268568 6.102962-43.150465 10.38983-73.956631 17.764946-102.289091 24.556349-41.62762 10.016118-16.83708 4.064835-13.577353 3.292129-4.415979 1.07632-5.445221 1.335186-2.801717.693854-2.104892.528781c-29.1123795 7.399036-63.0496396 22.972659-63.0496396 68.367041 0 6.777341 2.5141974 14.408399 5.4403053 20.427079 2.4145147 4.966389 6.7123823 10.533232 11.8797178 16.074618 3.7446785-32.107343 32.5076633-64.02156 66.7117845-72.533777l2.593307-.650448 12.921534-3.291683 38.661084-9.950483 64.11944-16.580045c1.537381-.398049 3.083848-.416059 4.539972-.11256.304738-.255579.611412-.508982.919806-.761048l1.048193-.846307c5.098518-4.066395 10.669311-7.786995 16.915551-11.314483l1.302029-.72712c.218634-.120744.438087-.241271.658369-.361587l1.331692-.719417 1.351968-.714657 1.372643-.710198 1.393718-.70604 1.415193-.702181c.713032-.350176 1.434266-.699018 2.163929-1.046695l1.470628-.69385 1.493504-.691044 1.516777-.688538c.509516-.229129 1.022977-.45789 1.540451-.686333l1.564525-.684428c.262782-.113929.526585-.227792.791415-.341593l1.601385-.682134 1.626459-.68098c.273188-.113417.547438-.226799.822757-.340152l1.664819-.679813 1.690892-.67941c.28401-.113218.569123-.226432.855348-.339648l1.730751-.679371 1.757824-.679719 1.785297-.680368c.299861-.113466.600883-.226971.903075-.340522l1.827256-.681906 1.855727-.683306 1.8846-.685008 1.913871-.687009 1.943544-.689311 1.973615-.691914c.331464-.115552.664198-.231226.998209-.347026 12.624026-4.376707 24.882389-7.103473 38.059816-8.664084 2.43302-.288144 4.759049-.53192 7.112291-.740528l1.772131-.150006 1.761396-.135237 1.760983-.121933 2.264163-.13862 2.838261-.148095 1.983223-.088873 1.543206-.062028 2.141004-.077151 4.007634-.121909 5.72481-.138005 4.972993-.097931 5.871656-.105802 4.609336-.095021 4.428615-.105826 3.211575-.087491 2.092117-.062597 3.069302-.100836 2.002927-.072164 2.060364-.082852c.976052-.702738 2.096246-1.239996 3.330325-1.560304l133.763907-34.726712-.953287-.574383-1.309599-.774617-3.52988-2.050381-3.403649-1.959056-1.311108-.746231-1.917199-1.07871-1.247251-.691781c-.205916-.11346-.410873-.225999-.614899-.337614l-1.213244-.65856-1.192366-.636183-1.172924-.613622-.57962-.298294-1.146452-.579437c-.189715-.094659-.378769-.18836-.567192-.281097l-1.12321-.544837c-13.021414-6.220905-23.245681-7.685601-40.930161-3.081142z"/></svg>