<svg height="960" viewBox="0 0 960 960" width="960" xmlns="http://www.w3.org/2000/svg"><path d="m31.0519778 126.650716c6.6202973-14.782405 21.50185-24.113267 37.6918873-23.633138l459.1098819 13.615276c14.062012.41702 26.871161 8.190504 33.733193 20.471652l121.45206 217.365494 252.560557 167.597852c14.777219 9.806033 21.316005 28.154959 16.1219 45.067628l-.160992.512055-16.600762 51.599961c-5.320291 16.537003-20.706146 27.749561-38.077903 27.749561l-46.0308-.000057 38.829885 69.147032c5.972932 10.636683 6.760789 23.407431 2.163304 34.684501l-.219452.527505-17.040827 40.152559c-5.977586 14.084727-19.466206 23.525507-34.746296 24.319177l-499.415152 25.940368c-16.169272.839856-31.250119-8.15063-38.201127-22.773702l-291.3475998-612.917867c-5.02880961-10.579278-5.16766414-22.831201-.3799114-33.521733zm818.7780212 620.795175-480.849 26.882-15.61 26.714 484.391753-25.160267zm-787.6430004-592.452-15.1869986 33.910234 287.490999 604.805766 17.266-29.548zm16.601-11.661 290.4190014 610.951109 480.917999-26.886109-57.423-102.26-49.126.678 26.932966 49.421243c3.465573 6.359298-.768672 14.146095-7.929157 14.749024l-.256967.018465-361.34633 21.525582c-3.762495.224134-7.321876-1.6857-9.219967-4.922225l-.15023-.265313-172.25643-315.269686c-.08738-.159926-.170365-.322197-.248862-.486628l-.11437-.248245-87.397241-196.730314c-2.919368-6.571469 1.839939-13.919536 8.920164-14.059998h.509605l359.412217 10.467326c2.588447.075353 5.005927 1.147574 6.786134 2.930469 1.408377 1.239109 2.402013 2.819027 2.933769 4.535292l61.167717 112.241569c.11803.064351.234883.131148.35048.200368l.319121.199338 63.581381 41.398733-108.901963-194.905615zm271.8280004 446.277 55.500001 101.578109 286.658999-17.076109-24.732-47.254-252.132571 3.479931c-1.322446.330702-2.734293.394858-4.163379.142004-.955557-.16907-1.855242-.468624-2.683969-.877088-.522972-.21886-1.028579-.482453-1.510752-.789192l-.304549-.201646zm370.354 36.518-30.515.421 22.482515 42.954942c.562954 1.075583.910815 2.206717 1.058972 3.34421l31.413514-1.871043zm179.263001-60.715891-466.915001.545891-7.828 44.244 463.812001-6.397891zm-611.054001-88.246109 40.359637 73.865794c.491062.214415.970853.47113 1.434509.771042l.245249.163725 75.111605 51.729439 7.616-43.046zm-78.262-154.252 6.201213 13.958573c.100713-.004277.201802-.00706.303245-.008327h.279931l326.838979 4.896894c1.753825.026275 3.467611.513315 4.970494 1.409195l.318756.198214 257.115143 166.652765c8.275169 5.363666 4.597485 18.132752-5.142061 18.387598l-.296987.003871-75.382684.000111c-.103106.001548-.206298.001506-.309539-.000137l-49.144134.000344c-2.02722.653894-4.164462.624821-6.113835-.000045l-211.325935-.000273c-1.731775 0-3.431677-.449694-4.934283-1.302133l-.318907-.188813-207.658396-128.200837 22.136 40.513 159.507001 106.729109 470.477999-.548109-135.139695-89.676717c-2.172935.271776-4.445813-.164994-6.447532-1.388725l-.245013-.154619-193.114759-125.73883zm80.296 80.019 170.854001 105.479109 143.981999-.000109-43.142-82.428-26.282999-16.809891zm381.324 93.168 6.737 12.311h12.512zm-118.896-126.429-.177139 26.328446-.004861.200554 20.974133 13.413228c.953528.417028 1.845311.983535 2.636544 1.687381l151.836323 97.110391 38.785001.000109zm43.198 78.014 31.783 60.726h27.854l-18.6631-34.104129c-.110558-.202032-.213415-.406207-.308667-.612186zm-370.783-90.694 3.5 7.876 28.296 17.469 10.060661.000771.254231.003232 265.343108 6.747997.185-27.489zm273.851-136.509-12.551 20.168 34.58 67.149 25.777.405zm-324.079 23.446 26.14 58.841 297.288 4.673-29.551999-57.384891zm-19.512999-43.923891 10.543999 23.732891 303.526 6.33 12.788-20.547z"/></svg>