<svg height="960" viewBox="0 0 960 960" width="960" xmlns="http://www.w3.org/2000/svg"><path d="m742.561591 57.9490058c5.487172 0 10.95186.673541 16.305722 2.0193661 23.511944 5.9264015 40.880793 22.7531943 50.32687 46.6646731 6.172158 15.653503 9.008497 34.748487 9.008497 57.296698v553.819996c0 24.049526-4.093918 45.69839-12.61421 63.401881-11.385426 23.595847-30.581186 40.036668-55.383974 44.99288l-.206617.040665-1.472315.277937-2.210928.396054-2.305328.398958-4.172659.702206-4.743583.779695-7.121824 1.148119-10.171857 1.610124-11.665511 1.817905-10.565868 1.627217-14.052628 2.141761-13.760953 2.076438-19.129604 2.85679-20.336319 3.00267-12.65268 1.851341-14.785934 2.148947-15.108562 2.18095-12.317689 1.767462-15.683845 2.237283-19.238301 2.725075-16.377455 2.303917-13.326575 1.864385-16.937169 2.356622-17.245094 2.385197-17.550858 2.413268-17.854459 2.440835-14.500706 1.972178-14.692521 1.989241-22.396011 3.015288-18.988424 2.540995-19.281646 2.566143-23.521985 3.111858-23.937376 3.146475-20.262431 2.647878-16.414318 2.134837c-.250972.032573-.502248.062763-.753794.090567-6.14679.679411-12.367974.510654-18.514303-.473155-17.701325-2.837745-33.654017-12.179351-45.187465-25.651795-7.444431-8.676966-12.89264-18.86997-15.827716-29.799898l-.136185-.519933-30.307752-5.00076c-19.123385-3.155758-33.203319-19.555778-33.487248-38.87978v-613.58646c0-20.895123 16.082814-38.269758 36.915729-39.880914l22.278271-1.723086-.073233-.537952c-.392433-3.001343-.590185-6.025083-.594302-9.052528l.008444-1.185122c.321728-18.65653 7.999241-36.1442529 20.990521-48.9749717 12.742955-12.6173171 29.873533-20.0741781 48.127816-20.4692792l.165817-.0032451.889917-.0116306zm0 40-492.536471 1.2110162-.506305.0067588c-8.085927.1750142-15.445045 3.5514392-20.849582 8.9026912-5.517129 5.448961-8.99739 12.955202-9.140271 21.240616-.026184 2.038196.148179 4.071773.527681 6.069436 1.59355 8.394337 2.38955 16.91727 2.38955 25.563466l.001702 4.147569.016105 6.011447.009 2.548.011 1.199.023549 1.874699c.020526.676555.066171 1.293601.131408 1.856786l.041449.331492.103021 8.436606.098631 8.60411.094242 8.771602.133132 13.47142.123256 13.848202.11338 14.224938.0701 9.692568.096921 14.852733.087046 15.22935.077171 15.605922.067295 15.98245.057421 16.358934.061202 22.397473.024018 11.449663.027798 17.488113.013047 11.867803.012929 24.237291-.001823 18.616891-.0067 12.620247-.018277 19.243816-.02815 19.61991-.038023 19.995962-.047896 20.371967-.057767 20.747928-.09238 28.248654-.109929 28.916844-.093964 22.126068-.103835 22.501821-.153801 30.586853-.171349 31.254671-.140028 23.879195-.202057 32.423098-.213037 32.09192-.006566.998704-.000149 14.499841c-.040054 8.271036 3.27192 16.283284 8.661721 22.565446 5.396823 6.304117 12.876891 10.873882 21.161018 12.201932 1.532894.245362 3.062605.371862 4.575789.378914l.647456-.004293c.861823-.01548 1.717626-.069991 2.56492-.163643 3.0949-.401676 6.174929-.801903 9.240088-1.200673l18.212509-2.375062c3.005677-.392905 5.996484-.784336 8.972421-1.174283l17.677175-2.321809c2.916456-.383977 5.81804-.766453 8.704755-1.147419l17.141842-2.267604 16.784954-2.230939c2.767752-.368745 5.520633-.735944 8.258644-1.101589l16.249622-2.175151c2.678529-.359393 5.342188-.717215 7.990977-1.073456l15.714289-2.118412 15.357401-2.080056 15.000513-2.04128 14.643625-2.00208 14.286737-1.962458 13.92985-1.922412 13.572962-1.881946 13.216074-1.841056 12.859187-1.799743 12.502299-1.758009 12.145413-1.715851 11.788525-1.673271 11.431638-1.630268 11.074752-1.586844 10.717864-1.542995 10.360978-1.498726 14.872305-2.164157 14.06931-2.062173 13.266316-1.958761 12.463322-1.853925 7.862773-1.177003 11.125-1.676027 10.322007-1.567388 6.435231-.983865 8.983687-1.383152 5.543017-.859721 7.645367-1.194955 6.842375-1.080136 7.87407-1.259108 3.401708-.551 4.433403-.72712 2.509496-.417877 2.152612-.363889 1.795728-.309477 1.438844-.254643 1.08196-.199387.407148-.07884c11.742459-2.346458 20.963141-10.346113 27.136052-23.139229 5.59357-11.622368 8.639666-27.398385 8.639666-46.018943v-553.819996c0-18.29953-2.215555-32.467593-6.22027-42.62414-5.063462-12.817463-12.893868-20.030358-22.891675-22.5503967-2.139425-.5377939-4.328968-.8062005-6.529144-.8062005zm-4.794303 70.0121082c10.088103-.024257 17.334824 2.703512 21.978207 9.818311 1.934258 2.963756 3.190383 6.345969 3.957724 10.562478l.151848.884422c.120832.747166.227522 1.519985.321041 2.320589l.105963.974197c.016627.164635.032743.330415.048356.497357l.087694 1.015742.075983 1.04446.064642 1.073999.053674 1.104354c.008053.186634.015664.374568.022841.563817l.037923 1.151422.027887 1.183825.018223 1.217046.010033 1.251084v511.203467c0 .186069-.005193.372102-.015574.557882-.755684 13.524494-3.663893 24.246252-9.076751 32.154717-5.628896 8.208512-14.663415 14.112092-26.740901 17.933277-.502816.159086-1.017429.278146-1.539023.356066l-367.160252 54.848419c-3.60738.485141-7.301389.463557-10.986849-.057195-22.630442-3.197658-40.600908-24.123563-40.600908-47.164391l-.000069-6.537453-.00459-.040227c-.081056-.748217-.076983-1.487083.004647-2.206639l-.000057-34.756134-.012793-.11626c-.072289-.720726-.065792-1.432164.012671-2.125488l.000122-34.759252-.020382-.194518c-.063956-.693177-.055215-1.377196.020105-2.044273l.001154-34.748571c-.000302-.002676-.000603-.005353-.000903-.00803-.085277-.761631-.082636-1.512843-.000169-2.243505l-.000193-34.759685c-.002831-.025388-.005568-.05081-.008213-.076263-.076334-.734815-.071053-1.459297.008523-2.164427l-.000602-34.761762c-.005668-.051025-.01096-.10218-.015873-.153463-.067715-.706855-.060107-1.403559.01626-2.082158l.000186-34.758952c-.008837-.079267-.016765-.158845-.023771-.238726-.059566-.679092-.049788-1.348274.023469-2.000553l.000504-34.758538c-.011875-.106422-.022106-.213401-.030667-.320913-.052012-.653185-.040033-1.2967.03068-1.924377l-.000693-34.760361c-.014526-.130988-.026558-.262809-.036046-.39542-.044682-.624534-.031006-1.239769.036396-1.84036l.00008-34.759799c-.01767-.158857-.031666-.318929-.041896-.480137-.037876-.596848-.022581-1.184784.04181-1.759183l.000427-34.757008c-.020793-.186461-.036513-.374581-.047015-.564229-.031515-.569125-.014798-1.129766.046593-1.677946l.000123-34.759826c-.023601-.212191-.040623-.426508-.05085-.642755-.025584-.541007-.007684-1.074002.050622-1.5956l.000015-34.762832c-.026446-.238172-.044589-.478995-.054123-.722188-.020109-.512893-.001221-1.018276.054019-1.513288l.001089-34.754914c-.029963-.267645-.049422-.538612-.057946-.812494-.015106-.485419.004642-.963833.056986-1.432837l.00037-46.718706c0-.151415.003368-.302054.010034-.451846-.0038-.089254-.007507-.178604-.010034-.268249v-32.416643l.0145-1.624953.01915-1.038397.027993-1.004109.037521-.97122c.028341-.636829.063489-1.252666.106354-1.849379l.0702-.880961c.508104-5.780563 1.833491-9.74213 4.886921-13.752482 5.212092-6.845522 13.669347-9.740433 26.067479-9.851094l7.399419-.044558 25.257695-.222509 362.7204-3.616108zm-535.233288 9.826892-41.534 3.211994v613l41.488 6.846006.024427-3.639303.215141-32.912081.197599-32.244238.180056-31.576285.083449-15.537625.153743-30.574146.103796-22.492088.093929-22.11616.109889-28.903357.09235-28.234847.05775-20.737358.047885-20.361211.038018-19.985018.028153-19.608777.013287-12.863472.011709-18.981605.001844-18.605239-.008022-18.228826-.010829-11.94341-.024464-17.601367-.03433-17.224829-.044194-16.848244-.05406-16.471611-.063924-16.094933-.073789-15.718207-.083653-15.341433-.093518-14.964614-.067825-9.767041-.072209-9.599531-.116534-14.085185-.126398-13.708208-.136262-13.331184-.09632-8.677975-.141694-11.740598-.016918-.165325c-.075426-.818334-.127063-1.652106-.155256-2.502009zm541.939038 539.09197-415.840501 56.64567c.553384 12.592964 10.791977 24.300949 22.994769 26.234832l.380855.057085c1.889921.267044 3.746099.27789 5.52295.038929l366.052889-54.685492.371267-.12242c7.343882-2.474406 12.24441-5.715437 14.985617-9.531582l.196726-.280253c2.679211-3.914469 4.536315-10.031575 5.335428-18.356769zm.255962-33.60097-416.12 53.319v16.745l416.12-56.684zm0-33.565-416.12 49.956v16.765l416.12-53.32zm0-33.563-416.12 46.591v16.785l416.12-49.957zm0-33.564-416.12 43.228v16.802l416.12-46.592zm0-33.562-416.12 39.863v16.819l416.12-43.228zm0-33.562-416.12 36.499v16.835l416.12-39.864zm0-33.561-416.12 33.135v16.849l416.12-36.5zm0-33.56-416.12 29.77v16.862l416.12-33.135zm0-33.561-416.12 26.407v16.873l416.12-29.771zm0-33.56-416.12 23.043v16.883l416.12-26.406zm0-33.558-416.12 19.678v16.893l416.12-23.043zm0-33.557-416.12 16.314v16.9l416.12-19.679zm0-33.558-416.12 12.95v16.906l416.12-16.314zm0-41.520006-416.12 6.777v27.683006l416.12-12.95zm-21.728183-44.524494c-6.854185-.006772-138.306018 2.162728-394.355497 6.122933l-.022984.733363-.00858.769975-.004687 1.260208-.000069 22.411021 416.12-6.778.00133-.79845c-3.767471-10.396404-13.01013-23.712435-21.729513-23.72105z"/></svg>