<svg id="Capa_1" enable-background="new 0 0 512 512" height="512" viewBox="0 0 512 512" width="512" xmlns="http://www.w3.org/2000/svg"><g><g id="Page-1_40_"><g id="_x30_41---AC-Cold-Air"><path id="Shape_275_" d="m486.4 42.667h-460.8c-14.138 0-25.6 11.462-25.6 25.6v153.6c0 4.713 3.821 8.533 8.533 8.533s8.533-3.821 8.533-8.533v-153.6c0-4.713 3.821-8.533 8.533-8.533h17.067v68.266c0 18.851 15.282 34.133 34.133 34.133h358.4c18.851 0 34.133-15.282 34.133-34.133v-68.267h17.068c4.713 0 8.533 3.821 8.533 8.533v179.2c-.028 23.552-19.114 42.638-42.667 42.667h-25.6v-17.067c0-18.851-15.282-34.133-34.133-34.133h-95.061c-4.713 0-8.533 3.821-8.533 8.533 0 4.713 3.82 8.533 8.533 8.533h95.061c9.426 0 17.067 7.641 17.067 17.067v17.067h-95.744c-4.713 0-8.533 3.82-8.533 8.533s3.821 8.533 8.533 8.533h138.411c32.974-.038 59.696-26.759 59.733-59.733v-179.2c0-14.138-11.461-25.599-25.6-25.599zm-34.133 85.333c0 9.426-7.641 17.067-17.067 17.067h-358.4c-9.426 0-17.067-7.641-17.067-17.067v-68.267h392.533v68.267z"/><path id="Shape_274_" d="m85.333 128h341.333c4.713 0 8.533-3.82 8.533-8.533s-3.82-8.533-8.533-8.533h-341.333c-4.713 0-8.533 3.82-8.533 8.533s3.821 8.533 8.533 8.533z"/><path id="Shape_273_" d="m85.333 93.867h341.333c4.713 0 8.533-3.821 8.533-8.533s-3.82-8.533-8.533-8.533h-341.333c-4.713 0-8.533 3.821-8.533 8.533s3.821 8.533 8.533 8.533z"/><circle id="Oval_10_" cx="426.667" cy="213.333" r="8.533"/><circle id="Oval_9_" cx="460.8" cy="213.333" r="8.533"/><path id="Shape_272_" d="m307.2 443.733c0 4.713 3.821 8.533 8.533 8.533 4.713 0 8.533-3.821 8.533-8.533.08-4.962 2.382-9.626 6.272-12.706 6.872-6.202 10.794-15.025 10.794-24.282s-3.922-18.08-10.794-24.282c-3.952-3.024-6.27-7.717-6.27-12.693s2.318-9.669 6.27-12.693c6.835-6.227 10.75-15.031 10.795-24.277 0-4.713-3.82-8.533-8.533-8.533s-8.533 3.82-8.533 8.533c-.079 4.957-2.382 9.616-6.272 12.689-6.871 6.199-10.793 15.019-10.793 24.273s3.922 18.074 10.793 24.273c3.953 3.029 6.271 7.726 6.271 12.706s-2.318 9.677-6.271 12.706c-6.831 6.234-10.744 15.039-10.795 24.286z"/><path id="Shape_271_" d="m366.933 443.733c0 4.713 3.821 8.533 8.533 8.533 4.713 0 8.533-3.821 8.533-8.533.08-4.962 2.382-9.626 6.272-12.706 6.872-6.202 10.794-15.025 10.794-24.282s-3.922-18.08-10.794-24.282c-3.952-3.024-6.27-7.717-6.27-12.693s2.318-9.669 6.27-12.693c6.835-6.227 10.75-15.031 10.795-24.277 0-4.713-3.82-8.533-8.533-8.533s-8.533 3.82-8.533 8.533c-.079 4.957-2.382 9.616-6.272 12.689-6.871 6.199-10.793 15.019-10.793 24.273s3.922 18.074 10.793 24.273c3.953 3.029 6.271 7.726 6.271 12.706s-2.318 9.677-6.271 12.706c-6.83 6.234-10.744 15.039-10.795 24.286z"/><path id="Shape_270_" d="m418.133 443.733c0 4.713 3.82 8.533 8.533 8.533s8.533-3.821 8.533-8.533c.08-4.962 2.382-9.626 6.272-12.706 6.872-6.202 10.794-15.025 10.794-24.282s-3.922-18.08-10.794-24.282c-3.952-3.024-6.27-7.717-6.27-12.693s2.318-9.669 6.27-12.693c6.835-6.227 10.75-15.031 10.795-24.277 0-4.713-3.821-8.533-8.533-8.533-4.713 0-8.533 3.82-8.533 8.533-.079 4.957-2.382 9.616-6.272 12.689-6.871 6.199-10.793 15.019-10.793 24.273s3.922 18.074 10.793 24.273c3.953 3.029 6.271 7.726 6.271 12.706s-2.318 9.677-6.271 12.706c-6.83 6.234-10.744 15.039-10.795 24.286z"/><path id="Shape_269_" d="m145.067 469.333c80.118 0 145.067-64.949 145.067-145.067s-64.949-145.066-145.067-145.066-145.067 64.949-145.067 145.067c.089 80.081 64.986 144.977 145.067 145.066zm0-273.066c70.692 0 128 57.308 128 128s-57.308 128-128 128-128-57.308-128-128c.08-70.66 57.34-127.92 128-128z"/><path id="Shape_268_" d="m100.267 319.514 30.993 10.061-19.14 26.342-46.635 7.39c-3.045.441-5.618 2.487-6.732 5.355s-.598 6.114 1.351 8.495 5.029 3.529 8.061 3.003l29.773-4.693-16.017 21.99c-2.771 3.813-1.927 9.15 1.886 11.921s9.15 1.927 11.921-1.886l16.06-22.007 4.71 29.764c.654 4.142 4.221 7.195 8.414 7.202.452.001.903-.036 1.348-.111 4.653-.734 7.831-5.1 7.1-9.754l-7.39-46.635 19.098-26.325 19.14 26.351-7.39 46.635c-.731 4.654 2.447 9.019 7.1 9.754.445.075.897.112 1.348.111 4.193-.007 7.76-3.06 8.414-7.202l4.71-29.764 15.991 22.007c1.797 2.471 4.776 3.795 7.815 3.474 3.038-.321 5.675-2.239 6.916-5.03s.899-6.034-.898-8.505l-16.017-21.99 29.773 4.719c3.032.525 6.112-.622 8.061-3.003s2.465-5.627 1.351-8.495-3.687-4.914-6.732-5.355l-46.635-7.39-19.14-26.342 30.993-10.061 42.044 21.427c2.727 1.495 6.051 1.387 8.676-.279 2.625-1.667 4.136-4.63 3.943-7.733-.193-3.104-2.059-5.856-4.87-7.185l-26.837-13.653 25.899-8.405c3.037-.826 5.372-3.257 6.076-6.324s-.337-6.273-2.709-8.341-5.69-2.663-8.632-1.548l-25.941 8.414 13.653-26.88c2.142-4.199.474-9.34-3.725-11.482s-9.34-.474-11.482 3.725l-21.444 42.086-30.916 9.984v-32.597l33.382-33.382c2.983-3.38 2.822-8.496-.366-11.683-3.189-3.186-8.305-3.343-11.683-.358l-21.336 21.331v-27.255c0-4.713-3.821-8.533-8.533-8.533-4.713 0-8.533 3.821-8.533 8.533v27.238l-21.334-21.333c-2.143-2.218-5.315-3.108-8.299-2.327s-5.313 3.111-6.094 6.094c-.781 2.984.109 6.156 2.327 8.299l33.399 33.374v32.597l-30.959-10.052-21.444-42.087c-2.142-4.199-7.282-5.867-11.482-3.725-4.199 2.142-5.867 7.282-3.725 11.482l13.696 26.88-25.941-8.414c-2.943-1.115-6.26-.52-8.632 1.548s-3.413 5.274-2.709 8.341 3.039 5.498 6.076 6.324l25.899 8.405-26.837 13.654c-4.046 2.217-5.596 7.249-3.501 11.359s7.078 5.811 11.249 3.839z"/></g></g></g></svg>