<svg height="960" viewBox="0 0 960 960" width="960" xmlns="http://www.w3.org/2000/svg"><path d="m97.9297328 259.299517 1.1631278.008233.9015894.015076 1.249286.032079 1.995703.074063 1.426514.06687 2.309322.126889 2.543357.159201 2.811792.191971 5.37627.39403 5.814943.448023 4.684175.421757 12.122134 1.162061 32.838582 3.239075 289.868475 28.95627 49.98115 4.955914 45.453049 4.482392 33.035034 3.23762 26.435691 2.574164 27.343422 2.641147 24.234325 2.31497 13.544875 1.278727 7.529175.704459 11.543714 1.068516 8.323354.759003 7.506096.673079 5.089399.448001 6.060503.521026 5.225653.433175 3.367521.266808 1.980791.150054 1.768481.127697 1.55537.105252 1.341459.08272 27.659591 1.490161 3.885979.226413 5.327875.332351 3.269026.222225 1.561991.112724 1.516956.114216 1.47441.116023 1.434347.118144 2.081842.181882 1.345068.124822 1.313706.128044 1.284831.13158 1.258441.135429 1.843619.21105 1.203343.146429 1.185653.151379 1.170451.156644 1.157733.162221 1.147501.168115 1.139756.174322 1.134497.180843 1.131722.187678 1.697821.295023 1.53692.280824 1.543441.295161c.258245.050475.517108.101612.776762.153445l1.568801.319597 1.596094.337845c.268752.057914.538987.116655.810879.176253l1.652612.368147c.27921.063161.560423.127245.843811.192285l1.727825.40197 1.788353.426475 1.388462.337387 3.591853.88696 4.077615 1.022854 6.515588 1.658107 5.662987 1.458985 5.939281 1.545078 9.307165 2.449759 4.266771 1.134953 4.440881 1.189891 7.679932 2.076269 5.546089 1.516175 5.892938 1.632872 3.447334.969074 2.629901.747996 1.898851.545605 3.026654.881 3.408053 1.012312 2.138873.64889 2.034249.629011 1.458012.459183 1.400769.44877 1.344217.438685 1.288354.428931 1.632099.557301 1.535647.541325 1.089421.395977 1.036776.387759.984819.379869.933553.372308.882975.365076.833087.358174.783889.351601.4956.230911.474245.228234c23.616461 11.559118 34.667255 30.147512 34.667255 59.222497l.000715 103.702937.039916 5.346032.010607 2.495672v2.376708l-.012593 1.524543-.016965 1.480912-.024468 1.44098c-.004729.237041-.009789.472572-.015191.706671l-.036579 1.388012-.045226 1.357323c-.008284.223868-.016947.446611-.025999.668307l-.059053 1.31822-.068843 1.296772c-.02463.429094-.050968.855229-.07909 1.279022l-.089795 1.264969c-.04765.629587-.099486 1.255291-.155766 1.879191l-.118558 1.246012c-.041546.414946-.085142.829707-.130865 1.244898l-.143629 1.247482c-.025027.208335-.050605.416931-.076743.625866l-.163632 1.258291c-.028418.210597-.057416.421688-.087002.633349l-.184664 1.277417-.199257 1.29479-.214308 1.315859-.229817 1.340627-.120866.680756c-2.895534 16.128534-8.761473 31.646-18.326001 46.882565-21.869692 34.839039-70.567381 66.733732-105.330825 68.643253-.545867.029984-1.317347.068531-2.305442.115291l-3.605134.164568-4.850845.211742-6.042576.256814-11.18028.465131-23.827735.970789-36.12416 1.447165-66.553919 2.629741-77.022737 3.010222-73.276751 2.840278-64.998418 2.501879-63.396316 2.422966-59.479813 2.253902-46.111123 1.729022-27.477787 1.018846-18.588272.681912-21.744567.786095-13.792414.488032-7.895629.27306-6.793202.228771-5.636794.18238-4.426406.133886c-1.90161.054469-3.329081.089965-4.252051.105304l-5.347533.096371-3.525883.071838-5.327915.120544-5.492178.137572-18.556108.501167-4.275708.097-1.974221.038051-3.712306.055955-1.774536.018209-1.744427.011896-1.223958.005099h-1.471856l-1.734032-.005875-2.576707-.02319-1.944-.029489c-4.235905-.075843-8.408889-.227192-12.713163-.464997l-8.04305-.453683-16.3787295-.957988-46.0520746-2.791426c-21.0987422-1.296678-37.54632521-18.786122-37.54632521-39.924672l-.00033869-334.335952-.01003165-.372711c-.28297841-13.624657 5.12248203-26.64885 15.49929485-36.004524l.4352423-.387688c4.2501265-3.740186 8.0501033-5.89507 12.7438267-8.021589 2.2850159-1.03524 4.6955107-1.991736 7.511038-3.021397l.8015185-.291181 1.672724-.5962 1.3497623-.471775 1.9824455-.682267 5.1203771-1.735634 3.8953064-1.327943 1.5144386-.526781 2.3841139-.844819c11.5941717-4.086113 21.0237704-6.372116 30.9891206-7.308453.5292015-.049724 1.0424712-.09624 1.5431918-.139503l1.4678977-.119987c1.1975137-.091782 2.3377386-.162951 3.4735316-.2128l.5332058-.021838 1.0693217-.034208.5385481-.012338.8289503-.012641zm108.2866662 305.597-44.701.13-.02808 2.963083-.035853 2.45373-.033442 1.756228-.053861 2.240048-.065065 2.135947-.076934 2.044938-.065889 1.481855-.07322 1.443552-.080831 1.41077-.120097 1.839583-.09968 1.355764-.059885.756911c-.061257.754962-.126656 1.504567-.196421 2.253256l-.071229.748548c-.072702.748572-.149845 1.497709-.231655 2.25185l-.083375.755975c-.056631.505314-.11537 1.013511-.176283 1.525907-1.862932 15.670693-5.706698 28.916993-12.444221 41.283259l-8.22853 14.854224-1.475741 2.631463-1.340834 2.361721-1.22951 2.131132-.919299 1.565191-.683065 1.140065 2.665886-.035272 3.863511-.072231 4.028028-.093716 14.172035-.385301 8.225693-.213249 5.727-.132078 1.304847-.027153.21729-.222753c.095227-.100871.19303-.207371.293417-.319579l.308916-.353819.324462-.388519.340054-.423679.355694-.4593.371378-.49538c.063206-.085596.127068-.172714.191586-.261364l.394994-.550363.410795-.587594c.069786-.101061.140231-.203691.211338-.307902l.657845-.980818.45848-.702045.474468-.741117.490502-.780647.486801-.78833.595665-.980789.830124-1.392293.881387-1.506136.463405-.801618.979209-1.712055 1.336645-2.368272 5.054356-9.121564 4.165332-7.541198c3.157536-5.692917 5.56936-11.422189 7.386763-17.769838l.323921-1.161062c.105812-.389378.209475-.781157.311022-1.175467l.298327-1.19065c.146023-.59925.28736-1.204485.424126-1.816143l.267471-1.232008c.784327-3.722492 1.406806-7.686684 1.891989-11.987029l.156676-1.446028c.025276-.243123.050137-.487316.074587-.732595l.1418-1.484836.132135-1.511679.122673-1.539301.113411-1.567699.104353-1.596875.095496-1.626828.086842-1.657559.078389-1.689067.070139-1.721352.062091-1.754415.054244-1.788255c.008398-.300906.016478-.603254.024243-.90706l.042854-1.840473zm-121.7773698-264.240872-.1302492.025911c-1.1121676.222375-2.247917.477031-3.4185092.766859l-1.0863301.276448c-.5483975.143262-1.1048864.294143-1.6705608.452925l-1.1439198.32818-1.1703587.349747c-.197371.060117-.3959247.121152-.5957015.183118l-1.2136627.383034c-.4096629.131453-.8245425.266708-1.2449628.405849l-1.2782072.429165-1.3133963.452979-2.4456663.866067c-.7332437.258602-1.4721766.515988-2.2131007.771814l-1.4304113.491354-7.2257536 2.449808-2.9472606 1.015882-1.1976427.42259-1.522891.55033-1.0798036.402265-.6872187.262913-.9779152.386107-.6143716.251685-.5824767.246938-.5490069.242047-.5139622.237008-.4773427.231825c-.8405978.420172-1.4886319.813475-1.9004319 1.175866-1.7308295 1.52316-2.5140217 3.511203-2.3495765 5.964131v335.108462l1.0117745.062168 40.688303 2.470082 25.4488988 1.48481.83834.046458c.032021-.027194.064824-.055627.098399-.085308l.258181-.238523c.135813-.130479.281623-.27791.437038-.442849l.32352-.35339.348434-.401074c.060109-.070874.121228-.143776.183342-.218728l.189308-.231021c.209171-.258069.424175-.532621.64545-.824331l.451041-.606497c.153221-.209926.30936-.427678.468545-.653456l.48683-.701616c.082705-.121016.166204-.244089.250514-.369243l.515718-.776111c.087618-.133582.176078-.269296.265398-.407167l.546362-.853309.567767-.906279.673711-1.098096.791652-1.317279.838685-1.422797.896501-1.546379 1.218356-2.134283 1.346602-2.390893 8.369375-15.094255c5.637335-10.134859 8.874623-21.130534 10.487058-34.694099.139725-1.175344.266962-2.331228.382656-3.487612l.101034-1.04142.094954-1.044925.093987-1.112608.12722-1.667261.086514-1.274198.053574-.863677.097636-1.76842.065191-1.36834.094079-2.37608.062807-2.000748.052371-2.102938.032782-1.65171.042996-2.910235.033799-3.781741.016254-4.136959.000012-2.807698c-.085519-.521409-.130728-1.056435-.132313-1.601784-.001602-.554335.041931-1.098267.127139-1.628314l-.041161-13.69246-.007671-6.679393-.02929-7.832732-.08769-14.64028-.113181-14.84999-.276077-30.772001-.513668-50.150995-.69009-61.79914-.03788-3.188541c-1.58621-1.918331-2.462874-4.42802-2.265445-7.106499.100913-1.369065.472944-2.653364 1.059665-3.804215l-1.204846-.933473-2.75936-2.147051-4.067529-3.180194-2.664018-2.093214-3.924535-3.099457-3.838755-3.051033-2.511521-2.007127-2.473407-1.985617-2.435296-1.964109-3.581495-2.905849-2.340036-1.910362-2.301939-1.888869c-6.9968124-5.756246-13.0537072-9.16257-18.1704812-10.657717-.6318473-.184629-1.2384845-.337576-1.8213986-.460856zm829.3785218 262.189996-.07993.001399-31.114064.09021c-1.525582 2.405853-3.110857 4.312804-4.878027 5.778089-3.046759 2.526281-7.197209 4.214914-12.775438 5.584585-.630885.154906-1.275062.247895-1.923379.277826l-.389414.010382-636.8999 4.570385-.061309 1.073632-.087178 1.387386-.094 1.365658c-.016244.225881-.03278.450918-.04961.675142l-.104543 1.335829-.111778 1.317785c-.019241.218209-.038791.435727-.058653.652586l-.122938 1.293479c-.021122.214342-.042563.428085-.064326.641261l-.134469 1.272488-.142362 1.260334-.074192.626071-.15451 1.244867c-.02644.206731-.053225.413109-.08036.619165l-.167029 1.232713-.175581 1.226453-.184298 1.221664c-2.120859 13.708501-5.92406 25.699074-12.026195 36.939841l-8.510773 15.408202-1.810076 3.233359-1.358648 2.393027-1.006406 1.746268-.716006 1.225214-.16076.269576 6.209962-.206478 8.136755-.279761 9.175749-.322209 10.16048-.362512 23.058112-.837342 19.474939-.717831 28.52688-1.063098 39.162926-1.475059 51.016051-1.940198 63.210539-2.424868 46.363672-1.790095 64.80356-2.516012 88.134993-3.447011 62.676182-2.471822 33.947412-1.349018 28.910632-1.158092 18.93228-.766465 14.732041-.605627 8.031491-.338338 3.815664-.166351 2.521429-.116481.75842-.038868c19.586566-1.07587 57.419073-24.119329 73.646457-49.970012 4.743446-7.556444 7.948622-14.771639 10.109526-21.611328zm-717.060508 23.560391c-.86068 8.218482-2.526044 16.184208-4.996092 23.897179-2.470048 7.71297-5.684973 14.986434-9.644776 21.820391h-24.188737c3.738171-7.477564 6.671659-15.207884 8.800463-23.19096 2.128803-7.983075 3.259068-15.491945 3.390795-22.52661zm-36.966644-231.989515.475736 41.836613.456141 42.675487.332976 33.808356.201764 22.931611.140103 18.864313.070391 12.785952.02181 6.620885.025079 11.086783 713.740763-2.06869c.962509-.145973 1.951381-.152468 2.935428-.00853l35.489073-.102216c1.40838-.004071 2.749602.283204 3.966597.805083l.007666-.084694.092412-1.03223.097443-1.228075c.030133-.407425.057969-.812911.083668-1.21645l.07084-1.204758c.021581-.39963.041182-.7973.058962-1.193l.048033-1.181178.038054-1.169288.029024-1.157333.028682-1.713441.016103-1.127158v-3.308098l-.055258-6.782856-.003316-104.604427c-.000896-.165339-.002242-.329302-.004037-.491904l-.016179-.959419c-.007199-.31445-.016206-.623584-.027032-.927529l-.037939-.896392c-.01447-.293691-.030767-.582319-.048901-.866009l-.059917-.836381c-.021815-.273939-.045475-.543066-.070989-.807506l-.082114-.779387c-.037098-.323866-.077197-.640385-.120316-.949816-1.357107.591336-2.865725.887978-4.438177.815436l-.27943-.016745zm-37.061031-53.515166 1.325569 1.075223 2.38246 1.925996 2.420756 1.947774c.406651.326443.814897.653794 1.224739.982052l3.73165 2.978811 2.535624 2.013082 2.573906 2.034843 3.932628 3.093056 4.018739 3.141994 2.726993 2.121844 2.765255 2.143584c.464064.359075.929723.719056 1.396975 1.079943 2.874714 2.220547 4.819832 5.385887 5.530714 8.886362l729.054023 53.738602-2.741283-.798655-2.173425-.625107-5.113007-1.44998-5.364164-1.496139-7.421288-2.036845-8.611752-2.325102-5.310267-1.416242-7.442051-1.964508-10.509402-2.734943-6.325537-1.622041-7.090972-1.789985-2.315949-.575244-3.763255-.916169-1.65072-.388133-1.601766-.365677-1.044771-.231862-1.538736-.33074-1.512053-.311275-1.493723-.292929-.989757-.185648-.987797-.178326-.988312-.171336-.991301-.164677-1.497971-.235258-1.518617-.222147-1.028007-.141368-1.043369-.13637-1.599273-.195913-1.092604-.125333-1.684724-.180913-1.157305-.11637-1.187516-.113367-2.475564-.219053-2.626106-.211028-2.080281-.154602-2.93719-.203378-2.336331-.151918-5.051982-.307113-6.608269-.3739-22.629302-1.208986c-5.587873-.298065-18.475941-1.373939-36.871578-3.039733l-9.648483-.881188c-1.681808-.154768-3.399788-.313415-5.152903-.475833l-10.932009-1.018881-11.725449-1.104154c-2.017596-.190842-4.066176-.385019-6.144704-.582423l-12.822243-1.222277-13.491195-1.294501-14.110353-1.361506-14.679713-1.423293-15.199281-1.479859-15.669051-1.531208-16.089028-1.577337-24.812069-2.441079-34.087921-3.367512-34.871512-3.458084-35.256741-3.506902-61.428057-6.128962-149.618878-14.972285-37.071861-3.701075-20.797535-2.067385-17.199149-1.698673-10.298281-1.006921-5.533545-.534312-4.40987-.418648c-.798007-.074788-1.519656-.141711-2.162923-.200555z"/></svg>