<svg height="960" viewBox="0 0 960 960" width="960" xmlns="http://www.w3.org/2000/svg"><path d="m373.528327 13.8671846c26.251425-8.78161543 52.211884-13.27939051 77.086335-12.27096682 50.224954 2.03614676 94.474877 10.80184592 125.642198 26.88820492 38.473294 19.8571841 65.703146 51.358385 73.024044 90.8098963.831289 4.479722 1.549883 9.815381 2.169599 16.086919l.202929 2.125285c.099652 1.080083.1966 2.18641.290908 3.31935l.185115 2.301474c.030273.38953.060256.782044.089954 1.177557l.174768 2.409162c.057124.81512.113122 1.642342.168012 2.481776l.161371 2.555049.154842 2.628979c.025269.44436.050271.891829.075009 1.342419l.145262 2.741108.139019 2.816683.132888 2.892916.126872 2.969808.120969 3.047356.115179 3.125563.109504 3.204429.103942 3.283951.145734 5.076472.090534 3.485637.085372 3.567464.080321 3.649947.111261 5.631017.068193 3.859035.063541 3.943822.059003 4.029266.080243 6.205549.048154 4.245756.044013 4.333505.039987 4.42191.052679 6.800065.057206 9.382314.043146 9.747779.023679 7.553837.024071 13.059173.006937 17.569418-.005207 5.49787-.015394 6.374685-.025241 7.211982-.03475 8.009763-.069213 13.424041-.088698 14.996764-.146599 22.211631-.22497 30.881312-.210045 26.813178-.233834 28.34459-.254909 29.559868-.34414 38.177205-.218051 23.323819-.301855 31.308886-.312076 31.259621-.239133 23.22221-.404829 37.884696-.244798 22.022081-.32624 28.259297-.243077 20.193979-.31979 25.337744-.235124 17.639752-.153867 11.036428-.151164 10.411599-.220938 14.359402c-.024126 1.507507-.048105 2.984862-.071928 4.431243l-.141023 8.300013-.136965 7.517115c-.02247 1.185416-.044757 2.336565-.066854 3.452623l-.13024 6.268677c-.191765 8.751629-.36697 14.527559-.520463 16.727626-1.095597 15.703553-3.526278 27.789024-8.638309 38.532276-6.829562 14.352752-17.940393 24.594866-32.270389 30.268949l-.423249.16303-.46418.170222-.504045.177144-.542846.183798-.580584.190186-.939303.296668-.670268.204981-1.441507.42604-.769109.220524-1.629608.454714-1.29798.351939-.899408.239315-1.875835.48868-2.478229.626928-2.610967.640884-1.623376.389487-2.788754.654504-2.296238.526014-2.937871.657013-1.792374.392331-3.025181.647854-3.572618.741985-1.769934.358196c-.983954.197373-1.968516.391911-2.951235.583-24.699172 4.802727-48.562057 7.701647-69.9814 7.701647h-1.713794l-5.390329-.011866-5.738655-.024122-5.025023-.029755-8.44998-.065274-11.168943-.110927-9.327134-.111089-7.173823-.095751-8.19626-.119747-9.581911-.153507-10.305425-.181818-17.352768-.351026-11.316643-.267104-6.354587-.16789-7.202802-.211807-5.111256-.169775-3.956559-.147934-3.441387-.146652-1.7228-.082965-1.171182-.061729-5.349776-.305058-1.417583-.084037-1.650885-.106218-1.072002-.074995c-6.35195-.461468-11.612468-1.145324-17.170602-2.444272-8.712703-2.036177-16.786596-5.373403-24.232193-10.587243-17.418974-12.197779-26.785504-31.355884-28.690127-55.163666-.049309-.616365-.101821-1.356258-.157543-2.21986l-.115727-1.892203-.124299-2.222413c-.021432-.397938-.043221-.809648-.065368-1.235137l-.137182-2.718332-.145787-3.049347-.234841-5.195372-.254273-5.94196-.273747-6.68963-.293264-7.438384-.421452-11.084446-.456328-12.420059-.365193-10.193085-.652491-18.664143-.56156-16.442306-.596841-17.788192-.795818-24.131803-.851301-26.243779-.906983-28.360771-1.363696-43.271175-1.041425-33.462016-1.78358-57.98013-2.179984-71.783409-2.092845-69.657562-.037166-1.310676-.092787-3.855365-.092129-4.633369-.09987-5.922689-.250155-19.174026-.29047-32.48605-.085377-13.353633-.06218-12.703155-.034982-10.745096-.012094-11.217808.012193-6.774479.034031-5.969494.025406-2.409333.310986-18.015159 1.099075-64.961022.4566-29.376527.240976-18.02461.045087-4.347845.022422-2.915441.009035-3.095741c.057083-16.977437 1.676152-29.986616 7.097865-44.2186136 7.645467-20.0693507 21.739319-36.7562276 42.38741-48.976526 18.103828-10.7145105 38.744194-20.3564209 59.7955-27.3984948zm-7.021223 45.4416363-1.0578.4549038c-11.760235 5.0777078-22.425548 10.6469664-31.343642 15.925022-24.524758 14.5146528-29.009285 34.7550853-29.732415 52.5818823l-.043667 1.211628c-.00637.201282-.012302.40223-.01782.602829l-.028331 1.199333-.01954 1.190418-.011896 1.180932-.00344.58673-.004501 2.19949-.039037 5.331401-.099926 8.659989-.243987 17.348213-.548883 34.630776-1.229471 71.781068-.036757 2.746256-.017996 2.075556-.032142 7.71197-.003874 6.974453.028973 13.76123.081898 17.76368.10655 16.1586.102571 12.587933.12477 12.913888.242186 19.669463.200841 11.770246.113224 4.881215.570739 19.137002 2.041907 67.79621 1.670192 54.914534 1.775675 57.722728 1.43724 46.100239.960042 30.410371 1.250877 39.048801 1.142167 34.935463.603858 18.116317.704904 20.756618.523988 15.094272.605068 16.979063.444119 12.072228.208748 5.532439.296482 7.669068.276515 6.913555.256548 6.158045.236581 5.402534.146627 3.181961.137753 2.846178.128879 2.510395.120004 2.174613c.019261.334453.038153.654916.056674.961387l.106693 1.670939c.034085.501016.066691.946068.097818 1.335156 1.78863 22.357874 12.668822 28.52639 25.358138 30.623975l.931609.146392c.467314.06974.936811.134426 1.408135.194652l.94498.114682.949217.103844c.158521.016463.317192.032518.476.048188l.954387.089565 1.436356.119302 1.440188.104411 1.104848.072154 1.657029.099261 5.805618.329738 2.488759.120892 3.435341.143002 3.967208.144393 5.130221.165748 7.979359.227167 8.899529.223636 9.65334.217159 19.920384.385928 17.233898.278125 6.336125.090035 8.814415.114011 12.320029.135709 10.626211.09148 7.839073.048888 7.371111.033699h4.93031c9.72372 0 19.921277-.736503 29.880801-1.880185l-3.280755.013728h-5.509588l-5.7255-.009026-3.450999-.010445c-1.370356-.004065-2.731769-.009912-4.084598-.017515l-4.033095-.028056-3.98375-.038456c-.659967-.007268-1.317967-.014963-1.974046-.023083l-3.913781-.053788-3.869834-.063833-3.828044-.073735c-1.26929-.026212-2.531975-.054052-3.788415-.083494l-3.750943-.093114-3.715632-.102589-3.682477-.111923c-.611104-.019424-1.220915-.039231-1.829481-.059417l-3.636795-.125658c-.603759-.021696-1.206362-.043765-1.807854-.066205l-3.59597-.139073-3.571451-.147839c-.593319-.025363-1.185706-.051085-1.777206-.077163l-3.538722-.160721-3.5196-.169132-4.180405-.214698-5.196878-.287576-19.382955-1.139156c-15.933899-.840519-26.772101-5.023021-33.363406-13.122236-4.445202-5.462143-6.236762-11.023249-7.014661-19.288521l-.093926-1.070031c-.014779-.180854-.029131-.362982-.04307-.54641l-.078829-1.11636-.06971-1.148751-.061352-1.182346-.040295-.887575-.104879-2.552481-.136106-3.553361-.165942-4.511566-.301815-8.470637-.361126-10.386564-.720933-21.177382-.850928-25.432568-1.368326-41.484777-2.204691-67.837351-1.4-43.580882-1.41201-44.331517-1.836476-58.284924-1.499733-48.266726-.78786-25.692678-1.057977-35.057244-.463105-15.649775-.412928-14.205182-.358056-12.616566-.205903-7.457357-.17804-6.644622-.148787-5.789215-.118144-4.891133-.08611-3.950378c-.046419-2.310518-.070556-3.965417-.070556-4.9078l.00555-3.374076.037964-8.452811.143206-20.888016.223821-27.166597.556728-60.71633.752474-76.797767.500002-49.490413-.014189-3.502182-.001423-2.314026.00543-2.272459.021003-3.3308058.022583-2.1686487.029452-2.1271659.057068-3.1130203.046647-2.0235625.053533-1.9821625.060424-1.9407864.06732-1.8994338.07422-1.8581051c.012945-.3062414.026178-.6107618.039699-.9135616l.084581-1.7961564.044882-.8826006c.022807-.4374543.047514-.8702092.07426-1.2984575l.086498-1.271418.099571-1.2455349c.473659-5.4894367 1.360961-10.2436897 2.994545-14.7220921zm82.487268-17.7454334c-9.081004-.3681487-18.294395.2433728-27.440223 1.5946241-.748436.3831092-1.558042.6756171-2.417745.8627435-16.144699 3.5141206-25.72085 9.1674391-30.754494 16.3515236-3.096754 4.419728-4.411422 8.9569577-4.974937 15.7756974l-.080907 1.0673288c-.012543.1809854-.024627.3635438-.03627.5477116l-.064693 1.1246124-.083947 1.694039-.077406 1.7363838-.07086 1.7787049-.06431 1.8210023-.057755 1.863276-.051194 1.9055261-.044629 1.9477523-.03806 1.9899548-.031485 2.0321338-.024906 2.074289-.025012 3.1904221-.010182 3.285139.001459 2.242672.008062 2.28471.006189 1.323023-1.004115 100.52572-.725235 77.360337-.233783 27.419759-.149206 19.638405-.069945 11.154427-.033975 8.089976-.003553 2.611729c0 .926863.024123 2.566422.070514 4.861771l.086057 3.927753.11807 4.868758.234089 8.974159.298299 10.85135.232221 8.205984.538239 18.552112.796831 26.76278.914374 30.109969 1.221818 39.611305 1.778855 56.827291 1.63304 51.524745 1.873874 58.489487 1.579337 48.777907 1.656106 50.548806 1.251948 37.628553.746839 22.038179.492344 14.214774.300635 8.444482.16514 4.494107.135291 3.535877.104051 2.534967.062903 1.341946.049724.89386.054874.851782.060333.811088c.010527.131867.021295.262096.032309.390716l.069098.752641.075327.715408c.026181.232417.053451.458859.081863.679556l.088707.64509c.015372.10472.031042.208061.047017.310052l.099552.595984c.017218.096709.034753.192125.052612.286278l.111089.549992.119166.52106c.082205.338037.169999.657709.263794.96086l.145245.442568c.399592 1.148369.898478 2.047175 1.522941 2.814499.711333.874065 1.684624 1.676467 2.968497 2.38958l.466107.24795c1.118043.569767 2.450603 1.077571 4.024836 1.513568l.689547.182431c1.996088.504268 4.354241.900584 7.123083 1.171323l.99437.090312 1.028951.079711c.1744.012392.350261.024335.527592.035826l18.105537 1.067899 7.090926.397253 2.85036.149927 3.458642.170707c.577865.02777 1.156474.055198 1.73587.082281l3.486183.158332 3.507237.149908 1.762185.07175 3.54285.137008 3.569284.128233c.597203.020633 1.195597.040895 1.795227.060782l3.61297.114808c.604753.018379 1.210831.036377 1.81828.053992l3.661499.101069c.61311.016071 1.22768.031753 1.843756.047043l3.71487.087015c.622274.013711 1.246144.027025 1.871652.039938l3.773086.072646c.632246.011299 1.266221.022191 1.90197.032674l3.836144.057963 3.880872.047998 3.927754.037895c.658652.005466 1.319347.010505 1.98213.015115l4.002112.022476 5.396244.017573 5.503841.008989 5.298291-.003207 5.139382-.016807 3.361005-.019453 3.324927-.026539 3.302668-.034039 3.294229-.041957 3.29961-.05029 3.318809-.05904 3.351827-.068205 3.398666-.077788 3.459323-.087785 3.533799-.0982 3.622096-.10903 5.079965-.167273 3.583371-.139609 2.282942-.098937 2.382552-.110315 3.331569-.16479 3.508377-.185024 2.747219-.152049 2.028128-.116144.435858-.359687.785799-.667916.906804-.790176.756577-.670952 1.400533-1.263457 1.566741-1.43958 1.015862-.945702 1.07021-1.005528.742652-.702926 1.895185-1.811524c2.634067-2.534668 4.743434-5.840196 6.28859-9.973508l.070482-.664137c.020531-.20107.040743-.40346.060637-.607181l.115571-1.238359.108043-1.270734.10061-1.303562.047547-.664232c.215764-3.092613.456592-11.816516.71436-24.962022l.142231-7.601512c.023969-1.337579.048066-2.709883.072284-4.116002l.146723-8.835233.149349-9.603183.151684-10.327507.153725-11.008206.155474-11.64528.156929-12.23873.158091-12.788554.318498-27.052079.15982-14.176275.319318-29.434897.316935-30.587192.389248-39.322722.450901-47.884308.287122-31.800007.33962-38.998309.128909-15.225497.359124-43.827677.26328-33.754797.057873-7.750255c-1.564433 38.865827-4.035745 78.913441-7.385878 117.415598-11.383466 130.827074-30.781076 227.926378-57.393011 266.927947-.424667.622378-.849892 1.229715-1.276297 1.822189l-.640569.877588c-.641609.866487-1.286573 1.699738-1.936989 2.500362l-.652312.789771c-9.378092 11.164812-20.020334 15.668349-38.1094 15.304597-21.049098-.423274-33.580505-7.866689-44.676206-24.614432l-.677595-1.037017c-27.344893-42.425166-48.979081-141.309386-62.326736-270.478657-12.0258-116.377291-15.590017-244.03432-9.304546-330.666218.075114-1.0353.305298-2.022312.66618-2.939962 3.351374-36.610368 22.606401-69.236279 55.00211-85.7427172l1.612734-.803031c53.360968-25.9563143 120.486783 1.8420876 151.058021 61.8415212 10.215604 20.049252 15.123126 41.287246 15.175526 61.722314l-.022731-.295463c.456579 5.957985.858598 12.272396 1.206438 18.906234l-.087526-7.142438-.052548-3.753384-.087761-5.611219-.099098-5.575839-.072704-3.690484-.078254-3.664129-.084006-3.633525-.089964-3.598667-.146562-5.323344-.10575-3.492924-.112422-3.443186-.119297-3.389197-.126377-3.330956-.133661-3.268464c-.022895-.5393-.046102-1.075819-.069625-1.609468l-.144969-3.166754c-.024806-.521816-.049936-1.040587-.075395-1.556221l-.156737-3.055477-.164836-2.975978-.173141-2.892228c-.118241-1.89929-.242154-3.739912-.372011-5.516197l-.199278-2.615467c-.577445-7.269758-1.264716-13.326236-2.0827-17.734266-5.118804-27.5846649-25.59402-48.9130143-52.041173-62.563158-14.810406-7.6440805-33.990678-13.2369993-55.393339-16.9785219l-2.301548-.3938021c-1.539905-.2578239-3.090757-.5062383-4.651773-.745316l-2.349051-.3516232c-3.534719-.5169582-7.118915-.9868337-10.743676-1.4104557l-2.422419-.2755714c-3.237643-.3583162-6.505772-.6802321-9.798125-.96633l-2.47371-.2078667c-3.304074-.2682253-6.630807-.5007783-9.973939-.6982413l-2.510326-.1415269-2.515888-.1284228c-1.259236-.0609445-2.520339-.1169954-3.782977-.1681835zm-41.823479 206.4519475-.017113 1.386577c-.908199 76.384805 3.318044 167.842124 12.133493 253.151884 13.019984 125.998303 34.212668 222.864525 59.243326 261.699191.177596.275538.354586.546919.531073.814193l.528066.789551c.087796.129555.175493.258096.263104.385629l.524747.753151c.174644.247052.349051.490121.523329.72926l.522547.705668c5.833117 7.749372 11.638991 11.142439 21.402775 12.061046l.885055.075698c.149308.011531.299524.022523.450661.032982l.917989.056418c.309752.016709.623296.031339.940738.043939l.964126.03176.970004.019938.936364.009886.908286.000042.881042-.010135c.289233-.005111.574065-.011975.854634-.020645l.82906-.03149.804323-.042667.780418-.054179.757351-.066023c.124349-.01201.247772-.024527.370285-.037558l.724314-.084416c.118947-.015116.23702-.030761.354237-.046941l.693156-.103558c5.123643-.825693 8.58272-2.763343 11.962482-6.446104l.450304-.501432c.525131-.597198 1.050047-1.237305 1.580717-1.922703l.456407-.598631.46006-.621149.464548-.643999c.077845-.109256.155911-.219478.234217-.330673l.472845-.678901c.079332-.115114.158938-.231216.238836-.348311 23.905885-35.035672 42.925872-130.244694 53.988905-257.38912 3.803098-43.707967 6.463408-89.437089 7.941597-133.080034l.212857-6.530282.195096-6.495909c.96172-33.456174 1.211572-65.413709.731267-93.962748-9.265078 14.636877-22.099916 26.788685-38.167158 34.975354-52.611743 26.807022-119.247081.585188-150.90037-57.674559zm37.006579 244.533523c.537043-2.142867 2.70954-3.444644 4.852148-2.906565 19.498311 4.89153 40.163608 8.072699 61.995891 9.543505 22.4743 1.514058 41.437107 1.459862 56.888423-.162588.226025-.023733.454273-.015316.677937.025001 1.307447.235678 2.176287 1.486627 1.940642 2.794079l-2.948737 16.358447c-.310475 1.720363-1.702087 3.039904-3.436563 3.258163-19.05304 2.397047-36.760273 2.988911-53.121702 1.775591-16.583904-1.229817-36.973422-4.398605-61.168553-9.506363-1.617006-.342356-2.856852-1.644071-3.120267-3.275796l-2.62818-16.294713c-.086366-.53538-.062873-1.082728.068961-1.608761zm136.430103-337.169914c-26.134803-51.292438-82.620518-74.2843439-125.770815-52.29817-43.150296 21.986174-57.750924 81.198381-31.616121 132.490819 26.134802 51.292439 82.620518 74.284344 125.770814 52.29817 28.436941-14.489345 44.474522-45.146267 44.624957-79.049215-.009049-.226923-.009039-.452067-.001598-.675579l-.004128-1.021527c-.190228-17.029026-4.378624-34.817993-13.003109-51.744498zm-32.313287-34.381908c10.871916 9.279599 20.024125 20.712961 26.883513 33.75457 24.589958 46.752368 13.112319 101.995362-26.82719 127.27891-4.666412 2.954055-10.844022 1.565914-13.798076-3.100499-1.084689-1.713444-1.583937-3.630636-1.550416-5.517177l.227819 1.510176c-3.558761-23.294008-5.332453-49.078043-5.332453-77.36038 0-4.055736.036468-8.032859.109475-11.931464l.061606-2.909234c.452223-19.120276 1.801684-36.313926 4.056827-51.592526-.794481-3.053982-.134034-6.43532 2.070704-9.018376 3.585485-4.200731 9.897461-4.699486 14.098191-1.114zm-65.661796-14.529889c.450692.8468.767329 1.729211.957337 2.622912 12.187936 25.649757 18.288941 53.0569 18.288941 82.112853 0 30.479358-6.713419 59.143251-20.122773 85.867135-2.476896 4.936277-8.48646 6.93-13.422737 4.453104-1.629594-.817689-2.938499-2.020379-3.871738-3.442357l-10.864256-6.533055c-.768134-.462113-1.470643-1.025413-2.088647-1.674758-7.345783-7.718315-13.72792-16.336509-18.979653-25.695145-25.670182-45.744494-18.564596-99.49069 16.833349-131.011006.495192-.440947 1.032766-.831331 1.604675-1.165547l.347202-.193745 16.462419-8.762494c.417517-.292056.862739-.55587 1.334318-.787489.727926-.357526 1.478173-.61846 2.236199-.787764 4.361083-1.109229 9.076835.847779 11.285364 4.997356zm67.174897 45.340432-.129674 1.428949c-.181176 2.050379-.34856 4.132648-.502137 6.246783l-.17588 2.525514c-.056463.84683-.110761 1.698652-.162893 2.555463l-.149899 2.585404c-.0239.433395-.047258.868037-.070075 1.303926l-.130396 2.630297c-.14454 3.086134-.262517 6.233351-.353886 9.441586l-.071798 2.764858c-.108799 4.632997-.163266 9.390484-.163266 14.272277 0 20.221779.934436 39.056213 2.798691 56.499944 19.811466-22.201602 23.537695-58.14119 6.780678-90.000954-2.267211-4.3106-4.833964-8.404689-7.669465-12.254047zm-80.953811-26.678335-.86749.461192c.039633.17308.074926.348159.105741.52514 3.830298 21.998332 5.739867 45.867948 5.739867 71.610921 0 19.547009-1.100979 38.013475-3.307674 55.400478 7.57287-19.553346 11.354748-40.173789 11.354748-61.924063 0-23.295867-4.338474-45.294792-13.025192-66.073668zm-18.509089 17.123417-.393519.590369c-16.430168 25.069012-17.449741 59.529291-.608692 90.411862l.628144 1.13542c.675722 1.204144 1.373645 2.393804 2.093279 3.568508 1.178265-12.792971 1.767995-26.203877 1.767995-40.232323 0-19.71139-1.164308-38.203022-3.487207-55.473836z"/></svg>