<?xml version="1.0" encoding="UTF-8"?>
<svg xmlns="http://www.w3.org/2000/svg" id="Icons" viewBox="0 0 60 60" width="512" height="512"><path d="M52,16.169V4a4,4,0,0,0-4-4H12A4,4,0,0,0,8,4V16.169A25.912,25.912,0,0,0,8,43.831V56a4,4,0,0,0,4,4H48a4,4,0,0,0,4-4V43.831a25.912,25.912,0,0,0,0-27.662ZM10,4a2,2,0,0,1,2-2H48a2,2,0,0,1,2,2v9.407a25.964,25.964,0,0,0-40,0ZM30,6A24,24,0,1,1,6,30,24.028,24.028,0,0,1,30,6ZM50,56a2,2,0,0,1-2,2H12a2,2,0,0,1-2-2V46.593a25.964,25.964,0,0,0,40,0Z"/><path d="M30,51A20.96,20.96,0,0,0,50.877,32.282a2.944,2.944,0,0,0-.74-2.277,3.029,3.029,0,0,0-2.25-1H12.113a3.029,3.029,0,0,0-2.25,1,2.945,2.945,0,0,0-.74,2.278A20.96,20.96,0,0,0,30,51ZM11.352,31.341A1.021,1.021,0,0,1,12.113,31H47.887a1.021,1.021,0,0,1,.761.341.928.928,0,0,1,.241.725,19,19,0,0,1-37.778,0A.929.929,0,0,1,11.352,31.341Z"/><path d="M16,24H44a2,2,0,0,0,2-2V18a2,2,0,0,0-2-2H16a2,2,0,0,0-2,2v4A2,2,0,0,0,16,24Zm16-2H28V18h4Zm2-4h4v4H34Zm-8,4H22V18h4Zm18,0H40V18h4ZM16,18h4v4H16Z"/><path d="M27,41h4.132l-2.964,4.445a1,1,0,0,0,1.664,1.11l4-6A1,1,0,0,0,33,39H28.868l2.964-4.445a1,1,0,0,0-1.664-1.11l-4,6A1,1,0,0,0,27,41Z"/></svg>
