<?xml version="1.0" encoding="iso-8859-1"?>
<!-- Generator: Adobe Illustrator 19.0.0, SVG Export Plug-In . SVG Version: 6.00 Build 0)  -->
<svg version="1.1" id="Layer_1" xmlns="http://www.w3.org/2000/svg" xmlns:xlink="http://www.w3.org/1999/xlink" x="0px" y="0px"
	 viewBox="0 0 512 512" style="enable-background:new 0 0 512 512;" xml:space="preserve">
<g>
	<g>
		<path d="M384,372.07v-128c0-70.579-57.421-128-128-128s-128,57.421-128,128v128c-14.14,0-25.6,11.46-25.6,25.6v25.6
			c0,14.14,11.46,25.6,25.6,25.6h256c14.14,0,25.6-11.46,25.6-25.6v-25.6C409.6,383.531,398.14,372.07,384,372.07z M153.6,244.07
			c0-56.559,45.85-102.4,102.4-102.4c56.55,0,102.4,45.841,102.4,102.4v128H153.6V244.07z M384,423.27H128v-25.6h256V423.27z"/>
	</g>
</g>
<g>
	<g>
		<path d="M129.348,117.419l-18.091-18.091C74.172,136.405,51.2,187.605,51.2,244.07c0,38.502,10.88,74.419,29.431,105.224
			l21.922-13.15C86.315,309.188,76.8,277.76,76.8,244.07C76.8,194.662,96.896,149.862,129.348,117.419z"/>
	</g>
</g>
<g>
	<g>
		<path d="M400.751,99.319L382.66,117.41c32.444,32.452,52.54,77.252,52.54,126.66c0,33.69-9.515,65.118-25.745,92.075l21.922,13.15
			C449.92,318.49,460.8,282.564,460.8,244.07C460.8,187.605,437.828,136.405,400.751,99.319z"/>
	</g>
</g>
<g>
	<g>
		<path d="M436.932,63.13l-18.099,18.099c41.728,41.719,67.567,99.319,67.567,162.842c0,43.315-12.237,83.729-33.109,118.374
			l21.922,13.158C498.406,337.101,512,292.198,512,244.07C512,173.483,483.294,109.483,436.932,63.13z"/>
	</g>
</g>
<g>
	<g>
		<path d="M93.158,81.229L75.068,63.13C28.706,109.483,0,173.483,0,244.07c0,48.128,13.594,93.03,36.779,131.533l21.922-13.158
			C37.837,327.791,25.6,287.377,25.6,244.07C25.6,180.548,51.439,122.948,93.158,81.229z"/>
	</g>
</g>
<g>
</g>
<g>
</g>
<g>
</g>
<g>
</g>
<g>
</g>
<g>
</g>
<g>
</g>
<g>
</g>
<g>
</g>
<g>
</g>
<g>
</g>
<g>
</g>
<g>
</g>
<g>
</g>
<g>
</g>
</svg>
