<svg height="960" viewBox="0 0 960 960" width="960" xmlns="http://www.w3.org/2000/svg"><path d="m479.330709 61.7322835c103.210744 0 200.598966 24.1945695 274.413845 67.3224775 76.627164 44.771045 124.120621 107.832791 128.288525 178.698502l.078338 1.494304.030864.292114c.103874 1.071285.165477 2.154884.188428 3.249099v282.943503c0 .446811 0 .891889-.021845 1.335123l-.020447.519161.01563.714668c.008885.488251.015551.976634.026662 1.465145v1.465903c0 72.118639-47.495892 136.308106-126.46953 181.451439-73.970867 42.283622-172.263616 66.048561-276.53047 66.048561s-202.559604-23.764939-276.53047-66.048561c-78.973639-45.143333-126.4695303-109.3328-126.4695303-181.451439 0-.977514.0088907-1.954546.0266619-2.931048l.0170467-.722668-.0218637-.511161c-.0072626-.221617-.0127239-.443695-.0218449-.66622v-282.954617c0-1.318072.0637786-2.621346.1884272-3.906888l.0302814-.284114.0789205-1.502304c4.1253747-70.142591 50.6966182-132.63967 125.9519112-177.322258l2.336614-1.376244c73.814879-43.127908 171.203101-67.3224775 274.413846-67.3224775zm.334645 331.6838585c-200.396521 0-362.85 93.113579-362.85 207.975 0 41.210664 20.912208 79.621786 56.986037 111.937299 64.576445 57.389689 177.286709 95.403842 305.529318 95.403842 200.479364 0 363-92.900914 363-207.5 0-1.839687-.041883-3.673783-.125133-5.501992l.125133.001992.003741-.971613c-6.108525-111.793019-166.143046-201.344528-362.669096-201.344528zm0 41.95c185.586882 0 338.6 76.471139 338.6 179.22625 0 102.75511-153.013118 179.22625-338.6 179.22625-185.586881 0-338.6-76.47114-338.6-179.22625 0-102.755111 153.013119-179.22625 338.6-179.22625zm0 20c-175.957921 0-318.6 71.28802-318.6 159.22625 0 87.938229 142.642079 159.22625 318.6 159.22625 175.957922 0 318.6-71.288021 318.6-159.22625 0-87.93823-142.642078-159.22625-318.6-159.22625zm0 111.188958c23.870156 0 46.517697 4.922594 63.940242 13.875846 20.432279 10.499921 33.557056 26.446129 33.557056 45.949154s-13.124777 35.449233-33.557056 45.949154c-17.422545 8.953252-40.070086 13.875846-63.940242 13.875846s-46.517697-4.922594-63.940241-13.875846c-20.432279-10.499921-33.557056-26.446129-33.557056-45.949154s13.124777-35.449233 33.557056-45.949154c17.422544-8.953252 40.070085-13.875846 63.940241-13.875846zm0 20c-42.800575 0-77.497297 17.83026-77.497297 39.825s34.696722 39.825 77.497297 39.825c42.800576 0 77.497298-17.83026 77.497298-39.825s-34.696722-39.825-77.497298-39.825zm-.334645-484.822817c-198.003782 0-358.9805 94.387507-362.925891 211.7137l-.074109.000586-.002892 215.00328c50.844441-91.498356 195.193559-155.033707 363.337537-155.033707 167.418611 0 311.247219 62.988355 362.674299 153.851108l-.008944-213.820681-.07411-.000586c-3.94539-117.326193-164.922108-211.7137-362.92589-211.7137z"/></svg>