<svg height="960" viewBox="0 0 960 960" width="960" xmlns="http://www.w3.org/2000/svg"><path d="m517.719872 1.68079521c91.26988-4.78325169 177.507542 45.03172999 242.114058 133.74729279 61.957601 85.07816 100.49769 200.970015 107.041166 325.826967 6.543476 124.856953-19.67149 244.142476-72.396591 335.230901-54.979293 94.98279-135.537453 153.539171-226.807333 158.322422-5.008339.262476-10.014244.360097-15.014452.293543l.91355.008253-87.074823 2.550781-3.460844.221304-.461686.026873c-95.226705 4.99062-185.829462-42.241007-254.382302-127.623494-66.229845-82.489198-107.839357-195.477233-115.6631036-317.826316l-.4287163-7.358481-.1969981-3.947206c-5.7322082-122.629641 23.164407-239.743752 79.937815-329.387317 58.107971-91.7508018 141.753044-148.822284 235.590633-155.8121346l2.194941-.1514385.216778-.0307997 75.176619-9.99982332.295784-.05849668c8.833706-1.74704484 17.757905-2.97170855 26.753985-3.66656248l1.800169-.13190445 1.708903-.1123176.934439-.0475946zm-103.929337 53.94354899-3.563836.2326147c-166.383466 12.5382154-290.551692 211.1490661-278.195411 446.9209531l.414691 7.12878c15.009613 234.72287 160.806823 416.821237 328.0335 408.057259l4.133728-.264595 6.141089-.166311c-125.812485-53.237078-221.682517-221.413168-232.265345-423.345541-10.241397-195.417514 62.256949-367.743901 175.301584-438.5631598zm115.417259-14.2566922-4.69067.0705896-4.703401.1878397c-3.112021.1630941-6.208334.4024023-9.288241.7167174-.04247.0041873-.085102.0085526-.127731.0129322l.127731-.0129322c-1.542741.157442-3.081366.3337038-4.615787.5286336l4.488056-.5157014c-1.562702.1605516-3.121178.3404144-4.675335.5394307l.187279-.0237293c-1.570066.199458-3.13573.4184613-4.696897.6568475l4.509618-.6331182c-1.528881.1957796-3.053582.4100948-4.574017.6427953l.064399-.0096771c-1.501942.2293426-2.999723.4766252-4.493258.7417032l4.428859-.7320261c-1.55887.2385829-3.113254.4964924-4.663061.7735666l.234202-.0415405c-145.19284 25.7693397-250.267524 219.715389-238.257998 448.870802 12.507647 238.66011 147.325827 426.063801 302.284033 421.91386l-4.446091.066541c1.576109-.005042 3.154413-.029863 4.734805-.07461l4.543857-.183274 4.696858-.304934c34.015091-2.633268 66.09159-14.392817 95.302822-33.677718-26.12598 14.113997-54.325232 22.46998-84.019232 24.026177-157.037392 8.229981-292.377164-177.047758-304.701287-412.206046-12.324124-235.158287 102.907445-433.5679132 259.944837-441.7978942 33.104844-1.7349513 65.245439 5.1296375 95.472598 19.2482098-24.085342-13.9131113-49.513228-23.112507-75.755808-26.8687871-5.949846-.8515682-11.941095-1.4233602-17.96805-1.7069312l-4.664959-.1617247c-1.557149-.0346518-3.116561-.0500339-4.678131-.0460016zm214.901544 160.953885c-52.851185-84.411675-127.182853-135.590342-206.260475-131.4460595-143.777494 7.5350592-252.83506 195.3140775-241.018965 420.7785845 11.816094 225.464508 139.904483 400.815233 283.681977 393.280174 53.51961-2.804844 102.228357-30.584646 141.68259-75.986498-34.387719 33.046953-75.153048 53.03578-119.792003 55.375209-138.586339 7.263002-257.822842-158.55983-268.836867-368.719949-11.014026-210.160119 90.236082-387.538164 228.822421-394.801166 70.232278-3.680718 135.495088 37.090861 184.221526 105.557925zm67.142954 268.246962c-10.507256-200.490391-122.584818-356.357246-247.817557-349.794077-125.232739 6.56317-220.403806 173.291465-209.89655 373.781857s122.584818 356.357247 247.817557 349.794077c125.23274-6.56317 220.403806-173.291465 209.89655-373.781857z"/></svg>