<?xml version="1.0" encoding="iso-8859-1"?>
<!-- Generator: Adobe Illustrator 19.0.0, SVG Export Plug-In . SVG Version: 6.00 Build 0)  -->
<svg version="1.1" id="Capa_1" xmlns="http://www.w3.org/2000/svg" xmlns:xlink="http://www.w3.org/1999/xlink" x="0px" y="0px"
	 viewBox="0 0 512 512" style="enable-background:new 0 0 512 512;" xml:space="preserve">
<g>
	<g>
		<path d="M331.835,136.874h-151.67c-24.08,0-43.671,19.591-43.671,43.671v70.446c0,4.151,3.365,7.515,7.515,7.515
			c4.15,0,7.515-3.364,7.515-7.515v-70.446c0-15.793,12.849-28.642,28.642-28.642h151.67c15.793,0,28.642,12.848,28.642,28.642
			v287.784c0,15.793-12.849,28.642-28.642,28.642h-5.682v-13.528c0-4.151-3.364-7.515-7.515-7.515c-4.15,0-7.515,3.364-7.515,7.515
			v13.528H200.877v-56.173c0-12.357,10.053-22.411,22.411-22.411h65.425c11.525,0,21.108,8.628,22.29,20.069
			c0.427,4.127,4.123,7.134,8.247,6.701c4.129-0.427,7.129-4.119,6.702-8.247c-1.977-19.128-17.988-33.553-37.24-33.553h-65.425
			c-20.645,0-37.44,16.795-37.44,37.44v56.173h-5.682c-15.793,0-28.642-12.848-28.642-28.642v-170.58
			c0-4.151-3.365-7.515-7.515-7.515c-4.15,0-7.515,3.364-7.515,7.515v170.581c0,24.08,19.591,43.671,43.671,43.671h13.197h125.276
			h13.197c24.08,0,43.671-19.591,43.671-43.671V180.545C375.506,156.465,355.915,136.874,331.835,136.874z"/>
	</g>
</g>
<g>
	<g>
		<path d="M256,178.771c-44.379,0-80.484,36.104-80.484,80.484c0,44.379,36.105,80.483,80.484,80.483
			c44.379,0,80.484-36.104,80.484-80.483C336.484,214.876,300.379,178.771,256,178.771z M256,324.709
			c-36.092,0-65.455-29.363-65.455-65.453c0-36.092,29.363-65.455,65.455-65.455c36.092,0,65.454,29.363,65.454,65.455
			C321.454,295.347,292.091,324.709,256,324.709z"/>
	</g>
</g>
<g>
	<g>
		<path d="M256,215.255c-24.261,0-43.999,19.739-43.999,44s19.738,43.999,43.999,43.999s43.999-19.738,43.999-43.999
			S280.261,215.255,256,215.255z M256,288.224c-15.974,0-28.97-12.996-28.97-28.969c0-15.974,12.996-28.97,28.97-28.97
			s28.97,12.996,28.97,28.97C284.97,275.228,271.974,288.224,256,288.224z"/>
	</g>
</g>
<g>
	<g>
		<path d="M276.402,442.814h-40.804c-4.15,0-7.515,3.364-7.515,7.515s3.364,7.515,7.515,7.515h40.804
			c4.15,0,7.515-3.364,7.515-7.515S280.552,442.814,276.402,442.814z"/>
	</g>
</g>
<g>
	<g>
		<path d="M276.402,467.318h-40.804c-4.15,0-7.515,3.364-7.515,7.515s3.364,7.515,7.515,7.515h40.804
			c4.15,0,7.515-3.364,7.515-7.515C283.917,470.682,280.552,467.318,276.402,467.318z"/>
	</g>
</g>
<g>
	<g>
		<path d="M341.685,87.584c-18.651-29.603-50.653-47.277-85.602-47.277c-35.087,0-67.156,17.781-85.784,47.563
			c-2.201,3.52-1.132,8.156,2.386,10.356c1.239,0.775,2.616,1.145,3.977,1.145c2.504,0,4.953-1.251,6.379-3.53
			c15.863-25.363,43.168-40.505,73.041-40.505c29.756,0,57.003,15.051,72.888,40.26c2.212,3.512,6.853,4.565,10.363,2.352
			C342.845,95.736,343.898,91.095,341.685,87.584z"/>
	</g>
</g>
<g>
	<g>
		<path d="M302.022,111.35c-10.019-15.901-27.208-25.394-45.98-25.394c-18.847,0-36.072,9.55-46.077,25.546
			c-2.201,3.519-1.133,8.156,2.386,10.356c1.239,0.775,2.616,1.145,3.977,1.145c2.504,0,4.953-1.251,6.379-3.53
			c7.24-11.576,19.702-18.487,33.335-18.487c13.579,0,26.015,6.87,33.265,18.376c2.212,3.512,6.851,4.565,10.364,2.352
			C303.182,119.501,304.235,114.861,302.022,111.35z"/>
	</g>
</g>
<g>
	<g>
		<path d="M380.471,59.71C353.288,22.322,306.803,0,256.124,0c-50.881,0-97.464,22.458-124.611,60.075
			c-2.429,3.365-1.669,8.063,1.696,10.491c1.33,0.96,2.868,1.422,4.391,1.422c2.332,0,4.631-1.083,6.1-3.118
			c24.33-33.713,66.357-53.84,112.424-53.84c45.886,0,87.827,20.007,112.19,53.518c2.44,3.357,7.14,4.1,10.497,1.659
			C382.169,67.767,382.911,63.066,380.471,59.71z"/>
	</g>
</g>
<g>
</g>
<g>
</g>
<g>
</g>
<g>
</g>
<g>
</g>
<g>
</g>
<g>
</g>
<g>
</g>
<g>
</g>
<g>
</g>
<g>
</g>
<g>
</g>
<g>
</g>
<g>
</g>
<g>
</g>
</svg>
