<svg height="960" viewBox="0 0 960 960" width="960" xmlns="http://www.w3.org/2000/svg"><path d="m393.843739.66175074 1.227827.06234854 149.510179 8.19092728c39.330866 2.15474464 76.137246 19.07136214 103.318057 46.54769244 27.736674 27.9330046 43.777338 65.033815 44.095377 104.13014l.004821 1.185341v372.394306c0 14.345629-2.114571 28.493183-6.22023 42.087598l-.356787 1.163872-.272983.864024-.000966 185.333493c0 38.346309-15.388746 74.683003-42.201998 102.067618l-.816016.82709-.831333.829837c-19.662486 19.550224-44.409841 33.55296-71.517404 40.314716l-.946566.232935-.958717.229311-.880173.747704c-33.931667 28.588894-76.518945 46.195207-121.711801 49.388488l-1.370272.092351-1.52435.092238-31.845981 1.811604c-109.300583 6.217718-198.739601-77.603097-200.517451-186.892629l-.026972-3.319533v-386.942962c0-29.500233 10.738545-56.862932 29.245063-79.713081l.563179-.691045.190758-.231135.001-145.826841c0-43.61058 16.301018-85.9381229 43.756042-113.2320576l.835379-.8224731.850717-.8213511.952926-.8995064c28.679734-26.8271988 66.952602-41.09514597 107.448675-39.20102006zm-133.952867 342.64603026c-6.072591 11.446234-9.744938 24.215739-9.886617 37.966273l-.004255.826207v386.942962c0 87.087981 69.450816 153.901563 155.655308 150.404278l2.617331-.127552 31.845982-1.811603c31.639368-1.79985 61.110362-12.245487 85.836227-28.758957l-56.016021 2.29858c-.376364 7.514547-6.737252 13.878546-14.460566 14.301129l-49.064071 2.684556c-7.963292.435715-14.478177-5.695044-14.478177-13.623989l.001987-.162134-5.645478.232153c-33.711792 1.38333-65.389893-10.47353-88.914427-32.530404-21.704607-20.459175-36.724047-58.856944-37.022265-92.386597l-.004523-1.014536.000051-225.233833c-.276335-3.449976-.430855-6.87301-.456527-10.245394l-.00383-1.003642zm382.460564 255.162923c-2.86517 4.274636-6.016339 8.388275-9.439177 12.314716.258812.845079.40979 1.73853.435206 2.663345l.003842.279905v134.909224c0 29.956837-11.27703 58.45713-31.100821 79.925602-19.321394 21.003022-45.436471 33.850715-73.384033 35.366686l-.847452.042467-130.218543 5.98752c-29.264866 1.345614-56.709375-10.164942-76.969929-31.451459-18.500437-19.541075-31.222794-55.984978-31.475391-87.76706l-.003831-.961644-.000056-127.368829c-3.201785-3.842169-6.21441-8.213428-9.000592-12.988078l.000648 159.125048c0 28.504106 13.045128 62.163181 30.725836 78.8294 19.40575 18.195015 45.530955 28.082787 73.545879 27.150519l.84951-.031565 153.52927-6.29992c27.672221-1.135502 53.631681-12.429975 72.844914-31.06856 19.283249-18.636522 30.283215-43.197337 30.501286-68.999322l.003305-.782254zm-28.999496 30.483369c-19.962423 14.964923-44.209101 23.928037-69.760726 25.184545l-.891861.040703-147.858553 6.224762c-.932425.287438-1.92304.442181-2.949799.442181-30.869228 0-60.98802-8.018159-82.540949-21.448113l.001255 110.381855c0 27.177109 11.082368 59.218891 25.984469 74.959278 16.156464 16.974561 37.74728 26.131991 60.845634 25.271148l.700407-.029155 130.218544-5.987519c22.869769-1.051565 44.405981-11.551096 60.443684-28.984606 16.274357-17.62458 25.61345-40.984827 25.804279-65.60158l.002983-.769678zm-137.927158 196.247679c0 4.880682-4.075919 9.041328-9.092435 9.281442-5.016516.240113-9.092435-3.540066-9.092435-8.432709 0-4.892642 4.075919-9.053288 9.092435-9.281441s9.092435 3.552027 9.092435 8.432708zm-36.263219-60.299909c6.7377 3.786348 9.848591 9.82842 9.848591 17.957135v10.043506c0 8.132088-3.109201 14.43212-9.845103 18.776472-7.479632 4.832593-18.821266 7.340513-33.925341 8.027771-14.967068.681025-26.66558-1.033803-34.556086-5.32289-7.050619-3.840789-10.683624-9.836027-10.683624-17.727842v-10.163557c0-7.891816 3.633005-14.188557 10.683624-18.614478 7.890506-4.943923 19.589018-7.629612 34.556086-8.190707 15.101861-.566149 26.442269 1.00276 33.921853 5.21459zm123.989846-4.756071c6.7377 3.719028 9.848591 9.658482 9.848591 17.65185v9.876277c0 7.996684-3.109201 14.1941-9.845102 18.47115-7.479633 4.75786-18.821267 7.232691-33.925341 7.91995-14.967068.681024-26.665581-.996738-34.556086-5.209276-7.05062-3.772388-10.683625-9.666349-10.683625-17.428314v-9.996328c0-7.761964 3.633005-13.957429 10.683625-18.314949 7.890505-4.867373 19.589018-7.515997 34.556086-8.077093 15.10186-.566148 26.442268.969636 33.921852 5.106733zm-123.989846-77.727744c6.7377 3.860881 9.848591 9.937365 9.848591 18.066081v10.043506c0 8.128715-3.110891 14.394548-9.848591 18.665526-7.479584 4.749822-18.819992 7.134425-33.921853 7.654526-14.967068.515458-26.66558-1.328779-34.556086-5.705152-7.050619-3.918783-10.683624-9.95421-10.683624-17.846025v-10.163557c0-7.891815 3.633005-14.148369 10.683624-18.496295 7.890506-4.856637 19.589018-7.412917 34.556086-7.808446 15.101861-.39909 26.442269 1.295267 33.921853 5.589836zm123.989846-3.384488c6.7377 3.793561 9.848591 9.767428 9.848591 17.760796v9.876277c0 7.993368-3.110891 14.156581-9.848591 18.36024-7.479584 4.67509-18.819992 7.026568-33.921852 7.546668-14.967068.515458-26.665581-1.291713-34.556086-5.591537-7.05062-3.850382-10.683625-9.784532-10.683625-17.546496v-9.996328c0-7.761965 3.633005-13.917241 10.683625-18.196767 7.890505-4.780088 19.589018-7.299302 34.556086-7.694831 15.10186-.399091 26.442268 1.262142 33.921852 5.481978zm-243.088398-601.6381755c-18.028577 17.2095452-29.778141 46.7629425-30.011329 77.7322805l-.003536.938887v378.481615c0 28.554293 12.729326 62.25398 29.958752 78.917813 18.859788 18.143683 44.215568 27.99034 71.394952 27.062404l.824171-.03142 149.632023-6.29992c26.85718-1.130761 52.067987-12.385196 70.748606-30.979092 18.793549-18.636317 29.528609-43.230279 29.741431-69.087551l.003226-.783936v-372.143337c0-26.057368-10.705105-51.026218-29.614462-70.0411176-18.43632-18.6089729-43.302752-30.1223369-69.823303-31.7744075l-.804154-.0470414-149.632023-8.1854072c-27.559592-1.5076083-53.28006 8.0736046-72.414354 26.2402302zm76.370642-13.8919736.725231.0367823 146.602759 8.0196956c23.902925 1.3075755 46.306699 11.6015509 62.874742 28.3248885 16.503131 16.5728217 26.052711 38.3248747 26.247856 61.1638577l.00305.714068v364.609386c0 22.87853-9.394221 44.61128-25.763494 61.097056l-.513807.513468-.526608.520811c-16.38453 16.077621-38.304773 25.867731-61.692361 27.039336l-.754942.034801-146.602759 6.17238c-24.175032 1.017835-46.898657-7.654545-63.708052-23.825737-15.794504-15.276089-26.175836-44.042559-26.381883-69.601235l-.003124-.773506v-370.819348c0-27.770023 9.865604-54.311769 26.451747-70.1443583 16.653248-15.8109738 39.123491-24.2000608 63.041645-23.0823458zm-49.251499 37.5678951c-12.206564 11.652024-20.078368 32.611356-20.239376 54.959971l-.002517.698838v370.819348c0 20.681339 8.568135 44.66225 20.270053 55.980132 12.716035 12.233207 29.873592 18.868145 48.322271 18.262751l.659425-.024702 146.602759-6.17238c18.871373-.794537 36.587611-8.711542 49.714299-21.795857 12.8431-12.735578 20.197471-29.361566 20.374935-46.781768l.003288-.64555v-364.609386c0-17.672062-7.391569-34.679351-20.440822-47.783756-12.974854-13.096433-30.448828-21.2133717-49.07813-22.4073893l-.699134-.0415268-146.602759-8.0196955c-18.685281-1.0221518-36.067721 5.3926763-48.884292 17.5609706z"/></svg>