<svg height="960" viewBox="0 0 960 960" width="960" xmlns="http://www.w3.org/2000/svg"><path d="m892.794422 392.722767c54.676003 257.230369-83.908282 506.737176-312.958782 555.423363-229.0505 48.686186-457.137105-122.882317-511.8131076-380.112686-54.6760028-257.230369 83.9082816-506.7371757 312.9587816-555.4233625 229.050501-48.6861867 457.137105 122.8823165 511.813108 380.1126855zm-503.49664-340.9867815c-206.145828 43.8176485-332.4683931 271.2484845-282.149346 507.9809905 50.319048 236.732507 258.224908 393.120898 464.370737 349.30325 206.145828-43.817649 332.468393-271.248485 282.149345-507.980991-50.319047-236.732506-258.224908-393.12089791-464.370736-349.3032495zm180.691699 707.8331135c4.113851.483238 7.057044 4.209915 6.573806 8.323766l-.473918 3.96847-.876301 7.079766c-.51795 4.109625-4.269341 7.021252-8.378965 6.503302-4.109625-.51795-7.021252-4.269341-6.503302-8.378966l.766541-6.177982.479329-3.989124c.030061-.254165.059742-.505974.089044-.755426.483238-4.113851 4.209915-7.057044 8.323766-6.573806zm-16.363655-25.74326c4.105575.549132 6.988642 4.322516 6.439511 8.428091l-3.435118 25.406035c-.557212 4.104485-4.336264 6.980119-8.44075 6.422907-4.104485-.557211-6.980119-4.336264-6.422907-8.440749l3.431174-25.376773c.549131-4.105575 4.322516-6.988642 8.42809-6.439511zm42.820221 0c4.105575.549132 6.988642 4.322516 6.439511 8.428091l-3.435118 25.406035c-.557212 4.104485-4.336264 6.980119-8.44075 6.422907-4.104486-.557211-6.980119-4.336264-6.422908-8.440749l3.431175-25.376773c.549131-4.105575 4.322516-6.988642 8.42809-6.439511zm-20.896017-16.212025c4.118033.446199 7.094643 4.146239 6.648445 8.264272l-.407357 3.723013-.579917 5.160189-.456137 3.923047-.383673 3.202845-.8763 7.079767c-.517951 4.109624-4.269342 7.021252-8.378966 6.503301-4.109625-.51795-7.021252-4.269341-6.503302-8.378965l.766541-6.177983.47933-3.989124.358404-3.072192.469986-4.145749.49627-4.501127c.03396-.311916.068095-.626199.102404-.942849.446199-4.118033 4.146239-7.094643 8.264272-6.648445zm42.820221 0c4.118033.446199 7.094643 4.146239 6.648444 8.264272l-.506601 4.618397-.573698 5.075356-.363111 3.112496-.485265 4.038653-.542011 4.389716-.232698 1.854243c-.51795 4.109624-4.269341 7.021252-8.378965 6.503301-4.109625-.51795-7.021252-4.269341-6.503302-8.378965l.766541-6.177983.294419-2.435867.543315-4.625449.469986-4.145749.49627-4.501127c.03396-.311916.068094-.626199.102404-.942849.446199-4.118033 4.146239-7.094643 8.264272-6.648445zm-82.78576-2.854681c4.118032.446198 7.094642 4.146239 6.648444 8.264272l-.604809 5.499637-.56748 4.990535-.363636 3.095735-.602744 4.972739-.447231 3.596066c-.038783.30904-.077944.620423-.117484.934148-.51795 4.109625-4.269341 7.021252-8.378966 6.503302-4.109624-.51795-7.021252-4.269341-6.503301-8.378966l.663853-5.337773.397107-3.276077.273954-2.308682.548196-4.761557.485761-4.359005.304064-2.785929c.446198-4.118033 4.146239-7.094643 8.264272-6.648445zm104.19587-17.128088c4.118033.446198 7.094643 4.146239 6.648445 8.264271l-.506602 4.618398-.573697 5.075355-.363112 3.112497-.284351 2.381078-.410907 3.371318-.564715 4.530215c-.51795 4.109625-4.269341 7.021252-8.378966 6.503302-4.109625-.517951-7.021252-4.269341-6.503302-8.378966l.663854-5.337773.397107-3.276077.273954-2.308683.548196-4.761556.485761-4.359006.304064-2.785929c.446198-4.118033 4.146239-7.094643 8.264271-6.648444zm-82.080215-4.325697c.238768.003024.479558.017428.721796.043675 4.118033.446198 7.094643 4.146238 6.648444 8.264271l-.407357 3.723013-.579916 5.160189-.365892 3.157422-.473919 3.96847-.758815 6.145618c-.038783.30904-.077945.620423-.117485.934149-.467171 3.70672-3.564853 6.43883-7.183291 6.558851l-.236702.004107c-.316529.000494-.636649-.019033-.958973-.059656-4.109624-.517951-7.021252-4.269341-6.503301-8.378966l.76654-6.177983.47933-3.989124.358405-3.072192.567138-5.017552.501522-4.572173c.411202-3.79505 3.585856-6.620702 7.304405-6.691367zm43.542017.043675c4.118032.446198 7.094642 4.146238 6.648444 8.264271l-.506602 4.618397-.573697 5.075356-.363112 3.112497-.589126 4.888502-.670847 5.394109c-.51795 4.109625-4.269341 7.021252-8.378966 6.503302-4.109624-.517951-7.021252-4.269341-6.503301-8.378966l.76654-6.177983.47933-3.989124.450297-3.872899.475246-4.216845.501522-4.572173c.446198-4.118033 4.146239-7.094643 8.264272-6.648444zm-83.507556-2.898356.23942.006834c.160035.007108.320884.019342.482375.03684 4.118033.446199 7.094643 4.146239 6.648445 8.264272l-.604809 5.499637-.567481 4.990535-.458419 3.889427-.507961 4.179047-.564714 4.530215c-.467171 3.70672-3.564853 6.438829-7.183292 6.55885l-.236702.004108c-.316529.000493-.636649-.019033-.958972-.059657-4.109625-.51795-7.021252-4.269341-6.503302-8.378965l.663854-5.337774.397106-3.276076.273955-2.308683.548196-4.761557.485761-4.359005.304064-2.785929c.419951-3.875796 3.722198-6.740504 7.542476-6.692119zm104.795764-14.743687c4.12261.40172 7.138987 4.069413 6.737267 8.192022l-2.11146 21.445366c-.415291 4.121265-4.092896 7.12555-8.21416 6.710259-4.121265-.415291-7.12555-4.092896-6.710259-8.21416l2.10659-21.39622c.401719-4.122609 4.069413-7.138987 8.192022-6.737267zm-42.820221 0c4.12261.40172 7.138987 4.069413 6.737267 8.192022l-1.845379 18.788582-.266081 2.656784c-.415291 4.121265-4.092896 7.12555-8.21416 6.710259-4.121265-.415291-7.12555-4.092896-6.710259-8.21416l1.912587-19.406323.194003-1.989897c.401719-4.122609 4.069413-7.138987 8.192022-6.737267zm-39.965539-2.854681c4.122609.401719 7.138986 4.069413 6.737267 8.192022l-2.049847 20.832909-.061613.612457c-.415291 4.121264-4.092896 7.125549-8.214161 6.710258-4.121264-.415291-7.125549-4.092895-6.710258-8.21416l2.106589-21.396219c.40172-4.12261 4.069413-7.138987 8.192023-6.737267zm22.837451-21.410111c4.122609.40172 7.138987 4.069413 6.737267 8.192023l-2.11146 21.445365c-.415291 4.121265-4.092896 7.12555-8.214161 6.710259-4.040455-.407148-7.007305-3.94993-6.73076-7.972266l.020502-.241894 2.106589-21.39622c.40172-4.122609 4.069413-7.138987 8.192023-6.737267zm42.820221 0c4.122609.40172 7.138986 4.069413 6.737267 8.192023l-2.11146 21.445365c-.415291 4.121265-4.092896 7.12555-8.214161 6.710259-4.121264-.415291-7.125549-4.092896-6.710258-8.21416l2.106589-21.39622c.40172-4.122609 4.069413-7.138987 8.192023-6.737267zm-21.139395-7.487685c4.113851.483238 7.057044 4.209914 6.573806 8.323765l-.374596 3.146704-.410908 3.371318-.564715 4.530215c-.51795 4.109625-4.269341 7.021252-8.378965 6.503302-4.109625-.517951-7.021252-4.269341-6.503302-8.378966l.663854-5.337774.397106-3.276076.273954-2.308683c.483238-4.11385 4.209915-7.057044 8.323766-6.573805zm-24.977814-298.777493c56.229403-10.875674 111.799729 31.455252 125.221827 94.601262 13.557676 63.783847-20.808921 125.657383-77.615471 137.731988s-113.368233-30.471528-126.925908-94.255376 20.808921-125.657384 77.615471-137.731989zm105.658875 98.759495c-11.379197-53.534916-57.850508-88.490994-103.204722-78.850658s-73.589951 60.475887-62.210753 114.010803 57.850508 88.490994 103.204722 78.850658c45.354214-9.640335 73.589951-60.475886 62.210753-114.010803z"/></svg>