<svg id="Layer_5" enable-background="new 0 0 64 64" height="512" viewBox="0 0 64 64" width="512" xmlns="http://www.w3.org/2000/svg"><g><path d="m1 1v5.303l4.465 6.697h4.535v7c0 1.654 1.346 3 3 3h38c1.654 0 3-1.346 3-3v-7h4.535l4.465-6.697v-5.303zm60 2v2h-58v-2zm-45 10v4h-4v-4zm26 4v-4h4v4zm-2 0h-4v-4h4zm-6 0h-4v-4h4zm-6 0h-4v-4h4zm-6 0h-4v-4h4zm29 4h-38c-.551 0-1-.449-1-1v-1h40v1c0 .551-.449 1-1 1zm1-4h-4v-4h4zm5.465-6h-50.93l-2.667-4h56.263z"/><path d="m53.243 36.243c2.339-2.339 2.339-6.146 0-8.485l-1.414 1.414c1.56 1.56 1.56 4.098 0 5.657z"/><path d="m54.657 26.343c1.511 1.511 2.343 3.52 2.343 5.657s-.832 4.146-2.343 5.657l1.414 1.414c1.889-1.889 2.929-4.4 2.929-7.071s-1.04-5.182-2.929-7.071z"/><path d="m57.485 40.485 1.414 1.414c5.458-5.458 5.458-14.34 0-19.799l-1.414 1.414c4.679 4.679 4.679 12.293 0 16.971z"/><path d="m10.757 27.757c-2.339 2.339-2.339 6.146 0 8.485l1.414-1.414c-1.56-1.56-1.56-4.098 0-5.657z"/><path d="m5 32c0 2.671 1.04 5.182 2.929 7.071l1.414-1.414c-1.511-1.511-2.343-3.52-2.343-5.657s.832-4.146 2.343-5.657l-1.414-1.414c-1.889 1.889-2.929 4.4-2.929 7.071z"/><path d="m5.101 41.899 1.414-1.414c-4.679-4.679-4.679-12.292 0-16.971l-1.414-1.414c-5.459 5.459-5.459 14.341 0 19.799z"/><path d="m35.077 45.192c.307 2.237 1.472 3.248 2.435 4.083.896.779 1.488 1.292 1.488 2.725h2c0-2.345-1.208-3.393-2.177-4.235-.978-.848-1.823-1.582-1.823-3.765v-1h-1c-1.729 0-5 1.254-5 6h2c0-2.544 1.189-3.471 2.077-3.808z"/><path d="m54 57c0-1.84-1.304-3.004-2.565-4.13-.425-.379-.838-.753-1.203-1.146 1.291-1.019 2.768-2.633 2.768-4.724 0-1.775-1.037-2.932-2.04-4.052-1.008-1.124-1.96-2.187-1.96-3.948v-1h-1c-.296 0-.638.04-1 .125v-1.125c0-1.719-1.005-3.093-1.978-4.421-1.04-1.421-2.022-2.762-2.022-4.579v-1h-1c-1.053 0-3.039.573-4.162 2.511-1.04-1.143-1.838-2.097-1.838-3.511v-1h-1c-.027 0-1.824.039-3 1.864-1.176-1.825-2.973-1.864-3-1.864h-1v1c0 1.414-.798 2.368-1.838 3.511-1.123-1.938-3.109-2.511-4.162-2.511h-1v1c0 1.817-.982 3.158-2.022 4.579-.973 1.328-1.978 2.702-1.978 4.421v1.125c-.362-.085-.704-.125-1-.125h-1v1c0 1.761-.952 2.824-1.96 3.948-1.003 1.12-2.04 2.277-2.04 4.052 0 2.091 1.477 3.705 2.768 4.724-.365.393-.778.766-1.203 1.146-1.261 1.126-2.565 2.29-2.565 4.13 0 1.647.927 3.003 1.944 4h-10.944v2h62v-2h-10.944c1.017-.997 1.944-2.353 1.944-4zm-42 0c0-.944.879-1.729 1.897-2.639 1.121-1.001 2.465-2.201 2.933-4.002.555.443 1.17 1.433 1.17 3.641h2c0-5.931-3.96-6-4-6h-1v1c0 .368-.064.701-.164 1.015-.861-.715-1.836-1.789-1.836-3.015 0-.961.582-1.659 1.53-2.717.917-1.024 2.022-2.257 2.364-4.103.885.327 2.106 1.244 2.106 3.82h2c0-2.484-.898-4.005-2-4.897v-2.103c0-1.065.738-2.073 1.592-3.24.939-1.284 1.983-2.709 2.307-4.576.637.234 1.434.774 1.834 1.981-.948 1.225-1.733 2.705-1.733 4.835 0 3.738 4.563 4.921 4.757 4.97l.488-1.94c-.033-.008-3.245-.854-3.245-3.03 0-2.251 1.188-3.552 2.447-4.929.985-1.078 1.996-2.184 2.386-3.71.554.444 1.167 1.434 1.167 3.639v2h2v-2c0-2.21.616-3.199 1.167-3.642.389 1.527 1.401 2.635 2.386 3.713 1.259 1.377 2.447 2.678 2.447 4.929 0 2.176-3.212 3.022-3.245 3.03l.245.97.243.97c.194-.049 4.757-1.232 4.757-4.97 0-2.13-.785-3.61-1.733-4.835.401-1.207 1.199-1.747 1.834-1.981.324 1.867 1.368 3.293 2.307 4.577.854 1.166 1.592 2.174 1.592 3.239v2.103c-1.102.892-2 2.413-2 4.897h2c0-2.573 1.216-3.491 2.106-3.819.342 1.845 1.447 3.078 2.364 4.102.948 1.058 1.53 1.756 1.53 2.717 0 1.226-.975 2.3-1.836 3.015-.1-.314-.164-.647-.164-1.015v-1h-1c-.04 0-4 .069-4 6h2c0-2.213.618-3.202 1.169-3.644.467 1.803 1.812 3.004 2.934 4.005 1.018.91 1.897 1.695 1.897 2.639 0 1.819-2.184 3.408-3.249 4h-23.617c.221-.733.706-1.162 1.354-1.725.963-.835 2.128-1.847 2.435-4.084.883.336 2.077 1.261 2.077 3.809h2c0-4.746-3.271-6-5-6h-1v1c0 2.183-.845 2.917-1.823 3.765-.818.71-1.797 1.577-2.086 3.235h-7.836c-.717-.41-3.255-2-3.255-4z"/></g></svg>