<svg height="960" viewBox="0 0 960 960" width="960" xmlns="http://www.w3.org/2000/svg"><path d="m72.9814896 86.2605875c6.8473283-14.0964382 21.2957968-22.8957777 36.9625524-22.5107627l445.962269 10.9596479c10.280203.2526389 20.068209 4.4547729 27.331817 11.7339486 23.452898 23.5031617 36.722932 47.0859117 36.722932 72.7491347 0 9.412059-.809852 19.954739-2.39993 31.723372l-.340105 2.452413c-.117073.823323-.237847 1.652508-.362313 2.487587l-.094712.624072 92.85 166.178 129.540926 224.336657 72.525959 129.149375c6.066259 10.802881 6.784143 23.807037 1.943852 35.212006l-17.040827 40.152559c-5.977586 14.084727-19.466206 23.525507-34.746296 24.319177l-499.415152 25.940368c-16.169272.839856-31.250119-8.15063-38.201127-22.773702l-291.3475998-612.917867c-5.0287858-10.579228-5.1676639-22.831088-.3799762-33.521588l11.368241-25.385985.0442164-.141558c.4936413-1.528958 1.0858358-3.049723 1.7803367-4.555568l.3557934-.751649 3.3476535-6.896225 3.6629282-8.175407c.7946249-1.774034 1.7082317-3.46954 2.7288013-5.078984l.1972705-.308609zm798.8485094 661.1850965-480.849 26.882-15.61 26.714 484.391753-25.16006zm-787.7040004-592.581-2.1014666 4.327872.269468.027195-13.294 29.684374 287.490999 604.805559 17.266-29.548zm24.8353294-51.126933-13.4613294 27.712933 3.1750014 7.435316 292.532 615.398 480.917999-26.886316-67.609704-120.400627-129.667633-224.555002-98.944663-177.086371-9.216.017 272.79161 484.599599c2.703874 4.803294 1.010581 10.886547-3.780569 13.60364-1.636706 1.703829-3.876734 2.834785-6.401379 3.038419l-.279308.018667-433.428695 22.996927c-3.94742.209443-7.637522-1.925188-9.430484-5.427554l-.130889-.265227-218.90442-460.508656-28.864558-62.997511c-1.070083-2.238986-1.324623-4.891556-.443089-7.489893.011233-.031972.022098-.063644.033121-.09526.01768-.051308.036224-.10296.055223-.154584.010733-.028991.021521-.057969.032442-.086897.012174-.03226.024464-.064283.036929-.096294 5.169227-13.274316 5.554746-25.485307 1.31922-37.077518l-.452116-1.212122-.321019-.83366-.3367-.854103c-.057423-.144053-.115499-.288957-.174228-.434712l-.546193-1.334754-.383711-.91533-.604929-1.411193-.640147-1.456977-.675348-1.502707-.710533-1.548376-.493227-1.057595-.508852-1.07785-.792563-1.654717-1.11139-2.277024-.579101-1.168788-.897893-1.790979-.932969-1.836285-.968028-1.881532-1.003069-1.926724-1.038094-1.971855-1.438577-2.699248-1.500772-2.779245-1.16637-2.136849-1.201314-2.181713-1.236241-2.22652-1.702623-3.038291-1.764645-3.117708-1.36416-2.390315-1.399009-2.434853-.254333-.438833zm688.395671 552.178933-410.556 23.061 14.415001 30.325316 413.832999-21.957316zm-26.081-46.331-406.98 22.05 13.23 27.831 408.9-22.968zm-25.129-44.64-404.497 19.05 13.442785 28.278183c.500581-.121244 1.016608-.205108 1.545158-.248335l.279287-.018979 403.41777-21.856869zm-25.664642-45.418911-.279532.014944-401.610826 15.945967 14.148991 29.764234c1.134193-.569472 2.394609-.930461 3.733439-1.030436l.279415-.017005 398.414155-18.762793-14.591279-25.921699c-.031411.002407-.062866.00467-.094363.006788zm-25.442358-45.370089-399.521 12.795 13.734 28.891 400.306-15.895zm-25.847-45.917-396.807 10.047 13.764 28.955 397.826-12.74zm-25.611-45.497-394.021 7.528 13.428 28.248 395.1-10.005zm-26.052-46.279-391.622 4.048 14.231 29.937.12821-.003383 392.17379-7.493617zm-25.591-45.462-389.557.019 14.065 29.588 389.889-4.03zm-25.523-45.34h-385.436l4.242001 9.259316 8.509838 17.9012c1.550612-1.085027 3.42325-1.741372 5.445999-1.797061l.279905-.003856 381.222257-.018599zm-22.411373-40.247239-381.145627.695239 9.015222 19.677319c.42632-.067847.861621-.108751 1.304102-.120912l.279904-.003841 381.698772-.000566-10.325665-18.343834c-.347125-.61665-.621778-1.254395-.826708-1.903405zm-407.576627-101.001761.40949.729299 1.295858 2.330968 1.672941 3.039226.812965 1.490194 1.190082 2.198568 1.154856 2.154549 1.485045 2.804359.719063 1.372915 1.049286 2.02284.679991 1.32423.990702 1.949893.640951 1.275652.932165 1.877105.897066 1.83351.578552 1.198148.838606 1.760978.539595 1.149848.524021 1.130556.756841 1.659703.485108 1.082406.469552 1.063174.454 1.043961.438454 1.024765.422913 1.005585.407376.986422.391846.967277.37632.948149.360799.929037c.05884.153248.117033.305701.174581.457358l.337527.900402c.054962.148478.109278.296161.162947.44305 4.321475 11.827444 5.223079 24.131229 2.766857 36.741795l-.162355.803394 417.264999-.760316.056248-.408224.237079-1.825309c.114716-.905459.223695-1.800124.326939-2.683995l.198841-1.75335.183545-1.724566c.029316-.28503.057995-.568859.086036-.85149l.160602-1.681391.145307-1.652607c.045886-.546071.089223-1.087346.130011-1.623823l.114715-1.59504.09942-1.566256c.015296-.258644.029954-.516088.043975-.772334l.076477-1.52308.061181-1.494297c.062457-1.726555.093685-3.394344.093685-5.003366 0-8.192814-3.347602-17.146013-10.042805-26.859597l-.717122-1.025291c-.364744-.51405-.73876-1.030206-1.12205-1.548468l-.778943-1.039333c-.659423-.868452-1.344604-1.742754-2.055545-2.622907l-.865492-1.058992-.44202-.531603-.902585-1.067417-.927313-1.073035c-1.879356-2.151686-3.907081-4.337073-6.083177-6.556161l-1.100412-1.112353z"/></svg>