<?xml version="1.0" encoding="UTF-8"?>
<svg width="100px" height="100px" viewBox="0 0 100 100" version="1.1" xmlns="http://www.w3.org/2000/svg" xmlns:xlink="http://www.w3.org/1999/xlink">
    <!-- Generator: Sketch 52.6 (67491) - http://www.bohemiancoding.com/sketch -->
    <title>Untitled 2</title>
    <desc>Created with Sketch.</desc>
    <g id="Page-1" stroke="none" stroke-width="1" fill="none" fill-rule="evenodd">
        <g id="icon" transform="translate(4.000000, 3.000000)">
            <polygon id="Window" stroke="#000000" stroke-width="6" points="28.6080104 0 0.04694592 94 63.3919896 94 91.9530541 0"></polygon>
            <polygon id="Window" stroke="#9B9B9B" stroke-width="2.1" points="34.2543422 6.05 8.4545815 87.95 57.768607 87.95 83.5683677 6.05"></polygon>
            <polygon id="Path" fill="#D8D8D8" fill-rule="nonzero" points="35.4944336 7.97636719 80.7243164 7.97636719 79.6990234 10.9944336 34.5513672 10.9944336"></polygon>
            <polygon id="Path-Copy" fill="#D8D8D8" fill-rule="nonzero" points="34.3930664 11.9763672 79.6229492 11.9763672 78.5976562 14.9944336 33.45 14.9944336"></polygon>
            <polygon id="Path-Copy-2" fill="#D8D8D8" fill-rule="nonzero" points="33.2930664 15.9763672 78.5229492 15.9763672 77.4976563 18.9944336 32.35 18.9944336"></polygon>
            <polygon id="Path-Copy-3" fill="#D8D8D8" fill-rule="nonzero" points="32.1930664 19.9763672 77.4229492 19.9763672 76.3976563 22.9944336 31.25 22.9944336"></polygon>
            <polygon id="Path-Copy-4" fill="#D8D8D8" fill-rule="nonzero" points="30.9430664 23.9763672 76.1729492 23.9763672 75.1476563 26.9944336 30 26.9944336"></polygon>
            <polygon id="Path-Copy-5" fill="#D8D8D8" fill-rule="nonzero" points="29.4944336 27.9763672 74.7243164 27.9763672 73.6990234 30.9944336 28.5513672 30.9944336"></polygon>
        </g>
    </g>
</svg>