<svg height="960" viewBox="0 0 960 960" width="960" xmlns="http://www.w3.org/2000/svg"><path d="m92.4271116 133.091058c23.1004324-1.561374 42.6974734 16.755802 42.6974734 39.908942l-.000585 6.446 18.741.751.097139-.321857c5.253738-16.893643 21.390671-28.891099 39.974156-28.059846l.68938.036668 586.907325 36.179035.301172-.334098c8.075203-8.847417 20.035439-14.023551 32.977037-12.909939l.706861.066996 27.512609 2.847863c12.029459 1.245184 22.354988 7.736649 28.799498 17.060164l.047823.069014 45.49004 3.844239c20.5048 1.732678 36.31308 18.727335 36.63196 39.235431v404.290359c0 20.234242-15.110338 37.281755-35.198259 39.710745l-39.890741 4.823226.001236 60.035844c.000201 20.189498-15.036497 37.179035-35.005543 39.687439l-.606622.071568-754.1439701 83.228757c-2.5850876.285295-5.1918378.31779-7.7832337.097022l-39.7682656-3.387955c-20.7002096-1.763502-36.6046016-19.080438-36.6046016-39.855631v-650.224088c0-21.044379 16.3060545-38.489776 37.3025269-39.908942zm-7.6551116 40.637089-39.772 3.382636v649.501261l39.77 3.387103 754.142236-83.227904-.000952-95.490642.088716-.011454v-419.074l-.088716-.007034.000952-14.698876-27.428236-2.83909.00035 505.542512-599.19235 60.630488-107.179754 11.350832-.000246-.504832-20.3393382 2.058536zm20 44.533v553.340853l.34-.034853v-553.292zm20.34.816v550.466l85.069-8.608 575.716-60.964147v-3.653853l-609.855524 62.57839c-11.673234 1.197787-21.836315-7.858479-22.041476-19.540733l-.001-519.119657zm68.887-13.417v508.264l326.786-30.614 265.112-27.203v-67.215l-59.719745 4.042118c-5.676389.384124-10.508254-4.033376-10.67093-9.683294l-.004219-.278843-.476622-316.778403c-.008581-5.711167 4.759601-10.269591 10.464606-10.004247l60.40691 2.808669v-18.645zm676.001 39.174v18.049l17.328004.799811c5.23308.241214 9.375862 4.474697 9.534816 9.67958l.004688.279745.8971 298.33723c.015812 5.273906-4.066826 9.653569-9.328865 10.007521l-18.435743 1.239113v64.295l44-5.320118v-394.795882zm-645.235117-2.062691c.016692-5.701851 4.790128-10.235669 10.485284-9.958941l63.449303 3.083002c5.337026.259326 9.527275 4.668545 9.514673 10.011852l-.866269 366.479262c-.012395 5.243931-4.073497 9.587599-9.304755 9.952167l-63.677925 4.437737c-5.794118.403794-10.712177-4.196932-10.695218-10.005079zm98.313131 4.778512c.011707-5.703672 4.784072-10.242335 10.481149-9.96789l63.455109 3.056811c5.335344.257019 9.526748 4.661737 9.51883 10.003262l-.526816 354.893018c-.007792 5.248877-4.072464 9.598439-9.308793 9.96124l-63.672118 4.411547c-5.789227.401108-10.703088-4.193518-10.691198-9.996611zm98.322135 4.738001c.00668-5.705515 4.777982-10.249068 10.477006-9.976907l63.460916 3.030622c5.333634.254711 9.526178 4.654886 9.522987 9.994597l-.205366 343.387936c-.003142 5.253846-4.071395 9.60935-9.312823 9.970381l-63.666312 4.385357c-5.784306.398425-10.693957-4.190063-10.687175-9.988071zm98.331139 4.697493c.00161-5.707384 4.771857-10.255872 10.472857-9.985994l63.466723 3.004432c5.331894.252405 9.525565 4.647994 9.527142 9.985859l.098085 331.964015c.001553 5.258841-4.070292 9.620333-9.316848 9.979592l-63.660505 4.359167c-5.779358.395743-10.684786-4.186568-10.683153-9.979458zm-274.998288-3.689462-1.033 352.781 43.669-3.043.822-347.626zm371.943472 8.280673c-.003431-5.70925 4.765786-10.262647 10.468761-9.99502l63.472447 2.978613c5.330151.250132 9.524917 4.64116 9.531232 9.977173l.379623 320.781575c.006222 5.26379-4.069175 9.631234-9.320814 9.988743l-63.654782 4.333348c-5.774451.393101-10.675704-4.183081-10.679184-9.970895zm-273.620472-3.514673-.7 341.151 43.664-3.025.499-336.032zm98.332 4.726-.386 329.602 43.659-3.008.194-324.519zm98.34 4.685-.09 318.134 43.655-2.989-.092-313.088zm96.954 4.578.185 306.909 43.65-2.972-.358-301.897zm98.359 4.604.445 295.603 43.645-2.954-.608-290.627zm134.959 6.249147v280.276l7.736-.519147-.84-279.438z"/></svg>