<?xml version="1.0"?>
<svg xmlns="http://www.w3.org/2000/svg" id="outline" viewBox="0 0 512 512" width="512" height="512"><path d="M491.99805,233.07031q-13.8706-8.00217-27.998-15.48883V176H448v33.2962q-11.91906-6.02133-24-11.68115V160H408v30.30536q-11.93006-5.31-24-10.27051V96a8.00008,8.00008,0,0,0-8-8H344a8.00008,8.00008,0,0,0-8,8v65.87939q-11.94543-4.13542-24-7.93328V120H296v29.05939q-11.95312-3.52744-24-6.72266V104H256v34.24634q-11.96118-2.94342-24-5.565V96H216v33.34991q-11.96667-2.37735-24-4.42755V88H176v34.33685q-11.97363-1.82556-24-3.33441V80H136v37.13971q-11.97912-1.28347-24-2.24255V72H96v41.75769q-11.98534-.74779-24-1.17755V64H56v48.14893Q47.93786,112.00445,39.86719,112H24a8.00008,8.00008,0,0,0-8,8V416a8.00008,8.00008,0,0,0,8,8H177.37622A23.986,23.986,0,0,0,216,449.86926,23.98773,23.98773,0,0,0,254.62378,424H336v24a8.00008,8.00008,0,0,0,8,8H488a8.00008,8.00008,0,0,0,8-8V240A8,8,0,0,0,491.99805,233.07031ZM424,312V248h24v64Zm-16,0h-8a7.9992,7.9992,0,0,0-7.76074,6.05957L384,351.0166V248h24Zm-1.75391,16h51.50782l20.00024,80h-91.5083Zm65.51465-9.94043A7.9992,7.9992,0,0,0,464,312V248h16V351.0166ZM448,227.25854V232H424V215.31824Q436.08166,221.10519,448,227.25854Zm-40-19.4096V232H384V197.3573Q396.07178,202.42328,408,207.84894ZM368,232H352V184.65454q8.02808,3.00915,16,6.17273ZM352,104h16v69.63849q-7.97351-3.1008-16-6.05383Zm-16,74.82458V232H312V170.73724Q324.05384,174.61267,336,178.82458ZM336,376H312V248h24ZM72,376V248H96V376Zm40-128h24V376H112Zm40,0h24V376H152Zm40,0h24V376H192Zm40,0h24V376H232Zm40,0h24V376H272Zm24-82.24567V232H272V158.90186Q284.04652,162.1615,296,165.75433ZM256,154.7312V232H232V149.06018Q244.03992,151.72775,256,154.7312Zm-40-9.0578V232H192V141.15625Q204.033,143.2497,216,145.6734Zm-40-7.15533V232H152V135.132Q164.02564,136.665,176,138.51807Zm-40-5.27869V232H112V130.94379Q124.02051,131.92587,136,133.23938ZM96,129.7868V232H72V128.59106Q84.01392,129.02759,96,129.7868ZM32,128h7.86719q8.07055,0,16.13281.1524V232H32ZM56,248V376H32V248ZM200,440a8,8,0,1,1,8-8A8.00917,8.00917,0,0,1,200,440Zm40-8a8,8,0,1,1-8-8A8.00917,8.00917,0,0,1,240,432ZM32,408V392H336v16ZM352,248h16V440H352ZM480,440H384V424h96Z"/></svg>
