<svg height="960" viewBox="0 0 960 960" width="960" xmlns="http://www.w3.org/2000/svg"><path d="m221.731831 14.8806584c7.727292-5.74811964 17.269045-8.51529735 26.872723-7.79328469l506.404337 38.07190899c20.869205 1.5689646 37.001229 18.9593335 37.001229 39.8874338v61.0198625c0 33.385779-26.131146 69.589078-55.800764 79.218946l-.744356.233475.000208 653.33804c0 20.665977-15.732963 37.89195-36.239955 39.822966l-.622874.053821-488.313046 38.416367c-23.256145 1.829599-43.137171-16.548784-43.137171-39.876787v-841.6940119c0-12.6456703 5.979748-24.5465959 16.126048-32.0941491zm-9.397327 163.2686936c-1.622764.983318-3.413833 1.450713-5.182084 1.449078l-.000258 737.674977 488.313046-38.416367v-684.56803l1.077513-.283273 3.173652-.827979 2.066695-.533779 2.027437-.519207 2.967547-.751477 2.879216-.718661 2.790886-.685826 2.702555-.652974 2.614225-.620104 2.525893-.587215 2.437564-.55431c6.079189-1.369006 13.855561-7.713043 19.866473-16.075584l-491.259392-32.438437c-6.295271 14.248398-19.471543 27.275263-39.000968 39.109168zm42.998445-10.516698c.518893-.054791 1.049125-.069626 1.587448-.041438l46.477765 2.433535 155.27366 7.72531 113.96834 6.37269 66.849496 3.500951c.755347.039552 1.487493.162203 2.187763.358815l21.175847 1.184773c5.29767.296231 9.441701 4.678458 9.441701 9.984403v639.510865c0 5.213604-4.005539 9.552387-9.202538 9.968152l-408.328225 32.666635c-5.818657.465498-10.797462-4.130904-10.797462-9.968152v-693.751658c0-5.718 4.78598-10.271783 10.496916-9.987646zm393.633213 40.789097.000579 457.547396c0 4.341029-2.772185 8.057633-6.6723 9.432478l.000528 143.260933c0 5.120504-3.863761 9.397152-8.925283 9.942143l-.277255.026009-369.127269 29.530041.000838 2.336249 388.328-31.067v-620.822zm-26.672 468.281-358.329 15.587v145.807l358.328838-28.666751zm-355.948-488.498-2.329162 484.064249 364.949-15.875-.000838-449.090249-57.302-3.205-269.148-14.094zm-30.741-133.7910004-28.453 21.1656445.000275 82.1847339c19.156435-12.687918 28.254894-25.503575 28.450133-38.269165l.003213-.420187zm20-6.687.000621 71.3480264-.001621.202974 492.318932 32.508798c1.202005.079369 2.340335.367997 3.381806.828007.457267-2.193568.70522-4.38727.70522-6.547977v-61.0198625z"/></svg>