<?xml version="1.0" encoding="iso-8859-1"?>
<!-- Generator: Adobe Illustrator 19.0.0, SVG Export Plug-In . SVG Version: 6.00 Build 0)  -->
<svg version="1.1" id="Capa_1" xmlns="http://www.w3.org/2000/svg" xmlns:xlink="http://www.w3.org/1999/xlink" x="0px" y="0px"
	 viewBox="0 0 512.001 512.001" style="enable-background:new 0 0 512.001 512.001;" xml:space="preserve">
<g>
	<g>
		<path d="M211.071,358.455l-20.531-92.426c-0.895-4.029-4.885-6.573-8.914-5.674c-4.028,0.895-6.568,4.886-5.674,8.913
			l20.531,92.426c0.774,3.483,3.862,5.854,7.287,5.854c0.537,0,1.081-0.058,1.627-0.18
			C209.425,366.473,211.965,362.482,211.071,358.455z"/>
	</g>
</g>
<g>
	<g>
		<path d="M245.713,359.524l-6.842-92.427c-0.305-4.114-3.874-7.194-8.003-6.899c-4.115,0.305-7.204,3.887-6.899,8.003l6.843,92.426
			c0.291,3.927,3.567,6.92,7.443,6.92c0.185,0,0.372-0.007,0.559-0.02C242.929,367.223,246.018,363.64,245.713,359.524z"/>
	</g>
</g>
<g>
	<g>
		<path d="M280.134,260.198c-4.113-0.296-7.698,2.784-8.003,6.899l-6.843,92.426c-0.305,4.115,2.784,7.698,6.899,8.003
			c0.188,0.014,0.374,0.02,0.559,0.02c3.875,0,7.152-2.992,7.443-6.92l6.843-92.426
			C287.338,264.085,284.249,260.502,280.134,260.198z"/>
	</g>
</g>
<g>
	<g>
		<path d="M329.354,260.355c-4.03-0.898-8.019,1.645-8.914,5.674l-20.531,92.426c-0.895,4.028,1.646,8.018,5.674,8.913
			c0.546,0.122,1.091,0.18,1.627,0.18c3.425,0,6.513-2.371,7.287-5.854l20.531-92.426
			C335.923,265.241,333.382,261.25,329.354,260.355z"/>
	</g>
</g>
<g>
	<g>
		<path d="M256,0C168.077,0,96.547,71.53,96.547,159.453c0,16.534,2.531,32.849,7.525,48.503c0.011,0.049,0.033,0.095,0.046,0.144
			c0.009,0.035,0.019,0.071,0.028,0.106c0.021,0.079,0.039,0.158,0.063,0.236c0.048,0.155,0.106,0.309,0.165,0.462
			c0.033,0.088,0.064,0.176,0.101,0.262c0.018,0.044,0.031,0.088,0.05,0.132c1.671,3.751,3.322,7.473,4.958,11.18
			c26.554,60.148,48.96,116.217,58.809,181.091c1.57,10.342,8.446,18.572,17.631,22.117v55.094c0,18.318,14.903,33.221,33.22,33.221
			h73.714c18.317,0,33.22-14.903,33.22-33.221v-55.094c9.185-3.546,16.061-11.775,17.631-22.117
			c9.843-64.832,32.224-120.867,58.754-180.966c1.654-3.748,3.324-7.512,5.014-11.305c0.126-0.282,0.227-0.568,0.316-0.856
			c0.024-0.078,0.042-0.157,0.063-0.236c0.01-0.036,0.02-0.073,0.029-0.109c5.023-15.696,7.57-32.059,7.57-48.644
			C415.453,71.53,343.923,0,256,0z M311.134,469.039h-57.637c-4.126,0-7.471,3.345-7.471,7.471c0,4.126,3.345,7.471,7.471,7.471
			h56.872c-2.247,7.55-9.243,13.074-17.512,13.074h-73.714c-8.269,0-15.264-5.524-17.512-13.074h17.098
			c4.126,0,7.471-3.345,7.471-7.471c0-4.126-3.345-7.471-7.471-7.471h-17.863v-16.271h17.863c4.126,0,7.471-3.345,7.471-7.471
			c0-4.127-3.345-7.471-7.471-7.471h-17.863v-12.247h110.267v12.247h-57.639c-4.126,0-7.471,3.345-7.471,7.471
			c0,4.127,3.345,7.471,7.471,7.471h57.64V469.039z M388.368,215.529c-0.074,0.168-0.151,0.34-0.225,0.509
			c-0.004,0.009-0.007,0.019-0.011,0.029c-26.682,60.533-49.166,117.188-59.197,183.259c-0.896,5.901-5.447,10.333-11.146,11.16
			c-0.058,0.007-0.116,0.006-0.174,0.014c-0.335,0.045-0.634,0.077-0.912,0.099c-0.279,0.017-0.557,0.038-0.841,0.038H196.139
			c-0.283,0-0.561-0.021-0.84-0.038c-0.279-0.023-0.578-0.055-0.912-0.099c-0.057-0.008-0.114-0.007-0.171-0.014
			c-5.702-0.826-10.253-5.258-11.15-11.16c-10.031-66.068-32.515-122.724-59.197-183.259c-0.004-0.01-0.007-0.019-0.011-0.029
			c-0.075-0.169-0.152-0.342-0.227-0.512c-0.11-0.25-0.219-0.499-0.33-0.749c1.186,0.097,2.374,0.178,3.56,0.272
			c2.514,0.199,5.03,0.389,7.546,0.576c3.264,0.244,6.528,0.479,9.794,0.703c2.531,0.173,5.063,0.34,7.595,0.502
			c3.261,0.208,6.522,0.405,9.785,0.594c2.532,0.146,5.064,0.29,7.598,0.424c3.285,0.174,6.572,0.334,9.859,0.489
			c2.503,0.118,5.006,0.237,7.51,0.343c3.353,0.142,6.708,0.266,10.063,0.388c2.434,0.088,4.867,0.182,7.301,0.259
			c3.511,0.112,7.023,0.201,10.535,0.29c2.273,0.058,4.546,0.125,6.819,0.173c3.898,0.083,7.797,0.138,11.697,0.193
			c1.89,0.027,3.779,0.066,5.669,0.086c11.583,0.123,23.168,0.122,34.751,0c1.842-0.02,3.684-0.058,5.526-0.084
			c3.951-0.055,7.902-0.112,11.852-0.196c2.222-0.047,4.443-0.113,6.665-0.169c3.567-0.09,7.135-0.181,10.701-0.294
			c2.392-0.076,4.782-0.168,7.174-0.255c3.395-0.123,6.79-0.248,10.184-0.392c2.476-0.105,4.95-0.223,7.425-0.339
			c3.314-0.156,6.628-0.317,9.94-0.493c2.515-0.134,5.029-0.276,7.542-0.421c3.276-0.189,6.551-0.387,9.825-0.596
			c2.526-0.161,5.05-0.328,7.575-0.501c3.275-0.224,6.548-0.461,9.821-0.705c2.502-0.187,5.003-0.375,7.503-0.573
			c1.194-0.095,2.39-0.176,3.584-0.274C388.588,215.028,388.479,215.278,388.368,215.529z M394.954,199.24
			c-2.486,0.214-4.974,0.416-7.462,0.619c-2.736,0.223-5.47,0.454-8.208,0.663c-3.146,0.24-6.296,0.456-9.445,0.678
			c-2.705,0.191-5.409,0.39-8.115,0.567c-3.195,0.209-6.393,0.392-9.59,0.582c-2.665,0.158-5.33,0.327-7.996,0.472
			c-3.261,0.177-6.525,0.328-9.788,0.485c-2.605,0.126-5.209,0.264-7.815,0.377c-3.361,0.146-6.723,0.263-10.086,0.389
			c-2.512,0.094-5.023,0.201-7.536,0.283c-3.533,0.115-7.068,0.2-10.603,0.292c-2.343,0.061-4.685,0.137-7.028,0.188
			c-3.924,0.085-7.848,0.137-11.773,0.194c-1.956,0.028-3.912,0.073-5.869,0.094c-5.88,0.064-11.761,0.097-17.642,0.097
			c-0.014,0-0.028,0-0.042,0c-5.866,0-11.733-0.033-17.599-0.097c-1.984-0.022-3.967-0.067-5.951-0.096
			c-3.896-0.057-7.793-0.108-11.689-0.193c-2.37-0.051-4.738-0.129-7.107-0.19c-3.507-0.092-7.015-0.175-10.521-0.289
			c-2.537-0.083-5.072-0.191-7.609-0.285c-3.337-0.124-6.676-0.241-10.012-0.386c-2.627-0.114-5.253-0.253-7.879-0.38
			c-3.242-0.157-6.484-0.306-9.724-0.482c-2.683-0.146-5.364-0.316-8.046-0.475c-3.181-0.189-6.362-0.371-9.541-0.579
			c-2.717-0.178-5.432-0.378-8.148-0.569c-3.139-0.221-6.278-0.436-9.415-0.676c-2.742-0.209-5.481-0.441-8.221-0.664
			c-2.485-0.203-4.97-0.404-7.453-0.618c-3.689-12.901-5.556-26.261-5.556-39.787c0-79.683,64.827-144.51,144.51-144.51
			s144.51,64.827,144.51,144.51C400.51,172.98,398.643,186.34,394.954,199.24z"/>
	</g>
</g>
<g>
</g>
<g>
</g>
<g>
</g>
<g>
</g>
<g>
</g>
<g>
</g>
<g>
</g>
<g>
</g>
<g>
</g>
<g>
</g>
<g>
</g>
<g>
</g>
<g>
</g>
<g>
</g>
<g>
</g>
</svg>
