<svg height="960" viewBox="0 0 960 960" width="960" xmlns="http://www.w3.org/2000/svg"><path d="m888.831785 305c1.042273 0 2.097001.031282 3.270706.117335 2.497085.183079 4.94094.534869 7.992869 1.38247 5.441453 1.511235 10.400895 3.748325 14.953485 6.652667 3.115263 1.987394 5.239237 3.679015 8.008432 6.100043 5.103195 4.461576 9.510191 9.573578 13.124601 15.267813 2.340392 3.687112 4.061179 7.732607 5.09405 11.975885 5.283375 21.705348 7.876642 42.978724 7.716994 63.792319-.170421 20.943245-3.137067 41.831152-8.863217 62.582507-4.294037 15.56143-17.521155 27.016473-33.536407 29.043438l-828.154298 104.814523-.3018654.105071c-3.6584682 1.242062-7.5400047 1.979068-11.5590619 2.13494l-.5750773.018307c-8.5181431.212014-15.9670515-2.112583-22.3031091-5.903689-3.7523761-2.245191-6.7711054-4.793485-9.4324873-7.607145-15.4873238-16.373472-28.77859756-57.262223-32.29351875-99.365078l-.15274587-1.888146-.14104112-1.866615-.1291445-1.845273c-.02052204-.305777-.04054039-.610673-.06005105-.914692l-.1109398-1.813612c-.01746393-.300524-.03441219-.600178-.05084077-.898967l-.09230338-1.782375c-.01433388-.295341-.02814009-.589825-.04141463-.883455l-.07323524-1.751562-.0602833-1.731255c-.01791446-.573722-.03363828-1.14409-.04713949-1.711137l-.03380381-1.691207-.02027624-1.671466c-.17258919-21.32461 3.04409368-37.818796 11.47499015-51.274215 2.2933147-3.660051 5.2573243-7.28326 8.9893139-10.547961 3.1386957-2.745694 6.7114377-5.160125 11.0089837-7.093106l.2680512-.119362.2541239-.121179c3.6265837-1.706843 7.5713084-2.892145 11.7503329-3.448662l.6617809-.08263 102.4256763-11.940606c1.960194-.228516 3.925188-.310654 5.879528-.249656l.280558.010733.08023-.022733c1.783634-.490732 3.61172-.860442 5.47341-1.101611l.508558-.062581 723.095785-84.297968c.734251-.085598 1.470733-.150826 2.208599-.195608 1.190855-.072275 2.310449-.114499 3.511203-.114499zm-836.692875 139.188188c-1.2763925-1.627579-2.734731-1.065349-3.8274834-.141258l-.2135137.189102c-.0347192.03214-.0689915.064547-.1027969.097154l-.1970652.197483-.094025.099516-.1784265.198553-.1647841.195203-.1501681.188604-.195718.263426-.1093697.15789-.0913469.139918c-1.2748712 2.018502-2.3223664 4.545265-3.1424858 7.580289l-.2087863.803275c-.2715047 1.086406-.5155007 2.234303-.7319881 3.443691l-.1572077.91857-.1468919.94163c-.0236224.15886-.0468149.31868-.0695776.479462l-.1314184.976218-.1211026.999277-.1107869 1.022337-.1004712 1.045395-.0901554 1.068455-.0798397 1.091513-.069524 1.114573-.0592083 1.137632-.0488925 1.160691c-.0072891.19537-.0141484.391701-.0205779.588993l-.0334189 1.195279-.0231033 1.218339-.0127874 1.241398-.0024718 1.264457.007844 1.287516.0181597 1.310575.0284754 1.333634.0387912 1.356693.0491069 1.379752c.0090441.231881.018518.464722.0284218.698524l.0645805 1.414341.0748962 1.4374c.0133423.241488.0271145.483937.0413165.727347l.0903698 1.471989.1006855 1.495048.1110013 1.518107.121317 1.541166.1680324 1.973568c1.5224021 17.071813 4.7044072 32.11368 8.2842215 44.158215l.5019638 1.661083c.5042916 1.641435 1.015186 3.223637 1.529255 4.743976l.5150003 1.499621.516355 1.457796c.0861298.239448.1722842.477129.2584475.71303l.5169588 1.393963c.7752163 2.058625 1.5485773 3.971162 2.3085135 5.728739l.5045084 1.148665.499769 1.102166c.6628603 1.438297 1.3110507 2.751043 1.9364456 3.932008l.4646451.860918.455335.810915c1.201136 2.095253 2.294839 3.650922 3.2161044 4.61717.6124896.642395 1.1400955.971257 1.5891143 1.005105.252609-.163148.4703083-.458328.6557196-.878373l.5554615-.069425c.5735439-1.210967.8522819-3.551945.8888048-6.868238l.0039554-.94694c-.0003668-.16197-.0012432-.326003-.0026238-.492084l-.0142935-1.020933-.0261455-1.069338-.0377465-1.117005-.0490964-1.163933-.0601951-1.210122-.0710428-1.255573-.0816393-1.300286-.0919848-1.344258-.1020791-1.387494-.1119224-1.42999-.1857905-2.223051-.2065254-2.314512-.1487846-1.59259-.2392003-2.461409-.1697832-1.688213-.3631953-3.486558-.3930267-3.628477-.4208493-3.764486-.3326871-2.909066-.7036302-6.022345-.2311147-2.025747-.2218309-2.011367-.2130187-1.996287-.3040367-2.964617-.1930515-1.955511-.1858899-1.937972-.3521816-3.820516-.2488448-2.814124-.390331-4.585536-.7841786-9.578708-.4741259-5.688404-.2717458-3.094178-.2070879-2.241715-.2116666-2.171438-.1444408-1.407412-.2228348-2.049041-.1533601-1.323619-.1577532-1.288873c-.0266845-.211877-.0535717-.422278-.0806714-.631187l-.165227-1.235437c-.0279891-.202884-.0562104-.404247-.0846736-.604074l-.1737621-1.180421c-.0294705-.193627-.0592027-.385689-.0892063-.576171l-.1833583-1.123825c-.8716076-5.154973-1.9714557-9.048725-3.5152303-11.360062l-.5310326-.785956-.5041482-.727493-.4772638-.669031c-.0773036-.106633-.1534871-.21083-.2285503-.312592l-.4369373-.581337zm31.8351894-5.444188-10.7486356 1.253466c2.2189541 4.455136 3.5567851 9.595879 4.6262072 16.108429l.1928195 1.20907.1248207.822355.2419285 1.692558.1757725 1.31891.1149918.90647.1135584.930486.1682472 1.444994.1665579 1.509918.16579 1.581376.1659435 1.659368.2230896 2.345103.2848769 3.166285.2353756 2.739826 1.1774918 14.289246.5573936 6.494353.3235372 3.538118.2173404 2.282897.2197819 2.231115.2231854 2.186958.2275509 2.150427.2328785 2.121522.239168 2.100242.6013197 5.137612.4452213 3.882075.4117778 3.678827.5210881 4.823688.3959743 3.845788.3499506 3.593366.1579388 1.706218.1931175 2.184911.1318528 1.573322.195284 2.502675.1650528 2.359996.0846921 1.350742.0963776 1.728336.0776621 1.648948.0460915 1.187004.0249889.768598.0351068 1.409801c.0523612 2.615667.0257124 4.933483-.1227005 7.058812l10.2155324-1.293211-.0019637-.876027c-.0014726-.188637-.0035148-.380536-.0061299-.575679l-.0282194-1.440093-.0296636-1.029628-.0380181-1.070862-.0820828-1.879103-.1057096-2.001007-.1295987-2.127513-.1210556-1.796189-.136647-1.882455-.1929389-2.477972-.2177729-2.621049-.2428694-2.768728-.3249401-3.523892-.4258552-4.398972-.405616-4.026298-.5999376-5.750064-.4948785-4.609108-.6964026-6.385015-.2474134-2.356584-.2414218-2.376514-.236248-2.40329-.2318919-2.436911-.2283537-2.477379-.2256333-2.524692-.3351379-3.890726-.2224099-2.672928-.4613114-5.796053-1.3378349-17.385288-.2725293-3.386027-.3185256-3.753872-.3120683-3.434977-.2059359-2.122542-.1539746-1.508145-.1539811-1.439084-.2059647-1.8156-.2075277-1.703031-.1046271-.811123-.2115346-1.54511-.1610829-1.094208-.1635828-1.041548-.1106288-.666325-.112017-.644744-.1708707-.928245-.1159723-.59398-.1177483-.574949-.1185719-.547471-.2189677-.210338c-.4895996-.46162-1.0886036-.975087-1.727035-1.477222l-.3221774-.249832zm64.4135976-7.507621-42.518598 4.954621.005668.023902.219456 1.007967.142262.689856.207726 1.063909.134936.730033.132284.74772.129788.766327.190352 1.1864.185628 1.233458.24108 1.723194.118143.897351.174664 1.393315.172077 1.452829.170025 1.515455.224431 2.12341.111599 1.107839.167074 1.72202.278907 3.038422.224957 2.59059.227957 2.740677 1.916529 24.671294.415247 4.99663.313051 3.596599.317006 3.488985.214679 2.275852.218153 2.242494.222312 2.214926.227158 2.193144.232689 2.177153.822733 7.550722.55951 5.281717.507487 4.945444.456211 4.62346.405682 4.31576.158581 1.758959.289967 3.360739.254098 3.158665.218699 2.965589.126367 1.874238.110982 1.795089.137934 2.550063.089082 2.00009.065861 1.892041.028485 1.085527.008483.486146 45.389-5.745.03393-.876251.072084-2.252535.041147-1.540264.051352-2.368219.038899-2.437561.01901-1.663538.018123-2.553015.005645-2.622218-.003175-1.786567-.008728-1.817285-.014285-1.847988-.031851-2.829517-.028188-1.924679-.052721-2.944482-.065255-3.013391-.077801-3.082248-.058841-2.093061-.064424-2.123626-.070009-2.154175-.156788-4.399939-.17042-4.306759-.12023-2.767462-.173233-3.656571-.139062-2.713926-.196785-3.575481-.208844-3.520425-.108627-1.737585-.167838-2.575865-.291733-4.205134-.243044-3.277798-.187249-2.40384-.191029-2.354147-.259843-3.056938-.19818-2.227793-.267821-2.878756-.27098-2.768221-.273123-2.651343-.205637-1.907993-.274425-2.431552-.27377-2.297238-.204287-1.630972-.202917-1.549178-.201119-1.46471-.198891-1.377567-.260981-1.696577-.192024-1.163831-.126011-.722686-.185689-1.002246-.12139-.612486-.119319-.567018-.117121-.520759c-.01933-.082894-.038563-.163828-.057697-.242785l-.029909-.089084c-.01533-.039102-.036328-.087621-.063918-.145583l-.103475-.202241c-.207281-.382121-.522711-.842809-.956319-1.370263-1.098313-1.33602-2.772471-2.88153-5.021223-4.575237-.736077-.554397-1.373913-1.190841-1.910363-1.887012zm740.444088-86.236379-.303962.004559-.362667.013678-.421371.022796-714.56266 83.302936c1.272508 2.076562 2.188036 4.218387 2.729201 6.45156l.138355.590453.140003.636104.141534.680986.142946.725101.14424.768446.145417.811024.146475.852833.221438 1.355961.148604.953994.224079 1.5041.225131 1.589526.150476 1.105862.226 1.72614.225991 1.804651.225583 1.880569.299453 2.621036.22308 2.047624.221344 2.114897.291736 2.920028.286995 3.028867.281312 3.13156.206685 2.412364.269091 3.29648.260809 3.382269.312927 4.33911.180069 2.658203.230298 3.602751.16486 2.742562.105942 1.846219.201835 3.731807.142119 2.830278.090117 1.900374.127935 2.868924.127734 3.107028.133428 3.502778.120071 3.432179.072621 2.248924.127408 4.40385.05478 2.154959.048827 2.12367.062071 3.126872.03393 2.045517.027966 2.014284.021999 1.983066.016028 1.951866.010056 1.920681.003876 2.822586-.004891 1.842789-.010875 1.811661-.016862 1.780549-.022852 1.749452-.045517 2.565908-.037841 1.671782-.043842 1.640742-.000221.001225 710.940294-89.977948c-5.732597-14.536716-8.835533-30.59524-9.320809-48.115162-.688054-24.840828 4.074818-46.023636 14.41867-63.325802-.761378-.825875-1.574509-1.617194-2.439729-2.373632l-.268334-.233858-.53578-.459877-.539501-.447877c-1.629975-1.323765-3.389676-2.460393-5.994465-3.183811-.065665-.018237-.170465-.030395-.314402-.036474zm-115.866991 24.141737c5.931085-.672483 11.126609 3.967247 11.126609 9.936335v79.925599c0 5.029891-3.73607 9.277014-8.724903 9.918373l-428.397768 55.074401c-5.649037.726235-10.762995-3.4054-11.239968-9.080921l-.123973-1.462721c-2.188401-1.765348-3.618651-4.435027-3.72006-7.445411l-.005576-.279875-.245056-39.529517-3.100146-36.893796c-.445226-5.297764 3.329257-9.999533 8.561548-10.738568l.276715-.035219zm-412.815695 66.934263-8.887415 1.008644c.112015.54535.17967 1.106996.199007 1.68103l.005576.279876.162832 26.25745 3.153901 37.524 5.725099-.736-.002267-.140668-.357654-65.752382zm28.686911-3.252969-8.954719 1.016016c.149843.635373.239121 1.294263.261379 1.970282l.005364.27988.344065 63.432791 8.644-1.111-.003584-.238041-.302614-64.946749c-.000626-.135023.001427-.269432.006109-.403179zm28.69602-3.253002-9.039387 1.024956c.193023.723564.306978 1.479549.332007 2.258188l.005145.279884.292304 62.707943 8.643904-1.110575c-.000676-.01837-.001302-.036753-.001879-.055148l-.004921-.279888-.247579-64.141115c-.000884-.229947.006-.458112.020406-.684245zm28.704551-3.255155-9.141109 1.036875c.241676.810021.383505 1.663248.411158 2.545463l.004921.279888.239548 61.9839 8.645326-1.110265c-.002328-.050977-.004274-.102053-.005836-.153226l-.004693-.279892-.192549-63.335482c-.000989-.326258.013658-.648915.043234-.967261zm28.713044-3.2547-9.259622 1.050288c.295625.894284.468496 1.844577.498606 2.830994l.004693.279891.185797 61.259653 8.648466-1.111403c-.004522-.083089-.00803-.16645-.010512-.250068l-.004457-.279896-.137526-62.529848c-.000929-.423133.024436-.840186.074555-1.249611zm28.722045-3.25712-9.396171 1.066201c.355271.976762.562675 2.024648.59509 3.116655l.004457.279896.133053 60.534194 8.651385-1.111498c-.007283-.115205-.012616-.23094-.015966-.347173l-.004216-.279899-.08251-61.724215c-.000696-.521627.038559-1.033979.114878-1.534161zm28.730908-3.256871-9.550438 1.083086c.42046 1.056969.665882 2.202654.700428 3.401315l.004224.279899.079307 59.809517 8.656134-1.111861c-.01064-.147548-.018079-.295984-.022249-.445238l-.003968-.279903-.027501-60.91858c-.00028-.620896.056032-1.2286.164063-1.818235zm28.740451-3.259174-9.723289 1.103497c.491255 1.134739.77831 2.378505.814806 3.68498l.003969.279903.025584 59.084611 8.661558-1.113706c-.014512-.179391-.024288-.360118-.029205-.542058l-.003714-.279906.0275-60.112948c.00033-.721912.07715-1.425924.222791-2.104373zm28.749779-3.25897-9.915231 1.123867c.568044 1.210174.900679 2.552752.938945 3.968719l.003714.279907-.027137 58.358468 8.666854-1.113424c-.019005-.211591-.031418-.425077-.037032-.640252l-.003453-.27991.082501-59.307313c.001146-.823889.101895-1.624369.290839-2.390062zm28.759957-3.261114-10.126725 1.148058c.650531 1.282666 1.032625 2.724352 1.072457 4.251029l.003453.27991-.080851 57.633078 8.673902-1.114566c-.024057-.243639-.039366-.489838-.045609-.738279l-.003184-.279914.137501-58.50168c.002181-.92776.130634-1.825715.369056-2.677636zm28.770356-3.262501-10.358487 1.174881c.738958 1.352112 1.174649 2.89345 1.215836 4.532351l.003184.279913-.133555 56.906431 8.68069-1.115174c-.029659-.275521-.048121-.554379-.054923-.836109l-.002908-.279916.192501-57.696046c.003448-1.033378.16352-2.029623.457662-2.966331zm28.780841-3.262906-10.611317 1.202747c.833692 1.418407 1.32747 3.060268 1.369795 4.813303l.002908.279916-.188249 56.180516 8.690321-1.116271c-.035874-.307557-.057783-.619351-.065078-.934729l-.002624-.279919.247503-56.890412c.004961-1.140504.200659-2.235584.556741-3.255151zm28.792043-3.264198-10.885291 1.23435c.934274 1.480864 1.490476 3.22359 1.533693 5.092089l.002624.279919-.241932 55.453322 8.699582-1.117704c-.042577-.339148-.068155-.683545-.075858-1.032304l-.002332-.279921.302503-56.08478c.00674-1.249605.242398-2.444439.667011-3.544971zm28.804076-3.266208-11.183438 1.267648c1.041951 1.539777 1.665851 3.384845 1.709728 5.371482l.002332.279921-.295604 54.726837 8.709761-1.119091c-.049941-.371065-.079511-.748532-.087552-1.131229l-.002032-.279924.357504-55.279146c.008802-1.361118.289136-2.656961.789301-3.836498zm28.816575-3.267753-11.505274 1.304594c1.156064 1.594271 1.852683 3.542432 1.896948 5.649075l.002031.279924-.350262 53.999048 8.721652-1.120087c-.057845-.402776-.09166-.813234-.099953-1.229863l-.001722-.279926.412503-54.473512c.01117-1.475057.341154-2.873101.924077-4.129253zm144.918359-6.337997-.091993.388184c-2.099204 9.002217-3.005361 18.997933-2.700106 30.018586.209966 7.580409.970518 14.792919 2.280154 21.64509 1.244739-8.731635 1.902996-17.462704 1.97693-26.194171.062259-8.482271-.425848-17.101501-1.464985-25.857689z"/></svg>