<svg height="511pt" viewBox="1 -15 511.999 511" width="511pt" xmlns="http://www.w3.org/2000/svg"><path d="m227.566406 253.238281c-2.65625-4.597656-7.605468-7.457031-12.917968-7.457031h-17.078126c-5.3125 0-10.261718 2.859375-12.917968 7.460938l-8.539063 14.789062c-2.65625 4.597656-2.65625 10.3125 0 14.917969l8.539063 14.789062c2.65625 4.597657 7.605468 7.457031 12.917968 7.457031h17.078126c5.3125 0 10.261718-2.855468 12.917968-7.457031l8.539063-14.789062c2.65625-4.601563 2.65625-10.316407 0-14.917969zm-12.917968 36.957031-17.003907.042969-8.539062-14.707031 8.464843-14.75h17.03125l8.515626 14.667969zm250.382812-155.695312c-3.175781 0-6.359375.320312-9.453125.953125-4.058594.832031-6.675781 4.792969-5.847656 8.851563.832031 4.058593 4.792969 6.675781 8.851562 5.84375 2.109375-.429688 4.277344-.648438 6.449219-.648438 17.628906 0 31.96875 14.339844 31.96875 31.96875s-14.339844 31.96875-31.96875 31.96875-31.96875-14.339844-31.96875-31.96875c0-4.984375 1.113281-9.761719 3.308594-14.1875 1.84375-3.710938.328125-8.210938-3.382813-10.050781-3.710937-1.84375-8.210937-.328125-10.050781 3.382812-3.234375 6.519531-4.875 13.535157-4.875 20.855469 0 16.527344 8.589844 31.078125 21.53125 39.453125v74.570313c0 14.976562-8.890625 28.492187-22.644531 34.421874l-13.753907 5.933594c5.863282-19.097656 9.023438-39.367187 9.023438-60.359375 0-113.648437-92.460938-206.109375-206.109375-206.109375s-206.109375 92.460938-206.109375 206.109375c0 51.378907 19.015625 100.59375 53.546875 138.585938 2.785156 3.066406 7.527344 3.289062 10.59375.503906 3.0625-2.785156 3.292969-7.527344.503906-10.59375-32.011719-35.222656-49.644531-80.855469-49.644531-128.496094 0-105.378906 85.730469-191.109375 191.109375-191.109375s191.109375 85.730469 191.109375 191.109375c0 105.378907-85.730469 191.109375-191.109375 191.109375-42.628906 0-82.953125-13.726562-116.621094-39.695312-3.277343-2.527344-7.988281-1.921875-10.519531 1.359375-2.527344 3.277343-1.921875 7.988281 1.359375 10.519531 36.3125 28.011719 79.808594 42.816406 125.78125 42.816406 63.058594 0 119.582031-28.472656 157.417969-73.226562l73.574218-31.738282c32.421876-13.988281 53.367188-45.835937 53.367188-81.144531v-74.566406c12.941406-8.375 21.53125-22.925781 21.53125-39.453125 0-25.898438-21.070312-46.96875-46.96875-46.96875zm10.4375 160.992188c0 29.3125-17.390625 55.753906-44.308594 67.367187l-50.222656 21.664063c5.824219-9.300782 10.933594-19.09375 15.234375-29.308594l26.71875-11.527344c19.257813-8.304688 31.703125-27.222656 31.703125-48.195312v-68.238282c3.359375.769532 6.847656 1.1875 10.4375 1.1875s7.078125-.417968 10.4375-1.1875zm-317.089844-38.898438c3.585938 2.074219 8.175782.847656 10.25-2.738281 7.71875-13.34375 22.082032-21.636719 37.480469-21.636719s29.761719 8.292969 37.484375 21.640625c1.390625 2.402344 3.910156 3.746094 6.5 3.746094 1.273438 0 2.5625-.328125 3.746094-1.011719 3.585937-2.074219 4.8125-6.660156 2.738281-10.246094-10.394531-17.964844-29.730469-29.125-50.46875-29.125-20.734375 0-40.070313 11.160156-50.464844 29.125-2.074219 3.582032-.851562 8.171875 2.734375 10.246094zm47.726563-222.121094c-28.828125 0-57.03125 5.042969-83.824219 14.984375-3.882812 1.441407-5.859375 5.757813-4.421875 9.640625 1.125 3.023438 3.988281 4.894532 7.035156 4.894532.867188 0 1.746094-.152344 2.605469-.46875 25.117188-9.324219 51.5625-14.050782 78.605469-14.050782s53.488281 4.726563 78.605469 14.050782c3.882812 1.4375 8.199218-.539063 9.640624-4.425782 1.4375-3.882812-.539062-8.199218-4.421874-9.640625-26.792969-9.941406-54.996094-14.984375-83.824219-14.984375zm-130.03125 15.757813c39.199219-22.722657 84.164062-34.730469 130.03125-34.730469 45.882812 0 90.847656 12.007812 130.039062 34.730469 1.183594.6875 2.480469 1.011719 3.757813 1.011719 2.585937 0 5.101562-1.339844 6.492187-3.738282 2.078125-3.585937.859375-8.175781-2.726562-10.25-41.472657-24.046875-89.039063-36.753906-137.5625-36.753906-48.507813 0-96.070313 12.707031-137.550781 36.75-3.585938 2.078125-4.808594 6.667969-2.730469 10.25 2.078125 3.585938 6.664062 4.804688 10.25 2.730469zm271.683593 257.53125c-2.929687-2.929688-7.675781-2.929688-10.605468 0l-20.964844 20.964843c-2.929688 2.929688-2.929688 7.679688 0 10.609376 1.464844 1.464843 3.382812 2.195312 5.300781 2.195312 1.921875 0 3.839844-.730469 5.304688-2.195312l20.964843-20.96875c2.929688-2.925782 2.929688-7.675782 0-10.605469zm-15.3125 41.070312-15.054687 15.054688c-2.925781 2.929687-2.925781 7.679687 0 10.609375 1.464844 1.460937 3.386719 2.195312 5.304687 2.195312 1.917969 0 3.839844-.730468 5.300782-2.195312l15.058594-15.054688c2.925781-2.929687 2.925781-7.679687 0-10.609375-2.929688-2.925781-7.679688-2.925781-10.609376 0zm-46.148437-207.941406v-12.265625c0-4.140625-3.359375-7.5-7.5-7.5-4.144531 0-7.5 3.359375-7.5 7.5v12.265625c0 4.144531 3.355469 7.5 7.5 7.5 4.140625 0 7.5-3.355469 7.5-7.5zm-80.1875 222.902344c48.691406 0 88.304687-39.613281 88.304687-88.304688 0-48.691406-39.613281-88.304687-88.304687-88.304687s-88.304687 39.613281-88.304687 88.304687c0 48.691407 39.613281 88.304688 88.304687 88.304688zm0-161.609375c40.421875 0 73.304687 32.882812 73.304687 73.304687s-32.882812 73.304688-73.304687 73.304688-73.304687-32.882813-73.304687-73.304688c0-40.417969 32.886718-73.304687 73.304687-73.304687zm-65.183594-61.292969v-12.265625c0-4.140625-3.359375-7.5-7.5-7.5s-7.5 3.359375-7.5 7.5v12.265625c0 4.144531 3.359375 7.5 7.5 7.5s7.5-3.355469 7.5-7.5zm95.726563 9.390625c0-18.355469-13.699219-33.289062-30.542969-33.289062-16.839844 0-30.542969 14.933593-30.542969 33.289062 0 18.351562 13.703125 33.285156 30.542969 33.285156 16.84375 0 30.542969-14.933594 30.542969-33.285156zm-46.085938 0c0-10.085938 6.972656-18.289062 15.542969-18.289062s15.542969 8.203124 15.542969 18.289062c0 10.082031-6.972656 18.285156-15.542969 18.285156s-15.542969-8.203125-15.542969-18.285156zm0 0"/></svg>