<svg height="960" viewBox="0 0 960 960" width="960" xmlns="http://www.w3.org/2000/svg"><path d="m330.68289 4.29895979c5.457475-1.42579541 10.697386-1.72436894 15.597393-1.10338092l1.023717.14342113 440.493803 34.0989452c11.105505.8596766 21.34084 6.3099097 28.252163 15.0241578l.33721.4311953 123.28936 159.8905207c5.396607 6.998709 8.323464 15.587617 8.323464 24.425337v.22269c0 2.246233-.186116 4.452797-.544422 6.604173l-.097578.555981v471.758l.100926.577798c.323751 1.950007.506032 3.945207.541074 5.974021v1.38424c-.128389 8.633285-3.043394 17.000654-8.321436 23.846774l-123.28936 159.917976c-6.913221 8.967102-17.30291 14.584243-28.591758 15.458011l-423.634842 32.789742-10.532604.817438-.268601.092764c-6.470559 2.126811-13.759659 2.588954-21.510661.78103l-1.16607-.288289-134.502184-35.132835c-7.074154-1.847814-13.50653-5.599224-18.598072-10.846534l-143.2915653-147.675369c-8.67252-8.937843-12.040455-19.752516-11.3561067-30.098749l.06326-.816018v-507.71513c0-12.36694 5.6580703-23.602312 14.715185-30.997846l.033815-.027024 139.836018-144.1081585c4.94128-5.0922292 11.145346-8.7755978 17.973267-10.6774663l.62242-.1679791zm15.26411 39.09904021-146.495 163.308v546.53l146.495 163.309 438.8818-33.071371 81.313-105.471 4.278-5.909-85.414462 110.978747-1.103094-.210282.540891-.04048 95.363665-123.692985 27.551-38.054v-482.201l-16.059-22.183-106.855665-138.5963928-.43421-.034159.996413-.1891484 97.547462 126.7387002-4.773-6.592-93.069159-120.6989939-417.447841-32.3150063zm-268.1631998 708.029629 128.5077648 132.439537 104.983235 27.422463-128.3428-143.459629zm100.6109998-537.316-49.587 7.737-65.8079998 10.623v495.002l115.3951998 18.623371zm131.709-163.0950002-103.812235 27.1228075-127.3597648 131.2491927 47.0529998-7.342 57.268-9.244z"/></svg>