<svg id="_x31_px" enable-background="new 0 0 24 24" height="512" viewBox="0 0 24 24" width="512" xmlns="http://www.w3.org/2000/svg"><g><path d="m19 24h-14c-1.103 0-2-.897-2-2v-9h-2c-.561 0-1-.439-1-1 0-.265.108-.525.296-.713l11.354-11.144c.194-.19.505-.19.701 0l3.649 3.585v-2.228c0-.276.224-.5.5-.5h4c.276 0 .5.224.5.5v7.13l2.701 2.653c.191.192.299.452.299.717 0 .561-.439 1-1 1h-2v9c0 1.103-.897 2-2 2zm-7-22.799-11 10.796 2.5.003c.276 0 .5.224.5.5v9.5c0 .551.449 1 1 1h14c.551 0 1-.449 1-1v-9.5c0-.276.224-.5.5-.5h2.5c0-.002-.002-.005-.003-.006l-2.847-2.797c-.096-.094-.15-.223-.15-.357v-6.84h-3v2.92c0 .202-.121.383-.307.461-.184.079-.399.038-.544-.104z"/></g><g><path d="m12 20c-1.654 0-3-1.346-3-3 0-.864.361-1.666 1-2.236v-4.764c0-1.103.897-2 2-2s2 .897 2 2v4.764c.639.57 1 1.372 1 2.236 0 1.654-1.346 3-3 3zm0-11c-.551 0-1 .449-1 1v5c0 .157-.074.305-.199.399-.509.384-.801.968-.801 1.601 0 1.103.897 2 2 2s2-.897 2-2c0-.633-.292-1.217-.801-1.601-.125-.094-.199-.242-.199-.399v-5c0-.551-.449-1-1-1z"/></g></svg>