<svg height="960" viewBox="0 0 960 960" width="960" xmlns="http://www.w3.org/2000/svg"><path d="m520.12 269.9994c100.753431 0 201.559992 10.718644 302.371028 32.122478l3.054881.651871 4.302224.927238 4.182382.91089 5.410529 1.194104 2.642014.590234 3.893813.879248 3.821278.8745 2.51306.581794 3.726664.873031c4.586619 1.081355 8.92213 2.515465 13.413018 4.321958 6.607349 2.660146 12.875727 6.009967 18.711915 10.043954.302451.209055.602006.42227.898578.639584 7.671195 5.621097 13.722553 11.175702 19.191906 17.709435 2.761649 3.298371 5.24214 6.733225 7.686597 10.506298 2.469195 3.803016 4.639149 7.563445 6.570604 11.509862 7.541102 15.407464 11.583663 32.605201 11.725636 50.249661l.003873.96286v132.047c0 58.110009-42.191245 107.40798-97.554329 108.388129l-1.681671.014871h-684.884l.0004 201.56683c0 33.899238 27.205954 61.444185 60.974717 61.991694l1.025283.008306h514.263242c.432793-.000004.865971.003185 1.300198.009568.798375.01179 1.591115.021875 2.378211.030261l2.344343.020075 2.310419.009936c.38224.000813.763064.001206 1.142471.00118l2.259427-.005182 2.225363-.0152c.368051-.003366.734682-.007147 1.099889-.011342l2.174158-.030138 2.139952-.040035 2.105688-.049884 2.071369-.059686c.68473-.021523 1.36373-.044672 2.036992-.069438l2.002559-.079143c.330887-.013997.660338-.028396.98835-.043196l1.950803-.09361 1.916229-.103194c.316487-.017994.631531-.036387.945132-.055175l1.864261-.11748c.307819-.02037.614191-.041134.919115-.062291l1.812167-.131657c.299129-.022726.596808-.045844.893036-.069352l1.759944-.145725c.290418-.025066.579383-.05052.866893-.07636l1.707594-.159685c.281686-.027386.561915-.055158.840686-.083313l1.655117-.173537c.272933-.029688.544406-.059759.814417-.090211l1.602512-.187279c.264159-.031973.526853-.064326.788082-.097056l1.549781-.200914c.510726-.068479 1.015581-.138462 1.514556-.209943l1.479274-.218923c.730807-.1117 1.448363-.226749 2.152634-.34512l1.390822-.241166c.457697-.081859.909481-.165188 1.355343-.249977l1.319806-.258741c8.029116-1.622496 14.027952-3.742147 17.936796-6.308046 7.569701-4.969009 11.456103-11.427273 11.965075-20.226803l-70.354661-20.598617c-4.287398-1.255247-7.210621-5.196105-7.190136-9.640631l.00532-.284356.09082-2.905277.078604-2.805733.085814-3.58562.050127-2.572309.037935-2.471773.025751-2.370939.013574-2.269807.001833-1.9716-.005723-1.526962-.01215-1.47218-.030206-2.105193-.044493-1.981011-.037549-1.25141-.043823-1.195809-.050066-1.140042-.064077-1.202179-.324733-.451386c-.550094-.772508-.969769-1.419046-1.365473-2.159587l-.196346-.379123-.19225-.394438c-.916177-1.934864-1.429578-4.02579-1.429578-6.284074 0-3.814849.894436-6.755925 2.977219-9.395526l.236325-.292078.113289-.135869.454436-.530731.028735-.041281.01252-.032256.018564-.131514.004666-.023065.005731-.025728.036347-.133842-.009797.027516.035278-.197741.038106-.269148.012184-.098941.011822-.102755.043493-.448378.037037-.506294.030056-.561729.023843-.658623.004819-.183621.00417-.186798.010241-.77913.000963-.202809.000329-.206038-.004971-.856597-.014911-.908922-.040651-1.46268-.039054-1.042111-.051288-1.16024-.085074-1.665193-.380431-6.558932-.063812-1.366688-.021312-.597362-.018676-.809183-.003563-.49224c0-11.312452 2.568286-20.702023 7.228006-28.119837-1.406727-24.789548 8.72297-47.095059 27.957616-61.359347 20.195059-14.976524 48.457139-19.786234 80.217815-12.979268 36.292408 7.778208 61.555663 25.473253 76.723328 51.093662 11.919643 20.134022 16.923938 43.752051 16.923938 69.679923 0 6.846717-.319438 13.121633-.950885 18.900699l-.171798 1.496384c-.178866 1.485237-.378921 2.937178-.600033 4.357174l-.228127 1.409396c-2.429737 14.454759-7.103225 25.546359-13.874935 34.762524l-.661872.886082c-.334206.440164-.673314.876049-1.017307 1.307824-1.556303 1.953449-3.125357 3.733056-5.030008 5.752482l-4.181693 4.366276-.693746.740241c-4.816381 5.269033-11.766688 6.786163-20.558634 5.734667l-.555059-.068936c-1.243949 1.067224-2.753173 1.834029-4.415186 2.187929l-31.659009 15.750824c-2.180905 1.136518-4.799024 1.485771-7.41623.719517l.098671.028417c-.041001-.011562-.081926-.023383-.122773-.035464l-19.977087-5.848648c-1.935823 12.970928-8.839622 23.599316-20.479935 31.240412-9.300902 6.105428-23.906733 10.00073-44.09827 11.925444l-1.971466.180119-2.006397.167864c-.337314.026959-.676085.053409-1.016316.079352l-2.058899.149571c-1.038213.071748-2.089578.138946-3.154127.201621l-2.146687.119326c-1.442855.07554-2.909187.143072-4.399069.202658l-2.252497.083429c-.378363.012914-.7582.025334-1.139513.03726l-2.305593.065644c-.38722.009956-.775917.01942-1.166093.028395l-2.358816.047966c-.396098.007016-.793676.013543-1.192737.019583l-2.412167.030398c-2.02498.020469-4.087083.025967-6.186455.025967l-2.537146-.011019-2.572982-.021657-3.11195-.038641-.502402-.001848h-514.263328c-44.834476 0-81.26489-35.982069-81.989014-80.64398l-.010986-1.35602-.0004-201.56683h-4.885c-55.6224395 0-98.3726723-48.718358-99.2221147-106.644873l-.0128853-1.758127v-132.047c0-1.312265.0239873-2.624442.0685099-3.925415l.0512398-1.296826.0363777-.742181.1154577-1.881498c.0386847-.601356.080929-1.193558.1288791-1.796763l.0764727-.915577.0738172-.786142.2369398-2.229879.1311465-1.101283.1400436-1.087985.088726-.657838.1682686-1.18242.1959321-1.252084.1916083-1.142178.2752212-1.560903.1841317-1.004892.2444028-1.2304c.2770797-1.361661.5708522-2.689764.8888999-4.004278.2986219-1.235209.618965-2.461245.9566826-3.675128l.3433482-1.209722.1714739-.585927.2663269-.869289.359578-1.18997.2900408-.923766.1784124-.5509.1753844-.521072.8815659-2.521136c.4458909-1.243699.8935049-2.432476 1.3682674-3.621213 2.6863031-6.72729 6.0454602-13.139232 10.0020705-19.23894.4320591-.666179.8725832-1.331388 1.3359039-2.01743l.4714504-.693794.1431911-.208016 1.1391449-1.619664.6948552-.969963.4609112-.626972 1.2773619-1.67693c.7168222-.929357 1.4227415-1.811396 2.1731162-2.707261 4.7562181-5.681728 10.1174574-10.797261 15.980906-15.311193l.883271-.672573 1.1246156-.85063.8993019-.663165c.401013-.291147.8003752-.574489 1.2036432-.852608 6.3004085-4.355224 13.0977283-7.922609 20.2695387-10.662595 3.6389676-1.389814 7.1078258-2.524071 10.7467522-3.435789l1.097121-.266872 2.872553-.674446 2.906667-.675266 4.43617-1.017457 3.016363-.68336 4.626868-1.036078 3.160931-.700093 3.228523-.709204c102.82694-22.506463 205.695017-33.883336 308.564362-34.108623l3.117253-.003413zm262.550393 485.949321c-15.617306 1.954001-24.081868 10.184615-24.249598 27.7859l-.002542.536244.000574.436712.019131.639682.356091 6.198283.108959 1.957514.105021 2.179656.041293 1.01855.024678.725138 8.308081-4.165198c4.936864-2.475725 10.945955-.480578 13.42168 4.456286 2.43304 4.851746.548047 10.739064-4.203563 13.290499l-.252723.131182-16.122576 8.085105c-.777223.38976-1.581021.668709-2.393424.842814.219607.751582.380431 1.544584.482021 2.404033l.045856.435377.035138.435061.018088.26631.017677.269197.066623 1.105739.060101 1.152211.053603 1.198893.047132 1.245784.040686 1.292884.034264 1.340193.027869 1.387711.021499 1.435439.015154 1.483375.008834 1.531521.002042 2.053179-.011968 2.628469-.016799 1.821198-.023852 1.876351-.030903 1.931542-.037948 1.98677-.052592 2.353675 89.630243 26.242v-61.341452c0-11.934929-2.623299-21.469047-7.707279-29.87541l-.320952-.523941-.32735-.521073-.132372-.207191-.13311-.206523-.540179-.819835c-1.670151-2.490621-3.525138-4.855313-5.705558-7.268628l-.602834-.659514-.745595-.795707-.575704-.60062-.590366-.604549-.810762-.813169-.838745-.822532-.214187-.207256-.216022-.207947-.882774-.839128-.225451-.211723-.227388-.212542-.929267-.858783-.961632-.873586-.245593-.220869-.247702-.2219-1.012231-.89834-.2585-.227376-.260711-.228535-1.065296-.926153-.272022-.234648-.274337-.235934-1.120824-.957026-1.159212-.979307-1.030064-.863294-1.541718-1.284612c-.32579-.270802-.772556-.56606-1.324393-.876267l-.242888-.133834-.462703-.241928-.500922-.246254-.537579-.249645-.572672-.252101-.606202-.253623-.156606-.063534-.15858-.063556-.653566-.254153-.683187-.253339-.175241-.063098-.176972-.062974-.724688-.250365-.185251-.062136-.186833-.061924-.762672-.245289-.194381-.060647-.195816-.060348-.797139-.238111-.40655-.11688-.411612-.115276-.837622-.225268-.42562-.109758-.429899-.107686-.871854-.208688c-7.226138-1.676083-14.9356-2.220427-21.736665-1.369494zm39.086025-15.364675-.740456.032429-.362171.029457-.648907.069872-.82056.102952-.202715.028236c4.231033 1.62068 7.860427 3.545713 10.532882 5.675744l.358461.29172 2.645358 2.20937 1.32855 1.1227 1.288171 1.100972.315878.272044.31345.270815 1.229904 1.071507.301598.265069.299286.263997 1.174396 1.045796.288008.259032.285811.258117 1.121647 1.023841c.490945.452127.971925.900536 1.443423 1.345884l.700198.665811 1.024427.991191.994473.983645c4.899523 4.902142 8.721757 9.583876 12.156522 14.983763 7.424551 11.672338 11.343754 24.962361 11.476692 40.817674l.003499.836864-.000243 58.544852 14.172-7.051.000866-54.644429c0-26.650584-5.144996-40.053168-23.870273-58.307683l-1.188088-1.147388c-.401975-.384678-.80992-.771625-1.223912-1.161006-9.689384-9.11336-20.260384-12.785553-34.398175-12.251848zm-54.406799-3.387939.972003-.623697.949078-.599567.925489-.573087.902073-.546665c.148403-.088912.295839-.176726.44231-.263442l.867276-.507138c.142626-.082332.284295-.163569.42501-.243712l.832872-.467742.810152-.44155c.133142-.071412.265345-.141735.396612-.210971l.776401-.40237c.510154-.259557 1.005452-.501749 1.486127-.726652 7.668155-3.587852 16.889526-6.353909 26.849994-8.429891l.884626-.181859 1.329776-.264311 1.765076-.335054.873448-.159429 1.291709-.228199 1.261981-.21419 1.621673-.26209 1.159485-.177667 1.101358-.16037 1.034713-.142088.959547-.122819.875862-.102564.783658-.081323.467007-.041928.419717-.031756.369901-.021294c19.687228-.91326 35.741165 4.531532 49.672502 17.634666 24.540328 23.081432 32.422279 41.622998 32.577464 74.19333l.002347.991293.001026 49.047474c1.311309.126934 2.373617.128177 3.167019.023216l.235089-.036661 4.084238-4.264601.852956-.904001.791437-.857679c1.01873-1.118213 1.900375-2.146032 2.752803-3.215987.263286-.330473.522862-.664644.778706-1.00272l.506705-.68142c.919813-1.259042 1.78925-2.572444 2.607207-3.95042l.441046-.758089c.072655-.127436.144883-.255421.216682-.383963l.425656-.777991c3.293973-6.14756 5.638975-13.558755 6.948971-23.030305l.161605-1.220388.150319-1.243141c.072332-.627321.140418-1.263312.204234-1.90818l.121934-1.301637c.038743-.437865.075581-.879738.11051-1.325678l.099046-1.35009c.01555-.22707.030621-.455172.045211-.684314l.081776-1.387397.070213-1.412728c.010736-.237587.020989-.476244.030758-.715979l.052793-1.451417c.007828-.24408.015171-.489254.022026-.73553l.035284-1.490934c.004905-.250713.009322-.502542.013249-.755496l.017687-1.53128c.003933-.514965.005904-1.034491.005904-1.558637 0-22.637433-4.282988-42.851218-14.134127-59.491234-12.276664-20.737085-32.781146-35.09896-63.704371-41.726443-42.948551-9.204756-74.531136 7.178489-82.280839 35.827786zm76.751361 74.312351c2.60388 4.760336.932079 10.708993-3.722154 13.42957l-.25218.142632-19.517655 10.676061c-4.845342 2.650378-10.921824.871008-13.572202-3.974334-2.60388-4.760336-.932079-10.708993 3.722154-13.42957l.25218-.142632 19.517654-10.676061c4.845342-2.650378 10.921824-.871009 13.572203 3.974334zm-695.433036-470.829377-2.674018.566012c-3.000974.637359-6.001949 1.284462-9.002926 1.941307-7.87 1.722-15.74 3.493-23.611 5.351-2.318.547-4.56 1.299-6.762 2.14-4.167 1.592-8.123 3.66-11.796 6.199-.651.449-1.276.938-1.908 1.414-3.731 2.81-7.189 6.043-10.257 9.708-.49125.5865-.96675 1.190438-1.4336719 1.803375l-.4643281.615625-.195.249-.185.261-.4465.62-.4405.626-.404.576c-.419.613-.833 1.233-1.239 1.859-2.485 3.831-4.667 7.932-6.414 12.307-.2593333.649333-.5071111 1.305333-.7468889 1.96563l-.3541111.99337-.130125.372625-.386875 1.125375-.1604074.506519-.3065926 1.019481-.156875.50675-.153125.50825c-.206.712-.404 1.427556-.5913333 2.149037l-.2726667 1.086963-.254 1.090852c-.1635556.729704-.316 1.464148-.46 2.202148l-.098375.53475-.094625.53625-.1354074.764519c-.0883704.510148-.1725926 1.021481-.2505926 1.535481-.062.418-.119.838-.175 1.258-.098.733-.185 1.469-.263 2.209-.044.423-.089.847-.127 1.272-.046.526-.0853333 1.053333-.1200741 1.581704l-.0489259.793296-.034875.556125-.031125.556875c-.0346667.775333-.06 1.553333-.073037 2.334296l-.009963 1.173704v133.178347c.5258269 36.889351 26.32923 66.670734 58.26538 67.262673l.96962.00898 15.281549.001421c-12.4858-16.280902-20.067166-37.645223-20.385696-60.801453l-.010453-1.52051v-141.540428c0-13.112516 2.335986-25.942014 6.816069-37.773253 2.179335-5.756296 4.923005-11.283738 8.177951-16.579301 2.054045-3.343571 4.071357-6.29064 6.255783-9.045512 2.259201-2.848105 4.696364-5.536675 7.297741-8.060283zm244.756401-29.885374-1.350965.039975c-30.2137 1.049202-60.427127 3.087897-90.640443 6.115391-29.735256 4.880806-59.470432 10.755258-89.20578 17.623353-7.993692 1.846888-15.987384 3.744155-23.981075 5.73575-2.355448.586331-4.632685 1.392401-6.869294 2.293871-4.232492 1.706469-8.250668 3.923163-11.981396 6.643651-.661232.482356-1.295039 1.006517-1.937988 1.516742-3.78964 3.012046-7.301988 6.477507-10.418208 10.406029-1.760237 2.21991-3.36507 4.613468-4.883567 7.085275-2.524056 4.106458-4.739335 8.50233-6.514808 13.191903-3.451436 9.114734-5.403491 19.194813-5.515333 29.732559l-.005088.959224v141.540428c0 26.314841 11.373564 49.386698 28.453805 62.321197l666.429795-.000655.979542-.009162c31.939623-.597895 57.735947-30.382981 58.248679-67.273783l.007779-1.120055v-132.873064c-.12678-11.826021-2.876182-23.034095-7.657-32.801936-1.249-2.552-2.674-4.974-4.192-7.312-1.494-2.306-3.073-4.539-4.807-6.61-3.227-3.855-6.874-7.246-12.165-11.123-3.41-2.357-7.067-4.297-10.907-5.843-2.481-.998-5.019-1.874-7.653-2.495-9.9-2.336-19.802-4.53-29.701-6.653-31.075844-6.664445-62.152378-12.286496-93.229385-16.863958-34.128416 177.818969-88.043054 269.878977-164.542923 272.625165-77.990797 2.79971-132.008656-93.525857-165.961347-286.8519zm126.695655-.794307h-80l-3.031349.003321c-7.816089.017127-15.632154.100496-23.448199.250093 32.308474 181.903706 81.769374 269.676513 145.027744 267.405667 63.380392-2.275226 112.952116-86.900188 145.4292-255.410968-61.325439-8.161927-122.651418-12.248113-183.977396-12.248113z"/></svg>