<svg enable-background="new 0 0 520 520" height="512" viewBox="0 0 520 520" width="512" xmlns="http://www.w3.org/2000/svg"><g id="_x33_56_x2C__Water_x2C__Drop_x2C__Emergency"><g><path d="m313.015 316.642c-2.47-4.939-8.478-6.942-13.417-4.472s-6.941 8.477-4.472 13.417c10.806 21.609 9.249 46.55-4.27 68.424-13.719 22.199-36.81 35.989-60.26 35.989-5.523 0-10 4.478-10 10s4.477 10 10 10c30.328 0 59.938-17.425 77.273-45.475 16.991-27.492 18.914-60.345 5.146-87.883z"/><path d="m446.682 250c39.638 0 65.327-41.706 47.64-77.082l-38.695-77.391c-1.695-3.387-5.157-5.527-8.945-5.527s-7.25 2.14-8.944 5.528l-38.695 77.391c-17.728 35.453 8.088 77.081 47.639 77.081zm-29.751-68.137 29.751-59.502 29.751 59.502c11.061 22.121-5.033 48.137-29.751 48.137-24.75 0-40.798-26.045-29.751-48.137z"/><path d="m73.319 180c39.636 0 65.327-41.706 47.639-77.082l-38.695-77.39c-1.694-3.388-5.157-5.528-8.944-5.528s-7.25 2.14-8.944 5.528l-38.695 77.391c-17.726 35.451 8.087 77.081 47.639 77.081zm-29.751-68.137 29.751-59.502 29.75 59.502c11.071 22.14-5.05 48.137-29.75 48.137-24.754 0-40.797-26.045-29.751-48.137z"/><path d="m490 480h-189.888c56.143-34.896 81.207-108.919 48.986-173.358l-28.32-56.642h29.222c5.522 0 10-4.477 10-10s-4.478-10-10-10h-39.222l-72.236-144.472c-1.694-3.388-5.157-5.528-8.944-5.528s-7.25 2.14-8.944 5.528l-110.558 221.114c-6.942 13.885-11.317 28.532-13.18 43.358h-46.916c-5.523 0-10 4.478-10 10s4.477 10 10 10h45.932c1.205 45.08 25.5 86.598 63.15 110h-129.082c-5.523 0-10 4.478-10 10s4.477 10 10 10h460c5.522 0 10-4.478 10-10s-4.478-10-10-10zm-374.043-110h44.043c5.523 0 10-4.478 10-10s-4.477-10-10-10h-42.898c1.743-11.768 5.362-23.374 10.882-34.414l101.613-203.225 58.82 117.639h-48.417c-5.523 0-10 4.477-10 10s4.477 10 10 10h58.417l32.793 65.586c37.811 75.62-17.25 164.414-101.612 164.414-63.2 0-111.765-50.565-113.641-110z"/><path d="m224.139 170.896c-5.028-2.287-10.957-.063-13.242 4.965l-50 110c-2.286 5.027-.063 10.956 4.965 13.241 5.017 2.281 10.951.073 13.242-4.966l50-110c2.286-5.026.063-10.954-4.965-13.24z"/><path d="m360 140c16.542 0 30-13.458 30-30s-13.458-30-30-30-30 13.458-30 30 13.458 30 30 30zm0-40c5.514 0 10 4.486 10 10s-4.486 10-10 10-10-4.486-10-10 4.486-10 10-10z"/><path d="m400 370c0 16.542 13.458 30 30 30s30-13.458 30-30-13.458-30-30-30-30 13.458-30 30zm40 0c0 5.514-4.486 10-10 10s-10-4.486-10-10 4.486-10 10-10 10 4.486 10 10z"/><path d="m40 260c0 16.542 13.458 30 30 30s30-13.458 30-30-13.458-30-30-30-30 13.458-30 30zm40 0c0 5.514-4.486 10-10 10s-10-4.486-10-10 4.486-10 10-10 10 4.486 10 10z"/><path d="m170 90c16.542 0 30-13.458 30-30s-13.458-30-30-30-30 13.458-30 30 13.458 30 30 30zm0-40c5.514 0 10 4.486 10 10s-4.486 10-10 10-10-4.486-10-10 4.486-10 10-10z"/></g></g></svg>