<svg height="397pt" viewBox="0 -4 397.2 397" width="397pt" xmlns="http://www.w3.org/2000/svg"><path d="m375.664062 204.324219 21.535157-23.664063-38.597657-35.128906v-.007812l-5.992187-5.449219-11.074219-10.070313-.007812.007813-142.925782-129.910157-142.929687 129.902344-.007813-.007812-11.070312 10.070312-5.992188 5.457032v.007812l-38.601562 35.128906 21.535156 23.664063 17.066406-15.527344v168.925781h-32v32h384v-32h-32v-168.925781zm-241.0625 153.398437v-32h128v32zm128-128h-128v-32h128zm0 32v32h-128v-32zm32 96v-192h-192v192h-32v-198.039062l128-116.335938 128 116.335938v198.039062zm0 0"/></svg>