<svg height="960" viewBox="0 0 960 960" width="960" xmlns="http://www.w3.org/2000/svg"><path d="m670.074816 180.593796c23.414549-3.048171 44.33919-4.018732 62.909059-2.807583l2.340943.143834 3.932657.214014 6.410315.309098 10.301435.448852 18.255384.738021 69.958506 2.699955 15.016996.604828 12.864617.554026 6.062398.286984 2.806299.143598 3.982715.223336 2.328801.147167 3.158382.224591 2.30608.144552 3.524364.171141 5.918291.242604 3.58264.151785 2.646291.13115 1.460577.083869.92692.059007 1.327623.094273.847586.067346.82106.071467.797512.076039.77694.081059 1.133348.131985.738532.095574.728377.102167.7212.109209c.119767.018813.239359.037939.358838.057385l.716013.120613.716276.128778.719515.137391.725732.146454.734924.155965.747092.165927 1.012042.23649c6.946305 1.677873 13.344697 4.415278 19.551724 9.472619 10.154982 8.274043 16.119457 20.566181 16.119457 33.911556v.772709l-.029272 1.469882-.059461 2.047719-.090493 2.335538-.120522 2.600224-.177219 3.337266-.215127 3.629312-.329725 5.03627-.20787 2.951556-.367498 4.909896-.302579 3.805302-.437471 5.193594-.412982 4.617404c-.101549 1.10437-.205351 2.211262-.311311 3.318445l-.128181 1.328616-.229189 2.323174-.276034 2.714706c-.059123.572902-.11872 1.145121-.178792 1.716641l-.36615 3.420626c-.06198.568668-.124439 1.136607-.18738 1.703803l-.383426 3.394136c-.259485 2.25665-.526723 4.500924-.801836 6.731857l-.418591 3.336275c-.141509 1.108677-.285002 2.213897-.430493 3.315542l-.442487 3.294085c-2.84058 20.793066-6.408182 40.251648-10.80626 57.54901-7.32667 28.815325-24.249418 51.669245-49.051158 70.376582-.176923.133449-.353818.266467-.530699.399064l-1.592026 1.182297c-.17695.130166-.353936.259943-.530973.389341l-1.062974.771919-1.064986.763315-1.067772.755207c-.178237.125219-.356622.250122-.535172.374717l-1.073398.743976-1.078114.737109-1.083602.730739-1.637385 1.085251-1.100703.716986-1.108895.712354-1.11786.708219-1.127597.704579-1.138106.701437-1.149387.698792-1.161441.696642-.585483.34767-1.180971.694349-1.797919 1.039977-1.217382.693011-1.233298.693344-1.249986.694174-1.267447.695501-1.28568.697324-1.304686.699644-1.324465.70246-1.345014.705773-2.057744 1.065958-2.108327 1.076205-1.434941.72399-1.459353.729786-1.484539.736079-1.510495.742867-1.537225.750152-2.357646 1.139976-1.607429.770538-2.466572 1.172882-2.535404 1.19486-2.606841 1.218515-4.510569 2.087975-2.810089 1.289786-9.706181 4.427029-6.10537 2.801012-4.233004 1.965704-3.74815 1.768422-3.450632 1.660654-3.455633 1.694885c-24.057088 11.693044-51.893512 16.673374-84.675863 17.26337l-.811607.013815-2.424058.031714-2.412733.017098-1.605261.003266-2.407645-.007316-2.412862-.021998-1.614536-.022833-1.62145-.029375-1.630201-.035925-2.465731-.066185-2.495759-.080961-1.683586-.062196-1.701526-.068781-1.721305-.075374-2.623063-.125438-2.677903-.140312-1.818799-.101816-2.783087-.165154-2.854469-.180092-3.927716-.263402-3.045147-.215041-3.137204-.230059-4.33686-.33015-7.995026-.631791-14.745949-1.141934-4.180098-.295112-3.090956-.191711-1.679103-.087048-2.292373-.088937-2.060437-.043857-.930872-.009195-.37794-.002205-2.673118-.001225-2.86929.011082-3.304006.030221-1.848292.027227-1.182083.022068-2.256357.053811-1.079812.031865-1.567046.054167-1.512146.061994-1.466591.070027-.957034.05125-1.411431.083872-.928912.060671-1.841384.133026-1.837922.149014-1.856608.16549-1.897445.182454-4.767258.484001-2.225099.212619-1.457168.129675-1.443415.120162-1.435861.110775-1.434505.101509-1.439349.09237-1.45039.083353-1.467631.074461-1.491071.065691-1.520708.057048c-.256266.008794-.514025.017233-.773406.02532l-1.576789.044313-1.621923.035978-1.673257.027767-1.73079.01968-1.794521.011717-1.864451.003878c-43.104434 0-72.107556-20.174919-82.62861-58.088788l-.159231-.571409-.819719-2.882783-1.411103-4.831178-7.302981-24.509456-1.030765-3.500872-.759602-2.597448-393.7536908 146.061218c-12.1071275 4.49105-25.6258007 2.857723-36.3064251-4.359846l-.455991-.312741-9.0604945-6.30639c-5.3637059-3.733309-9.7310229-8.723927-12.7199913-14.535381l-10.48178871-20.379752c-10.36066449-20.144251-1.94173308-44.864366 18.56028881-54.497708l569.9138416-267.787027c14.059719-6.606279 29.230355-4.273915 40.385004 3.741456l.010247.007171 1.180131-.301899c11.829017-3.0062 23.270623-5.254939 34.327683-6.735345zm-195.877249 159.580903-419.2490002 171.399 4.5372982 3.158563 416.777702-154.601563-.070778-.523778-.117885-.947345-.136039-1.223356-.32896-3.076716-.589028-5.76631zm.614303-56.461955-434.8682882 204.333376 3.4340142 6.677189c.1208511-.059291.2433795-.116403.3675569-.171268l.262037-.111422 428.2483771-175.07892-1.522374-16.709752c-.433662-4.823371.625672-10.671021 2.737219-15.942462l.230243-.562519c.345007-.825097.715234-1.637124 1.111215-2.434222zm232.597041 128.320956c-.084484-.00064-.185778.002799-.300134.009661l-.378505.030205-.434392.046826-.46779.059522-.71512.104509-.45291.0741-.407606.073064-.339815.068106c-.149213.032159-.264571.060987-.333428.084278l-.580939.202591-.664379.242991-.747739.283356-.831019.323689-.91422.363988-.997342.404253-1.651693.681806-1.838271.772215-1.329037.564982-2.148641.922648-3.15393 1.370348-2.581909 1.132728-3.73065 1.650046-3.013719 1.342195-5.432992 2.436011-4.714792 2.127626-5.041571 2.286286-6.760531 3.080565-7.268893 3.327531-7.776016 3.573977-8.281901 3.819899-12.442188 5.760018-17.445007 8.110192-7.715265 3.597787.2-.013.545838-.03773.328162-.02027.388599-.025339.340401-.019661.759681-.046054 1.250319-.066946.293508-.016865.164492-.008135.229988-.011769.816012-.037231.834047-.0397.237953-.0103.184656-.007824.953344-.037176.813219-.032035 2.186781-.071965.157208-.00474 1.999729-.053145 2.663141-.055164 2.856821-.041664 1.812424-.01808 2.537062-.015565 2.680825-.005308.865664.002724c4.944501.030721 10.550291.318876 16.667432.738876l2.810425.199202c.474081.034564.950958.069774 1.430564.105574l2.909884.221462 2.972298.233042 10.849603.869183 4.839127.378443 3.281401.247753 3.32202.241078 3.359527.231795 3.39392.219903c3.374376.210858 6.794695.400419 10.247381.557314l24.333977-8.811382 9.233059-4.151871 9.749952-4.418059 6.597215-3.012721 3.911872-1.797095 6.631096-3.068074 5.450929-2.546954 5.033048-2.377021 3.500216-1.671065 4.300412-2.078913 2.950096-1.447139 2.713938-1.350959 2.477542-1.254653 2.240911-1.158219 1.693043-.894927c5.517897-2.951075 11.007915-6.041193 16.424226-9.226882l-40.877201-1.639484-19.582251-.750072-11.448151-.404421-5.407135-.171668-4.106457-.114938-3.790389-.085878-3.053256-.044087c-.090362-.000799-.179625-.001532-.267804-.0022zm124.075656 4.600999-.209766.13947-2.14868 1.407322-2.766617 1.791635-2.848347 1.821656-2.331757 1.47457-1.776898 1.113802-2.403115 1.492897-3.052223 1.874021-2.475089 1.501478-2.499939 1.49988-1.888619 1.121859-2.532854 1.489073c-.211664.123687-.423461.247263-.63538.370718l-1.57182.912142c-3.82184 2.209207-7.673877 4.372426-11.489507 6.439175l-2.251367 1.210187-1.080917.571477-2.342988 1.216014-3.039043 1.541954-2.867087 1.42749-3.109377 1.525308-2.207648 1.071282-2.911259 1.400383-3.079952 1.468547-3.91882 1.852341-4.162195 1.950744-6.700172 3.110914-5.590761 2.57317-.120816.056289c12.415412-2.079437 24.242956-5.453758 34.814959-10.682225.235033-.116237.470321-.232329.70586-.34828 1.296876-.63843 2.601279-1.27258 3.912179-1.903231.199244-.095852.39834-.191481.597581-.287031.390676-.187358.782016-.374465 1.173888-.561291.491136-.234151.982695-.467667 1.475033-.700782.351532-.166446.704149-.333013 1.057145-.499389.534223-.251794 1.068967-.50299 1.604505-.7538.260772-.122128.521495-.244054.782397-.365893 3.175091-1.482752 6.377062-2.952943 9.59089-4.420725l1.503576-.686151 7.732-3.527 3.413-1.564 1.33199-.610309 2.24801-1.039691.908-.422 1.692502-.787214c.201564-.094208.403061-.188486.604487-.282837l.063011-.030949.956-.449 1.876-.886 2.373738-1.129082c.224552-.107624.448976-.215368.673264-.323235.173085-.083242.346053-.166539.518939-.249912l.893938-.432134c.221889-.107524.443634-.215177.665231-.322963.474478-.230786.948792-.462433 1.422374-.694722.104842-.051425.209531-.102823.314184-.154254l-.314184.154254c.635725-.31182 1.270129-.624797 1.903092-.939017 1.599666-.794118 3.18973-1.595967 4.768639-2.407106.413892-.21263.82724-.426014 1.239785-.640061.256854-.133267.51345-.26682.769727-.400636 1.191143-.621961 2.375291-1.249561 3.551677-1.883443.183382-.098813.366246-.197601.548918-.296543l-.548918.296543c.666515-.359144 1.330538-.720303 1.991915-1.083588.195168-.107203.390075-.214574.584747-.322133l-.584747.322133c1.339258-.735635 2.667662-1.479981 3.983923-2.233936.204419-.117093.407743-.233955.610772-.35105l-.610772.35105c.348311-.199514.695772-.3997 1.042359-.600575.283053-.164053.56558-.328599.847512-.493614l.260887-.153976-.876497-.009624-2.391174-.044955-4.132503-.108573-8.199705-.269474zm-166.275-194.858-.607695.104967c-.230377.040464-.460989.081303-.691838.122518l.692408-.122618c-.410234.072052-.821216.145297-1.232947.219735l.540539-.097117c-.366377.065413-.733349.131773-1.100915.19908l.560376-.101963c-.429098.077577-.859009.15645-1.289732.236618l.729356-.134655c-.386809.070831-.774275.142711-1.162399.21564l.433043-.080985c-.46812.087129-.937199.175788-1.407237.265977l.974194-.184992c-.378645.071149-.757916.143295-1.137813.216441l.163619-.031449c-.328579.063046-.657626.12684-.987143.191382l.823524-.159933c-.47287.091046-.946709.18364-1.421519.27778l.597995-.117847c-.366807.071846-.734195.144618-1.102163.218317l.504168-.10047c-.430725.0854-.862247.172073-1.294568.260019l.7904-.159549c-.394615.079036-.789898.159137-1.185849.240303l.395449-.080754c-.382242.077758-.765108.156512-1.148598.236261l.753149-.155507c-.871383.178627-1.746004.362415-2.623861.551363-.307112.066102-.614668.132847-.92262.200223-.662593.144965-1.327665.293002-1.994576.44397-.049945.011306-.09967.022576-.149405.033862l.149405-.033862c-.545446.123471-1.092121.248903-1.640026.376296-.642043.149281-1.285484.301185-1.930612.455778-.537825.12888-1.076574.259569-1.616495.392125-.117517.028852-.23467.057689-.351878.086613l.351878-.086613c-.859078.210913-1.721121.426554-2.58613.646923-.18965.048315-.379164.096786-.56882.145483l.56882-.145483c-.418756.106681-.838206.214471-1.258352.323369l.689532-.177886c-.41791.107306-.83651.215713-1.255801.325219l.566269-.147333c-.465101.12055-.931054.242458-1.397858.365724l.831589-.218391c-1.339366.349803-2.685773.710834-4.039221 1.083091-.679225.186816-1.36074.376604-2.044031.569224-.110995.03129-.222695.06284-.334443.094466l.334443-.094466c-.434111.122377-.868938.245896-1.304483.370558l.97004-.276092c-.43644.123518-.873604.24819-1.311491.374015l.341451-.097923c-.359404.102869-.719296.206517-1.079676.310943l.738225-.21302c-.534627.153622-1.070332.308964-1.607115.466025l.86889-.253005c-.402466.11662-.805541.234212-1.209225.352774l.340335-.099769c-.364019.106511-.728534.213813-1.093544.321905l.753209-.222136c-.986706.289797-1.977048.585393-2.971028.886788-.172084.052179-.344508.104603-.517042.157201l.517042-.157201c-.414981.125831-.830597.252673-1.246846.380525l.729804-.223324c-.420015.128044-.840678.257121-1.261989.387231l.532185-.163907c-.422788.129861-.84623.260765-1.270326.392712l.738141-.228805c-.456981.141126-.914725.283467-1.373231.427023l.63509-.198218c-.425089.132255-.850834.265558-1.277236.399909l.642146-.201691c-.435731.136426-.87215.273949-1.309257.412569l.667111-.210878c-1.523216.479935-3.054818.973241-4.594805 1.479916-.693106.228042-1.387217.45856-2.083023.691782-.278151.09323-.556934.187015-.835989.281232l-1.193334.404982c-.198364.067663-.396864.135544-.595502.203642-.746864.256045-1.495551.515129-2.246166.777289-.179115.062558-.358051.125189-.537097.187996l.537097-.187996c-.499727.174534-1.000308.350432-1.501744.527693l.964647-.339697c-.415019.145582-.830626.292101-1.246822.439559l.282175-.099862c-.416155.147113-.832898.295165-1.25023.444156l.968055-.344294c-6.981925 2.473689-14.129389 5.21133-21.442393 8.212921l-1.394849.57352-2.774855 1.146902-2.754111 1.146078-4.089766 1.715902-2.697241 1.140676-2.672488 1.137177-3.959816 1.697533-2.605597 1.125084-2.576836 1.118909-2.546931 1.111969-4.999563 2.20006-2.450342 1.086562-4.796079 2.142363-3.501021 1.576848-2.286134 1.035547-4.452203 2.030013-3.229586 1.483552-2.098736.96905-5.048363 2.347101-3.825095 1.793693-4.499346 2.127093-3.36269 1.602203-3.892352 1.868377-4.83667 2.343482-4.595188 2.251113-2.335909 1.154861-3.802023 1.899272c-4.574248 2.304569-6.834776 7.073207-7.770647 10.695814l-.130569.534345-.111441.514446-.093055.491841c-.014019.079939-.027302.158824-.039865.236597l-.066866.452856c-.029239.21931-.052278.427605-.069535.623361l-.026928.374342c-.019465.356723-.013212.65923.004313.895338l.156083 1.734574 1.655063 18.183084 1.22995 13.172275.794732 8.268126.809159 8.098929.540736 5.10771.064.575.059.522.090161.694674.111189.767408.127883.805929.144105.843261.159858.879405.175138.91436.179666.897963.0794.386011.2646 1.250989.271 1.225.040136.182624c.051785.230128.104492.462327.158099.696541l.120765.526835.187.794.188.797.406066 1.673675.441217 1.771934.384717 1.512391.192.746.232.891.189.721.632062 2.378748.696938 2.572252.942181 3.409597.368819 1.312403.99035 3.502276 1.24265 4.315724.836 2.875.274.941 1.664 5.645.212.716 5.642643 18.904789.082357.280211.084541.281274.372459 1.263726.802921 2.711921.068079.234079.093656.316838.253344.873162.402689 1.375151.087311.305849.122868.420102.129132.454898.406964 1.413157.134036.476843.109989.383163.399011 1.422837.181196.643868c4.218439 14.687613 12.602005 23.933789 29.527792 27.049145l18.579901-8.567908 18.119525-8.475915 14.757785-6.882992 13.737784-6.386673 10.966065-5.080387 11.852807-5.468874 7.847737-3.604977 7.333724-3.354455 5.49775-2.503552 6.411725-2.904878 4.76181-2.14459 4.435789-1.985501 2.095842-.933179 2.465038-1.090567c-4.597413-4.257843-7.851215-9.388633-9.877904-15.461276l-.197027-.600063-.188602-.594695-.180308-.590417-.172143-.58723-.164108-.585134-.156204-.584129-.14843-.584216c-.024098-.097437-.047877-.194923-.07134-.292481l-.137013-.586391-.129565-.589205-.122246-.593109-.115058-.598106-.108-.604192-.101072-.611371-.094274-.619639-.087607-.629-.08107-.63945-.074662-.650993-.068386-.663626-.062239-.677351-.056223-.692165-.050336-.708072-.04458-.725069-.038954-.743158-.048167-1.151038-.025459-.793152-.020288-.815059-.021024-1.26605-.010122-1.321478v-1.380589l.016305-1.939098.023041-1.532831.032037-1.604216.055952-2.256361.070124-2.398541.227576-6.878299.097557-3.49096.040341-1.930872.02571-1.826469.011731-1.683198.009197-5.835854.036817-7.846208.075905-9.81348.125106-12.119039.201744-16.003532.304127-20.74949.46306-28.049171zm226.560794 161.707487-.363057.260416c-.365305.259584-.736446.510702-1.11352.753475-3.991335 2.56975-8.374158 4.031019-13.409218 4.733896l-.62938.084424-.621878.076308-.619194.068572-.621334.061213-.628293.054235-.640073.047634-.992745.059902-.690617.032788-1.091159.03941-1.171901.028817-.83416.013959-1.34263.014004-1.466762.006819-3.278306-.000869c-1.694005 2.781727-3.455199 5.248964-5.299057 7.400854.940686-.036196 1.910057-.090963 2.906495-.163864l1.217576-.09695c2.256363-.193943 4.645423-.477013 7.166013-.849649l1.387905-.212141 1.413951-.229922 1.439955-.247718c.484314-.08554.972956-.17405 1.465917-.26553l1.491838-.283359c.250797-.048712.502673-.098169.755625-.148369l1.530639-.31013 1.556453-.327997 1.582226-.34588 1.607956-.363779c.497114-.114321.997852-.231169 1.502209-.350546l.156125-.165222c1.05184-1.129597 2.073762-2.281423 3.064051-3.456674.584308-.693451 1.157256-1.39462 1.718852-2.104179.29213-.369097.581118-.740373.866985-1.113952.678529-.886711 1.339644-1.786631 1.982513-2.699996zm-160.03001 6.940664-.482772.540844-1.516012 1.673005 3.237933.113162 18.66738.705793 72.345423 2.882427 1.632264.059618 1.130918-.772209 1.559556-1.076368 1.51492-1.054787 1.46782-1.031215 1.418257-1.005655 1.810715-1.298456.728814-.53131-.680379-.005673-16.31417-.195884-16.190663-.235199-10.865872-.179896-18.216357-.34591-10.31002-.226069-8.821099-.216994-7.355428-.203818-6.597106-.208666-2.39916-.084523-3.448761-.133266c-.736755.96955-1.509198 1.91392-2.316201 2.831049zm-36.403342-172.270182c-3.310994.254698-6.699327.565008-10.164999.930931.050566.444496.073257.896882.064881 1.355928l-.511214 29.094646-.34876 21.656821-.262149 18.088926-.176011 13.871915-.139964 13.326438-.066002 8.189112-.033858 5.782648-.021064 6.680396-.003275 3.086703-.017102 2.207012-.03008 1.94029-.056281 2.483086-.112082 3.78838-.20526 6.202629-.07296 2.612101-.053159 2.401685-.021918 1.346114-.017078 1.690678-.003381 1.19401.00853 1.499374.010015.712097.013945.688289.017948.665419.022024.643489.026171.622498.047194.89644.03686.574127.063566.828285.048.531623.052585.516266.087629.747655.098351.71838.071644.464222.116764.676631.084147.439323.089274.431007.143686.63297.155631.61954.110513.40713.116002.403508.121567.400825.127202.399081.065737.19918c1.855875 5.560825 5.653727 9.36619 13.614875 12.462562 1.331074-.351466 2.95188-.662821 4.566369-.884635l6.849594-7.568358c-4.669539-1.35306-8.013874-3.360481-10.753727-6.457549-2.877284-3.252415-4.337203-7.093497-4.959755-11.785077-.048486-.365395-.09187-.721041-.13067-1.076007l-.066383-.654954-.059074-.696389-.033937-.478046-.029864-.494037-.026035-.514282-.032401-.818684-.017523-.583499-.020773-.942447-.018685-1.404359-.008318-1.182699-.005056-1.776797v-2.084388l.027048-4.947547.128939-14.055765.18804-16.77519.620917-49.26799zm175.989558 5.362031.242647 2.683884.432837 4.935927.308952 3.631469.391025 4.748062.367116 4.64083.343196 4.533683.241693 3.33.228225 3.269816.214755 3.209668.201278 3.149556.187796 3.089481.17431 3.029443.16082 2.969441.147323 2.909475.133823 2.849547.081712 1.866421.11131 2.749746.066699 1.799922.088785 2.650047.075262 2.590276.061735 2.530541.048204 2.470844.034666 2.411182.015589 1.574328.012094 2.311828-.001455 2.252264-.0085 1.468437-.024049 2.153071-.023567 1.402342-.029597 1.375923-.035628 1.349515-.041659 1.323118-.047694 1.296732-.053729 1.270356-.059765 1.243991-.065803 1.217637c-.948039 16.591541-3.209347 34.579897-6.778564 53.97297l.303605-.005114.75163-.022343 1.059853-.042487.66359-.034616.630872-.039897.599581-.04539.569718-.051094.541283-.057011.514274-.06314c.083541-.011046.166016-.022357.247455-.033935l.476439-.072732.453-.079391c.220878-.041396.433501-.085369.638673-.132038l.400646-.096968c.065198-.016772.129627-.033853.193318-.051247l.373517-.10815.357214-.115871c.291284-.099834.567072-.207932.831084-.324845l.3114-.144561c.102074-.049622.202502-.100689.301521-.153237l.29307-.162124.286047-.171223c.047169-.029307.094104-.059002.140836-.089089 2.007267-1.292343 3.875952-3.673744 5.585582-7.593733l.291517-.687154c.144976-.351197.288775-.713886.431384-1.088351l.283627-.764716.28043-.79662c.046471-.135457.092808-.272264.13901-.410432l.275592-.845422.27234-.878585c.090235-.298445.179923-.602501.269062-.912252l.265763-.946421.262441-.981095c.043462-.166434.086785-.334332.129967-.503708l.257414-1.034048.254034-1.069979.125743-.548622c.142518-.62913.285179-1.269448.427909-1.920421l.428318-1.984348c.071395-.335874.142789-.674279.214171-1.015148l.428084-2.074246c.0713-.350457.142569-.703246.213799-1.058298l.42683-2.156952.425428-2.208093.423573-2.256038c.070416-.379824.140735-.761513.210949-1.145l.419942-2.321962.416954-2.361916c.069219-.396805.138294-.795141.207216-1.194942l.411625-2.415854c.068274-.405395.136375-.812122.204296-1.220113l.405276-2.4626c.067159-.412786.134118-.826704.200867-1.241687l.397909-2.502153.39243-2.524527.3865-2.543703.380116-2.559685.37328-2.572468.36599-2.582056.358248-2.588447.350052-2.591642.341405-2.59164.332304-2.588443.322749-2.582047.312743-2.572457.302283-2.559669.291371-2.543685c.047627-.422438.094781-.844077.141452-1.26485l.274153-2.513716.262108-2.489741.24961-2.462569.23666-2.432202.223257-2.398637c.072135-.793596.14196-1.581066.2094-2.361876l.195091-2.321919c.031298-.383479.061981-.765161.092039-1.144977l.172778-2.25599.157337-2.208041c.024911-.363834.049159-.725536.072736-1.085041l.133326-2.130125.08558-1.539233.059036-1.516811.105953-3.760679.106976-4.888046.17405-9.798083.14269-9.427787c.002709-.189579.010677-.37785.023763-.564676l-7.07248-.289589-1.614532-.073623-1.649408-.0821-2.25091-.125813-1.725043-.108992-2.056839-.145635-2.095321-.13901-3.513749-.202023-2.585947-.135293-5.347589-.259569zm-104.632076-2.202541-.690295 6.441034-.517687 4.744946-.690215 6.212192-.690188 6.081491-.517631 4.475373-.690174 5.852875-.690184 5.722303-.517653 4.206067-.690236 5.493914-.517707 4.034829-.690329 5.26567-.517792 3.8637-.345221 2.535073-.517873 3.741531-.517929 3.668257-.34532 2.404806-.518035 3.546175-.690825 4.614337-.690965 4.484212-.691119 4.354133-.518448 3.180265-.518549 3.107141-.518654 3.034039-.518765 2.960956-.518883 2.887893-.34599 1.884681-.346046 1.852224-.346104 1.819771-.346164 1.787326-.346226 1.754885-.519457 2.571516-.346387 1.67381c-.057736.276267-.115476.551183-.173218.824748l-.418967 1.955066-.394627 1.776642-.280448 1.230489-.446729 1.914923-.3152 1.322799-.329112 1.35979-.519762 2.109129-.551095 2.192579-.783564 3.053475-.624278 2.387804-.881212 3.31425-.785661 2.899422 3.693682.115666 5.179441.145822 5.541013.143095 5.855376.139836 6.122527.136047 7.956921.163919 11.541475.216168 11.781305.198052 11.768119.177087 9.884674.132943 7.972877.096128 7.634205.081696 9.943353.088149.047388.000046c3.717077-19.474789 6.074074-37.406789 7.076939-53.787226l.108285-1.864736.058871-1.158784.053084-1.186021.047296-1.213248.060089-1.8709.03282-1.281268.027027-1.308457.029675-2.013642.016632-2.074757.003585-2.135834-.004861-1.457804-.018172-2.23755-.031232-2.298531-.044297-2.359476-.057368-2.420383-.070443-2.481254-.083523-2.542089-.062951-1.728505-.105334-2.643399-.160813-3.619006-.135892-2.785064-.148997-2.845715-.162106-2.906331-.175221-2.96691-.188339-3.027454-.201464-3.087959-.289042-4.211337-.232106-3.228999-.162037-2.186215-.254009-3.32962-.45257-5.6834-.388369-4.667255-.41177-4.774302-.435182-4.881264c-.037242-.411226-.074727-.823566-.112456-1.237018-.048788-.534646-.054547-1.063296-.020129-1.582525l-8.498165-.347275-44.821833-1.725688-31.259073-1.221642c.056164.636037.051926 1.286758-.017981 1.945648zm-49.979027-4.034297-1.102584.003257c-.088026.000463-.176119.000974-.26428.001534.000181.04412-.000137.088183-.000742.132308l-.798961 59.551919-.477955 38.029595-.233072 20.628328-.116894 12.650181-.031056 5.590151.001633 3.152154.014308 1.99439.023067 1.345447.044046 1.312523.040882.733603.037437.4949.028424.309843.048157.442953.03597.285619.063761.43158c.021754.132146.043913.252705.066198.362053l.066948.294794.017249.068007.011596.005215c.353866.172344.870657.363055 1.567511.558272l.269795.07339.246277.063471.518324.124014.553395.120156c.095202.019707.191902.039257.290115.058649l.607599.114475.6448.11076.682854.107101.721761.103499.761519.099953.802131.096465.843594.093034.061421.006338c.211813-.615261.404532-1.238004.577692-1.867376l.706036-2.583735.892823-3.313259.633176-2.385996.795616-3.049165.740014-2.89786.684374-2.746264.476742-1.960041.586906-2.48028.403597-1.760221.251634-1.1258.351294-1.617088.336056-1.592375.504352-2.450299.336413-1.674681.504879-2.57373.336758-1.75695.50539-2.697106.505688-2.771105.505981-2.845084.506269-2.919044.337669-1.987107.506734-3.042265.507006-3.116172.507272-3.190058.507532-3.263924.338496-2.216977.507953-3.386992.508198-3.460805.338932-2.348202.678176-4.794771.508898-3.682127.50912-3.755862.679161-5.122479.509616-3.927831.339856-2.659482.850024-6.79191.510268-4.173314.510452-4.246916.51063-4.320498.510801-4.394061.510968-4.467602.511129-4.541125.681744-6.169168.682005-6.299791.341096-3.198865c.023768-.224019.05476-.445521.09272-.664299l-5.092355-.229512-5.512223-.271177-3.654216-.199338-3.248212-.20011c-4.054801-.242626-8.280257-.362537-12.676368-.359732z"/></svg>