<?xml version="1.0" standalone="no"?>
<!DOCTYPE svg PUBLIC "-//W3C//DTD SVG 20010904//EN"
 "http://www.w3.org/TR/2001/REC-SVG-20010904/DTD/svg10.dtd">
<svg version="1.0" xmlns="http://www.w3.org/2000/svg"
 width="173.000000pt" height="199.000000pt" viewBox="0 0 173.000000 199.000000"
 preserveAspectRatio="xMidYMid meet">
<metadata>
Created by potrace 1.14, written by Peter Selinger 2001-2017
</metadata>
<g transform="translate(0.000000,199.000000) scale(0.100000,-0.100000)"
fill="#000000" stroke="none">
<path d="M665 1771 c-249 -72 -443 -272 -527 -541 -20 -66 -23 -95 -23 -240 0
-161 1 -167 34 -263 88 -255 299 -455 556 -529 119 -33 291 -32 395 4 41 15
97 39 123 54 112 62 239 213 288 342 67 178 77 420 25 596 -87 291 -296 513
-542 576 -98 25 -244 26 -329 1z m363 -24 c240 -84 431 -302 503 -572 32 -122
37 -303 10 -429 -70 -339 -313 -556 -621 -556 -168 0 -356 99 -480 252 -51 64
-136 223 -164 311 -32 96 -48 236 -42 353 11 206 76 368 199 500 54 58 86 83
151 115 98 48 151 59 276 55 70 -2 114 -10 168 -29z m-589 -110 c-39 -35 -103
-125 -137 -192 -72 -146 -102 -328 -81 -498 6 -56 13 -111 14 -122 1 -11 7
-31 13 -45 26 -65 40 -110 32 -110 -5 0 -7 -7 -4 -15 4 -8 10 -13 14 -10 4 3
14 -9 21 -27 25 -60 112 -183 173 -244 67 -67 156 -128 226 -155 25 -10 41
-18 35 -18 -26 -1 -113 32 -197 76 -77 39 -110 64 -188 143 -52 52 -104 113
-115 135 -11 22 -24 43 -30 47 -5 4 -7 8 -2 8 4 0 1 13 -7 29 -9 16 -12 32 -8
36 4 5 2 5 -4 2 -13 -7 -33 36 -32 68 1 11 11 29 22 39 21 20 20 20 -31 -1
-12 -4 -14 -3 -8 6 4 8 2 17 -5 21 -19 12 -26 234 -10 323 37 208 160 417 300
510 35 24 40 20 9 -6z"/>
<path d="M867 1530 c-102 -26 -202 -113 -256 -221 -135 -274 -19 -659 238
-788 279 -142 564 80 565 439 0 232 -119 447 -298 535 -78 39 -177 53 -249 35z
m192 -26 c134 -43 247 -164 309 -333 33 -89 42 -258 18 -349 -49 -193 -177
-318 -337 -330 -259 -18 -479 239 -479 561 0 325 228 535 489 451z"/>
<path d="M1137 670 c-8 -11 -29 -23 -48 -26 -19 -4 -39 -11 -46 -16 -7 -5 -14
-5 -18 2 -12 19 -56 12 -62 -10 -4 -15 -9 -18 -18 -10 -23 19 -44 1 -43 -37 1
-38 20 -52 42 -33 11 8 20 9 35 0 22 -11 61 1 61 20 0 5 7 7 15 4 8 -4 15 -2
15 4 0 5 12 8 26 6 18 -2 28 4 34 19 7 19 9 19 9 4 1 -25 26 -16 26 9 0 10 5
18 10 16 6 -2 9 -14 8 -28 -2 -23 20 -34 31 -16 13 21 18 92 7 92 -6 0 -11 -7
-11 -16 0 -14 -2 -14 -15 0 -8 8 -15 19 -15 25 0 18 -28 12 -43 -9z"/>
</g>
</svg>
