<svg height="960" viewBox="0 0 960 960" width="960" xmlns="http://www.w3.org/2000/svg"><path d="m248.039716 7.04892299.564838.03845072 506.404337 38.07190899c20.660513 1.553275 36.678114 18.6131083 36.9964 39.2606643l.004829.6267695v61.0198625c0 33.051921-25.611136 68.865294-54.911759 78.922108l-.889005.296838-.744356.233475.000208 653.33804c0 20.459318-15.419877 37.547086-35.626189 39.760459l-.613766.062507-.622874.053821-488.313046 38.416367c-23.023584 1.811303-42.739212-16.183237-43.131223-39.178447l-.005948-.69834v-841.6940119c0-12.4650178 5.810118-24.2064175 15.693763-31.7680277l.432285-.3261214 38.453621-28.6045876c7.575776-5.63541142 16.895557-8.4056345 26.307885-7.83173541zm3.295756 131.99126101c-6.295271 14.248398-19.471543 27.275263-39.000968 39.109168-1.622764.983318-3.413833 1.450713-5.182084 1.449078l-.000258 737.674977 488.313046-38.416367v-684.56803l1.077513-.283273 3.173652-.827979 2.066695-.533779 2.027437-.519207 2.967547-.751477 2.879216-.718661 2.790886-.685826 2.702555-.652974 2.614225-.620104 2.525893-.587215 2.437564-.55431c6.079189-1.369006 13.855561-7.713043 19.866473-16.075584zm2.85052 28.53967.277668.010035 204.208162 10.160172 204.181446 11.417229c3.413832.190892 6.34861 2.078512 8.004132 4.816664 2.67552 1.72976 4.461249 4.699479 4.570245 8.074457l.005287.327848v542.060596l-.00177.066896.00177.090223v90.343432c0 3.325297-1.629041 6.293072-4.155538 8.115389-1.471074 2.996948-4.402114 5.164447-7.907708 5.541906l-.277255.026009-408.328225 32.666635c-5.726298.45811-10.639193-3.986262-10.793715-9.691141l-.003747-.277011-.001076-4.528475c-.042504-.331804-.068789-.668893-.078008-1.010484l-.003719-.275945v-98.19314l.000221-.086398-.000221-.084373v-589.158839c0-.742646.080687-1.465513.233583-2.160609l.006585-.03166c.853976-4.764316 5.077635-8.331625 10.061883-8.219416zm398.10717 633.066897-388.328 25.14v28.95l388.328-28.842zm0-45.304-388.328 21.435v28.966l388.328-25.139zm0-45.459-92.125 4.204-296.203 13.516v28.974l388.328-21.422zm0-45.3-388.328 14.015v28.984l388.328-17.719zm0-45.3-388.328 10.313v28.989l388.328-14.016zm0-45.299-195.016 3.319-193.312 3.29v28.995l190.945-5.07 197.383-5.242zm0-45.299-329.236 2.464-59.092.442v28.999l155.054-2.639 233.274-3.971zm-388.328-46.094v28.999l388.328-2.906v-25.296zm0-49.001v29l376.666.774 11.662.024v-25.295zm0-48.998v28.997l388.328 4.502v-25.294l-245.454-5.187zm0-48.998v28.994l388.328 8.204v-25.29zm0-48.998v28.988l360.978 11.07 27.35.839v-25.285l-121.607-4.889zm0-48.995v28.979l388.328 15.612v-25.277zm0-48.995v28.97l388.328 19.315v-25.268zm-28.36-134.1930004-28.453 21.1656445.000275 82.1847339c19.156435-12.687918 28.254894-25.503575 28.450133-38.269165l.003213-.420187zm20-6.687.000621 71.3480264-.001621.202974 492.318932 32.508798c1.202005.079369 2.340335.367997 3.381806.828007.40646-1.949839.647535-3.899782.696089-5.826565l.009131-.721412v-61.0198625z"/></svg>