<svg height="512" viewBox="0 0 512 512" width="512" xmlns="http://www.w3.org/2000/svg"><g><path d="m104 168h-64a8 8 0 0 0 -8 8v48a8 8 0 0 0 8 8h64a8 8 0 0 0 8-8v-48a8 8 0 0 0 -8-8zm-8 48h-48v-32h48z"/><path d="m104 408h-64a8 8 0 0 0 0 16h64a8 8 0 0 0 0-16z"/><path d="m104 432h-64a8 8 0 0 0 0 16h64a8 8 0 0 0 0-16z"/><path d="m104 456h-64a8 8 0 0 0 0 16h64a8 8 0 0 0 0-16z"/><path d="m476 144h-8a28.031 28.031 0 0 0 -28 28v4h-24v-4a28.031 28.031 0 0 0 -28-28h-8a28.031 28.031 0 0 0 -28 28v4h-24v-4a28.031 28.031 0 0 0 -28-28h-8a28.031 28.031 0 0 0 -28 28v4h-24v-4a28.031 28.031 0 0 0 -28-28h-8a28.031 28.031 0 0 0 -28 28v4h-40v-24a8 8 0 0 0 -8-8h-112a8 8 0 0 0 -8 8v336a8 8 0 0 0 8 8h112a8 8 0 0 0 8-8v-24h40v4a28.031 28.031 0 0 0 28 28h8a28.031 28.031 0 0 0 28-28v-4h24v4a28.031 28.031 0 0 0 28 28h8a28.031 28.031 0 0 0 28-28v-4h24v4a28.031 28.031 0 0 0 28 28h8a28.031 28.031 0 0 0 28-28v-4h24v4a28.031 28.031 0 0 0 28 28h8a28.031 28.031 0 0 0 28-28v-296a28.031 28.031 0 0 0 -28-28zm-356 336h-96v-320h96zm56-32h-40v-256h40zm48 20a12.01 12.01 0 0 1 -12 12h-8a12.01 12.01 0 0 1 -12-12v-296a12.01 12.01 0 0 1 12-12h8a12.01 12.01 0 0 1 12 12zm40-20h-24v-256h24zm48 20a12.01 12.01 0 0 1 -12 12h-8a12.01 12.01 0 0 1 -12-12v-296a12.01 12.01 0 0 1 12-12h8a12.01 12.01 0 0 1 12 12zm40-20h-24v-256h24zm48 20a12.01 12.01 0 0 1 -12 12h-8a12.01 12.01 0 0 1 -12-12v-296a12.01 12.01 0 0 1 12-12h8a12.01 12.01 0 0 1 12 12zm40-20h-24v-256h24zm48 20a12.01 12.01 0 0 1 -12 12h-8a12.01 12.01 0 0 1 -12-12v-296a12.01 12.01 0 0 1 12-12h8a12.01 12.01 0 0 1 12 12z"/><path d="m250.343 133.657a8 8 0 0 0 11.357-11.268 20.338 20.338 0 0 1 -4.237-7.308c-1.468-4.83-.136-9.1 4.192-13.424 15.889-15.889 8.705-34.609 0-43.314a8 8 0 0 0 -11.355 11.268 20.338 20.338 0 0 1 4.237 7.308c1.468 4.83.136 9.1-4.192 13.424-15.891 15.889-8.707 34.609-.002 43.314z"/><path d="m338.343 133.657a8 8 0 0 0 11.357-11.268 20.338 20.338 0 0 1 -4.237-7.308c-1.468-4.83-.136-9.1 4.192-13.424 15.889-15.889 8.705-34.609 0-43.314a8 8 0 0 0 -11.355 11.268 20.338 20.338 0 0 1 4.237 7.308c1.468 4.83.136 9.1-4.192 13.424-15.891 15.889-8.707 34.609-.002 43.314z"/><path d="m426.343 133.657a8 8 0 0 0 11.357-11.268 20.338 20.338 0 0 1 -4.237-7.308c-1.468-4.83-.136-9.1 4.192-13.424 15.889-15.889 8.705-34.609 0-43.314a8 8 0 0 0 -11.355 11.268 20.338 20.338 0 0 1 4.237 7.308c1.468 4.83.136 9.1-4.192 13.424-15.891 15.889-8.707 34.609-.002 43.314z"/><circle cx="72" cy="96" r="8"/><path d="m93.336 72.15a32 32 0 0 0 -42.672 0 8 8 0 0 0 10.671 11.922 16 16 0 0 1 21.33 0 8 8 0 0 0 10.671-11.922z"/><path d="m45.335 66.183a40 40 0 0 1 53.33 0 8 8 0 1 0 10.67-11.922 56 56 0 0 0 -74.67 0 8 8 0 1 0 10.67 11.922z"/><path d="m72 136a64 64 0 1 0 -64-64 64.072 64.072 0 0 0 64 64zm0-112a48 48 0 1 1 -48 48 48.055 48.055 0 0 1 48-48z"/></g></svg>