<?xml version="1.0" encoding="iso-8859-1"?>
<!-- Generator: Adobe Illustrator 19.0.0, SVG Export Plug-In . SVG Version: 6.00 Build 0)  -->
<svg version="1.1" id="Capa_1" xmlns="http://www.w3.org/2000/svg" xmlns:xlink="http://www.w3.org/1999/xlink" x="0px" y="0px"
	 viewBox="0 0 512 512" style="enable-background:new 0 0 512 512;" xml:space="preserve">
<g>
	<g>
		<path d="M501.333,0H10.667C4.771,0,0,4.771,0,10.667v42.667C0,59.229,4.771,64,10.667,64h10.667v437.333
			C21.333,507.229,26.104,512,32,512c14.177,0,21.417-8.271,26.708-14.302c4.656-5.313,6.51-7.031,10.677-7.031
			c4.156,0,6.01,1.719,10.667,7.031C85.344,503.729,92.583,512,106.771,512c14.177,0,21.708-8.615,26.698-14.313
			c4.635-5.302,6.49-7.021,10.625-7.021c4.115,0,5.958,1.719,10.594,7.021c4.969,5.698,12.49,14.313,26.646,14.313
			c3.698,0,7.125-1.917,9.073-5.063c1.948-3.146,2.125-7.073,0.469-10.375l-81.229-162.458
			c38.927-28.875,65.917-72.063,74.604-119.875L211.564,64h88.872l27.314,150.229c8.688,47.813,35.677,91,74.594,119.865
			l-81.26,162.083c-0.969,1.927-1.281,4.49-0.979,6.625c0.729,5.271,5.24,9.198,10.563,9.198c14.177,0,21.417-8.271,26.708-14.302
			c4.656-5.313,6.51-7.031,10.677-7.031c4.156,0,6.01,1.719,10.667,7.031C384.01,503.729,391.25,512,405.438,512
			c14.177,0,21.708-8.615,26.698-14.313c4.635-5.302,6.49-7.021,10.625-7.021c4.115,0,5.958,1.719,10.594,7.021
			C458.323,503.385,465.844,512,480,512c5.896,0,10.667-4.771,10.667-10.667V64h10.667C507.229,64,512,59.229,512,53.333V10.667
			C512,4.771,507.229,0,501.333,0z M154.25,471.01c-2.948-1.042-6.313-1.677-10.156-1.677c-14.167,0-21.698,8.615-26.688,14.313
			c-4.635,5.302-6.49,7.021-10.635,7.021c-4.167,0-6.021-1.719-10.677-7.031c-5.292-6.031-12.531-14.302-26.708-14.302
			c-14.188,0-21.427,8.271-26.719,14.302V333.621c14.495,5.611,33.294,7.25,46.689,7.609L154.25,471.01z M163.271,210.417
			c-8.04,44.211-33.775,83.872-70.652,109.49c-25.342-0.493-47.768-6.077-49.952-10.573V64h147.224L163.271,210.417z
			 M469.333,483.552c-4.979-5.698-12.49-14.219-26.573-14.219c-14.167,0-21.698,8.615-26.688,14.313
			c-4.635,5.302-6.49,7.021-10.635,7.021c-4.167,0-6.021-1.719-10.677-7.031c-5.292-6.031-12.531-14.302-26.708-14.302
			c-4.031,0-7.51,0.667-10.531,1.76l65.111-129.863c13.393-0.358,32.202-1.997,46.702-7.609V483.552z M469.333,309.167
			c-2.371,4.697-24.702,10.247-49.952,10.74c-36.878-25.617-62.612-65.279-70.652-109.49L322.109,64h147.224V309.167z
			 M490.667,42.667H21.333V21.333h469.333V42.667z"/>
	</g>
</g>
<g>
</g>
<g>
</g>
<g>
</g>
<g>
</g>
<g>
</g>
<g>
</g>
<g>
</g>
<g>
</g>
<g>
</g>
<g>
</g>
<g>
</g>
<g>
</g>
<g>
</g>
<g>
</g>
<g>
</g>
</svg>
