<svg height="960" viewBox="0 0 960 960" width="960" xmlns="http://www.w3.org/2000/svg"><path d="m22.8830196 141.005036c27.8057245-13.612357 63.4614451-17.589841 107.3619714-13.502723l1.071916.100278 3.171959.302631 3.106863.305615 4.042519.412762 2.957886.314 2.895287.318203 1.895785.21465 2.792621.32602 2.732021.331198 2.67217.33674 1.748566.227754 2.574083.346792 1.683868.234793 1.658378.237799 1.63311.240912 2.402771.367443 1.57091.249169 1.546418.252663 1.522148.256264 1.498102.259973 1.474276.26379 2.167227.403082 1.415684.273808 1.392635.278006 1.369809.282311 1.347205.286724 1.324822.291246 1.302662.295876 1.280724.300615 1.259008.305461 1.237513.310416 1.216241.31548c.200946.053008.401016.106231.600213.159673l1.184748.323277c.195726.054322.390588.108865.584592.163633l1.153756.33132 1.133372.336816 1.11321.342422c.183867.057543.366903.115325.549113.173346l1.083383.351032 1.063776.356908c.175674.059981.350541.12021.524604.180692l1.034781.365924 1.015729.372072c.167713.06253.334641.125321.50079.188374l.987566.381495c.326094.128228.649105.257526.96907.387912l.482119.198317 718.210226 97.166756c19.639771 2.657043 34.340812 19.282712 34.637299 39.039258v24.974679c0 11.834306-5.24034 23.061154-14.3117 30.661234l-10.411967 8.723253c-8.459833 7.087736-19.472197 10.365159-30.43087 9.056622l-669.302988-79.919802.000709 413.602042c0 3.744366-.525744 7.468938-1.560832 11.064824l-.213804.71743c-5.942203 19.278392-19.432523 34.226594-38.113118 44.506262-14.868775 8.182078-33.166003 13.551565-55.153507 16.756544-39.404828 5.743793-74.9117765 5.743793-106.5600492-.28927-18.8634127-3.595905-32.50973991-20.089347-32.50973991-39.292443v-541.194388c0-15.271893 8.69592378-29.211051 22.41236071-35.925965zm170.8858004 545.957038-.591489.26302c-13.702172 6.036009-32.669714 10.799493-57.027675 14.731992-36.3665857 5.871244-68.2494403 7.045321-95.6780986 3.449128l-.0008985 12.719175 1.0949305.205477c26.6986041 4.93145 57.4336984 4.862957 92.2052826-.205477 33.648684-4.904755 53.648-15.292527 59.997948-31.163315zm-153.2978948-444.162442-.00009 442.417479c15.593761 2.260677 33.0007578 2.803647 52.2137183 1.610912l2.3075862-.151004c1.5441362-.106194 3.0997628-.223437 4.6668761-.351739l2.3592842-.200749 2.376512-.217343c1.192562-.112822 2.391584-.23187 3.597063-.357147l2.419567-.258861c2.023481-.222641 4.064897-.462594 6.12424-.719877l2.479817-.317058c1.658948-.216919 3.329367-.444933 5.011255-.684052l2.531432-.367008c1.693355-.250226 3.398177-.51156 5.114461-.784013l2.340511-.37729 2.07875-.344895 2.047334-.349096 2.015894-.353277 1.984427-.357438 1.952936-.361579c.322864-.060607.644414-.121386.964651-.182337l1.905653-.367754c.31498-.061634.628645-.123438.940996-.185412l1.858313-.373884 1.826723-.377945 1.795107-.381987 1.763467-.386008 1.731801-.39001 1.700111-.393992 1.668395-.397953 1.636655-.401896 1.60489-.405817c.264833-.067962.528341-.136087.790525-.204373l1.557195-.411663c.513762-.137867 1.022219-.27638 1.525367-.415535l1.493515-.419387c1.723844-.491524 3.382605-.990872 4.976104-1.497902l1.34987-.436474 1.317881-.440217 1.285866-.44394 1.253826-.447642c1.237799-.449487 2.4275-.904497 3.568993-1.364942.525349-.21191 1.038371-.424118 1.539133-.6365l.985197-.424957c.161482-.070852.321606-.141714.480376-.212582l.936379-.425233.90398-.42514.871701-.424825c.713001-.353827 1.392499-.707095 2.038804-1.059225l.759652-.421972c1.296822-.734672 2.448864-1.463349 3.458947-2.180735l-.000913-412.140901-1.140213-.261087-1.268557-.281299c-.213704-.046612-.428545-.093088-.644524-.139429l-1.309524-.276407-1.336806-.273131c-.225073-.045248-.451282-.090359-.678626-.135332l-1.377684-.268191-1.404906-.264881-1.432106-.261558-1.45928-.258222-2.239823-.38105-1.527116-.249825-1.554207-.246444-1.581277-.243049-1.608322-.239642-1.635343-.236221-1.662342-.232787-1.689315-.22934-1.716266-.22588-1.743194-.222407-1.770096-.218921-1.796976-.215422-2.745812-.316544-1.864072-.206617-1.890869-.203072-2.886496-.297934-2.946655-.289884-3.006736-.28179-2.03783-.183343-3.106692-.268203-3.166559-.259993-2.14426-.168745-2.170809-.165063c-32.892687-2.4581-64.0819961-2.721347-93.5674408-.795112zm174.0797338-59.945175.000747 43.145881c0 .809598-.096209 1.596726-.277818 2.350573l694.35297 82.911035 10.411967-8.723253v-24.375049zm-89.127778-15.626342c-36.6829085-3.298911-65.0003159-.064616-84.9522221 9.702886l.0000493 45.827458c29.3860848-1.854606 60.3303638-1.6101 92.8332728.728716l3.370464.249552 3.39621.265156 2.230299.181826 2.203255.185887 2.176233.18996 2.149236.194046 2.122262.198146 3.132869.304934 3.072312.31423 2.014603.214674 1.987748.218839 1.960916.223017 1.934108.227207c.320119.038218.639121.076611.957008.115179l1.89394.233518c.313427.039271.625739.078719.936937.118342l1.853825.239858 1.827112.244101 2.69063.374137 1.760431.254766 1.733799.259054 1.707193.263357 1.680608.267672 1.654049.271999 1.627513.27634 1.601.280695 1.57451.285062c.260213.047875.519322.095932.77733.144172l1.534822.291637 1.508391.296037 1.481986.300449.726079.150433-.000584-4.345042c-.012612-.164311-.021253-.329734-.025828-.496173l-.003841-.279904-.000747-45.866881-.217482-.133011c-.561987-.337779-1.188608-.671963-1.879863-1.002554l-.422509-.197923-.662849-.295268c-.453533-.196198-.930334-.391102-1.430404-.584712l-.767555-.289445c-.130835-.04808-.263123-.096078-.396866-.143995l-.819909-.286534c-.13956-.047594-.280574-.095107-.423043-.142539l-.872262-.283623c-.148285-.047109-.298025-.094137-.449219-.141084l-.924616-.280712c-.157011-.046623-.315476-.093166-.475396-.139628l-.976969-.2778-1.011871-.27586-1.046773-.273919-1.081675-.271978-1.116578-.270038-1.15148-.268096c-.194822-.044521-.391098-.088962-.588828-.133321l-1.203833-.265186-1.238736-.263244c-.209364-.043713-.420183-.087344-.632456-.130895l-1.291089-.260334-1.325991-.258393-1.360893-.256452-1.395796-.254511-1.430697-.252571-1.4656-.25063-1.500502-.248689-1.535405-.246748-1.570307-.244808-2.420901-.363572-1.657562-.239956-1.692465-.238015-1.727367-.236074-2.656491-.350472-2.735022-.346105-1.866976-.228312-2.865905-.338827-1.954231-.223459-2.996788-.33155-3.075319-.327183-2.09384-.215696-2.128742-.213756-3.258555-.316994z"/></svg>