<svg enable-background="new 0 0 128 128" height="512" viewBox="0 0 128 128" width="512" xmlns="http://www.w3.org/2000/svg"><g id="electricity_switch_1_"><g fill="rgb(0,0,0)"><path d="m91.8 2.1h-55.6c-5.5 0-10 4.5-10 10v103.8c0 5.5 4.5 10 10 10h55.6c5.5 0 10-4.5 10-10v-103.8c0-5.5-4.5-10-10-10zm6 113.8c0 3.3-2.7 6-6 6h-55.6c-3.3 0-6-2.7-6-6v-103.8c0-3.3 2.7-6 6-6h55.6c3.3 0 6 2.7 6 6z"/><path d="m75.8 18.1h-23.6c-5.5 0-10 4.5-10 10v71.8c0 5.5 4.5 10 10 10h23.6c5.5 0 10-4.5 10-10v-71.8c0-5.5-4.5-10-10-10zm-29.6 10c0-3.3 2.7-6 6-6h23.6c3.3 0 6 2.7 6 6v33.9h-35.6zm35.6 71.8c0 3.3-2.7 6-6 6h-23.6c-3.3 0-6-2.7-6-6v-33.9h35.6z"/><path d="m64 50c-1.1 0-2-.9-2-2v-11.9c0-1.1.9-2 2-2s2 .9 2 2v11.9c0 1.1-.9 2-2 2z"/><path d="m64 93.9c-4.4 0-7.9-3.6-7.9-7.9 0-4.4 3.6-7.9 7.9-7.9s7.9 3.6 7.9 7.9-3.5 7.9-7.9 7.9zm0-11.9c-2.2 0-3.9 1.8-3.9 3.9s1.8 3.9 3.9 3.9 3.9-1.8 3.9-3.9-1.7-3.9-3.9-3.9z"/></g></g></svg>