<svg height="960" viewBox="0 0 960 960" width="960" xmlns="http://www.w3.org/2000/svg"><path d="m479.70824 1.92190057c155.041397 0 280.707145 125.99354043 280.707145 281.38718543 0 58.620731-17.956732 114.595587-50.886646 161.578147l.094974-.129973c.004678-.005475.007467-.008079.008559-.008105l-.030836.061485-1.339574 2.209482-.932894 1.564278-1.082429 1.837474-1.295784 2.227734-.892365 1.550939-.913891 1.601916-.934319 1.651478-.95365 1.699627-.971882 1.746362-.989016 1.791682c-7.97623 14.508218-15.964507 30.419051-23.385173 47.11166-.414701.932861-.826052 1.864541-1.234023 2.795002l-1.213733 2.78768c-19.256404 44.543022-30.648227 86.181398-30.648227 120.440307v41.872811c0 6.551162-1.071805 14.929354-3.793399 23.667405-4.000271 12.843424-10.910084 24.254333-21.43069 32.984472l-.030387.024051-1.66331 2.370549c-1.430296 2.052936-2.896323 4.194757-4.333187 6.342171l-.500196.749507-.945781 1.428798-.913903 1.396581-.876997 1.357043-.423087.661408-.765616 1.209104-.775125 1.242934-.491271.799009-.696934 1.150817-.646867 1.089645-.594432 1.024049-.539634.954026-.328143.594931-.443044.827489-.261561.506474-.233701.468798-.20514.429808-.175879.389509-.264788.612563-.371964.884712-.232457.571531-.221076.56049-.312217.826753-.196505.546325-.188228.546031-.180838.548809-.174335.554657-.168718.563576-.163988.575565-.160145.590624-.234951.92089-.154416.641706-.153677.667513-.231069 1.056373-.155708.745463-.238271 1.187691-.16328.842602-.34119 1.820965-.662004 3.667527-.137367.737984-.09315.582146-.250893 1.607344-.123017.820823-.182188 1.257749-.239856 1.735966-.238177 1.816592-.178727 1.424041-.361322 3.032865-.309026 2.744544-.386141 3.596226-.508503 4.950704-.091317 1.636428-.418708 8.039749-.48603 10.181711-.466945 10.346112-.022574 1.634123-.058807 4.713679-.042681 4.408679-.029955 4.885731-.007079 4.153278.003988 1.945571.017828 3.021136.024233 2.216411.033006 2.037072.041696 1.856699.036924 1.273531c.161443 5.017166-1.569678 9.911592-4.84967 13.711548l-36.252768 41.999772c-.541002.626765-1.120402 1.219331-1.734856 1.774276l-23.637185 21.347989c-.566133.511305-1.160707.989486-1.780713 1.432327l-.176387.121178-.540266.457278c-1.27253 1.060535-2.569927 2.038495-3.91492 2.939107l-.676568.443884c-.340372.218744-.683956.432708-1.031107.641973l-.699162.412292c-.704129.406076-1.423471.793577-2.160868 1.163157l-.743521.36363c-.624791.298087-1.262778.583881-1.915605.857758l-.790621.322958c-2.65985 1.05762-5.567663 1.927005-8.828668 2.632355l-.989003.206707-1.010825.197011c-.170325.032035-.341585.063673-.513794.094915l-1.044744.182737c-1.056339.178047-2.14778.342092-3.277164.49279l-1.142138.146273-1.168064.13752-1.194622.128912-1.221812.120449-1.249633.112131-1.278085.103959-1.307169.095932-1.336884.08805-1.36723.080313c-.230436.012749-.462162.025181-.695192.0373l-1.413934.06898-.710867.031374c-.283839.018156-.567903.018156-.851999.018156h-.337302c-.288412 0-.57679 0-.864932-.018712-.240219-.010398-.479149-.021121-.716803-.032171l-1.410707-.070256-1.380656-.078264-1.351182-.086421-1.322285-.094726-1.293966-.103179c-.213333-.017909-.42551-.036177-.636543-.054806l-1.252567-.116137-1.22569-.124962-1.19939-.133935-1.173665-.143056c-.1935-.024611-.385951-.049608-.577367-.074995l-1.136162-.157016c-1.685888-.242607-3.289827-.51725-4.820579-.826184l-1.009755-.211061-.988647-.22137c-8.315424-1.925877-14.405792-4.985046-19.865539-9.587696l-.516757-.442169-.172164-.122051c-.465043-.332164-.915778-.68421-1.350935-1.055202l-.429918-.377274-23.636344-21.347989c-.614356-.554877-1.193668-1.147363-1.734592-1.774039l-36.252768-41.999772c-3.27963-3.799536-5.010744-8.693317-4.849722-13.709941.322253-10.03973.322253-20.789302-.004131-32.233571l-.040268-1.502268-.046972-1.534465-.083194-2.371518-.098702-2.468264-.15617-3.466715-.135882-2.75071-.173126-3.284935-.729153-12.733071-.573878-5.585095-.319718-2.967345-.369273-3.264961-.180685-1.525503-.29815-2.404837-.23804-1.816029-.300173-2.158658-.182976-1.2465-.249038-1.61768-.264422-1.621188c-.035631-.22029-.071154-.449091-.108152-.696246l-.046243-.316278-.2501-1.858795-.114833-.787794-.126783-.774394-.106132-.582626-.118093-.592474-.132301-.609773-.148753-.634522-.227811-.897407-.266374-.972314-.31026-1.064881-.359469-1.175111-.414-1.303002-.602294-1.835505-.860837-2.551375-.256016-.740485c-.507057-1.39921-1.364085-3.203495-2.53426-5.279391-1.442583-2.559151-3.275713-5.385095-5.403142-8.359526-2.309159-3.228513-4.821089-6.435982-7.333444-9.440929l-.734658-.872748-.697886-.817698-.791806-.91293-.41807-.335284c-10.651058-8.636613-17.68862-19.99883-21.818946-32.830878l-.21849-.68883c-2.74187-8.773053-3.844805-17.258392-3.844805-23.774936v-41.872811c0-35.677209-12.572192-79.679509-33.67828-126.832538-7.576017-16.925552-15.743765-33.099013-23.908478-47.874195l-1.018856-1.836334-1.495864-2.668885-.973906-1.719917-.953858-1.670633-.932629-1.619798-1.356555-2.330986-1.302145-2.207875-.763095-1.279171-.923857-1.531428-1.158053-1.891719-.914333-1.347951c-30.927538-45.72577-47.876342-99.602775-48.22078-155.979163v-1.726582c0-155.394195 125.6652-281.38718543 280.70824-281.38718543zm-39.373647 892.09898543 21.008113 18.973612c.45314.322066.892786.662979 1.317767 1.021882l.420049.364868.555735.494618.538375.464199.223052.177121c.136657.099586.262394.168313.456238.242965l.219473.07799.282437.090115.590048.177237c.077095.022156.155594.044194.235507.06611l.496522.130002.530925.126919.565797.123684c.097232.020335.195936.04053.296122.06058l.618987.118545.655034.114928.691552.11116.728539.107239.765996.103166.803924.09894.842322.094563.88119.090033.920527.08535.960336.080517 1.000613.075529 1.041361.07039 1.082579.065099 1.572287.080753.961729-.046863 1.618739-.09179 1.029281-.067338.98991-.072081.950997-.076674.912542-.08112.874542-.085417.837-.089566c.136397-.015265.271249-.030697.404565-.046292l.781543-.095511.745144-.099289.709201-.102918.673714-.106399.638686-.109731.604114-.112916c.09783-.019077.194238-.03828.289235-.057606l.553112-.117414c.089387-.019807.177381-.039732.263992-.059771l.503139-.121578.470395-.124169c.075696-.020902.150046-.041907.223061-.063009l.422135-.127777.344403-.112762.355479-.121927.176449-.07337c.135066-.063586.2484-.138366.401534-.262456l.206802-.175018.949475-.843097c.412935-.367994.840721-.718488 1.282208-1.05064l.434874-.318501 20.781311-18.765358c-11.357375 1.613952-24.529733 2.420929-39.517073 2.420929-15.623127 0-29.347676-.876895-41.173645-2.630685zm-53.653868-167.514336c2.232469 3.242046 4.253686 6.439357 6.02641 9.58418 1.837373 3.25951 3.392748 6.433284 4.635327 9.556173.031627.004295.065361.00937.09911.014442l1.8558.273478c.623693.090123 1.252478.179208 1.886354.267257l1.9169.261031c.322029.042987.64533.085714.969903.128181l1.962705.251689c.659323.082857 1.323733.164676 1.99323.245456l2.023748.239221 2.054257.232982 2.084758.226741 2.115251.220496 2.145736.214249 2.176212.207997 2.20668.201744 2.23714.195487 2.267592.189226 2.298035.182964 2.32847.176697 2.358897.170429 2.389316.164156 2.419726.15788 2.450129.151602 2.480522.145321 2.510908.139036 2.541286.132749 2.571655.126458 2.602016.120164 3.959932.168439 2.677883.104416 2.708215.098112 4.119176.13534 2.784009.082337 2.814313.076022 2.844607.069703 4.323697.092702 2.920309.053895 2.950576.047565 4.482594.059475 4.550648.045217 4.618672.030948 4.68667.016671 3.162209.003176c5.522847 0 10 4.477153 10 10 0 5.522848-4.477153 10-10 10l-4.834649-.007348-3.185318-.013068-3.155103-.019607-4.676019-.041676-3.0796-.035966-4.562804-.06623-4.494912-.080976-2.958904-.062181-2.92875-.068743-2.898605-.075307-2.868468-.081875-2.838339-.088446-2.808219-.095019-2.778106-.101597-4.110716-.164732-2.702862-.118052-2.672778-.12464-2.642702-.13123-2.612635-.137823-2.582577-.144421-2.552526-.15102-2.522484-.157624-2.492449-.164229-2.462424-.170838-2.432406-.177451-2.402397-.184065-2.372395-.190684-2.342403-.197305-2.312418-.20393-2.282442-.210557-2.252473-.217187-2.222513-.223821c-.367923-.037857-.734598-.07599-1.100024-.114399l-2.177589-.233778-2.14765-.240418c-.355447-.040623-.709647-.081524-1.0626-.122701l-2.102756-.250386c-.347965-.042285-.694685-.084847-1.040157-.127686l-.691136-.088137.035155.19099.1175.680019.111442.681091.106035.684368.150342 1.037522.254669 1.887187.306256 1.884992.288602 1.867891.210306 1.424921.130693.925019.299695.038137c.164195.020844.328708.041624.493539.062338l1.99323.245457c.334748.04039.670768.08052 1.00806.12039l2.039003.236102c.342377.03883.686024.077401 1.030942.115711l2.084758.226741 2.115251.220496 2.145736.214248 2.176212.207998 2.20668.201743 2.23714.195487c.375395.03206.752058.063858 1.12999.095396l2.282814.186096 2.313254.179831 2.343685.173563c.393149.028405.787567.056548 1.183251.08443l2.389316.164156 2.419726.157881 2.450129.151602 2.480522.145321 2.510908.139036 2.541286.132749 2.571655.126457 2.602016.120165 2.632368.113867 4.005447.158987 2.708215.098112 2.738538.091805 4.164647.125872 2.814313.076022 4.278269.102185 2.890035.060221 2.920309.053894 4.437211.068974 2.995959.038066 3.026206.03173 3.056442.025389 3.086672.019047 3.116893.012701 4.731986.007146c5.522847 0 10 4.477153 10 10 0 5.522848-4.477153 10-10 10l-3.230657-.003266-4.78931-.017151-4.721326-.031862-4.65337-.046585-3.064506-.03924-3.034324-.045791-3.004149-.052345-2.973984-.058902-2.943826-.065461-2.913677-.072025-2.883536-.078591-2.853402-.08516-2.823278-.091732-2.793161-.098308-2.763053-.104886-2.732953-.111467-2.702862-.118052c-.447969-.020224-.894686-.040723-1.340149-.061496l-2.657739-.127934-2.627668-.134527-2.597605-.141121-2.56755-.14772-2.537504-.154322-2.507465-.160926-2.477436-.167533-2.447414-.174144-2.4174-.180758-2.387395-.187374-2.357398-.193994-2.32741-.200617-2.297428-.207243-2.267457-.213872-2.237492-.220504-2.207536-.227139-2.177589-.233777c-.720873-.079033-1.436756-.159172-2.14765-.240419l-.829649-.097305.067803.661952c.014002.139784.02653.279707.037583.419747l.02873.420444.487905 8.410759.122979 2.249098.18854.023311c.16801.020065.336338.040065.504984.06l2.039003.236102c.342377.03883.686024.077401 1.030942.115711l2.084758.226741 2.115251.220496 2.145736.214248 2.176212.207998 2.20668.201743 2.23714.195487c.375395.03206.752058.063858 1.12999.095396l2.282814.186096 2.313254.179831 2.343685.173563c.393149.028405.787567.056548 1.183251.08443l2.389316.164156 2.419726.157881 2.450129.151602 2.480522.145321 2.510908.139036 2.541286.132749 2.571655.126457 2.602016.120165 2.632368.113867 4.005447.158987 2.708215.098112 2.738538.091805 4.164647.125872 2.814313.076022 4.278269.102186 2.890035.06022 2.920309.053894 4.437211.068974 2.995959.038066 3.026206.03173 3.056442.025389 3.086672.019047 3.116893.012701 4.731986.007146c5.522847 0 10 4.477153 10 10 0 5.522848-4.477153 10-10 10l-3.230657-.003266-4.78931-.017151-4.721326-.031862-4.65337-.046585-3.064506-.03924-3.034324-.045791-3.004149-.052345-2.973984-.058902-2.943826-.065461-2.913677-.072025-2.883536-.078591-2.853402-.08516-2.823278-.091732-2.793161-.098308-2.763053-.104885-2.732953-.111468-2.702862-.118052c-.447969-.020224-.894686-.040723-1.340149-.061496l-2.657739-.127934-2.627668-.134527-2.597605-.141121-2.56755-.14772-2.537504-.154322-2.507465-.160926-2.477436-.167533-2.447414-.174144-2.4174-.180758-2.387395-.187374-2.357398-.193994-2.32741-.200617-2.297428-.207243-2.267457-.213872-2.237492-.220504-2.207536-.227139-2.177589-.233777c-.444314-.048712-.886732-.097845-1.327254-.147398l.078715 2.89825c.106674 4.183057.171806 8.293632.195309 12.328339 24.082416 3.291874 48.122034 4.93834 72.118108 4.93834 24.414631 0 47.923422-1.704404 70.526373-5.113213l.032951-4.329408.062111-5.597745.060931-4.263398.010768-.293314.17928-4.038155.59213-12.818443.483102-9.642538.273448-4.967887c.016235-.281098.038405-.561822.066493-.841985l.301959-2.980813.501249-4.780932.206791-1.897202.270614-2.404664.333351-2.828053.199143-1.614295.266559-2.070421.269886-1.991746.275552-1.92944.21179-1.416038.217281-1.397103.261986-1.609396.136404-.7383.339606-1.887136.356607-1.966581.344424-1.848571.224686-1.172444.222028-1.128432.220473-1.087795.220021-1.050533.220671-1.016646.222425-.986132.22528-.958996.229238-.935232c.038598-.154079.077406-.307309.116449-.45976l.237244-.905915.243959-.89059.251777-.878639.260698-.870063c.132762-.43345.269284-.864949.410185-1.296396l.287824-.863388c.049005-.144074.098542-.288282.148635-.432696l.307408-.869506.321841-.877805.337379-.889477.354018-.904525.371761-.922947.390605-.944745.410553-.969917.431604-.998464c.659158-1.510284 1.447553-3.122351 2.362972-4.846447l.564476-1.047983c.096614-.176932.194493-.355004.293637-.534228l.610005-1.089235c.104189-.183869.209637-.368909.316341-.555131l.655296-1.131595.685355-1.160449c.116725-.195839.234698-.392902.353917-.591198l.730247-1.204652.760041-1.234736.78973-1.265311.944155-1.492148c.1469-.230487.294861-.461904.443886-.694264l-1.036829.095402-1.779889.157045-2.721966.229839-2.78428.223131-1.890669.14512-3.863728.281772-1.972896.136763-3.010405.200147-3.071433.19432c-14.065276.868206-29.053572 1.478556-44.089717 1.876268l-4.86028.121148-4.278582.094138-4.086861.078511-3.880223.063626-4.78242.061886-1.97126.018016-7.946629-.002589-4.869106-.055218-3.451418-.052094-5.013464-.091074-5.318854-.115202-2.206523-.053162c-15.038746-.372852-30.081124-.955682-44.251963-1.793709l-3.522085-.214682-3.051121-.196242-2.000142-.134088-1.972896-.136763-3.863725-.28177-1.890667-.145119-2.784274-.223128-2.721959-.229835-1.779884-.157043zm322.913589-371.420482-.866529.136766c-50.381125 7.912625-125.359772 12.900318-230.056382 12.901264-13.080557 0-25.697262-.078085-37.860109-.229881l-6.589329-.090095c-81.017956-1.205395-141.424269-5.743824-184.296037-12.377574 7.127011 22.853431 17.638842 44.51878 31.244519 64.378062l.345617.518243.31325.485331.618271.982171 1.049877 1.710557 1.238738 2.060058 1.60988 2.722852 1.093098 1.872107.914024 1.578236 1.666823 2.906453 2.228435 3.942311 1.519312 2.72671 1.220628 2.214502c8.35615 15.227641 16.679735 31.782703 24.443474 49.127642 23.205001 51.842204 37.168815 100.715139 37.168815 143.174478l.000701 41.979995.011146.42149.026355.552424.04159.630689c.05343.715129.132032 1.490944.238658 2.311261.333409 2.565054.893385 5.222224 1.705193 7.819734 1.937595 6.199647 5.006426 11.175877 9.297251 14.578251l.223007.034305 1.174559.175944 1.204242.174126 1.861266.257699 1.926119.253408 1.319538.166497 2.031635.245994 2.093398.241389 2.154004.236664 1.4691.155093 1.495177.152906 2.290909.225183 2.347651.220064 2.403236.214828 3.288774.27809 2.528424.202152 1.714421.131648 4.384369.317944 3.605787.242571 2.759875.17487c13.806705.852246 28.570642 1.4534 43.391188 1.845393l4.793214.119473 5.247515.113664 5.893708.10505 3.580999.051088 3.884247.041018 7.710655-.002016 2.565404-.026019 4.641868-.064071 5.893708-.10505 4.175138-.088955 3.249796-.07717c15.696096-.38915 31.38812-1.010027 46.006984-1.912405l2.759874-.17487 3.605788-.242572 2.647305-.188833 1.737067-.129112 3.405861-.265801 2.493306-.205843 2.439656-.211276 3.167416-.289952 3.067233-.299122 1.49519-.152913 1.469115-.155101 2.154029-.236678 2.093428-.241404 1.36138-.163504 1.989854-.249019 1.291257-.168471 1.88306-.256307.559683-.080801.316116-.245136.40634-.31428c4.295281-3.400427 7.343156-8.336945 9.256181-14.478977.800123-2.568904 1.349454-5.196471 1.674475-7.737122.124765-.975273.20975-1.888245.260132-2.713821l.030974-.595131.011919-.334124.005661-.277019.000678-41.98803c0-42.408957 13.736266-90.964157 36.544926-142.271688 7.906372-17.785192 16.392988-34.688604 24.884237-50.133608l.493936-.896501 1.215353-2.190082 1.920938-3.418738 1.398971-2.458303 1.559804-2.70942 2.226314-3.803067.895019-1.502591.95694-1.583137.558488-.908281.488551-.780242.50404-.781767.166251-.248948.988732-1.422417c13.976093-20.199983 24.740014-42.296885 31.977338-65.631403zm-229.886074-313.1641674c-132.92829 0-240.70824 108.0610884-240.70824 241.3871854 0 17.335015 1.824881 34.390306 5.372613 50.950013 49.035621 8.418922 125.17092 13.864012 234.29879 13.864999 27.085249-.000245 52.137954-.33582 75.248172-.968944l5.984748-.171888c68.35995-2.054983 119.287234-6.761497 155.217774-13.097617 3.495249-16.440791 5.293288-33.370507 5.293288-50.576563 0-133.325548-107.780498-241.3871854-240.707145-241.3871854z"/></svg>