<svg height="960" viewBox="0 0 960 960" width="960" xmlns="http://www.w3.org/2000/svg"><path d="m53.0519778 126.650716c6.6202973-14.782405 21.50185-24.113267 37.6918873-23.633138l459.1098819 13.615276c14.062012.41702 26.871161 8.190504 33.733193 20.471652l126.02706 225.553494 129.540926 224.336657 72.525959 129.149375c6.066259 10.802881 6.784143 23.807037 1.943852 35.212006l-17.040827 40.152559c-5.977586 14.084727-19.466206 23.525507-34.746296 24.319177l-499.415152 25.940368c-16.169272.839856-31.250119-8.15063-38.201127-22.773702l-291.3475998-612.917867c-5.0288096-10.579278-5.1676641-22.831201-.3799114-33.521733zm818.7780212 620.795175-480.849 26.882-15.61 26.714 484.391753-25.160267zm-787.6430004-592.452-15.1869986 33.910234 287.490999 604.805766 17.266-29.548zm16.6010004-11.661 290.419001 610.951109 480.917999-26.886109-67.609704-120.400834-129.667633-224.555002-126.179626-225.826779zm64.175595 26.66451.257517.002463 364.345858 8.060655c3.581564.079211 6.847135 2.068257 8.560711 5.214292l274.654142 504.250709c3.523988 6.469859-.920548 14.399808-8.278543 14.77059l-390.762932 19.691218c-4.063018.204742-7.8451-2.072299-9.565303-5.758887l-248.237069-532c-3.134201-6.716947 1.872756-14.389888 9.283136-14.228577zm465.044405 312.41349h-312.864l102.310001 219.262109 320.609999-16.155109zm-102.1-276.087-3.916 6.292 138.702267 255.017167c3.583013 6.587729-1.090909 14.593705-8.527209 14.774808l-.257511.00313-1.153547-.000105 108.759846 200.715548c.226957.418849.42092.846727.582774 1.280649l25.509381-1.285088zm-331.434999 12.959109 113.922 243.127 317.921423.000816c.497179-.412604 1.041848-.782835 1.631531-1.10236 1.880845-1.019154 3.943766-1.372978 5.918431-1.141796l-126.277707-232.175096c-2.04187.152469-4.148846-.318692-6.020387-1.483445-.331302-.206185-.646362-.428589-.944793-.665544zm-15.607-28.93 4.047999 8.674891 319.713 6.853 5.136-8.254z"/></svg>