<?xml version="1.0" encoding="iso-8859-1"?>
<!-- Generator: Adobe Illustrator 19.0.0, SVG Export Plug-In . SVG Version: 6.00 Build 0)  -->
<svg version="1.1" id="Capa_1" xmlns="http://www.w3.org/2000/svg" xmlns:xlink="http://www.w3.org/1999/xlink" x="0px" y="0px"
	 viewBox="0 0 512 512" style="enable-background:new 0 0 512 512;" xml:space="preserve">
<g>
	<g>
		<path d="M497,348.29V332h7.5c4.143,0,7.5-3.357,7.5-7.5s-3.357-7.5-7.5-7.5H497v-2.5c0-4.143-3.357-7.5-7.5-7.5
			s-7.5,3.357-7.5,7.5v2.5h-7.5c-4.143,0-7.5,3.357-7.5,7.5s3.357,7.5,7.5,7.5h7.5v16.29c-8.729,3.096-15,11.433-15,21.21v7.5h-15
			v-22.5c0-4.143-3.357-7.5-7.5-7.5H422V45h2.5c4.143,0,7.5-3.357,7.5-7.5s-3.357-7.5-7.5-7.5H422V7.5c0-4.143-3.357-7.5-7.5-7.5
			h-317C93.357,0,90,3.357,90,7.5V30h-2.5c-4.143,0-7.5,3.357-7.5,7.5s3.357,7.5,7.5,7.5H90v302H67.5c-4.143,0-7.5,3.357-7.5,7.5
			V377H45v-7.5c0-12.406-10.094-22.5-22.5-22.5S0,357.094,0,369.5v75c0,4.143,3.357,7.5,7.5,7.5H15v52.5c0,4.143,3.357,7.5,7.5,7.5
			s7.5-3.357,7.5-7.5V452h7.5c4.143,0,7.5-3.357,7.5-7.5V392h15v22.5c0,4.143,3.357,7.5,7.5,7.5H90v22.5c0,4.143,3.357,7.5,7.5,7.5
			h317c4.143,0,7.5-3.357,7.5-7.5V422h22.5c4.143,0,7.5-3.357,7.5-7.5V392h15v52.5c0,4.143,3.357,7.5,7.5,7.5h7.5v52.5
			c0,4.143,3.357,7.5,7.5,7.5s7.5-3.357,7.5-7.5V452h7.5c4.143,0,7.5-3.357,7.5-7.5v-75C512,359.723,505.729,351.386,497,348.29z
			 M30,437H15v-67.5c0-4.136,3.364-7.5,7.5-7.5s7.5,3.364,7.5,7.5V437z M90,407H75v-45h15V407z M248.5,437h-64.25V97.5
			c0-4.143-3.357-7.5-7.5-7.5s-7.5,3.357-7.5,7.5V437H105V15h64.25v52.5c0,4.143,3.357,7.5,7.5,7.5s7.5-3.357,7.5-7.5V15h64.25V437z
			 M327.75,437H263.5V15h64.25V437z M407,437h-64.25V15H407V437z M437,407h-15v-45h15V407z M497,437h-15v-67.5
			c0-4.136,3.364-7.5,7.5-7.5s7.5,3.364,7.5,7.5V437z"/>
	</g>
</g>
<g>
</g>
<g>
</g>
<g>
</g>
<g>
</g>
<g>
</g>
<g>
</g>
<g>
</g>
<g>
</g>
<g>
</g>
<g>
</g>
<g>
</g>
<g>
</g>
<g>
</g>
<g>
</g>
<g>
</g>
</svg>
