<svg id="Layer_1" enable-background="new 0 0 512.003 512.003" height="512" viewBox="0 0 512.003 512.003" width="512" xmlns="http://www.w3.org/2000/svg"><g><path d="m209.134 85.003h38.053l-18.155 32.185c-4.07 7.216-1.52 16.364 5.695 20.435 2.33 1.314 4.859 1.938 7.356 1.938 5.236 0 10.322-2.747 13.079-7.633l30.772-54.554c2.62-4.645 2.577-10.33-.112-14.935-2.688-4.604-7.62-7.435-12.952-7.435h-36.102l20.68-31.829c4.513-6.947 2.54-16.237-4.406-20.75-6.948-4.515-16.238-2.541-20.75 4.406l-35.735 55.001c-2.997 4.612-3.229 10.495-.605 15.328 2.623 4.833 7.682 7.843 13.182 7.843z"/><path d="m512.001 27.003c0-8.284-6.716-15-15-15s-15 6.716-15 15v12h-30v-12c0-8.284-6.716-15-15-15s-15 6.716-15 15l.001 60c0 19.554 12.541 36.227 29.999 42.419v106.58c0 22.997-17.343 42.007-39.635 44.669l-28.959-61.312c-15.642-33.117-40.868-51.355-71.033-51.355h-142.785c-30.173 0-55.401 18.243-71.037 51.368l-34.567 73.228c-.07.149-.121.302-.186.452-37.783 18.868-63.797 57.926-63.797 102.951v10 61c0 24.813 20.187 45 45 45h30c24.813 0 45-20.187 45-45v-16h242v16c0 24.813 20.187 45 45 45h30.001c24.813 0 45-20.187 45-45l-.001-71c0-37.131-17.695-70.203-45.089-91.242 26.508-11.577 45.088-38.033 45.088-68.759v-106.579c17.459-6.192 30.001-22.865 30.001-42.42zm-59.999 369v10c0 8.271-6.729 15-15 15h-85.467c-6.968-34.192-37.271-60-73.491-60h-74.084c-36.219 0-66.522 25.808-73.491 60h-85.467c-8.271 0-15-6.729-15-15v-10c0-6.533.766-12.886 2.167-19h63.274c29.5 0 53.5-24 53.5-53.5v-12.5h184.117v12.5c0 29.5 24 53.5 53.5 53.5h63.274c1.402 6.114 2.168 12.467 2.168 19zm-65.442-49c-12.958 0-23.5-10.542-23.5-23.5v-12.5h3.941c28.63 0 53.981 14.243 69.39 36zm-260.879-114.827c7.359-15.589 20.95-34.173 43.908-34.173h142.784c22.951 0 36.545 18.581 43.906 34.167l23.063 48.831h-23.342c-.013 0-.026.002-.039.002h-240.959c-4.293 0-8.529.244-12.701.705zm-10.679 78.827h3.942v12.5c0 12.958-10.542 23.5-23.5 23.5h-49.832c15.409-21.757 40.759-36 69.39-36zm-25 156c0 8.271-6.729 15-15 15h-30c-8.271 0-15-6.729-15-15v-18.581c4.695 1.665 9.742 2.58 15 2.58h45zm71.528-46c6.191-17.461 22.873-30 42.43-30h74.083c19.557 0 36.239 12.539 42.43 30zm275.473 61h-30.001c-8.271 0-15-6.729-15-15v-16h45c5.259 0 10.306-.915 15.001-2.581v18.581c0 8.271-6.729 15-15 15zm44.999-395c0 8.271-6.729 15-15 15s-15-6.729-15-15v-18h30z"/></g></svg>