<?xml version="1.0" encoding="UTF-8"?>
<svg xmlns="http://www.w3.org/2000/svg" viewBox="0 0 64 64" width="512" height="512"><g id="Layer_31" data-name="Layer 31"><path d="M20.713,34.469a2,2,0,0,1,1.653-.437A2.117,2.117,0,0,1,24,36.17a1.494,1.494,0,0,1-.3.894L18.2,44.4A1,1,0,0,0,19,46h7V44H21l4.3-5.735A3.516,3.516,0,0,0,26,36.17a4.133,4.133,0,0,0-3.292-4.108A4,4,0,0,0,18,36h2A2,2,0,0,1,20.713,34.469Z"/><path d="M28,43h4v3h2V43h2V41H34V33a1,1,0,0,0-1.874-.485l-5,9A1,1,0,0,0,28,43Zm4-6.141V41H29.7Z"/><path d="M38,34a3,3,0,1,0-3-3A3,3,0,0,0,38,34Zm0-4a1,1,0,1,1-1,1A1,1,0,0,1,38,30Z"/><path d="M47,1A14.015,14.015,0,0,0,33,15H9a6.006,6.006,0,0,0-6,6V57a6.006,6.006,0,0,0,6,6H45a6.006,6.006,0,0,0,6-6V28.41A14,14,0,0,0,47,1ZM9,17H33.16a13.852,13.852,0,0,0,.779,3H5.142A4,4,0,0,1,9,17ZM45,61H9a4,4,0,0,1-3.858-3H48.858A4,4,0,0,1,45,61Zm4-5H5V22H34.894a14.072,14.072,0,0,0,1.4,2H12a4,4,0,0,0-4,4V50a4,4,0,0,0,4,4H42a4,4,0,0,0,4-4V28.949c.332.024.662.051,1,.051a13.884,13.884,0,0,0,2-.16ZM38.368,26A13.945,13.945,0,0,0,44,28.668V50a2,2,0,0,1-2,2H12a2,2,0,0,1-2-2V28a2,2,0,0,1,2-2ZM47,27A12,12,0,1,1,59,15,12.013,12.013,0,0,1,47,27Z"/><path d="M47,19a3,3,0,1,0,3,3A3,3,0,0,0,47,19Zm0,4a1,1,0,1,1,1-1A1,1,0,0,1,47,23Z"/><path d="M42.051,17.051l1.414,1.414a5,5,0,0,1,7.07,0l1.414-1.414a7,7,0,0,0-9.9,0Z"/><path d="M39.222,14.222l1.414,1.414a9,9,0,0,1,12.728,0l1.414-1.414a11,11,0,0,0-15.556,0Z"/><path d="M36.394,11.394l1.414,1.414a13,13,0,0,1,18.384,0l1.414-1.414a15,15,0,0,0-21.212,0Z"/></g></svg>
