<svg height="960" viewBox="0 0 960 960" width="960" xmlns="http://www.w3.org/2000/svg"><path d="m248.887554 5.07417236.564838.03845073 506.404336 38.07190901c20.660514 1.5532749 36.678115 18.6131083 36.996401 39.2606643l.004828.6267694v61.0198622c0 33.051921-25.611136 68.865294-54.911759 78.922108l-.889004.296839-.744356.233474.000208 653.338041c0 20.459317-15.419877 37.547086-35.626189 39.760458l-.613767.062507-.622874.053822-488.313045 38.416367c-23.023585 1.811302-42.739213-16.183237-43.131223-39.178447l-.005948-.69834v-841.6940126c0-12.4650177 5.810118-24.2064174 15.693762-31.7680276l.432286-.3261214 38.45362-28.6045876c7.575777-5.63541144 16.895557-8.40563453 26.307886-7.83173544zm3.295756 131.99126064c-6.295272 14.248399-19.471543 27.275264-39.000969 39.109169-1.622764.983318-3.413833 1.450712-5.182084 1.449077l-.000257 737.674978 488.313046-38.416367v-684.568031l1.077513-.283273 3.173651-.827979 2.066695-.533779 2.027438-.519207 2.967546-.751477 2.879217-.718661 2.790885-.685826 2.702556-.652974 2.614224-.620103 2.525894-.587216 2.437563-.554309c6.079189-1.369007 13.855561-7.713044 19.866474-16.075585zm2.850519 28.53967.277669.010035 204.208162 10.160173 204.181445 11.417229c3.413832.190891 6.34861 2.078512 8.004132 4.816664 2.675521 1.729759 4.46125 4.699478 4.570245 8.074456l.005287.327848v542.060596l-.001769.066896.001769.090223v90.343433c0 3.325297-1.62904 6.293072-4.155537 8.115388-1.471074 2.996948-4.402114 5.164447-7.907709 5.541907l-.277255.026008-408.328225 32.666636c-5.726297.458109-10.639192-3.986263-10.793715-9.691141l-.003746-.277011-.001076-4.528475c-.042504-.331804-.068789-.668894-.078009-1.010484l-.003719-.275946v-98.19314l.000222-.086398-.000222-.084373v-589.158839c0-.742646.080688-1.465513.233583-2.160609l.006586-.03166c.853976-4.764316 5.077635-8.331625 10.061882-8.219416zm398.107171 633.066897-388.328 25.14v28.95l388.328-28.842zm0-45.304-388.328 21.435v28.966l388.328-25.139zm0-45.459-92.125 4.204-296.203 13.516v28.974l388.328-21.422zm0-45.3-388.328 14.015v28.984l388.328-17.719zm0-45.3-388.328 10.313v28.989l388.328-14.016zm0-45.299-195.016 3.319-193.312 3.29v28.995l190.945-5.07 197.383-5.242zm0-45.299-329.236 2.464-59.092.442v28.999l155.054-2.639 233.274-3.971zm-388.328-46.094v28.999l388.328-2.906v-25.296zm0-49.001v29l376.666.774 11.662.024v-25.295zm0-48.998v28.997l388.328 4.502v-25.294l-245.454-5.187zm0-48.998v28.994l388.328 8.204v-25.29zm0-48.998v28.988l360.978 11.07 27.35.839v-25.285l-121.607-4.889zm0-48.995v28.979l388.328 15.612v-25.277zm0-48.995v28.97l388.328 19.315v-25.268zm-28.36-134.193-28.453 21.1656444.000275 82.1847346c19.156435-12.687919 28.254894-25.503576 28.450133-38.269166l.003212-.420186zm20-6.687.00062 71.348027-.00162.202973 492.318931 32.508798c1.202005.079369 2.340335.367997 3.381807.828007.406459-1.949838.647534-3.899782.696089-5.826564l.00913-.721413v-61.0198622z"/></svg>