<svg height="960" viewBox="0 0 960 960" width="960" xmlns="http://www.w3.org/2000/svg"><g fill="#000" fill-rule="evenodd"><path d="m513.981013 2c232.806647 0 419.018987 215.18976 419.018987 478s-186.21234 478-419.018987 478c-35.455486 0-70.360305-5.026144-104.108585-14.855548l-.694428-.204452-3.791826-.619783c-214.914092-36.841302-375.1223146-228.362931-378.3369166-455.360361l-.0492574-6.959856c0-232.355734 164.553248-429.0399697 384.98151-463.4012322l-2.79651.4572322.689295-.202635c32.660526-9.51076928 66.402564-14.52413756 100.677471-14.84141543l1.714187-.01194957zm2.008089 40.3260834c-207.878822 0-376.397903 196.0992796-376.397903 437.9999996 0 224.117792 144.652995 408.920656 331.241744 434.880426l.003743-.013077c14.159585 1.854086 28.555702 2.806568 43.144327 2.806568 132.447266 0 249.027199-78.508009 316.794265-197.451677 38.952067-68.974449 61.611727-151.519034 61.611727-240.22224 0-136.361533-53.549881-258.168858-137.513553-338.499383-48.743933-46.4209936-107.696474-79.0424682-172.381236-92.6895617-21.587699-4.474321-43.8109-6.8110549-66.503114-6.8110549zm-207.552088 47.6385471-3.133504 1.505029c-140.772566 68.3023685-238.30351 216.5948495-238.30351 388.5303405 0 172.106647 97.725219 320.52319 238.7242 388.7332-111.962076-81.066162-186.133001-224.946045-186.133001-388.407117 0-164.779268 75.372019-309.660258 188.845815-390.3614525zm290.521004 97.1163505c133.943215 0 241.631515 131.684083 241.631515 293.245102 0 161.56102-107.6883 293.245102-241.631515 293.245102-133.943214 0-241.631514-131.684082-241.631514-293.245102 0-161.561019 107.6883-293.245102 241.631514-293.245102zm0 20c-121.909891 0-221.631514 121.942221-221.631514 273.245102 0 151.302882 99.721623 273.245102 221.631514 273.245102 121.909892 0 221.631515-121.94222 221.631515-273.245102 0-151.302881-99.721623-273.245102-221.631515-273.245102z" fill-rule="nonzero"/><path d="m587.758476 798.37775 21.87404-1.90686c10.179676-.887408 18.431933 6.645462 18.431933 16.825138v33.791877c0 10.179675-8.252257 19.151319-18.431933 20.038728l-21.87404 1.90686c-10.179676.887409-18.431933-6.645462-18.431933-16.825137v-33.791877c0-10.179676 8.252257-19.15132 18.431933-20.038729z"/></g></svg>