<svg height="960" viewBox="0 0 960 960" width="960" xmlns="http://www.w3.org/2000/svg"><path d="m98.609673 260.032401.7869923.039464 97.9999997 5.882398c13.081055.785183 24.381872 7.795652 31.090533 18.045644l391.512802.000093c11.075649 0 21.099925 4.501468 28.3431 11.77468l.372158.378663.171742.180657 150.961 7.21.379073-.191059c3.812422-1.891576 7.979953-3.197221 12.391708-3.794144l.698607-.088343.610708-.067162 41-4.195497c1.600824-.163811 3.187426-.23121 4.75436-.207115.367828-.002716.736985-.000381 1.107281.007035l.556275.014938 55 1.851815c21.339687.718494 38.311567 18.057905 38.653988 39.331501v268.972015c0 19.985516-14.743055 36.870084-34.476757 39.616905l-.599508.078899-55 6.822016c-1.196491.148409-2.385943.242583-3.566052.284558l-.883294.021725c-4.169148.149817-8.455422-.360496-12.736294-1.61991l-.713408-.216854-26.799687-8.409323-160.226 24.576.001 25.668c0 22.020733-17.771134 39.807934-39.625342 39.998698l-.663484.000381-.672638-.010636-398.343561-9.577279c-5.474099 4.592997-12.22232 7.760485-19.711032 8.891849l-.625762.089554-98 13.246932c-5.8088149.785194-11.716522.283794-17.3055396-1.465415l-.6196692-.19949-55-18.201288c-16.2118921-5.365042-27.2112939-20.4204-27.4329722-37.457713v-378.63214c0-19.486315 14.0347416-36.10558 33.1803043-39.41442l.5817238-.096183 55-8.683452c2.5951612-.409727 5.2237423-.562673 7.8476449-.456997zm-2.727673 40.397599-53.882 8.447v377.921712l53.882 17.831288zm21 2.048v399.076l76.766-10.402-.000272-2.940222c-.688784-2.023772-1.062125-4.192327-1.062125-6.446357v-358.188647c0-2.256276.37362-4.425288 1.062367-6.448544l.00003-10.03123zm502.757 21.522h-406.639v357.775l406.639542 9.775439zm-72.036427 9.925305 47.25964.297555c5.498183.034594 9.937082 4.50151 9.937082 9.999802v277.811875c0 5.562497-4.53921 10.055901-10.101421 10.000011l-47.25964-.47986c-5.482999-.055612-9.898579-4.516205-9.898579-9.999486v-277.629897c0-5.54743 4.515593-10.034701 10.062918-10zm-78.43509-.413393 47.259639.297555c5.498184.034594 9.937083 4.50151 9.937083 9.999802v277.558875c0 5.562498-4.53921 10.055901-10.101421 10.000012l-47.25964-.479861c-5.482999-.055612-9.898579-4.516204-9.898579-9.999485v-277.376898c0-5.54743 4.515593-10.034701 10.062918-10zm-78.43509-.413393 47.259639.297555c5.498184.034594 9.937083 4.50151 9.937083 9.999802v277.305876c0 5.562497-4.53921 10.055901-10.101421 10.000011l-47.25964-.47986c-5.482999-.055612-9.898579-4.516205-9.898579-9.999486v-277.123898c0-5.54743 4.515593-10.034701 10.062918-10zm-78.43509-.413393 47.259639.297555c5.498184.034594 9.937083 4.50151 9.937083 9.999802v277.052877c0 5.562497-4.53921 10.055901-10.101421 10.000011l-47.25964-.479861c-5.482999-.055611-9.898579-4.516204-9.898579-9.999485v-276.870899c0-5.54743 4.515593-10.034701 10.062918-10zm-78.43509-.413393 47.259639.297555c5.498184.034594 9.937083 4.50151 9.937083 9.999802v276.799877c0 5.562497-4.53921 10.055901-10.101421 10.000011l-47.25964-.47986c-5.482999-.055612-9.898579-4.516205-9.898579-9.999486v-276.617899c0-5.54743 4.515593-10.034701 10.062918-10zm407.219179 4.255716-.011392 14.401551 25.800164.998669c5.275882.204082 9.466753 4.469167 9.609697 9.715514l.00377.277013v202.021377c0 4.997736-3.689747 9.228113-8.641126 9.907243l-26.942505 3.695184-.037763 51.092093 180.777305-30.593148v-252.000663zm-83.542392 17.460551v257.668l27.26.276v-257.772zm-78.435-.414v257.415l27.26.277v-257.52zm388.14816-18.176467-.00016 275.702467 47.748-5.922016v-267.938984zm-466.58316 17.763467v257.162l27.26.276v-257.266zm-78.435-.414v256.909l27.26.277v-257.014zm-78.435-.413v256.656l27.259.277v-256.761zm603.453-16.132-7.7708.795616c1.381627 2.720556 2.158342 5.795809 2.158342 9.044666v252.000663c0 2.825027-.590211 5.530662-1.662353 7.988763l7.274811 2.282292zm-153.608254 16.227887.276782.00502 40.919933 1.296977c5.396802.171055 9.683204 4.595469 9.683204 9.994981v193.696311c0 5.082025-3.811712 9.355858-8.860645 9.934881l-40.919932 4.692793c-5.935318.680676-11.139356-3.96066-11.139356-9.934881v-199.686082c0-5.646994 4.672636-10.173875 10.316796-9.99498zm68.035672 1.799544.276699.004897 40.919933 1.278762c5.398602.168708 9.687649 4.593883 9.687649 9.995121v185.355745c0 5.079322-3.807774 9.351783-8.853609 9.934072l-40.919933 4.722156c-5.937651.685205-11.146391-3.957015-11.146391-9.934072v-191.356664c0-5.645246 4.669859-10.17145 10.312351-9.99512zm-119.196418 16.769569v186.14l14-1.92v-183.679zm61.12 1.752v178.152l20.92-2.399v-175.09zm68.04 1.795v169.82l20.92-2.415v-166.751z"/></svg>