<?xml version="1.0"?>
<svg xmlns="http://www.w3.org/2000/svg" id="Layer_1" data-name="Layer 1" viewBox="0 0 64 64" width="512" height="512"><path d="M27,16.034v3.348l-6,3V19.864H19v3.518l-6,3V24H11v3.383l-6,3v-2.35H3V52.721l26,8.666V16.034ZM13,48.853V43h6v7.1Zm6,3.293v3.8l-6-2V50.9Zm0-26.528v4.327l-6,2V28.618Zm-6,8.436,6-2V41H13ZM11,41H5V36.721l6-2Zm0-8.388-6,2V32.618l6-3ZM5,43h6v5.437l-6-1.25Zm16,0h6v8.769l-6-1.25Zm6-2H21V31.387l6-2Zm0-13.722-6,2v-4.66l6-3ZM5,49.23l6,1.25v2.8l-6-2Zm16,7.383v-4.05l6,1.249v4.8Z"/><path d="M59,28.032v2.35l-6-3V24H51v2.383l-6-3V19.864H43v2.518l-6-3V16.034H35V61.387l26-8.666V28.032ZM45,50.1V43h6v5.853Zm6,.793v3.05l-6,2v-3.8Zm0-22.278v3.327l-6-2V25.618ZM51,41H45V32.054l6,2Zm2-6.279,6,2V41H53ZM43,29.278l-6-2v-5.66l6,3Zm0,2.109V41H37V29.387ZM37,43h6v7.519l-6,1.25Zm16,0h6v4.187l-6,1.25Zm6-8.388-6-2V29.618l6,3Zm-22,19.2,6-1.249v4.05l-6,2Zm16-.533v-2.8l6-1.25v2.049Z"/><path d="M34.187,14.756a3.1,3.1,0,0,0-4.372,0l-1.433-1.393a5.022,5.022,0,0,1,7.238,0Z"/><path d="M26.782,11.637l-1.433-1.394A9.214,9.214,0,0,1,32,7.411h0a9.213,9.213,0,0,1,6.65,2.832l-1.433,1.394A7.236,7.236,0,0,0,32,9.411h0A7.235,7.235,0,0,0,26.782,11.637Z"/><path d="M40.252,8.518a11.435,11.435,0,0,0-16.5,0L22.316,7.124a13.434,13.434,0,0,1,19.37,0Z"/><circle cx="32.001" cy="16.589" r="1"/></svg>
