<svg id="Capa_1" enable-background="new 0 0 512 512" height="512" viewBox="0 0 512 512" width="512" xmlns="http://www.w3.org/2000/svg"><g><path d="m497.662 246c8.86-9.026 14.338-21.383 14.338-35 0-27.57-22.43-50-50-50h-32v-116c0-24.813-20.187-45-45-45h-230c-24.813 0-45 20.187-45 45v116h-20.181c-26.847 0-51.798 14.48-65.118 37.789l-22.725 39.769c-1.295 2.266-1.976 4.832-1.976 7.442v210c0 8.284 6.716 15 15 15h95.187c2.032 22.945 21.348 41 44.813 41h240c23.465 0 42.781-18.055 44.812-41h22.188c27.57 0 50-22.43 50-50 0-13.617-5.478-25.974-14.338-35 8.86-9.026 14.338-21.383 14.338-35s-5.478-25.974-14.338-35c8.86-9.026 14.338-21.383 14.338-35s-5.478-25.974-14.338-35zm-15.662 105c0 11.028-8.972 20-20 20h-42c-11.028 0-20-8.972-20-20s8.972-20 20-20h42c11.028 0 20 8.972 20 20zm-62-50c-11.028 0-20-8.972-20-20s8.972-20 20-20h42c11.028 0 20 8.972 20 20s-8.972 20-20 20zm62-90c0 11.028-8.972 20-20 20h-42c-11.028 0-20-8.972-20-20s8.972-20 20-20h42c11.028 0 20 8.972 20 20zm-452 38.983 20.748-36.31c7.992-13.985 22.963-22.673 39.071-22.673h130.181c11.028 0 20 8.972 20 20s-8.972 20-20 20h-75c-8.284 0-15 6.716-15 15v20c0 19.299-15.701 35-35 35-8.284 0-15 6.716-15 15s6.716 15 15 15c5.163 0 10.181-.623 15-1.766v111.766h-80zm211.411-84.157c6.411-9.041 16.966-14.826 28.589-14.826 19.299 0 35 15.701 35 35s-15.701 35-35 35c-.335 0-.668-.018-1.001-.027.655-3.224 1.001-6.559 1.001-9.973 0-19.912-11.703-37.138-28.589-45.174zm153.589 316.174h-240c-8.271 0-15-6.729-15-15v-154.163c12.313-11.835 20-28.45 20-46.837v-5h60c12.544 0 24.015-4.654 32.802-12.312 5.565 1.528 11.314 2.312 17.198 2.312 35.841 0 65-29.159 65-65s-29.159-65-65-65c-26.526 0-50.062 16.237-59.992 40h-70.008v-116c0-8.271 6.729-15 15-15h230c8.271 0 15 6.729 15 15v120.187c-17.641 7.731-30 25.351-30 45.813 0 13.617 5.478 25.974 14.338 35-8.86 9.026-14.338 21.383-14.338 35s5.478 25.974 14.338 35c-8.86 9.026-14.338 21.383-14.338 35s5.478 25.974 14.338 35c-8.86 9.026-14.338 21.383-14.338 35 0 24.043 17.059 44.172 39.708 48.93-1.366 6.873-7.439 12.07-14.708 12.07zm67-41h-42c-11.028 0-20-8.972-20-20s8.972-20 20-20h42c11.028 0 20 8.972 20 20s-8.972 20-20 20z"/><circle cx="210" cy="75" r="15"/><circle cx="270" cy="75" r="15"/><circle cx="330" cy="75" r="15"/><path d="m270 291c-35.841 0-65 29.159-65 65s29.159 65 65 65 65-29.159 65-65-29.159-65-65-65zm0 100c-19.299 0-35-15.701-35-35s15.701-35 35-35 35 15.701 35 35-15.701 35-35 35z"/></g></svg>