<svg height="960" viewBox="0 0 960 960" width="960" xmlns="http://www.w3.org/2000/svg"><path d="m444.756808 9.99948852 2.337457.02035968 2.371205.0188671 3.620968.0390158 2.457339.0330794 3.752054.0600946 3.832517.0725115 3.954683.0858285 3.994828.0996812 2.60728.0730234 3.828585.119764 2.49842.0868807 3.66825.1412529 2.393499.1016753 2.352632.1078557 2.312397.1141861 2.272792.1206664 2.233816.1272967 2.19547.134077 2.157755.1410073 2.120669.1480877 2.084215.1553179 2.048389.1626982 2.013194.1702284c.332634.0290073.663829.0583345.993596.087985l1.961583.181805 1.927963.1897103 1.894974.1977656c.313114.0336405.624881.0676229.935312.1019503l1.84667.2101296 1.815256.2185598 1.784472.22714 1.754317.2358702 1.724793.2447503c2.850402.4154008 5.580411.8684271 8.203155 1.3622039l1.56088.3011812c2.580363.510202 5.056087 1.0617793 7.440297 1.6578569l1.41965.3630115c5.165887 1.3508058 9.901558 2.9200172 14.34679 4.740907 27.310163 11.1869984 41.889884 31.4843114 47.247156 60.1011163l.210659 1.1621813.215474 1.26121.220139 1.3586615.224655 1.4545361.22902 1.5488337.233235 1.6415544.2373 1.7326981.241216 1.8222647.24498 1.9102544.248595 1.9966671.379343 3.1535748.386632 3.339133.393415 3.519368.265796 2.443749.403595 3.807934.409027 3.973976.413954 4.134698.418373 4.290095.563831 5.952659.426716 4.631993.286026 3.1648.575094 6.506836.433391 5.028997.434603 5.150688.435309 5.267056.580634 7.194558.434986 5.517882.434004 5.616509.288539 3.796504.574494 7.711105.428017 5.880455.425008 5.957793.281418 4.012199.557549 8.114109.412945 6.157871.272531 4.136714.469606 7.27025.393068 6.226399.574772 9.352319.373149 6.241599.365008 6.245566.17942 3.123893.35261 6.249253.344222 6.250202.335733 6.249944.327146 6.248478.31846 6.245805.309673 6.241925.300789 6.236839.291806 6.230543.282721 6.223043.27354 6.214333c.044819 1.034929.089252 2.069445.133296 3.103523l.25958 6.199007.25015 6.187279c.0409 1.030169.081404 2.059799.121508 3.088865l.235819 6.167425.114286 3.078259.221265 6.144855c.072123 2.045593.142607 4.088426.211438 6.128299l.201512 6.110536c.065505 2.033751.12934 4.06434.191487 6.091566l.181362 6.071388.171139 6.050003c.027666 1.006485.054902 2.012028.081705 3.016605l.155618 6.015662.145147 5.99126.134576 5.965649.123906 5.938832c.039513 1.975007.077231 3.945343.113138 5.910807l.10227 5.881576c.016134.977759.03181 1.954251.047028 2.929448l.085782 5.835465c.013374.969923.026284 1.938503.038729 2.905713l.069071 5.786637c.010576.961634.020682 1.92185.030317 2.880621l.052137 5.735092c.030964 3.811572.05432 7.59923.069934 11.361364l.0176 5.623856.005888 5.584362c0 35.519696-.622934 72.171134-1.784714 109.460661l-.26701 8.296864c-1.287116 38.765845-3.147035 78.178595-5.485976 117.687692l-.199118 3.343648-.301898 4.996454-.717996 11.555738-.522919 8.151208-.529827 8.051392-.53543 7.939156-.865087 12.438207-.543893 7.589229-.653754 8.898821-.761356 10.067699-.64885 8.335553-.643016 8.041608-.529765 6.461315-.522843 6.229867-.616439 7.152842-.503025 5.676967-.491929 5.405779-.384677 4.121024-.376073 3.933158-.199933 2.030822c-1.309893 12.869774-3.41255 23.527532-6.966088 33.371297-4.64774 12.874847-11.711515 23.882913-21.618393 32.881521-14.683048 13.336894-32.974648 20.607147-58.910539 25.07847l-1.843517.311017c-1.237547.204302-2.492232.402576-3.764476.595162l-1.921589.284657c-.322477.046746-.646065.093147-.97077.139209l-1.961688.272339-1.988817.264445c-.667495.086862-1.339564.172451-2.016259.256809l-3.091608.383289-5.906266.719004-4.660812.552789-2.691728.312338-3.475917.394799-3.356313.371001-4.043157.43186-3.125502.321235-3.03994.300797-2.964852.281394-1.81986.165421c-2.558725.225669-5.237765.430572-8.010571.613719l-2.399035.151633c-.80692.048753-1.620874.095707-2.441245.140839l-2.479739.129908c-.416292.020732-.834032.041003-1.253145.060811l-2.530515.11325-2.559721.101972-2.585211.090557c-1.29836.042401-2.604884.080469-3.917484.114127l-2.632682.061412c-.879848.018495-1.761777.035006-2.645168.049512l-2.653938.037473c-2.214238.026174-4.433741.040111-6.648833.040111h-2.655375l-2.647425-.024158c-.440368-.004131-.880251-.008795-1.31957-.013995l-2.628534-.037659c-1.310267-.022069-2.61407-.049016-3.909318-.080918l-2.578471-.070433-2.020005-.064414-1.993761-.071211-1.967615-.078206-1.941567-.0854-1.915617-.092794c-.317112-.016093-.633147-.032502-.948107-.049232l-1.876874-.104258-1.851167-.112149-1.825558-.12024c-.302131-.020725-.603199-.041796-.903206-.063216l-1.787327-.132749c-.295771-.022835-.590486-.046028-.884146-.069583l-1.749316-.145707-1.724098-.154594c-.285253-.026517-.56946-.053413-.852622-.080691l-1.686453-.168299c-.278991-.028826-.556942-.058043-.833854-.087656l-1.649028-.18245-1.624199-.192134-1.599468-.202018c-.264522-.034504-.528019-.069428-.790491-.104777l-1.562555-.217215c-10.335304-1.482482-19.03816-3.657022-26.238692-6.789154-24.24715-10.547176-38.964069-30.40648-45.670962-56.43211l-.139479-.545739-.272128-1.092073-.263132-1.093522c-.043113-.182419-.085857-.36493-.128234-.547551l-.24989-1.097176-.241229-1.100596-.232703-1.104806c-.038081-.184529-.075812-.369266-.113196-.554228l-.220165-1.112599-.211974-1.11878-.203918-1.12575-.195995-1.133508-.188206-1.142055-.180553-1.15139-.173033-1.161514-.165646-1.172427-.158395-1.184129c-.025803-.198373-.051308-.397268-.07652-.596698l-.147769-1.203159-.140853-1.216832-.134071-1.231293-.188683-1.87578-.117703-1.270896-.11139-1.288118-.105212-1.306129-.099168-1.324926-.093257-1.344514-.087482-1.36489-.08184-1.386054-.076333-1.408008-.07096-1.430749-.096657-2.190489-.058114-1.491053-.078017-2.284642-.046105-1.556286-.060635-2.386188-.050809-2.450664-.041436-2.517802-.04145-3.466106-.026665-3.596502-.010942-2.786745-.003473-3.368691.032576-4.244141 1.258205-113.662326.220215-23.37926.208856-24.595688.189981-25.106185.115881-17.048017.157232-26.078295.13681-26.734329.103993-24.358715.064984-18.447637.089067-39.223469.053024-46.48889.018895-80.047046-.051868-103.040982-.139144-132.176773-.010701-.347809c-.53884-19.742231 2.772247-39.1045595 9.853284-57.8036048l.397269-1.0381517c9.778188-25.2888509 30.850217-39.7550226 60.670485-46.1595573l1.291732-.2716589 1.308781-.2637616c.219573-.043305.439874-.0862831.66091-.1289353l1.33511-.2520114 1.353166-.244242 1.371625-.2365237 1.390484-.2288565 1.409748-.2212404.712223-.1077803 1.439396-.2099123 1.459665-.2024243 1.480336-.1949873 1.50141-.1876014 1.522886-.1802668 1.544765-.1729833 1.567045-.1657509 1.589728-.1585698 1.612814-.1514397 1.636302-.1443608 1.660193-.137333 1.684485-.1303565 1.70918-.1234311 1.734279-.1165567 2.649355-.1620579 2.708088-.1468784c.304212-.0154829.609537-.0306879.915983-.0456161l1.852197-.0862556 1.879507-.0796627 1.907221-.0731209 1.935336-.0666303 1.963855-.0601908 1.992774-.0538025 3.044268-.0688376 2.066836-.0380556 2.097165-.0318463 3.203493-.036239 2.174747-.0165469 3.321754-.01366408zm20.088371 40.28932278c-40.299237-.8903792-67.638476.1952592-85.805622 4.415544-6.843007 2.2378614-10.455638 5.5712622-12.888128 11.4884416l-.130788.3234915-.255127.6634756c-.585276 1.5739971-1.100477 3.3302903-1.546861 5.2916442l-.187097.8532013-.178694.878709c-.058166.2971985-.114935.5987147-.17031.9046149l-.16195.930919c-.052593.3147346-.103795.6339196-.153612.9576213l-.145295.9847218-.137001 1.0122206-.128728 1.0401176-.120477 1.0684127-.112249 1.0971061-.104043 1.1261976-.095858 1.1556875-.087696 1.1855756c-.013937.2001087-.027535.4014793-.040794.6041202l-.075494 1.2311542-.067386 1.2620377-.059301 1.2933196-.051237 1.3249995c-.007869.2234954-.015403.4483273-.022602.6745042l-.039183 1.3732661-.031176 1.4059417c-.004529.2370687-.008726.4755154-.012591.7153486l-.019204 1.4557016-.011251 1.4893726c-.001213.2510568-.002096.5035332-.00265.7574374l.000126 1.3461604c.003153 1.359367.01538 2.758489.036614 4.198568l.038599 2.190984c.007556.370333.015673.743264.02435 1.118811l.058772 2.284822.221167 7.46416.125831 4.484828.190344 7.140699.191789 7.617814.192704 8.073515.193092 8.507803.192948 8.920679.256128 12.499476.253676 13.14465.187895 10.251349.185281 10.564294.24206 14.53552.235217 15.003042.227119 15.419806.217766 15.785813.207158 16.101063.147652 12.252145.14045 12.379509.132718 12.485459.164014 16.775078.148073 16.874608.099838 12.690738.060923 8.465159.082539 12.688877.071453 12.659208.041217 8.412416.051802 12.562177.039305 12.475406.018999 8.258157.013052 8.203731.00695 8.14296.000689 8.075844-.010731 11.904236-.022209 11.752031-.032893 11.821781-.060223 15.870967-.078612 15.995187-.070817 12.077986-.080818 12.147983-.090674 12.218034-.135977 16.39977-.113101 12.381691-.165349 16.618172-.181657 16.743145-.197618 16.868245-.213232 16.993468-.169962 12.827356-.301959 21.535757-.257995 17.369895-.681028 41.833165-1.635867 95.538401-.014964 3.306987-.067904 6.075089-.016501 2.390906-.00343 1.706117.008186 2.163605.023722 2.042058.01801.977343.022284.949231.041722 1.372793.052067 1.313804.06285 1.257373.048107.808162.053224.784977.058471.762549.063847.740881.069354.719969.07499.699817.080756.680422.086652.661785.092678.643906.098833.626786.105119.610423.111534.594819.118079.579973.124754.565884.131558.552554c.022501.091024.04529.181523.068372.271515l.142008.53398.149138.522545.156397.511869.163786.501949c.027921.082874.056155.165366.084705.247492l.175112.488492.182826.480469.190669.473203c.032439.078304.06521.156336.098317.234114l.202677.463726.104393.229801.214978.455955.22334.451722.231833.448246.119141.223056c3.948608 7.31587 12.139105 12.117318 27.638769 14.228132l1.161538.151433c.391666.048835.787834.096028 1.188551.141574l1.215843.131701c.20493.021126.411009.04184.618242.062142 1.509218.147853 2.907064.623952 4.129768 1.350678 1.202248.066192 2.41627.125711 3.640017.179762l2.280617.094023c.381795.014638.764395.028762 1.147737.042377l2.308457.075623c.38606.011599.772738.022698 1.15997.033302l2.32955.057722 2.339864.046068 2.347179.034636 2.351496.023426 2.352814.014115h3.525134l2.34299-.017183c.389817-.003199.779252-.006824 1.168242-.010869l2.328101-.029281 2.314426-.039155 2.297752-.048805c.381403-.008926.761986-.018245 1.141687-.027952l2.26712-.062864 2.242951-.071958 2.215782-.080829 2.185615-.089478c.361589-.015621.721796-.031593 1.080558-.047912l2.134743-.102033c.352735-.017686.703901-.035709 1.053435-.054065l2.077122-.114087 2.034962-.121845c.33548-.020942.669079-.042198 1.000733-.063762l1.966097-.133065c.323628-.022783.645187-.045867.964615-.069246l1.890486-.143783 1.836331-.150649 1.779176-.157294 3.090437-.290901 3.156749-.311352 2.143778-.218944 2.176907-.228055 3.330679-.359184 3.41345-.379732 2.324055-.264584 3.562373-.414041 4.899922-.584142 3.79391-.46221 3.901368-.482901c51.347451-6.401083 63.400965-19.674504 67.206282-58.719774.038053-.390453.077124-.793582.117189-1.209262l.386761-4.076551.28572-3.084081.63313-7.020145.524259-5.986682.562263-6.582397.596352-7.157616.626527-7.712337.432515-5.439614.443027-5.670974.452378-5.896261.46057-6.115473c.15476-2.074352.310692-4.184227.467602-6.328614l.473475-6.53568.478186-6.736674.481739-6.931593.484132-7.120441.485364-7.303214c.161865-2.464193.323742-4.957835.485437-7.479915l.484351-7.650542.482103-7.815096c.160198-2.631783.319829-5.289979.478698-7.973576l.47413-8.125984c.392885-6.833469.779804-13.81937 1.157738-20.941886l.449015-8.611583c3.036154-59.280081 5.386907-127.320816 5.386907-195.401901 0-116.235997-7.846596-246.048446-14.468982-323.700928l-.564423-6.526656c-2.618011-29.8473-4.998681-51.048496-6.56148-59.3964576-5.581423-29.8141485-22.478643-38.1013528-100.559936-39.8264961zm-122.815651 53.9434837c-.562712 5.18915-.753081 10.421537-.571107 15.697161l.051605 42.640002.123069 143.557725.018103 76.242363-.048117 82.501658-.065935 38.546708-.097976 32.671628-.061888 15.468792-.067708 15.049267-.124446 24.150003-.136978 22.98512-.11708 17.549575-.153815 20.889064-.225205 27.28912-.197943 21.575333-.263855 26.161379-.255249 23.184493-.621116 51.704074-.140123 12.491052-.040205 4.344599-.024975 3.602052-.008055 2.214334v1.892833l.00883 3.665438.02238 3.605041.02415 2.369144.032728 2.341307.042327 2.313072.052947 2.284441c.300417 11.637552 1.05985 22.130634 2.897981 31.238229l-.000226-.055257-.001134-2.039263.014344-2.652319.097178-9.118593.008024-1.909312.000784-.602829.036131-2.708564 1.874256-109.246652.34166-21.235345.261321-17.383779.246847-17.258052.232026-17.132422.164085-12.766933.205256-16.91281.14361-12.602337.177426-16.693501.082593-8.2998.116117-12.391049.140088-16.411978.093826-12.226972.084029-12.156725.074085-12.086517.063997-12.016353.036987-7.971942.046858-11.899504.036379-11.82945.025754-11.759439.014865-11.785827.001357-12.067029-.006943-8.129921-.013038-8.190706-.018975-8.245147-.039255-12.455918-.033134-8.353491-.059757-12.588693-.071354-12.639806-.053749-8.444359-.089503-12.677409-.06536-8.4496-.106183-12.65553-.155955-16.805505-.127064-12.524969-.181875-16.553699-.145062-12.277823-.203953-16.146447-.160179-11.914091-.165775-11.722517-.228825-15.295006-.117398-7.489649-.239983-14.631867-.245853-14.126326-.25047-13.570028-.126574-6.560539-.191092-9.542372-.127988-6.153371-.256693-11.778484-.128392-5.612423-.192201-8.054767-.127649-5.118014-.127077-4.909146-.251814-9.166312-.23585-7.989403-.042939-1.681402-.051652-2.469008zm87.380167-9.7458131c14.06691-.4995665 27.210746-.6146311 39.434212-.3440311 10.909252.2415062 22.145128.8878917 33.729545 1.9404087l2.29333.2133925c17.613581 1.6764478 31.699648 15.361259 33.884256 32.918851.803251 6.454627 1.523919 13.254663 2.162319 20.400569.084635.94736.169086 1.898367.253348 2.852959l.503269 5.770066.498508 5.853092.493517 5.933109.488297 6.01012.482846 6.084122.477167 6.155117.471258 6.223104.46512 6.288084.458751 6.350055c.075915 1.06334.151555 2.129137.226915 3.197328l.448769 6.437374c.074222 1.077517.148156 2.157303.221795 3.239295l.438269 6.517927.430982 6.567867.423466 6.614801.415721 6.658728.407745 6.699646c.06728 1.119851.134219 2.241281.20081 3.364228l.395352 6.755385.386803 6.788784.378024 6.819176.369016 6.846561c.060739 1.143208.121093 2.287432.181058 3.432609l.355072 6.881998c.116774 2.297477.23195 4.598265.345491 6.901862l.335678 6.918721.325638 6.93257c.053423 1.156415.106418 2.313282.158981 3.470539l.310144 6.947705c.050813 1.158563.101183 2.317388.151106 3.476415l.294136 6.956075c.096231 2.319161.190636 4.638626.283176 6.957893l.271986 6.956706c.399473 10.432663.760407 20.851165 1.079316 31.209827l.206342 6.896409c.10002 3.443271.195284 6.878765.285663 10.30479l.174208 6.838925c.055873 2.275099.109536 4.545489.160952 6.810668l.147467 6.779403c.046883 2.254257.09148 4.502801.133753 6.745132l.119808 6.707851c.018793 1.114702.036996 2.227725.054603 3.339006l.098462 6.646293.00378.268859c.175025.731697.269681 1.494796.274072 2.27951.004073.735426-.071342 1.452752-.218191 2.14383l.024283 1.909295c.12768 10.963486.193911 21.727778.193911 32.230218 0 40.931613-.831123 83.074963-2.311872 125.191009l-.268015 7.431708c-.045781 1.238486-.092114 2.476886-.138996 3.715168l-.28783 7.42802c-.196222 4.950732-.401067 9.898564-.614237 14.841478l-.325964 7.410431c-.055356 1.234373-.111223 2.468376-.167597 3.701977l-.344282 7.39653-.176631 3.694175-.362103 7.379223c-.061324 1.228794-.123131 2.457028-.185416 3.684671l-.379425 7.358513c-.064182 1.225152-.128835 2.449651-.193952 3.673464l-.396247 7.334397c-.133917 2.441889-.269658 4.880782-.407185 7.316429l-.417901 7.296948c-.141062 2.4289-.283873 4.854302-.428396 7.275952l-.438669 7.253445c-.14791 2.413896-.297496 4.823787-.44872 7.229424l-.45855 7.203889c-.077232 1.198436-.154864 2.395746-.232892 3.591896l-.472879 7.162751-.482155 7.133433-.491209 7.102603-.500041 7.07026-.508652 7.036402-.517041 7.001033c-.08686 1.163807-.174061 2.326077-.261597 3.486779l-.529209 6.945141-.537043 6.905987-.544657 6.865322c-.182797 2.281494-.366825 4.555959-.552048 6.823142l-.328688 4.455179c-.138358 1.726226-.292894 3.289409-.491085 4.865515-.524627 4.172091-1.312233 8.047605-2.501854 11.803793-3.022034 9.541973-8.366143 17.356826-16.700293 22.679764-1.21007.77286-2.644663 1.5134-4.280881 2.219856l-.769411.32363c-.130594.053533-.262359.106863-.395287.159988l-.811423.316297c-.96273.366141-1.981366.722203-3.052334 1.06791l-.930705.293777c-.157225.048538-.315498.096864-.474807.144975l-.968214.286098-.992595.280929-1.016476.275722-1.039856.270477c-.175229.044641-.351413.089061-.528539.13326l-1.073988.262537-1.096119.257194-1.117747.251815-1.138877.246395c-.191546.040612-.383951.080997-.577205.121153l-1.169633.238195-1.189511.232679-1.208889.227125-1.227767.221533-1.246145.215901-1.264023.210232-1.281399.204523-1.298277.198777-1.314653.192991-1.330529.187167-1.345905.181304-1.360781.175404-1.375157.169463-1.389032.163486-1.402407.157468-1.415282.151413-1.427656.145319-2.163592.206468-2.188621.192539-1.472151.120557-1.482025.114271-1.491397.107944-2.253576.149973-1.512641.091963-1.53166.086185-1.520555.078639-1.509103.071045-1.497304.063403-1.48516.055712-1.472668.047973-1.45983.040186-1.446645.032351-1.433115.024467c-.237706.003418-.474833.006505-.711375.009262l-1.412169.017097h-2.780802l-1.367939-.015113-1.352502-.019756-1.33672-.027953-1.320591-.036199-1.304115-.044493-1.287294-.052835-1.270124-.061226-1.25261-.069664-1.234748-.078152-1.216541-.086686-1.197986-.09527c-.198099-.016597-.39541-.033553-.591927-.050869l-1.169505-.108236-1.150084-.11694-1.130318-.125693-1.110205-.134493-1.089744-.143342-1.068938-.152239-1.047786-.161185-1.026287-.170179c-.676947-.116461-1.339331-.23895-1.986689-.367532l-.959711-.197449-.936825-.206636c-.771056-.176039-1.517913-.361697-2.239668-.5571l-.854-.239171c-2.946424-.853524-5.443691-1.879848-7.424956-3.088282-7.482437-4.563767-12.181148-11.834547-14.727558-20.885908-1.741224-6.189281-2.375941-12.622278-2.395791-19.989522l.001308-1.030941.011982-1.316532.235262-12.889691.704954-39.223764.551111-32.470266.348902-21.766977.390096-25.927803.319875-23.02526.232021-18.112504.260122-22.336056.226835-22.08659.120095-13.171858.123224-15.102579.040288-5.407195.074442-10.814424c.011725-1.802888.023108-3.606178.034151-5.41011l.062158-10.833214.053959-10.860143.045753-10.898593.053224-16.445185.034715-16.596506.012213-10.915071c.00113-1.78385.001804-3.570647.002027-5.360234l-.004024-10.769748c-.001558-1.80012-.003557-3.602717-.005992-5.407634l-.006273-3.254022c-.082367-.502227-.127371-1.017168-.132044-1.541907-.005027-.573848.038379-1.136833.126403-1.685072l-.007882-4.37509-.030015-10.904254-.039995-10.9449c-.007484-1.82712-.015375-3.655619-.023666-5.485343l-.054522-10.991772c-.009876-1.833991-.020143-3.668893-.030796-5.504549l-.068515-11.021728c-.024357-3.67609-.050219-7.353941-.077547-11.032301l-.051891-6.763723-.116035-13.812458-.156483-16.550963-.174531-16.50072-.225357-19.153326-.138822-10.882894-.221299-16.219917-.155896-10.732647-.20386-13.311819-.257204-15.802193-.178715-10.418755-.278346-15.435189-.28996-15.180996-.454955-22.239113-.368931-16.80694-.510266-21.905098c-.490296-20.66903 15.736702-37.8870335 36.398789-38.6214161zm106.458598 359.9280071-7.575302.042653c-3.923978 25.359546-23.702665 45.104555-48.333109 45.534481-24.530979.42819-44.920892-18.459306-49.833799-43.514863l-12.982108.115982c.00659 7.336224.005884 14.631746-.00245 21.876025l-.016265 10.756175-.023948 10.682013-.031625 10.61824-.039294 10.564851-.073305 15.769895-.09052 15.708194-.069898 10.455163-.086292 11.574092-.110953 13.345007-.167195 17.855945-.239892 22.492302-.188319 15.907984-.14478 11.467145-.282135 20.903839-.273993 18.91474-.451859 29.076337-.371018 22.452875-.490777 28.310859-.763519 41.994337-.01115.906065-.005217 1.493147c.003057 1.132208.026042 2.231744.069287 3.297455l.05001 1.054393c.539494 9.908812 2.917459 16.730209 7.418408 19.475475.597726.364572 1.433005.705987 2.480885 1.02136l.498642.143697.528288.139936c.090489.023006.18219.045852.275092.068538l.571736.134176.600021.130257c.10233.021379.205816.042592.310446.063639l.641424.12426.668345.120183.694721.116044.720551.111842.745837.107576.770577.103246c.130461.016844.26193.033505.394396.049981l1.2188.143275.841527.089882.864088.085302.886102.080657 1.369238.112141.938754.068772 1.44566.094017.987998.056492 1.006742.051469 1.024941.046385 1.570341.059903 1.608222.048107 1.644262.036098 1.678463.023875 1.137067.012054h2.902014l1.183113-.015888 1.796867-.027141 1.821869-.040427c.203751-.005238.40793-.010726.612528-.016465l1.852342-.058473 1.246512-.046626 1.255172-.052814 1.263285-.059067 1.270853-.06538 1.277876-.071759 1.892769-.117244 1.255378-.084902 1.871891-.137151 1.856706-.148536 1.839528-.159501 1.820355-.170046 1.201935-.119016 1.783971-.18669 1.759481-.196117 1.733-.205123 1.704522-.213711 1.119544-.147037 1.652631-.22709 1.083103-.155569 1.595202-.239304 1.04297-.163323 1.532234-.250352 1.491795-.256422 1.449361-.262072.941683-.177646 1.37421-.270556.889736-.182913 1.293519-.277874.834096-.187403.810806-.188982.786926-.190437.762455-.191766.737393-.192971.71174-.194053.685497-.19501.658663-.195842.631238-.19655.603223-.197134c.09817-.032897.195147-.065814.290921-.098747l.560091-.197777.5306-.198049c.085942-.033024.170632-.066055.254055-.099088l.485253-.198226c.156622-.066076.308083-.132146.454283-.198188l.422724-.198026c.406747-.197903.765267-.395377 1.072903-.591861 4.015416-2.564606 6.695444-6.483692 8.399089-11.862895l.160771-.515159.151335-.501287.210415-.732233.129957-.479231.122289-.475461.170164-.712431.105334-.478658.099436-.484987.094043-.494203.089156-.506305.084775-.521292.120052-.816353.113038-.86631.072303-.610104.070449-.639522.103303-1.020754.135964-1.490905.137646-1.660525.240945-3.159071.321925-3.977165.551724-6.887724c.091325-1.15152.182332-2.304801.273016-3.459811l.540196-6.950543c.089375-1.161794.178417-2.325251.267123-3.490338l.528153-7.009829.51984-7.047389.511297-7.08338.502527-7.1178.493527-7.15065.4843-7.181929.474845-7.211638c.07834-1.204328.156276-2.409829.233804-3.61647l.460232-7.253257.450206-7.279041.439949-7.303253c.072458-1.21914.144479-2.439223.216058-3.660216l.424139-7.336629c.069794-1.224505.139137-2.449856.208023-3.676019l.407814-7.36647c.335222-6.146415.658811-12.311507.97017-18.491189l.367722-7.422359.355755-7.434794c.699388-14.880977 1.325595-29.827142 1.870399-44.781962l.265581-7.477869c1.422962-41.12937 2.219947-82.252939 2.219947-122.194995 0-9.39478-.053409-19.002105-.156747-28.776274zm-40.341066 262.595612c11.773169-.360553 21.472773 8.904332 21.472773 20.66151v6.604905c0 11.515268-9.32368 20.992151-20.860561 21.345468l-44.666666 1.367915c-11.773169.360553-21.472773-8.904332-21.472773-20.66151v-6.604905c0-11.515268 9.32368-20.992151 20.860561-21.345468zm.612212 19.990628-44.666666 1.367915c-.797479.024423-1.472773.710813-1.472773 1.35484v6.604905c0 .402116.29937.688069.860561.670882l44.666666-1.367915c.797479-.024423 1.472773-.710813 1.472773-1.35484v-6.604905c0-.402116-.29937-.688069-.860561-.670882zm2.435013-180.302866c4.503267 3.023708 5.761682 9.070561 2.888507 13.629427l-.160822.247162-15.443301 23c-3.909949 5.823161-12.411819 5.897974-16.442026.234723l-.174874-.253572-14.556698-21.786202c-3.068275-4.592116-1.832958-10.80209 2.759159-13.870365 4.511553-3.014446 10.584695-1.874977 13.706002 2.520573l.164363.238586 6.261238 9.371805 7.121863-10.604452c3.078685-4.585144 9.291446-5.80637 13.876589-2.727685zm-19.697394-146.696432-.487892.0039c-16.286547.284282-29.72623 15.946066-29.384597 35.518241.341634 19.572175 14.319718 34.75538 30.606265 34.471097 16.286547-.284282 29.72623-15.946066 29.384597-35.518241-.341634-19.572175-14.319718-34.75538-30.606265-34.471097zm42.968235-248.841942-108.147 1.69.04081 1.749554.322994 15.212036.312099 15.539896.251108 13.179716.336789 18.769191.27399 16.35178.217278 13.79071.206678 13.922343.157358 11.221521.222103 16.951823.171738 14.217881.159044 14.283274.145828 14.332107.140926 15.38458.056819 6.771989.079162 10.160246.087491 12.546842c.012535 1.924324.024657 3.848126.03636 5.771227l.065142 11.528764c.010004 1.919581.019577 3.838104.028714 5.755389l.049546 11.487426c.022112 5.734856.040197 11.455352.054103 17.156657l-.00708-2.342952 12.462133-.110305c3.535725-25.520513 23.092768-45.584362 47.635889-46.450793l.834803-.022014c24.834939-.433496 45.425553 18.930337 50.009275 44.449059l7.560702-.040409c-.048456-2.999515-.10126-6.011742-.158315-9.035429l-.133135-6.70798c-.023332-1.120946-.047234-2.243324-.071699-3.367074l-.15352-6.758436-.166825-6.788312c-.1156-4.534831-.239917-9.087574-.372646-13.654217l-.205362-6.859886c-.035266-1.144885-.071048-2.290513-.107341-3.436822l-.223859-6.885518-.235902-6.898844c-.040308-1.150751-.081109-2.301932-.122396-3.45348l-.253539-6.913192c-.086438-2.305531-.174787-4.61203-.26501-6.918995l-.276252-6.92179c-.187865-4.61479-.383071-9.229436-.585314-13.839928l-.308603-6.912119c-.052301-1.151333-.105032-2.302282-.158188-3.452782l-.324006-6.897128-.333987-6.883373c-.056484-1.145915-.113374-2.291132-.170666-3.435588l-.34853-6.857097-.357939-6.83582c-.060428-1.137363-.121238-2.273714-.182426-3.40899l-.371623-6.79826c-.06268-1.130727-.125728-2.260254-.18914-3.388518l-.384791-6.753931c-.064846-1.122962-.130045-2.244536-.195594-3.36466l-.397444-6.702831c-.066926-1.114069-.134191-2.226563-.201792-3.337417l-.40958-6.64496-.417386-6.602619-.424961-6.557267-.432308-6.508908c-.07265-1.080621-.145598-2.159101-.218837-3.235378l-.442898-6.430726c-.074387-1.067214-.149057-2.1321-.224004-3.194595l-.452972-6.345774c-.152076-2.105359-.305223-4.200652-.459403-6.285377l-.465604-6.221972c-.156209-2.063089-.313414-4.115109-.471575-6.155558l-.477319-6.086134c-.080018-1.008403-.160267-2.013788-.24074-3.016093l-.485503-5.976357c-.081354-.989731-.162924-1.976256-.244704-2.959512l-.493171-5.859809zm-38.27843 135.850761.177188.244873 15.441081 22c3.172808 4.520524 2.080269 10.757201-2.440255 13.930009-4.4398 3.116151-10.53501 2.117928-13.757134-2.201368l-.172875-.238887-6.713868-9.565877-5.587952 9.067715c-2.846844 4.619142-8.842984 6.111705-13.510987 3.414823l-.248776-.14849c-4.619142-2.846844-6.111705-8.842984-3.414823-13.510987l.14849-.248776 13.558919-22c3.717198-6.031334 12.323019-6.371461 16.520992-.743035zm-16.713251-182.904724c-6.729502-.129599-13.758288-.139863-21.085796-.030582l-3.403136.058926c-1.141447.022472-2.289963.047775-3.445545.075908l-3.487944.092894c-1.754569.050694-3.525032.10776-5.311383.171199-8.822264.313566-15.924972 7.018522-16.983387 15.525995l48.120375.000134c14.909593 0 27.271247 3.780592 36.675225 11.530396l22.065056-.344886c-.345245-3.253048-.709587-6.419999-1.092972-9.500743-1.027212-8.255652-7.650462-14.690232-15.911226-15.476508l-2.250635-.209421c-11.115231-1.009866-21.895672-1.630051-32.340983-1.861286z"/></svg>