<?xml version="1.0" encoding="UTF-8" standalone="no"?>
<svg
   xmlns:dc="http://purl.org/dc/elements/1.1/"
   xmlns:cc="http://creativecommons.org/ns#"
   xmlns:rdf="http://www.w3.org/1999/02/22-rdf-syntax-ns#"
   xmlns:svg="http://www.w3.org/2000/svg"
   xmlns="http://www.w3.org/2000/svg"
   xmlns:sodipodi="http://sodipodi.sourceforge.net/DTD/sodipodi-0.dtd"
   xmlns:inkscape="http://www.inkscape.org/namespaces/inkscape"
   id="Capa_1"
   enable-background="new 0 0 512 512"
   height="512"
   viewBox="0 0 512 512"
   width="512"
   version="1.1"
   sodipodi:docname="calendar_off.svg"
   inkscape:version="1.0.2 (e86c870879, 2021-01-15, custom)">
  <metadata
     id="metadata23">
    <rdf:RDF>
      <cc:Work
         rdf:about="">
        <dc:format>image/svg+xml</dc:format>
        <dc:type
           rdf:resource="http://purl.org/dc/dcmitype/StillImage" />
        <dc:title></dc:title>
      </cc:Work>
    </rdf:RDF>
  </metadata>
  <defs
     id="defs21" />
  <sodipodi:namedview
     pagecolor="#ffffff"
     bordercolor="#666666"
     borderopacity="1"
     objecttolerance="10"
     gridtolerance="10"
     guidetolerance="10"
     inkscape:pageopacity="0"
     inkscape:pageshadow="2"
     inkscape:window-width="2500"
     inkscape:window-height="1722"
     id="namedview19"
     showgrid="false"
     inkscape:zoom="1.96875"
     inkscape:cx="256"
     inkscape:cy="256"
     inkscape:window-x="758"
     inkscape:window-y="179"
     inkscape:window-maximized="0"
     inkscape:current-layer="Capa_1" />
  <path
     d="m150 286h-30v90h60v-30h-30z"
     id="path2" />
  <path
     d="m512 76h-60v-15c0-24.813-20.187-45-45-45s-45 20.187-45 45v15h-30v-15c0-24.813-20.187-45-45-45s-45 20.187-45 45v15h-30v-15c0-24.813-20.187-45-45-45s-45 20.187-45 45v15h-60v171.488c-37.273 24.054-62 65.948-62 113.512 0 74.439 60.561 135 135 135 46.708 0 87.947-23.846 112.194-60h264.806zm-120-15c0-8.271 6.729-15 15-15s15 6.729 15 15v15h-30zm-120 0c0-8.271 6.729-15 15-15s15 6.729 15 15v15h-30zm-120 0c0-8.271 6.729-15 15-15s15 6.729 15 15v15h-30zm-30 45v30h30v-30h90v30h30v-30h90v30h30v-30h90v60h-390v-60zm13 360c-57.897 0-105-47.103-105-105s47.103-105 105-105 105 47.103 105 105-47.103 105-105 105zm127.278-60c4.994-14.082 7.722-29.228 7.722-45 0-74.439-60.561-135-135-135-15.027 0-29.488 2.471-43 7.023v-37.023h390v210z"
     id="path4"
     style="stroke-width:0.7;stroke-miterlimit:4;stroke-dasharray:none" />
  <path
     d="m302 226h60v30h-60z"
     id="path6" />
  <path
     d="m392 226h60v30h-60z"
     id="path8" />
  <path
     d="m392 286h60v30h-60z"
     id="path10" />
  <path
     d="m392 346h60v30h-60z"
     id="path12" />
  <path
     d="m302 346h60v30h-60z"
     id="path14" />
  <path
     d="m302 286h60v30h-60z"
     id="path16" />
  <path
     style="font-variation-settings:normal;opacity:0.99;vector-effect:none;fill:none;fill-opacity:1;stroke:#000000;stroke-width:30;stroke-linecap:square;stroke-linejoin:miter;stroke-miterlimit:4;stroke-dasharray:none;stroke-dashoffset:1;stroke-opacity:1;paint-order:stroke fill markers;stop-color:#000000;stop-opacity:1"
     d="M 22.349206,28.444444 474.4127,484.57143 v 0 M 491.68254,27.936508 18.793651,491.68254 v 0"
     id="path852"
     sodipodi:nodetypes="cccccc" />
</svg>
