<svg id="Capa_1" enable-background="new 0 0 512 512" height="512" viewBox="0 0 512 512" width="512" xmlns="http://www.w3.org/2000/svg"><path d="m150 286h-30v90h60v-30h-30z"/><path d="m512 76h-60v-15c0-24.813-20.187-45-45-45s-45 20.187-45 45v15h-30v-15c0-24.813-20.187-45-45-45s-45 20.187-45 45v15h-30v-15c0-24.813-20.187-45-45-45s-45 20.187-45 45v15h-60v171.488c-37.273 24.054-62 65.948-62 113.512 0 74.439 60.561 135 135 135 46.708 0 87.947-23.846 112.194-60h264.806zm-120-15c0-8.271 6.729-15 15-15s15 6.729 15 15v15h-30zm-120 0c0-8.271 6.729-15 15-15s15 6.729 15 15v15h-30zm-120 0c0-8.271 6.729-15 15-15s15 6.729 15 15v15h-30zm-30 45v30h30v-30h90v30h30v-30h90v30h30v-30h90v60h-390v-60zm13 360c-57.897 0-105-47.103-105-105s47.103-105 105-105 105 47.103 105 105-47.103 105-105 105zm127.278-60c4.994-14.082 7.722-29.228 7.722-45 0-74.439-60.561-135-135-135-15.027 0-29.488 2.471-43 7.023v-37.023h390v210z"/><path d="m302 226h60v30h-60z"/><path d="m392 226h60v30h-60z"/><path d="m392 286h60v30h-60z"/><path d="m392 346h60v30h-60z"/><path d="m302 346h60v30h-60z"/><path d="m302 286h60v30h-60z"/></svg>