<svg id="Capa_1" enable-background="new 0 0 512 512" height="512" viewBox="0 0 512 512" width="512" xmlns="http://www.w3.org/2000/svg"><g><path d="m98.223 303.277c2.93 2.929 7.677 2.929 10.607 0l11.181-11.181c6.812 5.929 14.378 11.011 22.529 15.092l-6.039 14.579c-1.586 3.827.231 8.214 4.059 9.799 3.731 1.574 8.214-.193 9.799-4.059l6.03-14.558c8.454 2.836 17.374 4.645 26.612 5.284v15.767c0 4.142 3.357 7.5 7.5 7.5s7.5-3.358 7.5-7.5v-15.788c9.099-.637 18.033-2.421 26.601-5.287l6.04 14.582c1.585 3.866 6.067 5.632 9.799 4.059 3.827-1.585 5.645-5.973 4.059-9.799l-6.041-14.584c6.17-3.075 12.061-6.74 17.573-10.981 18.143 13.974 40.85 22.298 65.469 22.298 59.275 0 107.5-48.224 107.5-107.5 0-24.179-7.841-47.018-22.675-66.045-2.546-3.266-7.259-3.85-10.526-1.304-3.267 2.547-3.851 7.26-1.304 10.526 4.748 6.09 8.659 12.635 11.704 19.524-.544.621-1.1 1.233-1.681 1.815-7.085 7.083-16.502 10.984-26.519 10.984-20.678 0-37.5-16.822-37.5-37.5 0-9.667 3.643-18.77 10.262-25.76 6.868 2.287 13.472 5.375 19.667 9.244 3.512 2.193 8.139 1.125 10.334-2.388 2.194-3.513 1.125-8.14-2.389-10.334-17.032-10.639-36.699-16.262-56.874-16.262-24.619 0-47.327 8.325-65.47 22.299-5.508-4.237-11.396-7.908-17.572-10.983l6.041-14.583c1.586-3.827-.231-8.214-4.059-9.799-3.825-1.584-8.214.232-9.799 4.059l-6.045 14.594c-8.574-2.868-17.51-4.66-26.597-5.299v-15.788c0-4.142-3.357-7.5-7.5-7.5s-7.499 3.358-7.499 7.5v15.766c-9.237.64-18.157 2.448-26.612 5.284l-6.03-14.558c-1.585-3.826-5.972-5.645-9.799-4.059s-5.645 5.973-4.059 9.799l6.039 14.579c-8.151 4.081-15.717 9.163-22.53 15.092l-11.181-11.181c-2.93-2.929-7.678-2.929-10.607 0s-2.929 7.678 0 10.606l11.182 11.182c-5.929 6.812-11.011 14.378-15.092 22.529l-14.578-6.038c-3.824-1.584-8.213.232-9.799 4.059s.231 8.214 4.059 9.799l14.557 6.029c-2.836 8.454-4.645 17.374-5.284 26.611h-15.766c-4.143 0-7.5 3.358-7.5 7.5s3.357 7.5 7.5 7.5h15.766c.64 9.237 2.448 18.157 5.284 26.611l-14.557 6.03c-3.827 1.585-5.645 5.973-4.059 9.799 1.585 3.866 6.067 5.632 9.799 4.059l14.578-6.039c4.081 8.151 9.163 15.717 15.092 22.529l-11.181 11.181c-2.928 2.931-2.928 7.68.001 10.608zm-.223-92.277c0-51.005 41.495-92.5 92.5-92.5 19.434 0 38.411 6.182 54.085 17.481-18.912 19.385-30.585 45.862-30.585 75.019 0 29.161 11.677 55.642 30.593 75.027-15.682 11.309-34.612 17.473-54.093 17.473-51.005 0-92.5-41.495-92.5-92.5zm180.633 81.947c-12.847-6.748-23.923-16.425-32.331-28.142 3.493-2.138 7.502-3.304 11.698-3.304 6.006 0 11.655 2.341 15.907 6.594 4.251 4.251 6.593 9.9 6.593 15.906 0 3.117-.647 6.144-1.867 8.946zm81.079 2.285c-3.702-5.325-5.712-11.667-5.712-18.232 0-8.547 3.329-16.583 9.374-22.627 6.044-6.044 14.079-9.373 22.626-9.373 6.824 0 13.384 2.162 18.831 6.135-9.406 19.45-25.425 35.128-45.119 44.097zm-25.099-175.801c-5.92 8.648-9.113 18.861-9.113 29.569 0 28.949 23.552 52.5 52.5 52.5 12.37 0 24.082-4.254 33.48-12.062 1.658 6.981 2.52 14.196 2.52 21.562 0 8.95-1.282 17.604-3.665 25.795-7.284-4.417-15.665-6.795-24.335-6.795-12.554 0-24.356 4.889-33.232 13.766-8.878 8.878-13.768 20.68-13.768 33.234 0 8.289 2.187 16.335 6.252 23.403-7.583 2.016-15.543 3.097-23.752 3.097-10.151 0-19.924-1.649-29.069-4.684 2.006-4.646 3.069-9.658 3.069-14.816 0-10.014-3.902-19.43-10.986-26.513-7.085-7.085-16.501-10.987-26.514-10.987-6.963 0-13.635 1.891-19.438 5.424-6.116-12.345-9.562-26.239-9.562-40.924 0-51.005 41.495-92.5 92.5-92.5 4.41 0 8.791.315 13.113.931z"/><path d="m464.5 0h-417c-26.191 0-47.5 21.309-47.5 47.5v417c0 26.191 21.309 47.5 47.5 47.5h417c26.191 0 47.5-21.309 47.5-47.5v-417c0-26.191-21.309-47.5-47.5-47.5zm32.5 464.5c0 17.92-14.579 32.5-32.5 32.5h-417c-17.921 0-32.5-14.58-32.5-32.5v-417c0-17.92 14.579-32.5 32.5-32.5h417c17.921 0 32.5 14.58 32.5 32.5z"/><path d="m464.5 30h-417c-9.649 0-17.5 7.851-17.5 17.5v417c0 9.649 7.851 17.5 17.5 17.5h22.487c4.143 0 7.5-3.358 7.5-7.5s-3.357-7.5-7.5-7.5h-22.487c-1.379 0-2.5-1.122-2.5-2.5v-417c0-1.378 1.121-2.5 2.5-2.5h417c1.379 0 2.5 1.122 2.5 2.5v417c0 1.378-1.121 2.5-2.5 2.5h-359.513c-4.143 0-7.5 3.358-7.5 7.5s3.357 7.5 7.5 7.5h359.513c9.649 0 17.5-7.851 17.5-17.5v-417c0-9.649-7.851-17.5-17.5-17.5z"/><path d="m249.5 204c0 12.407 10.094 22.5 22.5 22.5s22.5-10.093 22.5-22.5-10.094-22.5-22.5-22.5-22.5 10.093-22.5 22.5zm22.5-7.5c4.136 0 7.5 3.364 7.5 7.5s-3.364 7.5-7.5 7.5-7.5-3.364-7.5-7.5 3.364-7.5 7.5-7.5z"/><path d="m213 377c-20.678 0-37.5 16.822-37.5 37.5s16.822 37.5 37.5 37.5h86c20.678 0 37.5-16.822 37.5-37.5s-16.822-37.5-37.5-37.5zm-22.5 37.5c0-12.407 10.094-22.5 22.5-22.5h56.02c-4.719 6.272-7.52 14.064-7.52 22.5s2.801 16.228 7.52 22.5h-56.02c-12.406 0-22.5-10.093-22.5-22.5zm131 0c0 12.407-10.094 22.5-22.5 22.5s-22.5-10.093-22.5-22.5 10.094-22.5 22.5-22.5 22.5 10.093 22.5 22.5z"/><path d="m289 414.5c0 5.514 4.486 10 10 10s10-4.486 10-10-4.486-10-10-10-10 4.486-10 10z"/></g></svg>