<svg xmlns="http://www.w3.org/2000/svg" height="512pt" version="1.1" viewBox="-71 0 512 512" width="512pt">
<g id="surface1">
<path d="M 235 270 L 135 270 C 60.5625 270 0 330.5625 0 405 L 0 512 C 19.492188 512 351.171875 512 370 512 L 370 405 C 370 330.5625 309.4375 270 235 270 Z M 206.691406 330.628906 L 163.308594 330.628906 L 153.265625 300 L 216.734375 300 Z M 30 482 L 30 405 C 30 351.519531 70.191406 307.25 121.957031 300.808594 L 136.804688 346.082031 L 100.816406 482 Z M 131.847656 482 L 163.984375 360.636719 L 206.015625 360.636719 L 238.152344 482 Z M 340 482 L 269.183594 482 L 233.199219 346.082031 L 248.042969 300.808594 C 299.808594 307.25 340 351.519531 340 405 Z M 340 482 " style=" stroke:none;fill-rule:nonzero;fill:rgb(0%,0%,0%);fill-opacity:1;" />
<path d="M 185 250 C 253.925781 250 310 193.925781 310 125 C 310 56.074219 253.925781 0 185 0 C 116.074219 0 60 56.074219 60 125 C 60 193.925781 116.074219 250 185 250 Z M 185 30 C 237.382812 30 280 72.617188 280 125 C 280 177.382812 237.382812 220 185 220 C 132.617188 220 90 177.382812 90 125 C 90 72.617188 132.617188 30 185 30 Z M 185 30 " style=" stroke:none;fill-rule:nonzero;fill:rgb(0%,0%,0%);fill-opacity:1;" />
</g>
</svg>