<?xml version="1.0" encoding="iso-8859-1"?>
<!-- Generator: Adobe Illustrator 19.0.0, SVG Export Plug-In . SVG Version: 6.00 Build 0)  -->
<svg version="1.1" id="Capa_1" xmlns="http://www.w3.org/2000/svg" xmlns:xlink="http://www.w3.org/1999/xlink" x="0px" y="0px"
	 viewBox="0 0 512 512" style="enable-background:new 0 0 512 512;" xml:space="preserve">
<g>
	<g>
		<path d="M490.136,459.868h-5.192V285.389c0-4.025-3.262-7.287-7.287-7.287c-4.025,0-7.287,3.262-7.287,7.287v174.479h-24.92V46.78
			c0-3.852-2.99-6.997-6.774-7.261c-0.079-0.006-0.158-0.009-0.237-0.012c-0.092-0.003-0.182-0.014-0.275-0.014H73.836
			c-0.088,0-0.174,0.01-0.262,0.013c-0.102,0.004-0.204,0.007-0.306,0.015c-0.211,0.016-0.418,0.043-0.623,0.077
			c-0.065,0.011-0.13,0.017-0.194,0.03c-0.283,0.054-0.56,0.124-0.83,0.21c-0.018,0.006-0.035,0.014-0.053,0.019
			c-0.251,0.082-0.494,0.179-0.732,0.287c-0.064,0.029-0.126,0.06-0.189,0.091c-0.201,0.098-0.397,0.205-0.588,0.321
			c-0.039,0.023-0.08,0.04-0.118,0.065c-0.021,0.014-0.04,0.03-0.061,0.044c-0.239,0.155-0.47,0.319-0.688,0.499
			c-0.008,0.007-0.015,0.014-0.022,0.02c-0.204,0.171-0.397,0.354-0.581,0.546c-0.058,0.06-0.113,0.124-0.169,0.186
			c-0.135,0.15-0.263,0.305-0.385,0.466c-0.049,0.065-0.099,0.128-0.145,0.194c-0.149,0.21-0.288,0.427-0.414,0.653
			c-0.008,0.014-0.017,0.027-0.025,0.041c-0.137,0.249-0.257,0.508-0.365,0.774c-0.02,0.05-0.036,0.101-0.055,0.151
			c-0.08,0.211-0.151,0.426-0.212,0.647c-0.021,0.075-0.04,0.151-0.058,0.227c-0.05,0.206-0.089,0.415-0.121,0.627
			c-0.011,0.076-0.026,0.151-0.035,0.227c-0.033,0.281-0.055,0.566-0.055,0.856v413.088H41.63V285.419
			c0-4.025-3.262-7.287-7.287-7.287c-4.025,0-7.287,3.262-7.287,7.287v174.449h-5.192c-8.954,0-16.24,7.286-16.24,16.24v19.652
			c0,8.954,7.286,16.24,16.24,16.24h468.271c8.954,0,16.24-7.286,16.24-16.24v-19.652
			C506.377,467.154,499.091,459.868,490.136,459.868z M430.851,58.303v401.565h-9.793l-91.652-34.261V106.435L430.851,58.303z
			 M405.779,54.067l-83.355,39.549c-4.683,2.222-7.592,6.649-7.592,11.553v321.805c0,5.31,3.427,10.024,8.732,12.009l55.873,20.885
			h-246.9l55.874-20.886c5.304-1.983,8.731-6.696,8.731-12.008V105.17c0-4.903-2.908-9.33-7.591-11.553l-83.357-39.55H405.779z
			 M81.122,58.303l101.445,48.132v319.174l-91.652,34.26h-9.793V58.303z M490.137,497.427H21.865c-0.919,0-1.667-0.748-1.667-1.667
			v-19.652c0-0.919,0.748-1.667,1.667-1.667h12.478h39.493h18.397H419.74h18.397h0.027h39.494h12.478
			c0.919,0,1.667,0.748,1.667,1.667v19.652h0C491.804,496.679,491.056,497.427,490.137,497.427z"/>
	</g>
</g>
<g>
	<g>
		<path d="M466.089,0H45.911C35.514,0,27.057,8.458,27.057,18.855v231.478c0,4.025,3.262,7.287,7.287,7.287
			c4.025,0,7.287-3.262,7.287-7.287V18.855c0-2.361,1.921-4.282,4.282-4.282h420.178c2.361,0,4.282,1.921,4.282,4.282v231.862
			c0,4.025,3.262,7.287,7.287,7.287c4.025,0,7.287-3.262,7.287-7.287V18.855C484.945,8.458,476.487,0,466.089,0z"/>
	</g>
</g>
<g>
	<g>
		<path d="M407.125,93.03c-1.372,0-2.74,0.322-3.956,0.929l-50.884,25.453c-2.893,1.446-4.69,4.322-4.69,7.505v122.115
			c-0.001,4.704,3.971,8.558,8.851,8.589l50.823,0.329c0.016,0,0.046,0,0.062,0c4.842,0,8.78-3.824,8.78-8.526V101.739
			C416.111,96.937,412.081,93.03,407.125,93.03z M401.536,243.34l-39.37-0.254V130.762l39.37-19.692V243.34z"/>
	</g>
</g>
<g>
	<g>
		<path d="M407.245,268.248l-50.829,0.511c-4.864,0.052-8.822,3.909-8.822,8.597v128.362c-0.001,3.44,2.102,6.501,5.366,7.803
			l50.878,20.212c1.045,0.415,2.148,0.625,3.282,0.625c4.957,0,8.99-3.91,8.99-8.715V276.768
			C416.11,272.07,412.175,268.248,407.245,268.248z M401.536,417.137l-39.37-15.64V283.275l39.37-0.397V417.137z"/>
	</g>
</g>
<g>
	<g>
		<path d="M155.555,268.759l-50.917-0.511c-4.838,0-8.773,3.822-8.773,8.52v148.875c-0.001,4.805,4.032,8.715,8.989,8.715
			c1.134,0,2.237-0.211,3.28-0.625l50.884-20.213c3.258-1.296,5.362-4.359,5.362-7.801V277.356
			C164.38,272.668,160.422,268.811,155.555,268.759z M149.807,401.499l-39.37,15.639c0,0,0-134.258,0-134.258l39.37,0.396V401.499z"
			/>
	</g>
</g>
<g>
	<g>
		<path d="M159.693,119.412l-50.888-25.453c-1.215-0.607-2.583-0.929-3.955-0.929c-4.955,0-8.986,3.907-8.986,8.709v147.686
			c0,4.701,3.939,8.526,8.779,8.526c0.016,0,0.045,0,0.061,0l50.824-0.329c4.881-0.031,8.852-3.885,8.852-8.59V126.917
			C164.38,123.737,162.586,120.862,159.693,119.412z M149.807,243.086l-39.37,0.254c0,0,0-132.27,0-132.27l39.37,19.692V243.086z"/>
	</g>
</g>
<g>
</g>
<g>
</g>
<g>
</g>
<g>
</g>
<g>
</g>
<g>
</g>
<g>
</g>
<g>
</g>
<g>
</g>
<g>
</g>
<g>
</g>
<g>
</g>
<g>
</g>
<g>
</g>
<g>
</g>
</svg>
