<svg id="Tempate" height="512" viewBox="0 0 900 900" width="512" xmlns="http://www.w3.org/2000/svg"><path id="_14-Power" d="m666.8 314.25a16.06 16.06 0 0 0 -14.1-8.5h-162.5l68.6-200.6v-.1a16.31 16.31 0 0 0 -2.3-14.5 16.49 16.49 0 0 0 -12.9-6.55h-164.5a16.08 16.08 0 0 0 -15.1 10.65c0 .1-.1.1-.1.2l-132.1 390.15v.1a16.7 16.7 0 0 0 1.5 13.3 15.89 15.89 0 0 0 10.2 7.3 13.17 13.17 0 0 0 3.4.4h125.8l-54.6 290.6a16.22 16.22 0 0 0 4.1 14.1 16 16 0 0 0 12.7 4.9 16.22 16.22 0 0 0 12.1-7.1l318.9-477.9a15.64 15.64 0 0 0 .9-16.45zm-302.8 411.3 43.8-232.5a16.14 16.14 0 0 0 -3.4-13.2 15.9 15.9 0 0 0 -12.3-5.8h-122.9l121.3-358.05h130.7l-68.6 200.7a16 16 0 0 0 15.1 21.2h155.1z" data-name="14-Power"/></svg>