<?xml version="1.0"?>
<svg xmlns="http://www.w3.org/2000/svg" viewBox="0 0 64 64" width="512" height="512"><g id="Layer_14" data-name="Layer 14"><path d="M26,46V38a3,3,0,0,0-6,0v8a5,5,0,0,0,1.81,8.84A5.37,5.37,0,0,0,23,55a5,5,0,0,0,3-9Zm-1.14,6.33a3,3,0,1,1-3.36-4.93,1,1,0,0,0,.5-.87V38a1,1,0,0,1,2,0v8.55a1,1,0,0,0,.5.87,3,3,0,0,1,.36,4.93Z"/><path d="M61.22,38l-3.31-.73a12.63,12.63,0,0,1-8-5.8,1,1,0,0,0-1.72,0A12.55,12.55,0,0,1,43,36.23V32a5,5,0,0,0-3-4.58V18A17,17,0,0,0,6,18v9.42A5,5,0,0,0,3,32v3H2a1,1,0,0,0-1,1V54a1,1,0,0,0,1,1H3v3a5,5,0,0,0,5,5H38a5,5,0,0,0,5-5v-.13a29.08,29.08,0,0,0,4.6,4.33l.8.6a1,1,0,0,0,1.2,0l.8-.6A29.15,29.15,0,0,0,62,39,1,1,0,0,0,61.22,38ZM8,18a15,15,0,0,1,30,0v9H34V18a11,11,0,0,0-22,0v9H8Zm24,9H14V18a9,9,0,0,1,18,0ZM13,37v4H3V37ZM3,53V49H13v4Zm10-6H3V43H13ZM41,58a3,3,0,0,1-3,3H8a3,3,0,0,1-3-3V55h9a1,1,0,0,0,1-1V36a1,1,0,0,0-1-1H5V32a3,3,0,0,1,3-3H38a3,3,0,0,1,3,3v5c-.3.09-.6.18-.91.25L36.78,38A1,1,0,0,0,36,39a29.14,29.14,0,0,0,5,16.24Zm8.2,2.6-.2.15-.2-.15A27.15,27.15,0,0,1,38,39.8l2.51-.56A14.63,14.63,0,0,0,49,33.79a14.63,14.63,0,0,0,8.48,5.45L60,39.8A27.15,27.15,0,0,1,49.2,60.6Z"/><path d="M54.89,40.45l-1.78-.9-.68,1.35A7.09,7.09,0,1,0,54,42.16ZM54,47a5.05,5.05,0,1,1-2.47-4.29l-2.7,5.4-2-2.71-1.6,1.2,3,4a1,1,0,0,0,.8.4h.09a1,1,0,0,0,.8-.55l3.17-6.34A4.92,4.92,0,0,1,54,47Z"/></g></svg>
