<svg id="Line" enable-background="new 0 0 32 32" height="512" viewBox="0 0 32 32" width="512" xmlns="http://www.w3.org/2000/svg"><path id="XMLID_196_" d="m11 6h-8c-.385 0-.734.22-.901.567-.166.346-.12.758.12 1.058l3.781 4.726v12.649c0 .552.447 1 1 1s1-.448 1-1v-12.649l3.781-4.727c.24-.3.286-.711.12-1.058-.167-.346-.516-.566-.901-.566zm-4 4.399-1.919-2.399h3.838z"/><path id="XMLID_147_" d="m15 17v8c0 .552-.447 1-1 1s-1-.448-1-1v-8c0-.552.447-1 1-1s1 .448 1 1z"/><path id="XMLID_148_" d="m20 14v11c0 .552-.447 1-1 1s-1-.448-1-1v-11c0-.552.447-1 1-1s1 .448 1 1z"/><path id="XMLID_149_" d="m25 11v14c0 .552-.447 1-1 1s-1-.448-1-1v-14c0-.552.447-1 1-1s1 .448 1 1z"/><path id="XMLID_150_" d="m30 7v18c0 .552-.447 1-1 1s-1-.448-1-1v-18c0-.552.447-1 1-1s1 .448 1 1z"/></svg>