<svg height="512" viewBox="0 0 64 64" width="512" xmlns="http://www.w3.org/2000/svg"><g id="Wrench"><path d="m17.957 46.75a1 1 0 0 0 -.707-.707l-5.577-1.494a1 1 0 0 0 -.966.259l-4.082 4.083a1 1 0 0 0 -.259.965l1.494 5.577a1 1 0 0 0 .707.707l5.577 1.494a.989.989 0 0 0 .258.034 1 1 0 0 0 .707-.293l4.083-4.082a1 1 0 0 0 .259-.966zm-3.853 8.8-4.462-1.2-1.195-4.45 3.266-3.266 4.461 1.2 1.2 4.461z"/><path d="m61.7 47.56-5.66-5.66a.99.99 0 0 0 -.71-.29.967.967 0 0 0 -.7.29l-.68.68a9.011 9.011 0 0 1 -2.15-4.91l-.72-6.42a9.053 9.053 0 0 0 -2.57-5.38l-.24-.24 1.29-1.3a.935.935 0 0 1 .71-.29 10.982 10.982 0 0 0 10.9-14.98 1 1 0 0 0 -1.64-.35l-6.12 6.13-3.72-.53-.53-3.72 6.13-6.12a.991.991 0 0 0 .27-.91 1.015 1.015 0 0 0 -.62-.73 10.982 10.982 0 0 0 -14.98 10.9.974.974 0 0 1 -.29.71l-4.13 4.13-2.83-2.83a3.981 3.981 0 0 0 -6.8 2.5 3.967 3.967 0 0 0 -4.55 5.62 3.9 3.9 0 0 0 -2.09 1.07 3.976 3.976 0 0 0 -1.02 3.84 3.959 3.959 0 0 0 -2.51 6.77l1.41 1.41-2.87 2.87a.95.95 0 0 1 -.72.29c-.22-.01-.43-.01-.66-.02a11 11 0 0 0 -.01 22h.03a10.994 10.994 0 0 0 10.99-11c0-.22-.01-.44-.02-.65a.929.929 0 0 1 .29-.72l2.87-2.87 11.32 11.31-.71.71a1 1 0 0 0 -.3.71.976.976 0 0 0 .3.7l1.41 1.42a1.024 1.024 0 0 0 .71.29 1.042 1.042 0 0 0 .71-.29 1.008 1.008 0 0 0 0-1.42l-.71-.7 15.55-15.56 4.95 4.95a1.008 1.008 0 0 0 1.42 0 1 1 0 0 0 0-1.41zm-20.62-31.71a2.914 2.914 0 0 0 .87-2.24 8.994 8.994 0 0 1 10.73-9.36l-5.28 5.28a1.008 1.008 0 0 0 -.29.85l.71 4.95a1 1 0 0 0 .85.85l4.95.71a1.008 1.008 0 0 0 .85-.29l5.28-5.28a8.994 8.994 0 0 1 -9.36 10.73 2.927 2.927 0 0 0 -2.24.87l-1.3 1.3-2.83-2.83a4.1 4.1 0 0 0 -5.66 0l-1.41-1.41zm-12.62 1.3a2.061 2.061 0 0 1 2.83 0l5.66 5.66-2.83 2.83-5.66-5.66a2.013 2.013 0 0 1 0-2.83zm-4.95 3.54a2.041 2.041 0 0 1 2.83 0l6.37 6.36.12.15a2.95 2.95 0 0 0 0 2.53l-.12.15a2.061 2.061 0 0 1 -2.83 0l-2.48-2.48-3.89-3.89a1.992 1.992 0 0 1 0-2.82zm-2.82 5.65a2 2 0 0 1 2.82 0l2.48 2.48 2.47 2.47h.01l1.41 1.42a2 2 0 0 1 -2.83 2.83l-5.66-5.66-.7-.71a2 2 0 0 1 0-2.83zm-4.13 6.37a1.989 1.989 0 0 1 .59-1.42 2.016 2.016 0 0 1 1.41-.58 1.98 1.98 0 0 1 1.42.58l5.66 5.66.7.71a2 2 0 1 1 -2.83 2.83l-6.36-6.37a1.983 1.983 0 0 1 -.59-1.41zm23.22 24.04-11.32-11.31 10.61-10.61a1.008 1.008 0 0 0 0-1.42 1 1 0 0 0 -1.41 0l-14.9 14.9a2.936 2.936 0 0 0 -.87 2.24c.01.18.02.36.02.54a9 9 0 0 1 -8.99 9h-.03a9 9 0 0 1 .01-18c.15 0 .37.01.55.02a2.973 2.973 0 0 0 2.24-.87l2.87-2.88 3.54 3.54a3.988 3.988 0 0 0 6.69-3.81 3.959 3.959 0 0 0 3.26-5.7 3.919 3.919 0 0 0 2.07-1.1c.03-.02.04-.05.07-.07a5.019 5.019 0 0 0 6.3-.63 1.014 1.014 0 0 1 1.41 0 .967.967 0 0 1 .29.7.99.99 0 0 1 -.29.71l-.71.71a7.007 7.007 0 0 0 0 9.9l.71.7a.978.978 0 0 0 1.41 0 1 1 0 0 0 0-1.41l-.7-.71a5 5 0 0 1 0-7.07l.7-.71a2.994 2.994 0 0 0 0-4.24 3.075 3.075 0 0 0 -4.24 0 3 3 0 0 1 -4.24 0 1 1 0 0 1 0-1.41l4.95-4.95a2.041 2.041 0 0 1 2.83 0l4.48 4.47a7.131 7.131 0 0 1 2.01 4.19l.72 6.42a11.037 11.037 0 0 0 2.71 6.1z"/></g></svg>