<svg height="960" viewBox="0 0 960 960" width="960" xmlns="http://www.w3.org/2000/svg"><path d="m590.049302 11 5.453705.0098564c.604834.0021879 1.20928.0047393 1.813328.0076533l3.619422.0218294 3.609365.0304943 3.598809.0391208 3.587758.0477089 3.576209.0562583 3.564165.0647692 3.551623.0732417c.590864.0129109 1.181185.0261732 1.770953.039786l3.531879.0858782 3.518096.0942544c.585174.016405 1.169752.0331573 1.753724.0502562l3.49649.1067465 3.481465.1150264c.578965.0198589 1.157282.0400612 1.734943.0606061l3.457996.1273741 3.441729.1355577 3.424966.1437028 3.407706.1518095 3.389949.1598776 3.371696.1679072 3.352945.1758983 3.333699.1838509 3.313955.1917651 3.293715.1996406 3.272978.2074776 3.251745.2152763 3.230014.2230363 3.207788.2307578 3.185063.238441 3.161844.2460854 3.138127.2536915 3.113913.261259 3.089203.268788 3.063995.2762785 3.038292.2837305 3.012092.291144c.499804.0491397.998496.0985866 1.496066.14834l2.971859.3021921 2.944418.3095092c.488422.0521925.97568.1046883 1.461763.1574866l2.902324.3204129c.481344.0540049.961493.1083108 1.440436.1629167l2.859111.3312299 2.829683.338393 2.799757.3455178 2.769335.3526039c.458994.0593557.916698.119005 1.373105.1789472l2.72277.363161c.902341.1222208 1.799404.2456065 2.691107.3701509l2.658946.3771023c1.32135.1902825 2.630454.3831574 3.927032.578603l2.338336.3573346c.387304.0600017.773399.1202268 1.15828.1806758l2.294705.365385 2.265461.3707854 2.23609.3762123c.740455.1263115 1.475993.253532 2.206594.3816658l2.176971.387146c.360353.0649825.719466.1301944 1.077337.1956363l2.132301.3954162 2.102362.4009629c.347892.0672908.694532.1348139 1.039916.2025698l2.057219.4093329 2.026966.4149462c.3353.0696269.669334.1394889 1.002099.2095864l1.98135.423416 1.950783.429096c.322576.0719908.643873.1442193.963888.2166862l1.904694.4376657c.629757.1468448 1.254368.2946474 1.87381.4434121l1.8428.4491852c2.436339.6027741 4.78965 1.2210141 7.058588 1.8550039l1.685862.4784499c3.340002.9628238 6.489408 1.9612445 9.443682 2.9962208 8.878242 3.1103314 16.425259 6.6621865 22.930791 11.2030454 4.730043 3.3015682 8.934499 7.1376039 12.520573 11.8337058 5.086255 6.660647 8.519632 14.571228 9.46262 23.4731667.073962.6982136.129528 1.3982535.166639 2.0993921l.029615.5594947c.03726.7039433.055905 1.4087485.055915 2.1136771l.006395 456.9273245.016007.087179c13.401671 77.363524-47.387141 187.394203-147.686907 278.793105l-3.114615 2.820773c-59.240089 53.321706-124.575203 93.160065-183.836216 112.51719-30.873802 10.084674-59.817853 14.528583-85.624181 12.570243-30.269031-2.296996-56.260154-13.443136-74.814048-34.042252-14.854686-16.492139-23.211323-37.158587-25.478646-60.358815l-.037394-.387423-.094856-.332602c-.853579-3.109397-1.347325-6.404196-1.423704-9.8529l-.01044-.944347-.001-110.907151-114.141141 10.120719c-2.095398.185772-4.201776.205922-6.299537.060455l-.786218-.062313-71.325427-6.361207c-20.632463-1.84012-36.446677-19.127504-36.446677-39.841861v-557.669619c0-17.938081 11.941928-33.682627 29.215777-38.5188333l71.325428-19.9691743c3.993166-1.1179777 8.135891-1.6082345 12.279708-1.4532007l116.252087 4.3490343.05579-.9182417.055551-.6998513.067828-.6987954c.942988-8.9019387 4.376365-16.8125197 9.46262-23.4731667 3.586074-4.6961019 7.79053-8.5321376 12.520573-11.8337058 6.505532-4.5408589 14.052549-8.092714 22.930791-11.2030454 2.954274-1.0349763 6.10368-2.033397 9.443682-2.9962208l1.685862-.4784499c.850852-.2377462 1.713569-.4732776 2.588079-.7066091l1.764726-.4637343c1.186939-.3072067 2.394761-.6105203 3.623299-.9099764l1.858321-.4462953c.624605-.1478037 1.254368-.2946474 1.889267-.4405356l1.920088-.4348024 1.950782-.429096c.327682-.0710419.656636-.1418472.986862-.2124163l1.996588-.4205861 2.026966-.4149462c.340352-.0686892.681965-.1371445 1.024836-.2053665l2.072298-.4065362 2.102363-.4009629c.352892-.0663642.707031-.1324972 1.062416-.1983998l2.147222-.3926527c.360353-.0649825.721945-.1297355 1.084775-.1942597l2.191798-.3844026c.367766-.0636107.736764-.1269937 1.106991-.1901495l2.236091-.3762123 2.265461-.3707854c.380017-.0613468.761253-.1224685 1.143705-.1833659l2.30928-.3626949c.77461-.1200034 1.554062-.2391135 2.338336-.3573346l1.300743-.1945879c.869931-.1291529 1.745389-.2571601 2.626289-.3840151l2.658946-.3771023c.891703-.1245444 1.788766-.2479301 2.691107-.3701509l2.72277-.363161c.456406-.0599422.914111-.1195915 1.373104-.1789472l2.769335-.3526039 2.799758-.3455178 2.829682-.338393 1.425909-.1665128 2.873639-.3276338c.481344-.054005.963883-.1077091 1.447607-.1611115l2.91648-.316788c.488421-.0521925.978007-.1040817 1.468747-.1556668l2.958201-.3058555 2.985395-.298519 3.012091-.291144 3.038292-.2837305 3.063996-.2762785 3.089203-.268788 3.113913-.261259 3.138127-.2536915 3.161843-.2460854 3.185064-.238441 3.207788-.2307578 3.230014-.2230363 3.251745-.2152763 3.272978-.2074776 3.293715-.1996406 3.313955-.1917651 3.333699-.1838509 3.352945-.1758983 3.371696-.1679072 3.389949-.1598776 3.407706-.1518095 3.424966-.1437028 3.441729-.1355577c.574991-.0219121 1.150659-.0434831 1.726996-.0647124l3.465943-.1232678 3.481464-.1150264c.58151-.0184821 1.163647-.0366193 1.746398-.0544106l3.503816-.1025921 1.757294-.0481718 3.52505-.0900711 3.538585-.0816757 3.551623-.0732417 3.564165-.0647692 3.576209-.0562583 3.587758-.0477089 3.598809-.0391208c.600695-.0058023 1.20183-.0112452 1.803394-.0163279l3.614455-.0261667 3.624266-.0174824c.604834-.0098564 1.210056-.0098564 1.815656-.0098564zm207.396751 506.300368c-45.329634-50.343659-174.151513-8.250601-287.731719 94.017476-113.580207 102.268077-168.908227 225.984333-123.578593 276.327992 19.936515 22.141743 56.023315 26.403031 99.860629 15.528522 55.782718-13.920135 124.054951-52.280418 187.562966-109.443662 86.492915-77.851856 139.212381-168.134666 139.439925-229.007343l-.011892-1.948682c-.094161-6.020177-.715326-11.74166-1.882212-17.122618l.003952-1.426924c-2.433457-10.382011-6.941728-19.45997-13.663056-26.924761zm-116.451382-4.649151c25.868813-8.452737 49.173191-12.060115 68.985192-10.348028 18.295562 1.581042 32.963018 7.649501 43.11032 18.919222s14.649351 26.491153 14.309324 44.851754c-.36821 19.882431-6.391797 42.682071-17.502256 67.52562-22.795458 50.971799-65.351394 106.510249-119.951834 155.672706-54.600439 49.162456-114.28295 85.679918-167.358295 103.022496-25.868812 8.452737-49.17319 12.060115-68.985191 10.348028-18.295562-1.581042-32.963018-7.649501-43.11032-18.919222-10.147303-11.269721-14.649351-26.491153-14.309325-44.851754.36821-19.882431 6.391798-42.682071 17.502257-67.52562 22.795458-50.971799 65.351394-106.510249 119.951833-155.672706 54.60044-49.162456 114.282951-85.679918 167.358295-103.022496zm66.507191 9.51571c-16.690925-1.295479-37.141665 1.929598-60.295318 9.495146-50.245346 16.417865-107.553248 51.482393-160.187556 98.874537-52.634307 47.392144-93.497055 100.720866-115.07705 148.974827-10.094991 22.57291-15.45033 42.843193-15.76308 59.730926-.253395 13.682675 2.805169 24.023683 9.175649 31.098818 6.370481 7.075136 16.335132 11.197874 29.969339 12.376096 16.827912 1.454212 37.546937-1.752969 61.051404-9.433146 50.245345-16.417865 107.553247-51.482393 160.187555-98.874537s93.497056-100.720866 115.077051-148.974828c10.09499-22.572909 15.45033-42.843192 15.76308-59.730925.253394-13.682675-2.805169-24.023683-9.175649-31.098818-6.370481-7.075136-16.335133-11.197874-29.96934-12.376096zm-232.35327 217.946913c20.331376-14.236183 45.63846-13.173132 56.524952 2.374391 10.886493 15.547523 3.229902 39.691988-17.101474 53.928171s-45.63846 13.173131-56.524952-2.374392c-10.886493-15.547523-3.229902-39.691987 17.101474-53.92817zm77.064205-556.650324h-3.675127l-3.667858.007364-3.657719.014691-3.647041.021981-3.635827.029232-3.624072.036445-3.61178.043621-3.59895.050757-3.585582.057857-3.571675.064918-3.55723.071941c-.591639.012573-1.182652.025437-1.773031.038592l-3.534554.082404-3.518763.089332-3.502435.096221-3.485569.103073-3.468163.109887-3.45022.116662-3.431739.1234-3.412719.1301-3.393162.136761-3.373065.143384-3.352432.149969-3.331259.156517-3.309548.163026-3.287299.169497-3.264513.17593-3.241187.182325c-.538224.030918-1.075454.062101-1.611679.093548l-3.20519.191847-3.18052.198146-4.723344.308947-3.116488.213729-3.089934.219896-3.06284.226024-3.035211.232115-3.00704.238167-2.978334.244182-2.949088.250158-2.919305.256096-2.888982.261997-2.858123.267858-2.826724.273683-2.794787.279469-2.762313.285217-2.7293.290926-2.695749.296599c-.446465.049903-.891511.100042-1.335124.150414l-2.644413.305035-2.609516.310612c-.431982.052231-.862487.104693-1.291504.157385l-2.556162.318905-1.000731.127617-1.981114.257425-1.953783.260306-1.926209.263136-1.898395.265918-2.79491.403982-1.827799.272653-1.799136.275261-1.770233.277818-1.741086.280326-1.711698.282785-1.682069.285194-2.467016.432198-1.606935.290998-2.353181.440673-1.530288.296492-1.499205.298604-1.467882.300664-1.436315.302677-1.404508.304638c-.23142.050934-.461505.101947-.69025.153039l-1.356341.307488-1.323928.309326c-.21794.051705-.43452.103484-.649734.155337l-1.274854.311989-1.241837.313703-1.208576.315367-1.175074.316982-1.14133.318546-1.107344.320061-1.062161.318208-1.013383.314984-.974049.314341c-.159041.052316-.316424.104592-.472143.156818l-.914255.312714-.873864.311192c-.142255.051719-.282809.10336-.421654.154915l-.812485.308249-.771037.305847c-.250058.10151-.493137.202561-.729167.303095l-.686873.299991c-.998379.447484-1.85259.883307-2.556214 1.302134l-.37082.227926-.201742.130025-.028005.097595c-.328436 1.062247-.82913 2.048836-1.469447 2.92713l.000824 554.63286c23.517119-53.932597 68.099714-113.272234 127.33135-166.604638 120.886852-108.847011 260.280665-154.39449 315.977227-92.537191l-1.204949-1.295756-.004703-295.212766c-.335554-.601067-.610883-1.240335-.817825-1.909639l-.029472-.097595-.200275-.130025-.141865-.088954c-.744534-.461094-1.675859-.943902-2.785169-1.441106l-.686873-.299991c-.23603-.100534-.479109-.201585-.729167-.303095l-.771037-.305847-.812485-.308249c-.138845-.051555-.279399-.103196-.421654-.154915l-.873864-.311192-.914255-.312714-.954224-.313886c-.162344-.052392-.326336-.104819-.491968-.157273l-1.013383-.314984-1.062161-.318208-1.107344-.320061-1.14133-.318546-1.175074-.316982-1.208576-.315367-1.241837-.313703-1.274854-.311989-1.307631-.310226-1.340165-.308413-1.372457-.306551-1.404508-.304638-1.436315-.302677-1.467882-.300664-1.499205-.298604-1.530288-.296492-1.561128-.294333c-.262744-.048872-.526764-.097653-.792053-.14634l-1.606935-.290998-2.467016-.432198-1.682068-.285194-1.711699-.282785-1.741086-.280326-1.770233-.277818-2.709468-.411916-2.773685-.405994-2.837086-.399904-1.92621-.263136-1.953783-.260306-1.981114-.257425-1.000731-.127617c-.846043-.107217-1.698127-.213521-2.556162-.318905l-2.591866-.313386c-.434923-.051769-.871311-.103306-1.309154-.154611l-2.644413-.305035-2.678771-.29942c-.449295-.049433-.899999-.098631-1.352102-.147593l-2.7293-.290926-2.762313-.285217c-.463106-.047058-.927566-.093877-1.393368-.140455l-2.810823-.276581-2.84249-.270775-2.87362-.264933-2.904211-.259051-2.934263-.253132-2.963779-.247174-2.992754-.241179-3.021193-.235146-3.049093-.229074-3.076454-.222965-3.103278-.216817-3.129564-.210632-3.15531-.204407-3.18052-.198146-3.20519-.191847-3.229323-.185508-3.252917-.179132-3.275973-.172718-3.298492-.166266-3.320471-.159776-3.341912-.153248-3.362816-.146682-3.38318-.140077c-.565531-.022794-1.131888-.045311-1.69906-.06755l-3.412719-.1301-3.431739-.1234-3.45022-.116662-3.468163-.109887-3.485569-.103073-3.502435-.096221-3.518763-.089332-3.534554-.082404-3.549806-.075438-5.35213-.100013-3.585582-.057857-3.59895-.050757-3.61178-.043621-3.624072-.036445-3.635826-.029232-3.647042-.021981-3.657719-.014691zm-390.763797 54.215484-59.543253 10.925009c-.640418.117499-1.277771.17117-1.905513.165527l-.000234 446.869257 61.449 5.480207zm20-1.445v464.868l127.55-11.308v-446.655zm-20-115.469-61.449 17.204174v90.649826l61.449-11.274zm19.999-2.386.001819.097404-.000819 97.727596 127.55 6.906v-99.959zm368.576255-67.3789998c-5.450639.0000925-10.855189.0303801-16.206898.0898294-113.300844 1.26139-202.924044 15.6636189-204.787749 33.3479182l-.029608.5432522-.000858 38.918094.000059 60.125781c2.152687-.82128 4.510473-1.612424 7.076536-2.381264l.611511-.181613 1.248333-.361176 1.281916-.358422 1.315299-.355646c.221987-.059041.445357-.117965.670106-.176773l1.365002-.351433c.460493-.116672.926467-.232872 1.397888-.348594l1.430576-.345731c.241143-.057381.483639-.114643.727484-.171783l1.479235-.34139c.249227-.056656.499796-.113189.751701-.1696l1.527447-.336994 1.559339-.334032 1.591032-.331047c.267802-.054924.536917-.109723.807339-.164396l1.6382-.326522 1.669397-.323475 1.700395-.320403 1.731193-.317307c.291088-.052625.583451-.10512.877084-.157485l1.77702-.312617 1.807321-.30946 1.837424-.306278 1.867329-.303071 1.897034-.299841 1.926541-.296585 1.955849-.293305 1.984958-.290001 2.013868-.286672 2.042579-.283319 2.071092-.279941 2.099406-.276538 2.127521-.273111 1.300709-.16356 2.628181-.322863 2.663417-.317156 2.698119-.311413c.452548-.051422.90652-.102602 1.361905-.153542l2.749165-.302729 2.782528-.296894 2.815353-.291023 2.847644-.285114 2.879399-.279168 2.910617-.273186 2.941301-.267167c.492744-.044025.986744-.087796 1.481989-.131315l2.986321-.25807 3.015664-.251959 3.044473-.245811 3.072745-.239626c.514451-.039421 1.030057-.078582 1.546808-.117483l3.114149-.230281 3.141082-.224004 3.16748-.217691 3.193341-.211341 3.218667-.204955 3.243458-.198531 3.267712-.19207 3.29143-.185573 3.314614-.17904 3.33726-.172469 3.359373-.165861 3.380948-.159217 3.401988-.152536 3.422493-.145818 3.442461-.139064 3.461894-.132272 3.480791-.125445 3.499153-.118579 3.516978-.111678 3.534268-.104739 5.33265-.144018 3.575149-.087233 5.39146-.117585 3.612683-.069495 5.445248-.090808c.60672-.009191 1.213993-.01808 1.821808-.026669l5.484662-.069137 3.671804-.03699 3.683469-.029664 3.694598-.022304 3.705191-.014905 3.715249-.00747c.620016-.000936 1.24043-.000936 1.861229-.000936l5.576477.008406 3.705192.014905 3.694597.022304 3.683469.029664 3.671804.03699 5.484662.069137 5.455403.085411 5.424336.101561 3.598071.076617 3.582924.083703c.595862.014539 1.19107.029372 1.785614.044498l5.33265.144018 3.534268.104739 3.516978.111678 3.499153.118579 3.480791.125445 3.461894.132272 3.442462.139064 3.422492.145818 3.401988.152536 3.380948.159217 3.359373.165861 3.33726.172469 3.314614.17904 3.29143.185573 3.267712.19207 3.243458.198531 3.218667.204955 3.193341.211341 3.16748.217691 3.141082.224004 3.114149.230281 3.086681.236521 3.058676.242723c.507416.040969 1.013642.082194 1.518669.123676l3.015664.251959 2.986321.25807 2.956442.264144 2.926025.270181 2.895075.276182 2.863589.282145 2.831565.288073c.46923.048504.937102.097254 1.403607.146248l2.782528.296894 2.749165.302729 2.715269.308528c.44969.051903.897945.104045 1.344755.156427l2.663417.317156 2.628181.322863 2.367971.299685 3.159665.413524 2.071092.279941 2.04258.283319 2.013868.286672 1.984957.290001 1.955849.293305 1.926541.296585 1.897034.299841 1.867329.303071 1.837424.306278 1.807321.30946 1.77702.312617 1.746518.31575 1.715819.318858c.283401.053401.565514.10693.846335.160587l1.669397.323475 1.6382.326522 1.606805.329545 1.57521.332542c.259891.055672.518458.111469.775695.167388l1.527447.336994 1.495355.339931 1.463065.342842c.723427.172146 1.43467.345374 2.133618.519672l1.38147.350016c.455004.117145.904509.234761 1.348484.352843l1.315299.355646 1.281916.358422 1.248333.361176.611512.181613c2.310324.692216 4.451817 1.402512 6.426798 2.136603l-.002924-98.780214h-.098605l-.029608-.5622522c-1.951604-18.5183534-100.136012-33.4377478-220.970392-33.4377478z"/></svg>