<svg height="960" viewBox="0 0 960 960" width="960" xmlns="http://www.w3.org/2000/svg"><path d="m81.1537283 629.316631c8.8388668-2.287561 17.9540428-3.328731 27.0810947-3.093304l755.511473 19.487953c.706253.017244 1.409394.051116 2.109037.101178 24.789295 1.773757 43.447045 23.307218 41.673886 48.092808l-.565028 7.777021-.590739 7.810875-.511063 6.439272-.488252 5.823252-.282775 3.203898-.365998 3.939539-.354257 3.566098-.301095 2.819453-.251992 2.196858-.206007 1.677954-.242773 1.832765-.198888 1.378641-.157037 1.006825c-5.561208 34.34591-29.821543 56.15736-66.1805 56.15736l-.43022.000547-2.562349.015283-21.14731.236687-395.731385 5.094563-226.596084 2.896881-64.949619.793996-23.587045.268071-10.4678746.10597-5.160537.042042-2.5721329.010883c-24.2537271 0-44.3251139-7.259268-58.1284398-24.106772-6.5440849-7.987314-10.7356304-17.143844-13.0814275-27.15973-1.7264286-7.371358-2.4183912-14.964383-2.4183912-23.395342v-55.158034c0-17.104117 10.8752425-32.315621 27.059578-37.848983l5.8103186-1.986526c.9613147-.328669 1.9348021-.620596 2.9183443-.875143zm3.6462512 40.37374-28.9896609 7.503225-5.8103186 1.986526v55.785727c.121501 20.640877 6.2431915 34.034151 33.6282585 34.034151l.571142-.000609c.1431282-.000406.2970178-.001083.4615808-.002212l3.2579797-.022223.1759233-.001292c-2.0931009-5.656687-3.2179164-12.459826-3.2903644-20.384007l-.0037372-.821135zm20.6033135-3.498831-.37407.004847c-.120287.154734-.178125.374352-.205571.692296l-.014653.23897-.007173.273618-.001043 80.367251c0 9.483703 1.682919 15.405229 4.354073 18.461779.965291 1.104564 2.18886 1.931321 3.761892 2.482259l2.727025-.030941 34.376875-.409225 52.199235-.646246 101.818534-1.29289 403.383041-5.211405 85.354068-1.082182 30.780364-.371952 7.998056-.088422 4.560838-.041399 1.227077-.005215c15.520926-.146811 22.792234-7.040973 25.616581-19.586967l.177931-.826219c.028617-.139035.056719-.278735.08431-.419098l.159456-.850131c.051135-.286024.100266-.57469.147432-.865988l.125906-.814093.196585-1.405719.136206-1.060201.176053-1.463686.21976-1.959462.190215-1.802084.236757-2.36554.330095-3.498604.391057-4.406611.411915-4.90498.482147-6.034483.45595-5.95709.750713-10.257169c.197049-2.754384-1.87605-5.147021-4.630431-5.344106-.076743-.005491-.153602-.00921-.230518-.011088l-755.566588-19.489338-.900196-.016229c-.300025-.00308-.600002-.003832-.899904-.002257zm-30.6980083-507.067869c12.0998156-6.096287 25.9725613-7.93767 43.6956613-7.345214l1.727228.064871c.289898.012058.580815.024733.87276.038019l1.764072.086977 1.789158.101256c.274426.01649.549996.033531.826711.051121l1.674037.112136c.281299.019789.563747.040127.847344.061014l1.71539.131912 1.743055.145083 1.770796.158247 1.798615.171401 1.826509.184546 1.854481.197682c.311416.034041.624.068629.937754.103764l1.896583.217368 1.924746.230482 1.952986.243585c.327855.041689.656891.083924.987107.126704l1.995491.263225 2.023922.276306 2.052431.289378 2.081017.302442 2.109679.315496 2.138418.328541 2.167233.341577c.363611.058015.728427.116573 1.094447.175674l2.210601.361113 2.239608.374128 2.268693.387131 2.297854.400127 2.327091.413112 3.545625.643998 2.400521.445538 2.430028.458493 3.246063.623096 680.633259 116.693639c.41623.071362.83129.149308 1.245025.233809l.619589.131663c24.779401 5.471035 45.202813 17.962365 59.398528 37.248689 17.014277 23.115627 22.996159 42.118802 23.339759 72.715437l.015861 1.907499v.965097c0 11.151285-1.885547 23.004607-5.430405 37.4256l-.505377 2.029084-.772825 3.052988-.690682 2.67556-.697409 2.605687-.799277 2.868292-1.556004 5.37914-6.534098 21.982345-1.958602 6.620955-1.235655 4.252311-.550105 1.920142-.530711 1.871735-.511885 1.825797-.493629 1.782327-.707459 2.59738-.45048 1.684446-.434217 1.649613-.418524 1.617246-.403398 1.587348-.388844 1.559917-.374859 1.534954-1.72969 7.250289-4.600939 19.439453-8.461795 36.042188c-5.471739 23.392601-25.9937 40.178825-49.997541 40.903885l-29.530687.871539-16.593359.443393-8.455531.187818-4.006194.060771-2.074362.008009-.951854-.009203-.460203-.009057-6.639721-.156703-18.002319-.434016-28.570589-.709045-22.812892-.578907-35.305643-.911897-45.160356-1.18707-37.23815-.991737-83.137039-2.244318-103.097177-2.823838-79.315058-2.194098-115.859698-3.229832-149.7686836-4.207806c-35.1705747-.991558-63.16811593-29.788194-63.16811593-64.973594v-294.401717c0-21.099249 12.07616683-40.337026 31.07476153-49.515473l7.0363339-3.403557 9.2543044-4.493115 9.0328045-4.415467 5.4519291-2.692566zm76.5847513 49.583787c4.942966 14.738937 6.863063 30.386745 6.206239 49.268741l-.069114 1.779733-.08413 1.79911c-.015269.30149-.03116.603805-.047672.906953l-.106504 1.828972-.058812.922125-.128693 1.859792c-.022675.31171-.045963.624299-.069861.937774l-.150699 1.891571-.165267 1.913289c-.028754.320715-.058112.642352-.088072.964921l-.186966 1.946664-.201332 1.969446c-.034747.330163-.07009.661293-.106026.993399l-.222725 2.004418-.236884 2.028265-.250963 2.052537-.26496 2.077236-.292813 2.20676-.403321 2.920791-.340143 2.37104-.357255 2.41192-.472839 3.086866-.401054 2.53865-.422875 2.610418-.446145 2.69169-.470863 2.782468-.75581 4.364698-.678345 3.832748-1.184521 6.550975-1.144502 6.206682-6.355187 33.77272-1.212009 6.524068-1.361768 7.427575-1.074243 5.95177-.829962 4.664963-.610067 3.470105-.201598 1.154762c-.676974 3.88459-1.332471 7.717785-1.970004 11.524368l-1.097382 6.610136-3.530406 21.42851-2.927536 17.939589-2.632107 16.309082-1.52108 9.528965-1.401327 8.867809-1.281531 8.206316-1.003073 6.507235-1.058932 6.976934-.939007 6.314476-.819036 5.651681-.41414 2.931822-.374943 2.715225-.488902 3.666583-.125869.975196-.033874.346476c-.564949 6.15908.78617 10.030037 3.953206 12.711383l.223901.185155c1.543717 1.247059 3.568307 2.319902 6.077687 3.191025l26.262402.739071 160.867888 4.4989 72.734555 2.017575 99.477595 2.73652 94.734573 2.572067 45.396785 1.215884 52.592754 1.389374 41.295379 1.070754 31.922854.810104 27.992956.691751 20.866086.49873.456404.007272h.873363l2.970331-.034489 6.405036-.130349 8.493468-.211176 13.032242-.357971 27.687319-.819032.314693-.013286c5.753763-.312185 10.63274-4.384337 11.950867-10.019553l1.049478-4.483435 8.042612-34.231153 5.562149-23.445293c1.750482-7.324896 3.782024-14.759396 5.912182-22.158624l.964612-3.326783.974231-3.319088.823976-2.782945 4.3746-14.643416 1.587064-5.369357 1.027755-3.531426.751213-2.620353.731969-2.59423.476204-1.714112.695014-2.546814.449533-1.680886c.073956-.278979.14742-.557366.220379-.835152l.431578-1.6594c.141765-.550667.281399-1.098839.418794-1.64443l.405359-1.628942.391273-1.612939c.064003-.267461.127391-.534233.190152-.800306l.368924-1.587964c.060197-.263234.119738-.525747.178611-.787528l.345111-1.561826c.168438-.776438.330617-1.546099.486172-2.308693l.302167-1.515678.283851-1.496314c1.097904-5.945841 1.740588-11.414549 1.740588-16.257265v-1.45324l-.016737-1.422128-.021361-1.391953-.030414-1.362715c-.00584-.224734-.012069-.448289-.018694-.670685l-.044545-1.320612c-.008232-.217835-.016871-.434549-.025925-.650161l-.059336-1.280618-.069566-1.255125-.080087-1.230569c-.028482-.406201-.058766-.808466-.090903-1.20695l-.102012-1.184267c-.035888-.391079-.073677-.778534-.113415-1.162521l-.125113-1.141711c-.28396-2.45184-.652354-4.763742-1.118625-6.978571l-.222201-1.015493c-.955203-4.203801-2.280025-8.072999-4.070078-11.912468l-.438594-.921058c-.895249-1.841599-1.899449-3.681967-3.023174-5.554823l-.571872-.939291c-.290965-.471155-.589511-.944692-.895802-1.421137l-.622959-.956925c-.105564-.160185-.212001-.320733-.319317-.481663l-.654492-.970314c-.221713-.325069-.44699-.651821-.675882-.980412l-.697564-.991446c-.236168-.332425-.475999-.666845-.719542-1.003416l-.741812-1.016323c-8.199827-11.140299-20.135831-18.440576-35.808014-21.900832l-681.059623-116.765914-2.72596-.525855-2.684124-.508564-2.642289-.491273-2.600454-.473981-2.558619-.456689-2.516784-.439398-2.474949-.422106-2.433114-.404815c-.402033-.066029-.802322-.131336-1.200869-.195923l-2.370361-.378878-2.328527-.361586c-.384601-.058824-.76746-.116927-1.148575-.174309l-2.265774-.335649c-.374143-.0545-.746542-.10828-1.117199-.16134l-1.481453-.209165c2.280728 4.2418 4.314641 9.009478 6.085725 14.290497zm-36.366078-16.994783c-10.337084-.166745-17.7439755.877637-22.2206735 3.133146l-3.2076973 1.604239-6.1557709 3.038981-11.9463288 5.830384-13.1096875 6.349498c-5.1813455 2.50317-8.4748205 7.749814-8.4748205 13.504134v294.801097c.2159301 13.347709 10.9035314 24.206697 24.2953814 24.584251l22.2945284.627306c-1.8127976-4.927115-2.4760512-10.607925-1.9011046-17.018666l.0759586-.782532.0261418-.225586.3016336-2.321796.431917-3.204454.3894437-2.805407.5417062-3.809167.4772963-3.289337 1.0717785-7.224285.7492304-4.95249 1.3258063-8.624044 1.0969969-7.033727 1.391067-8.819162 2.195131-13.744886 2.439826-15.094104 2.405167-14.739087 3.209098-19.500708 1.240462-7.496748c.636214-3.839755 1.289516-7.698987 1.963431-11.602658l.712857-4.102131.823009-4.673307.842903-4.722197.870098-4.813483 1.136986-6.20981 1.205144-6.50149 5.90358-31.351026 1.506641-8.117553.909012-4.983655.838265-4.6776.647966-3.686705.604932-3.51387.454822-2.698782.637021-3.882638.58702-3.711716.365934-2.39492.43132-2.920392.40491-2.855836.306775-2.250316.074496-.559011c.087038-.656144.171877-1.307842.254508-1.955164l.241261-1.928914.227964-1.903087c.036883-.315052.07321-.629046.10898-.94199l.207924-1.865141c.033537-.308781.066515-.616531.098932-.923257l.187771-1.828149.174273-1.804018c.027918-.298683.055272-.596377.082059-.893093l.153932-1.768617.07186-.87563.133478-1.734169c.021106-.287146.041641-.573358.061605-.858644l.11291-1.700675.099136-1.678876.085312-1.657501.071437-1.636549c.193448-4.878644.198909-9.480169.010281-13.856088l-.070073-1.450354c-.077277-1.44214-.176196-2.859849-.296982-4.255033l-.128082-1.387748c-.789766-8.052223-2.326172-15.359658-4.654078-22.301009-4.127569-12.307587-9.312175-19.912662-15.133022-23.300541-.247922-.006737-.4934-.013918-.737333-.02046z"/></svg>