<?xml version="1.0" encoding="UTF-8"?>
<svg width="102px" height="102px" viewBox="0 0 102 102" version="1.1" xmlns="http://www.w3.org/2000/svg" xmlns:xlink="http://www.w3.org/1999/xlink">
    <!-- Generator: Sketch 52.6 (67491) - http://www.bohemiancoding.com/sketch -->
    <title>Untitled</title>
    <desc>Created with Sketch.</desc>
    <g id="Page-1" stroke="none" stroke-width="1" fill="none" fill-rule="evenodd">
        <g id="icon" transform="translate(1.000000, 1.000000)">
            <g id="background"></g>
            <g id="Layer-1" fill="#000000" stroke="#000000" stroke-opacity="0">
                <rect id="svg_5" x="92" y="0" width="3" height="100"></rect>
                <rect id="svg_7" x="5" y="0" width="3" height="100"></rect>
                <polygon id="svg_6" points="0.126368 89.12622 86.872617 88.876227 99.87226 98.875953 13.12464 98.750956"></polygon>
                <polygon id="svg_8" points="0.12637 1.624304 86.87262 1.374304 99.87226 11.374034 13.12464 11.249034"></polygon>
                <polygon id="svg_9" points="0.12637 14.124574 86.87262 13.874584 99.87226 23.874304 13.12464 23.749314"></polygon>
                <polygon id="svg_10" points="0.12637 26.624854 86.87262 26.374854 99.87226 36.374584 13.12464 36.249584"></polygon>
                <polygon id="svg_11" points="0.12637 39.125124 86.87262 38.875134 99.87226 48.874854 13.12464 48.749864"></polygon>
                <polygon id="svg_12" points="0.12637 51.625394 86.87262 51.375404 99.87226 61.375134 13.12464 61.250134"></polygon>
                <polygon id="svg_13" points="0.12637 64.125674 86.87262 63.875684 99.87226 73.875404 13.12464 73.750404"></polygon>
                <polygon id="svg_14" points="0.12637 76.625944 86.87262 76.375954 99.87226 86.375684 13.12464 86.250684"></polygon>
            </g>
        </g>
    </g>
</svg>