<svg height="960" viewBox="0 0 960 960" width="960" xmlns="http://www.w3.org/2000/svg"><path d="m88.0432558 4.09346486 2.1578469.13991359 8.7245748.52998368 41.2124615 2.45064232 176.837179 10.42602905 576.339961 33.8543315c5.316696.31201 10.659371.6255395 16.028013.9405881 20.933388 1.2284359 37.326007 18.4015325 37.656708 39.296981v79.3298789c0 17.519424-11.400701 33.000157-28.131118 38.198556l-5.586647 1.726833-5.388207 1.647018-3.911645 1.183012-2.546372.763842-2.497431.744008-1.88058.555918 22.430905 79.275722c4.720115 16.681614-1.83262 33.290593-14.343527 42.799875l-.380937.28598-.561441.407423 15.285889 54.020241c4.720205 16.68184-1.832748 33.29101-14.343921 42.800242l-.380945.285978-.561023.407539 15.285906 54.019875c4.720129 16.68167-1.832665 33.290692-14.34364 42.799956l-.380939.285979-.561327.40719 15.285894 54.020406c4.720105 16.681515-1.832514 33.290428-14.343299 42.79975l-.380933.285981-.561662.407863 15.285881 54.019936c4.72019 16.68174-1.83265 33.290839-14.343699 42.800108l-.380941.28598-.561241.406976 15.285898 54.02057c4.720113 16.68157-1.832567 33.290521-14.343418 42.799822l-.380935.285981-.181545.131627 14.798724 50.431919c.934997 3.186408 1.469025 6.474993 1.591153 9.789687l.019862.710663.007261.762123v21.363608c0 21.870476-17.552229 39.64141-39.338527 39.994641l-.661473.005359h-33.475018c-2.260183 0-4.514407-.191563-6.738596-.571694l-.832616-.151382-.53877-.109924-767.1128059 4.839904c-21.7478359.129286-39.5314207-17.109847-40.230595-38.687317l-.0159442-.655178-.0054048-.664409-.0002501-743.827-.3868047-.180535c-11.532661-5.474114-20.0461807-15.77315-23.26416606-28.215491l-.13656865-.542314-.11984697-.501847c-.70966783-3.050135-1.0827676-6.136073-1.14261362-9.209554v-60.5197734c0-12.3008137 5.0308405-23.6617581 13.189879-32.0033502l.246121-.2491354c9.2206939-9.3032756 18.1170648-16.7020156 27.0534352-22.2053245l.8125177-.4950795.8127988-.4846378c12.3973562-7.31095228 25.2980721-11.25655261 38.9285041-10.47249334zm767.5967442 797.11572614-769.466226.000895c-.824907.246227-1.6985555.389457-2.6082078.413105l-.2690413.003492-11.2465249-.000492v7.635l20.7623067 64.267873c2.0587869 6.372976-2.6036866 12.899987-9.2489259 13.070647l-.2668559.003421-11.2465249-.000941.0002501 26.397809 772.0607499-4.863 3.413982.863h33.475018v-21.363608zm-.515-99.042h-783.075v8.562l18.816 70.48h786.624zm-783.075-95.416v1.081l19.845 74.335h785.162l-19.628-69.37zm.257-100.855 20.6511763 77.357955c.3309367 1.239665.4148344 2.474795.2866314 3.659901l786.1641923 6.051144-21.51-76.021zm-.257-106.68v2.823l20.9081763 78.318309c.5390575 2.019269.4226555 4.026508-.1982078 5.82512l787.1590315 11.069571-22.977-81.203zm0-111.851v11.777l20.9081763 78.318662c.1976897.740531.307225 1.479444.3360537 2.207042l785.71277 16.850296-24.699-87.293zm0-110.77v19.65l19.127 71.647 785.236 21.944-23.087732-81.595683-4.552268-.184508v-.648809zm8.473-32.694-2.5153626.940368-3.005718 1.10754-2.1777344.79209-.774185.277002v9.561l776.723 30.813v-.008191l1.442004-.317789 2.019122-.461452 1.581279-.372694 2.197622-.532399 2.890464-.722512 1.810778-.463914 2.503621-.654026 1.944653-.517125 2.682121-.724974 2.78412-.765517.008216-.003407zm12.773-99.4090004v80.0000004l813.704 39.08v-71.2059347l-520.61156-30.5741248-177.099727-10.4250568-102.261217-6.049666zm-30.1275465 8.7286543-.8977891.6783274c-.9018671.6903186-1.815968 1.4166057-2.7423025 2.1788188l-.9304124.7741868c-.3114968.262053-.6243529.5280961-.9385683.7981279l-.9467241.8220596-.9548799.8459818-.9630357.8698944-.9711916.8937976c-.1625449.1509577-.3254296.3029109-.4886542.4558596l-.9834252.9296346c-.6583355.6277173-1.3221081 1.2713543-1.991318 1.9308982l-1.0078927 1.0012447c-.1686618.1688619-.3376634.3387177-.5070048.509567-1.0900241 1.0875101-1.7627893 2.5020051-1.845255 3.8436377v60.002295c0 .315544.034195.621655.1019931.91305.1798693.773302.5780744 1.389321 1.1204727 1.819012.552249.174253 1.0882823.397117 1.6028236.665705.1927912.028792.3924302.040838.5965146.037526l.128196-.005278.4371545-.133858 1.7069351-.538765.3719104-.121377 18.9842501-8.867851-.0002501 2.192851 1.246-.464191.0007175-78.2929647c-3.1807192 1.5108192-6.5568072 3.5989971-10.128264 6.2618096zm839.6908795 823.4138731h-819.1870064m4.8629322 0v48.179887"/></svg>