<svg height="960" viewBox="0 0 960 960" width="960" xmlns="http://www.w3.org/2000/svg"><path d="m480.67918 3.52548072 1.652739.0111587c19.117787.08780524 39.49391 1.39759369 60.459454 3.90573187 12.039176 1.43305086 24.121086 3.23229461 36.165747 5.40019821 31.144124 5.6721976 62.446568 14.2186127 92.387985 25.3402884l2.130062.7969633 2.178969.8434329 2.138056.8396919c.352958.1396578.704229.2791755 1.053822.4185609l2.077499.8347877c4.115023 1.6666521 7.991062 3.3165184 11.643697 4.9631859l1.807773.82313c23.260896 10.6988608 37.192659 21.3582423 46.073802 35.7094225l.45329.7446619c4.978196 8.4269714 7.76337 16.9859361 9.127998 27.5462831l.16005 1.303233.146166 1.324002c.023222.22244.045878.445777.067975.670027l.12593 1.356584c.039776.455932.07737.915642.112834 1.379259l.100052 1.402697c.031256.471556.060433.947146.087586 1.426897l.075435 1.45186c.011578.244099.022662.48927.03326.735529l.0578 1.490735.046436 1.517604c.00681.255216.01316.511583.019056.769117l.029983 1.559339.019408 1.588115.009314 1.617655v4.122172l-.037105 4.446543-.18806 11.505793-.010491.389139c-.643544 17.533647-4.625238 34.744596-11.582761 52.620214l-.572844 1.457857-.581273 1.451586-.590411 1.447009-.600259 1.444126-.610814 1.44294-.622079 1.443449-.634053 1.445651-.646735 1.44955c-.108886.242011-.218329.484255-.328345.726767l-.667088 1.458576-.681543 1.466711c-.114835.245225-.230301.490858-.346414.736937l-.704553 1.482094c-.118759.248-.238193.496515-.358318.745582l-.72916 1.50129-.74645 1.516207-.764449 1.532818-1.181973 2.334081-.812547 1.581763-.833028 1.604306-.854217 1.628546-.876115 1.65448-.898721 1.682109-.922037 1.711433-1.428322 2.625842-1.48477 2.701355-1.022388 1.845682-6.031811 10.744452-3.075389 5.324923-1.701971 2.976395-1.574221 2.780899-1.173874 2.096787-1.103216 1.993658-.78401 1.433444-.749122 1.385054-1.176659 2.212086-.882188 1.69396-.834965 1.63725-.792676 1.590314-.75532 1.553149-.544944 1.146352-.528787 1.135066-.514713 1.127905-.336351.749993-.467818 1.059074.024044 1.218701.013965 1.30403c.00123.213584.001908.425321.002031.635258l-.005964 1.238384c-.086786 8.319695-1.121911 13.767938-3.396858 19.524643l-.580621 1.430068c-.351818.858985-.762751 1.691807-1.229575 2.492562l-.258022.428354-2.201079 8.129387-2.865307 10.735142-1.710414 6.495009-.792458 3.039535-1.004878 3.892942-.471513 1.846565c-6.480689 25.488816-12.814338 52.939413-18.74795 82.282663-5.126265 25.350708-9.713521 50.977725-13.629161 76.646299-8.865393 58.961689-13.995218 116.004325-14.458073 168.898041l-.018045 2.438294.000366 3.011976c0 .339569-.008648.679055-.025932 1.018129l-.0324.50826-.022404.292702c-.069235.90453-.199917 1.803092-.391055 2.689474l-.160644.687185-.199669.774597-.197099.729885-.154106.554542c-.424985 1.512898-.92879 3.173194-1.514397 4.949193-1.680287 5.095882-3.715636 10.208645-6.172621 15.11645-2.56587 5.125304-5.42169 9.730768-8.711072 13.723441l-.014315.054848-.272994 1.220605-.355806 1.677207-.376094 1.863388-.568989 2.95805-.725 3.941017-.355891 1.979174-.1692 1.109946-.328103 2.241704-.256178 1.84551-.126532.944297-.313381 2.435715-.311644 2.561731-.313003 2.71139-.317461 2.884692-.457828 4.374736-.340792 3.397084-.538878 5.553195-.466013 8.716669-.412642 8.146754-.279912 5.94976-.239454 5.560822-.179356 4.630579-.153897 4.486027-.019661.620579c-.38895 14.354675-.38895 27.935132-.001948 40.630947l.006964.30465.002322.304721v4.363772c0 4.617664-1.597672 9.088087-4.51387 12.656223l-.296005.353777-29.842528 34.84272-.077447.135202c-.848003 1.41716-1.901579 2.772388-3.173374 4.033876l-.388098.375602-10.905501 10.298856-28.034866 26.728108c-.560302.534185-1.150791 1.03505-1.768381 1.500199l-.414333.301157-.310547.277515c-.214711.189596-.429757.376982-.645236.562181l-.647835.549057c-.108223.090423-.216578.180304-.325079.269647l-.652852.529617c-.109133.0872-.218437.173867-.327923.260003l-.659209.510475c-.220534.168052-.441898.334005-.664192.49788l-.66977.485416c-1.457642 1.038329-2.958759 1.989827-4.530617 2.860547l-.730595.396158c-1.348997.715855-2.751646 1.374542-4.224465 1.979731l-.810414.32482c-3.270288 1.278231-6.888904 2.304968-11.02741 3.118309l-1.045557.198912c-.176098.032419-.353123.064472-.531088.096163l-1.079167.185823-1.102318.177262-1.126065.168833-1.150408.160538c-.193796.026072-.388632.051804-.584518.077199l-1.188039.148341c-.200143.024057-.401362.047781-.603669.071176l-1.22701.136443-1.253736.128676c-.211216.020806-.423571.041294-.637076.061467l-1.294941.117273-1.323155.109838-1.351966.102534-1.381372.095362-1.411374.088323c-.237762.014141-.476799.027994-.717123.041563l-1.457494.078011-1.53703.07347-.449534.015171-.449762.005058h-.400056c-.304434 0-.608828-.006951-.912944-.020848l-1.487515-.072094c-.245265-.012585-.489213-.025456-.731855-.038616l-1.440285-.082454-1.409557-.089527-1.379437-.096735-1.349922-.104079-1.321014-.111556c-.217794-.019224-.434408-.038764-.649856-.058625l-1.27879-.123025-1.251398-.13084c-.206318-.022466-.411519-.045262-.615617-.068393l-1.211449-.142814-1.185573-.150965c-.195473-.025848-.389893-.052041-.583273-.078581l-1.147899-.163444c-.567809-.083833-1.126484-.170849-1.676365-.261123l-1.08814-.184916c-.538308-.094652-1.068052-.192614-1.58957-.293961l-1.032172-.207229c-5.958214-1.235423-10.827939-2.938432-15.150998-5.229299l-.735841-.398501c-.487126-.269537-.967516-.546841-1.44198-.832093l-.70735-.43386-.699067-.445917c-.463419-.301326-.921719-.610779-1.375709-.928539l-.677855-.482891-.671998-.495486-.666746-.508215c-.221442-.171542-.442109-.345227-.662103-.521079l-.658064-.534077-.327708-.271955-.653146-.553827c-.10863-.093412-.217156-.18738-.325589-.281906l-.639613-.564322-.408541-.298249c-.463231-.348896-.911214-.717885-1.342647-1.105957l-.42587-.394395-27.965-26.662759-10.974112-10.36396c-1.447122-1.366663-2.628669-2.850602-3.561472-4.409478l-.147358-.253202-27.376-32.362-.173624-.145471c-4.222431-3.599192-6.929317-8.923678-7.029961-14.882759l-.002907-.34449v-4.363772c0-.202652.00308-.405291.00924-.607849.368516-12.119675.385267-25.045369.047027-38.741935l-.091622-3.589251-.046751-1.655918-.081242-2.544969-.09475-2.628625-.147669-3.655081-.172461-3.852082-.186994-3.863331-.318185-6.131696-.663101-12.092771-.395952-4.109395-.345929-3.493116-.332967-3.254801-.323078-3.039931-.378967-3.397298-.249813-2.131731-.186992-1.537436-.250095-1.977726-.18901-1.435718-.255194-1.860482-.392802-2.699803-.182201-1.187563-.332924-1.971957-.349446-1.995676-.230031-1.272867-.340929-1.823973c-.037618-.197018-.075151-.392164-.112601-.585446l-.223721-1.137391-.221843-1.09307-.220075-1.049169-.218419-1.005688-.216876-.962624-.215445-.919982-.214126-.877757-.195564-.7684-.139612-.272543c-1.063223-2.117934-1.761313-4.450825-2.011673-6.916077l-.015715-.16038-.053543-.127481c-.05872-.1363-.129188-.290715-.212261-.463818l-.287884-.575945-.099276-.188606c-.269574-.398157-.538626-.800185-.807221-1.206048-3.04326-4.598545-5.838496-9.429179-8.360878-14.25005l-.643031-1.240668-.607762-1.195365c-.098319-.19528-.195142-.388542-.290455-.579723l-.553663-1.121582-.621417-1.287589-.294617-.623732-.291509-.631139c-1.178702-2.596615-1.788506-5.415268-1.788506-8.26689 0-52.122804-4.793643-107.020233-13.720846-167.067033l-.732873-4.87999c-.12365-.815228-.248053-1.631408-.373205-2.448546-7.12074-46.67982-16.213256-92.178455-26.337036-134.822941l-1.119673-4.686667-1.112654-4.598884-.737504-3.016553-.733836-2.976638-.729947-2.936361-1.087151-4.328235-1.077168-4.235586-1.066444-4.14172-.704639-2.708398-1.046924-3.982574-.690939-2.601174-1.283384-4.773153-.897254-3.28933-.853461-3.0895-1.312493-4.669153-.655546-2.282928-.168931-.27552c-.322931-.544972-.619789-1.104979-.889568-1.678126l-.260717-.577457-.356989-.840156c-2.494794-5.982555-3.627401-11.194902-3.773016-19.427286l-.013951-1.168687c-.00508-.792699-.001771-1.613057.009626-2.464125l.023124-1.300016.011422-.503627-.637851-1.441842-.510337-1.126244-.523726-1.132031-.722729-1.525505-.563067-1.161574-.782743-1.579867-.406468-.806012-.846214-1.650293-.894699-1.709465-.94812-1.778415-1.267791-2.334871-1.368615-2.476975-.873574-1.562339-1.549984-2.744061-2.027002-3.547666-2.224942-3.856787-.913554-1.578581-4.924569-8.759349-1.049122-1.883352-1.022264-1.845554-1.48459-2.701167-.958222-1.758473-1.39185-2.578492-.898611-1.681987-.876007-1.654358-.854111-1.628425-.832925-1.604187-.812447-1.581643-.792678-1.560795-.773618-1.541642-.755266-1.524183-.737624-1.50842-.72069-1.494351-.704466-1.481978-.688949-1.4713-.674142-1.462316c-.111162-.243065-.221737-.485826-.331739-.728319l-.65326-1.452019c-.107771-.241561-.214999-.482923-.321698-.724124l-.633973-1.445536-.622001-1.443332-.610738-1.442824-.600183-1.444011-.590338-1.446892c-.097609-.241483-.194836-.483157-.291698-.725057l-.576899-1.454392-.285377-.72976c-6.811756-17.501866-10.770738-34.366442-11.536842-51.520607l-.05079-1.291248-.184152-11.120912-.045141-4.827933v-5.152899c.005834-.273086.007833-.544892.010271-.815436l.019952-1.60824c.008443-.531117.018697-1.057316.030817-1.578727l.042009-1.550006c.007953-.255985.016386-.510806.025305-.76448l.059415-1.508412c.021788-.498304.045579-.992151.071426-1.481675l.083767-1.45573c.120063-1.924029.273906-3.780989.465028-5.579341l.150386-1.337906c1.286125-10.838653 4.003551-19.5579278 8.955679-28.1020782l.30599-.5229089.114189-.1908652c8.864474-14.6315352 22.85353-25.4270244 46.412224-36.2630973l1.80774-.8231338c.913142-.4116689 1.840247-.8235377 2.781557-1.235819l1.901635-.8251751 1.939949-.8266522c1.306168-.5516776 2.638167-1.1045915 3.996575-1.6592449l2.057491-.8333477c.346241-.1391297.694149-.2783838 1.043736-.4177702l2.117722-.8379691 2.158418-.8415219 1.230777-.4739836c30.54453-11.4858041 62.546254-20.287386 94.423503-26.0928896 12.001592-2.1602718 24.08429-3.9595984 36.113459-5.3914545 20.977654-2.50958345 41.35286-3.81932802 60.479919-3.9071696zm45.28587 889.49017928c-13.101672 1.894484-28.315522 2.841726-45.64155 2.841726-17.088974 0-32.199914-.921499-45.332819-2.764497l20.465319 19.511111.161268.117774c.451549.33844.888707.69594 1.310272 1.071573l.421664.386679.938474.877074.434572.391459c.044038.038675.0868.075843.128423.111602l.237179.198457.216496.169439c.104185.078261.203106.147429.300502.210191l.193866.117775.196445.105463c.033325.016816.067034.033318.101266.049605l.212775.095943.357231.144694.273224.103942c.134842.050643.274116.100886.417886.15071l.444861.148201.472225.145581.499978.142853.52812.140015.556651.137067.585569.134009.614878.130843c.104944.021537.211125.042938.318551.064199l.659569.125887.689849.122446.720518.118896.751575.115235.783022.111466.814857.107587.847081.103597.879694.099499.912695.095292.946086.090973 1.482587.128125 1.031262.079701 1.066014.074998 1.101154.070189 1.136683.065267 1.046978.053694 1.656236-.086913 1.698397-.10404 1.617777-.11498 1.034385-.082547.999538-.087135c.163708-.014899.32598-.029984.486824-.045254l.948004-.09381.91414-.098124 1.308575-.155033.831201-.108426c.135815-.018402.270277-.036967.403393-.055694l.782618-.114279c.127767-.019363.254206-.038883.379323-.058558l.73492-.119885c.119867-.020283.238429-.040717.355695-.061299l.688107-.125243.65739-.128679.627067-.132004.597137-.13522c.097051-.022799.19287-.045727.287468-.068782l.552979-.139838.524033-.142779c.084949-.024036.168708-.04819.251285-.072459l.481351-.146986.453388-.149653.56436-.204012.381221-.148066.223361-.094678.206577-.097045.196514-.104207c.096862-.054693.192472-.113871.290612-.180229l.200772-.143091.214241-.167035c.037202-.030101.075246-.061399.114272-.093995l.247049-.211943.429441-.386784.937976-.876962.416495-.38187c.421742-.375855.859094-.73356 1.310852-1.072186l.160026-.117277zm56.06991-190.404836-.365543.051476-1.706222.237748-1.729803.231231-1.753329.22478-1.776798.218393-1.800213.21207-1.82357.205814-1.846872.19962-1.870118.193492-1.893309.187428-1.916443.18143-1.939522.175496-1.962544.169626-1.985511.163821-2.008422.158081-2.031278.152405-2.054076.146795-3.123741.209812-2.518611.15853-2.870639.172129c-.472472.027552-.942246.054547-1.409748.081002l-2.781187.152376-2.747219.140203-2.603605.12294-2.347487.102392-2.364916.095096-3.253315.118037-4.479854.140152-3.508091.093807-4.300671.099031-8.034691.149165-6.705994.099885-14.505727.175066-7.755397-.000383-3.755944-.057388-3.728105-.065081-4.92516-.098778-3.657878-.083115-4.826608-.1229-3.580276-.101265-3.54476-.109078-3.507889-.116914-4.617488-.168111-4.546319-.182129-3.361102-.145827-3.317908-.153762-4.354346-.217398-2.14647-.114019-3.180197-.177696-3.131583-.185717-2.060046-.128278-3.04755-.199133-3.981925-.27808-2.923581-.218014-1.918366-.149857-2.830514-.231572-1.855068-.158915-1.829046-.16255-1.802623-.166191-1.775798-.169837-2.612521-.261609-1.70698-.178983-2.507412-.275357-1.635652-.188169-1.606419-.191853-1.032356-.128713-1.387682 1.951163c.263943.80995.500617 1.623919.709482 2.446009l.189596.784347.03901.10459c.043479.119153.085897.238901.127241.359233l.120798.362743.158031.49539.311554 1.009124c.205769.681102.407766 1.379173.606556 2.095809l.295851 1.089076.291464 1.118118.287501 1.148356c.047611.193979.095073.389268.142398.585892l.282352 1.195956.279449 1.229184.27697 1.263608.274915 1.299228.242514 1.187174 1.307048.16946c1.080829.137158 2.174796.271942 3.281898.404353l2.231718.261655c.749742.086163 1.505321.171271 2.266736.255322l2.301748.248985c.386542.040969.774543.081674 1.164002.122116l2.354252.239476c.395291.039384.792041.078504 1.190248.11736l2.406739.229961 2.441721.223616 2.476695.217268 3.780604.313994 2.564099.201386 2.599047.19503 2.633988.188671 2.668921.182309 2.703847.175946 2.738765.169579 2.773676.163211 2.80858.15684 2.843476.150466 2.878364.14409 2.913245.137712 2.948119.131332 2.982984.124948 3.017844.118563 3.052694.112175 3.087538.105785 3.122374.099393 3.157203.092997 3.192024.0866 3.226838.0802 3.261644.073798 3.296442.067393 3.331234.060986 3.366018.054577 3.400794.048165 5.166381.06022 5.244585.04578 5.322764.031332 3.591931.012857 5.453007.007233v20l-3.704255-.003284-5.49124-.017246-5.41309-.032037-5.334966-.046835-3.513254-.03945-3.47855-.046032-3.443854-.052618-3.409166-.059207-3.374485-.065796-4.996717-.111058-4.918727-.125899-4.840763-.14075-3.183873-.102087-3.149241-.108693-3.114617-.115301-3.079999-.121913-4.555107-.195269-2.993488-.13845-2.958897-.145069-2.924313-.151691-2.889737-.158315-2.855168-.164941-2.820607-.17157-2.786053-.178201-2.751507-.184835-2.716968-.191471-2.682436-.19811-2.647913-.20475-2.613396-.211393-2.578887-.218039-2.544385-.224687-2.509892-.231338c-.415441-.03911-.829445-.078498-1.242013-.118163l-2.458164-.241318c-.406821-.040774-.812205-.081825-1.216154-.123154l-2.406454-.251303c-.796407-.084878-1.58707-.170865-2.37199-.257963l-2.337533-.264626-.915976-.108278.178613 1.43037.266166 2.225756.332817 2.912836.403889 3.71924.414184 4.003276.162331 1.645522 1.891421.250385c.374164.048362.749788.096427 1.126873.144197l2.280025.283064 2.315061.275955c.388763.0454.778985.090503 1.170666.135311l2.367598.265287c.397517.043621.796494.086946 1.19693.129975l2.420116.254611 2.455118.247492 2.490113.240367 2.525098.233242 2.560076.226112 2.595045.218979 2.630007.211844 2.66496.204705 2.699905.197564 2.734842.19042 2.769771.183272 2.804691.176121 2.839603.168968 2.874508.161812 2.909403.154652 2.944292.14749 2.979171.140325c.499435.02279 1.000323.045281 1.502663.067474l3.031476.12957 3.066335.122398 3.101186.115222 3.136029.108043 3.170864.100861 4.821593.137819 3.257915.082893 3.292721.075701 3.327519.068505 3.36231.061307 3.397091.054106 3.431864.046901 3.466631.039694 5.265112.046021 3.553508.021662 3.588245.014445 3.622973.007223 1.824507.000904v20l-5.54888-.008325-3.655828-.014802-3.621095-.022209-3.586373-.029616-3.551657-.037029c-.58905-.006789-1.176654-.013887-1.762812-.021294l-5.236388-.075009-3.44756-.059282-3.412878-.066705-5.054304-.113983-3.326206-.085277-3.291553-.092711-4.87237-.153013-3.204953-.111309-3.170327-.118754-3.13571-.126202-3.101101-.133653-3.0665-.141106-3.031907-.148562-2.997322-.156022-2.962746-.163485-2.928178-.17095-2.893617-.178419-2.859065-.185891c-.473632-.031604-.945825-.06352-1.416578-.095748l-2.807253-.197103-2.772721-.204582-2.738197-.212065-2.703682-.219549c-.447738-.037216-.894038-.074743-1.338901-.112583l-2.651924-.230782-2.61743-.238276c-.433364-.040337-.865291-.080986-1.295782-.121948l-2.565702-.249519c-.424744-.042212-.848052-.084736-1.269923-.127573l-2.513994-.26077c-.416127-.044087-.830818-.088487-1.244073-.1332l-2.462304-.272028c-.815026-.091928-1.62431-.185107-2.427854-.279538l-2.393412-.28705c-.363197-.044449-.725187-.089162-1.085971-.134138l.219655 4.053263.225164 4.492828.237778 5.145154.123365 2.931579.020234.537337 1.7344.196306c.380707.042026.762873.083788 1.146498.125285l2.319252.245816c.389458.040441.780376.080618 1.172751.120531l2.371749.236305 2.406739.229962 2.441721.223616 2.476695.217268 2.511663.210917 2.546621.204564 2.581574.198209 2.616519.19185 2.651455.185491 2.686385.179128 2.721307.172762 2.756222.166396 2.791129.160025 2.826028.153653c.473913.025078.94928.04989 1.4261.074437l2.878364.14409 4.382946.204175 2.965552.128141 3.000415.121756 3.03527.115369 3.070117.108981 3.104957.102588 3.139789.096196 3.174615.089798 3.209432.083401 3.244241.076999 3.279045.070596 3.313839.06419 3.348627.057781 3.383407.051372 3.418179.044958 3.452945.038543 3.487702.032124 5.296708.036149 3.574563.01607 5.426965.012055 1.826349.000804v20l-5.543353-.00739-3.652142-.01314-5.41309-.032037-5.334966-.046836-3.513254-.039449-3.47855-.046032-3.443854-.052619-3.409166-.059206-3.374485-.065797-3.339812-.072389-3.305145-.078985-3.270487-.085582-3.235836-.092183-3.201193-.098785-3.166556-.10539-3.131928-.111997-3.097307-.118606-3.062693-.125219-3.028087-.131833-2.993488-.13845-2.958897-.145069-2.924313-.151691-2.889737-.158315-2.855168-.164941-2.820607-.17157-2.786053-.178202-2.751507-.184835-2.716968-.191471-2.682436-.198109-2.647913-.20475-2.613396-.211394-2.578887-.218039-2.544385-.224687-2.509892-.231337c-.415441-.039111-.829445-.078498-1.242013-.118163l-2.458164-.241318c-.406821-.040774-.812205-.081826-1.216154-.123155l-2.406454-.251303c-.354294-.037759-.707451-.075738-1.059471-.113936.10602 6.783433.124253 13.401235.056047 19.844717 29.497387 4.336144 58.938143 6.504559 88.322043 6.504559 30.658062 0 60.072328-2.360549 88.242796-7.081647-.086083-8.738802-.012517-17.806429.220118-27.19902l.053582-2.06555.132501-3.980665.124104-3.373281.226993-5.575298.161148-3.638499.331016-6.94877.296892-5.845438.489695-9.180909c.017682-.324377.035504-.650709.053467-.979035.014581-.266505.034496-.532691.059732-.798399l.525834-5.449184.497241-4.954624.342712-3.273647.33609-3.080406.266336-2.341735.265923-2.246423.401828-3.218497.341206-2.570619.208981-1.504763.213052-1.483056.291639-1.952833.184004-1.182899.489276-2.736292.427742-2.345773.505146-2.703413.384726-1.996257.371255-1.863012.271692-1.317995.267536-1.256428.264846-1.200597.263623-1.150501.263864-1.106143.265574-1.067518.268748-1.034632.273389-1.00748.185562-.659401.284382-.974974.292934-.963118.30295-.956998c.103634-.321152.215253-.63924.334695-.953986l.105448-.268489.134161-.528124c.203236-.770354.428824-1.541732.676342-2.321909l.254813-.783398c.130974-.393239.265578-.784065.406644-1.181745zm-274.070734-398.50794.2367.69081c.081477.244494.158221.49054.230189.737999l1.025026 3.567659 1.051653 3.738202.653289 2.353288.909604 3.313635 1.197641 4.424427.600696 2.243988 1.068258 4.029993.719038 2.740821 1.088306 4.191587.731717 2.847446 1.106295 4.349864.743023 2.951858.747161 2.993004.751079 3.033796 1.133486 4.626405.759914 3.134229 1.145708 4.775396.383349 1.611369c10.362161 43.648623 19.665031 90.199856 26.959451 138.018258 9.53298 62.242215 14.861072 119.331926 15.261777 173.824594l.010018 1.744969.239825.053873.984139.20728 1.01835.205414 1.052267.203474 1.085888.201462 1.119213.199375 1.152242.197217 1.184974.194984 1.217413.192678 1.249554.1903 1.2814.187847 1.31295.185323 1.383854.188389 2.192921.285033 2.260846.27745 1.544284.180757 2.370982.264826 2.435221.257261 2.498076.249704 2.559548.242154 1.739835.157244 2.658931.229585 2.716716.222053 1.842565.143854 2.809953.209516 1.903443.135502 2.899349.196998 3.946129.250997 3.018051.179506 2.039101.115511 3.09823.167036 4.202698.21109 3.204026.149608 2.160013.095597 3.274986.137185 3.315719.12974 3.355069.122302 2.257891.077407 2.274355.074105 3.441508.104975 4.64248.128434 3.52042.087686 4.742676.105408 3.591803.070434 3.620091.063054 3.574411.053891 7.709726-.002934 13.610483-.163973 9.16493-.140074 6.888463-.134874 5.732772-.141766 4.316603-.130142 3.12529-.109101 4.072642-.162916 3.524395-.160807 3.361176-.170394 2.663468-.146253c.447526-.025366.897122-.051236 1.349184-.077627l2.745124-.164715 3.318936-.211222 2.838526-.194938 1.86625-.135989 1.845211-.140836 2.728072-.220377 1.792021-.153027 1.770507-.157935 1.748856-.16286 1.727071-.167803 1.70515-.172764 2.516324-.268487 2.466237-.279748 1.616106-.192785 2.381739-.298651 1.559349-.205442 1.536409-.210536 1.513333-.215648 1.490121-.220777 1.466774-.225924 1.44329-.231089c.238584-.038946.476183-.078108.712796-.117487l1.40781-.238869 1.383987-.244079c.228672-.041115.456345-.082447.683017-.123998l1.347998-.251926 1.323835-.257179 1.299537-.26245c.214557-.044182.428096-.088584.640614-.133207l1.262835-.270391.328637-.073519.007971-1.044056c.472397-54.088735 5.612276-111.995561 14.488869-171.749321l.418824-2.802303c4.022437-26.368978 8.722276-52.624949 13.971687-78.584644 5.519601-27.29586 11.377079-52.989365 17.382091-77.044022l1.202913-4.789069 1.107904-4.356241 1.068976-4.141673 1.118982-4.286821 3.579085-13.488129 2.877952-10.611206.255817-.882738-.023368.104297c.111048-.458456.23828-.912841.381458-1.3623.50975-1.600184 1.095966-3.117589 1.756767-4.549744l.000561.001539-1.193806.119106-1.845973.173301-1.912883.166961-1.980462.160723-2.048711.154587-2.117629.148554-1.450371.095734-1.481496.093128-2.281039.134872-3.152176.17099-3.280247.161111-3.409905.151473-2.64347.107425-3.640621.135188-5.028559.168219-4.248651.12775-4.342291.11693-3.566924.086055-5.551375.117145-4.852406.087172-6.151543.092745-5.444986.067931-6.973569.070965-10.152439.077992-9.796637.053979-14.024159.05192-19.625575.040321-16.206777.015899h-50.72596l-23.682388-.027886-15.415228-.03829-12.214767-.048911-10.9776-.064835-8.713536-.071247-6.889645-.072836-7.454996-.0998-5.96583-.099139-4.722855-.0928-3.643022-.081229-5.284933-.134036-5.972156-.175795-5.028527-.168219-3.640596-.135188-4.364698-.181972-4.16087-.196842-1.60797-.083007-2.35217-.129178-2.281022-.134872-1.481486-.093128-2.163929-.144588-2.777457-.202082-1.342981-.105093-1.957847-.162791-1.890491-.169063-1.223237-.116244-1.193797-.119106-.022352-.002511c.53182 1.142513 1.021325 2.34138 1.467159 3.607346zm171.92645-260.5769013-1.465162.0102349c-17.5588.080641-36.411777 1.2925348-55.915247 3.6257561-11.257414 1.3399959-22.553838 3.0222324-33.726571 5.0332677-28.829363 5.2504597-57.838596 13.1681251-85.540581 23.4519753l-1.894115.7067833-1.606734.6225337-1.652422.6465758-1.616189.6402344-1.580337.6340536-1.544869.6280336-1.509784.6221743-1.475082.6164757-1.440763.6109378-1.406827.6055607-1.373275.6003443-1.340104.5952885-1.307318.5903937-1.274914.5856593c-.209807.0972243-.41828.1942581-.625426.2911046l-1.227027.5788594-1.195581.5745269-1.164518.5703552-1.133838.5663442-1.103541.562494-1.073627.5588044-1.044097.5552756-1.014949.5519075-.986184.5487001c-.323976.1823833-.643222.3642589-.957802.5456535l-.929804.5427675c-.152655.0902297-.30416.1803459-.454522.2703518l-.888524.53874c-.145823.0895785-.29052.1790536-.434097.2684284l-.848107.5350741c-.278269.1779753-.552128.3555767-.821639.5328311l-.795557.5307488c-.13044.0882935-.25981.176507-.388116.2646437l-.75715.5279267-.732024.5262462c-.359794.2627297-.71031.5248895-1.051763.7865699l-.670885.522748-.6471.5216301c-.953003.7816871-1.827024 1.5601434-2.627881 2.3378101l-.523129.5183542c-1.366447 1.3821086-2.505745 2.7634356-3.45058 4.1576966l-.345262.523481c-.056045.087357-.111347.174771-.165914.262245l-.097738.157416-.102481.176476-.149138.26307-.289807.533665c-.378923.718559-.728019 1.465976-1.048651 2.252321l-.235159.597215c-.191554.504023-.372123 1.024237-.54204 1.563097l-.19881.655742c-.38748 1.330013-.714375 2.773102-.985295 4.363249l-.130817.807486c-.021032.136676-.041682.274412-.06195.413229l-.117063.846021c-.037512.286432-.073523.577343-.108054.87289l-.099173.900704-.09042.929462-.081795.959163c-.012921.162388-.025488.326053-.037703.491015l-.069098 1.005486-.060793 1.037548-.052615 1.070554c-.008095.181228-.015855.363871-.023282.547948l-.040591 1.121833c-.006106.189892-.011886.381259-.017341.574119l-.028853 1.175234-.021189 1.212017-.013652 1.249742-.006243 1.288411.0059 5.032426.026032 2.658409.182081 11.258468.022257.55652c.612709 14.231892 3.945018 27.62771 10.781247 43.647195l.672536 1.55858c.455684 1.044668.926058 2.100721 1.411332 3.169088l.739114 1.611903c.125057.270228.251051.541255.377987.813095l.772936 1.640917c.130713.275151.262375.551144.394987.827994l.807113 1.671497c.136429.280335.273817.561556.412165.843677l.841646 1.703647c.142205.28578.285377.57249.42952.860143l.876534 1.737363c.14804.291487.297056.583947.447054.877394l.911778 1.772648c.153933.297455.308853.595926.464764.895428l.947377 1.8095c.159886.303684.320769.608428.482653.914246l.983331 1.847921 1.007499 1.874405 1.031825 1.901586 1.056307 1.929464 1.080949 1.958039 4.408016 7.868009 1.507073 2.673741 2.812264 4.866153 2.247468 3.929308 1.391344 2.458103 1.31225 2.342084 1.238707 2.23732.884109 1.61601.848207 1.568159.546683 1.0212 1.051398 1.990558 1.000067 1.930813.719705 1.415673.696297 1.393146.675233 1.375366.65651 1.362334.640131 1.354052.418811.900444.618037 1.350797.607905 1.355176.423874.962304.230789.255434c1.916378 2.187903 3.222825 4.635611 3.979241 7.182469l.595171.069584 1.037613.115969 1.067983.113548 1.098475.111142 1.705157.162231 1.774458.156897 2.474466.200982 1.28402.097004 1.984861.141185 2.055827.136045 2.12721.130953 2.199009.125909 2.271224.120915 2.343855.115968 3.238841.147014 3.369689.138421 4.326941.158791 3.31314.110801 5.037437.15283 6.057783.158934 2.680007.062013 6.508962.131163 3.911157.066807 7.25002.103482 6.691969.075876 8.456404.074639 10.647577.068481 10.29341.046569 18.277032.051043 21.199846.028133 24.525603.009941 44.129633-.019791 19.676929-.037124 12.596136-.042082 12.65462-.064979 8.864223-.06499 8.118529-.078926 7.473526-.094041 4.99911-.077079 5.684023-.104073 4.517318-.096881 5.212435-.129084 2.539479-.070005 4.160995-.125091 4.103457-.135983 4.343826-.159374 3.369715-.138421 3.238867-.147014 2.343873-.115969 2.271242-.120914 2.199027-.12591 2.127228-.130953 2.055844-.136045 1.984878-.141185 1.284031-.097004 1.867524-.14986 1.797667-.15513 2.288942-.21512 1.098486-.111142 1.067992-.113548 1.037623-.11597.635743-.074276c.74573-2.519685 2.02849-4.943133 3.905207-7.115025l.244695-.276184.043395-.097215c.266226-.607114.534296-1.210591.805136-1.812306l.614452-1.351679.415983-.900159.624154-1.328956.639172-1.335356.435554-.896017.669139-1.356033.690082-1.374444.472787-.928748.729925-1.415138.756795-1.44556.785886-1.480485.817199-1.519916 1.14215-2.095674 1.207036-2.184455.951027-1.703026 1.678774-2.974931 1.4333-2.514855 2.312763-4.022155 1.603291-2.770892 4.245245-7.5438 1.657374-2.9744 1.102634-1.997548 1.076978-1.967815 1.051491-1.938824 1.026171-1.910572c.168928-.316115.336808-.631085.503643-.944923l.988507-1.869583.963607-1.843183c.158536-.305038.316041-.609007.472519-.911923l.926572-1.80497.902092-1.780421.877779-1.756612.853635-1.733543c.14027-.287043.279541-.573155.417816-.858352l.817733-1.700329c.268614-.563198.533274-1.122861.794008-1.67911l.770451-1.658633.747061-1.638897c.612853-1.357729 1.201517-2.695669 1.766429-4.01575l.666521-1.575647c1.201157-2.873423 2.288201-5.664136 3.265787-8.39267l.522401-1.482247c3.922281-11.318516 5.945197-21.614942 6.409115-32.390657l.021431-.543591.192324-12.02231.023715-3.461718-.001413-2.160598.001391-.658804-.002485-1.288561-.009607-1.250584-.016852-1.213508-.024219-1.177334-.031708-1.142061-.039319-1.107691c-.007195-.181801-.014711-.362208-.022553-.541238l-.050966-1.057826-.058883-1.025709-.066922-.994495-.075085-.964181-.083369-.934771-.091775-.90626c-.016003-.148718-.032361-.296285-.049078-.442721l-.104613-.865187c-.018159-.141985-.03668-.282876-.055567-.422691l-.117728-.826142c-.020359-.13559-.041089-.270143-.062192-.403676l-.131117-.789126c-.022606-.129534-.04559-.258086-.068955-.385675l-.144782-.754139c-.224088-1.114334-.479437-2.153751-.767904-3.131945l-.197238-.64321c-.370673-1.16314-.791435-2.23937-1.265678-3.253693l-.264001-.547278c-.179564-.360959-.366282-.714334-.560316-1.061326l-.231105-.404542-.116015-.188417c-1.527864-2.449299-3.632508-4.8511089-6.48912-7.2789335l-.623705-.5206731-.647107-.5216302-.670893-.522748c-.227637-.1744535-.459303-.3491201-.695061-.5240265l-.719613-.5254658c-.122003-.0877066-.245045-.1754797-.369134-.2633229l-.757158-.5279261c-.128309-.0881366-.25768-.17635-.388122-.2646434l-.795567-.5307479-.82165-.5328301c-.278274-.177975-.560958-.3563237-.848118-.5350731l-.874968-.5374766c-.148086-.0897886-.297308-.1796841-.447672-.2696898l-.915961-.5413834-.943769-.5441888-.97196-.547155c-.164363-.0914486-.329918-.1830274-.496671-.27474l-1.014964-.5519055c-.171579-.0922604-.344373-.1846612-.518389-.2772057l-1.05883-.5570177c-.178938-.0931325-.359115-.1864155-.540538-.2798522l-1.103558-.5624915c-.186441-.094065-.374144-.1882903-.563118-.2826795l-1.149148-.568327c-.194087-.0950576-.389461-.1902857-.586128-.2856876l-1.195601-.5745241-1.227048-.5788564-1.258878-.5833493c-.212486-.0976083-.426315-.1954104-.641494-.2934098l-1.307341-.5903903-1.340129-.5952851-1.373299-.6003406-1.406853-.6055569-1.44079-.6109339-1.475109-.6164716-1.509813-.6221634-1.544898-.6280359-1.580367-.6340491-1.61622-.6402298-1.652455-.6465711-1.607768-.6225948-1.893267-.706776c-27.057465-10.0445891-55.361484-17.8317669-83.490116-23.0744633l-2.008871-.3701471c-11.215737-2.0186659-22.511541-3.7008423-33.779017-5.0420395-18.819236-2.2513691-37.04422-3.4588004-54.074691-3.6119447z"/></svg>