<svg height="960" viewBox="0 0 960 960" width="960" xmlns="http://www.w3.org/2000/svg"><path d="m67.4220216 15.3987319c12.6070312-7.47865133 25.7516575-11.45943069 39.6751584-10.48464695l.873925.06749785c14.028129 1.16577126 26.629446 6.106629 36.392533 14.497029l.437362.3803882 723.181 85.747.911942-.326502c7.691567-2.72762 15.110423-4.386922 22.666504-4.771324l.872488-.038684c13.861445-.5239369 27.206418 3.466113 38.157221 12.627889 9.953736 8.327599 16.150683 19.330412 19.591058 32.117923 2.513865 9.343774 3.597413 19.818338 3.597413 31.9663 0 28.445052-8.115611 51.236641-27.484093 65.447604-6.77028 4.967463-14.272527 8.270352-22.167229 10.03216l-.579304.125634.000537 659.089425c0 21.772579-17.401243 39.502127-39.088144 39.989713l-.658477.009484-773.1140576 4.898178c-22.1899609.139745-40.2533784-17.809611-40.2533784-40.000017l-.00048-726.196783-.3862891-.181446c-11.6708964-5.581354-20.2122031-16.104408-23.2962494-28.754663l-.1204458-.507138c-.7606526-3.288637-1.1303846-6.618102-1.1303846-9.928108v-80.395853c0-12.4512348 5.154192-23.9552337 13.5015652-32.3326987l.676838-.6831988c9.164877-9.2054017 18.019961-16.5048883 26.9325804-21.9090922zm23.0119281 151.8176141.0005303 749.557437 773.114057-4.897358-.000906-680.357566-772.1657237-64.3466c-.315803.029763-.6321584.044388-.9479576.044087zm53.1856813-107.2174874.496505 3.1586444.536423 3.5244684.389652 2.6638839.274936 1.9728953.252052 1.9413003.110885.9357739c1.945212 17.1910759-.806337 32.2601532-6.648876 46.8884962-3.323016 8.297641-9.590626 16.711653-18.766045 25.36646l-1.051147.980825c-.354522.327289-.713182.654928-1.075979.982922l-.938406.838331 750.143 62.513 9.345546.000872c19.532205 6.531128 36.742994 1.336509 37.085256-33.51978l.005193-1.065349c0-35.815499-11.914016-42.32223-35.101917-32.828233-2.631544 1.555875-5.709586 2.124862-9.234125 1.70696zm-39.316012-15.1824427c-6.500798-.4551206-14.2192842 2.7345689-23.1554584 9.526331l-.8976764.6911815c-.1502892.1171976-.3009167.2353953-.4518824.354593l-.9098533.7271844-.9179712.7511746c-.1536716.1271944-.3076816.255388-.4620298.3845805l-.930148.7871419-.938266.8111081-.9463839.835065-.9545018.8590124-.9626198.8829501-.9707376.9068785c-.1624661.15314-.3252705.3072765-.4884131.4624094l-.9829145.9427533-.9910324.9666578-.9991504.9905529-1.0072683 1.0144385c-1.152769 1.1569247-1.8366806 2.6834463-1.8366806 4.0993632v80.395853c0 .315939.0340361.622433.1015192.914192.5189297 2.244225 2.8636498 3.165407 5.2370789 2.055393l19.5952508-9.209215-.0008489.039844.8452225-.611077c.2052711-.149734.409508-.299264.6127109-.448589l1.2068084-.893478 1.1819927-.888497 1.1571794-.883457 1.1323686-.878359c.3733213-.291929.7425079-.583 1.1075601-.873201l1.0827542-.867985c.356784-.288453.7094341-.576026 1.0579507-.862711l1.0331494-.857378 1.008351-.851987c.497976-.424636.986654-.847228 1.466034-1.267744l.946365-.838252.921575-.832656c.15153-.138307.302028-.276377.451492-.414211l.884394-.824152c.290668-.273764.577204-.54657.859611-.818409l.834829-.812609.810049-.806748c2.26004-2.277431 4.221727-4.483595 5.885311-6.612503l.57477-.748161c2.249571-2.979735 3.905059-5.804085 4.967167-8.456188 4.7069-11.784978 6.877668-23.6733591 5.345736-37.2120109l-.125552-1.0454507-.199447-1.5185967-.398501-2.8141716-.517043-3.4521773-.79185-5.0766872-.966483-6.0091199c-.023268-.1429539-.046663-.286582-.070185-.4308836-2.918065-6.8307942-9.06285-10.59419-18.434332-11.2819932z"/></svg>