<svg height="960" viewBox="0 0 960 960" width="960" xmlns="http://www.w3.org/2000/svg"><path d="m201.062009 4.93221891 2.871655.02244614 2.906527.02626474c.974661.01042802 1.955143.02252856 2.941456.03629991l2.976442.0463247c.498992.00855561.999444.01752849 1.501358.02691842l3.029027.06134247 3.064154.07134136 3.099339.08132987c121.497508 3.47174547 241.695764 20.48864928 358.407145 50.62029828l2.423687.6387301 4.439534 1.1783548 4.383619 1.1733832 4.327368 1.1683015 4.270779 1.1631097 4.213852 1.1578078 4.156589 1.1523959 4.098988 1.1468739 4.04105 1.1412418 3.982774 1.1354998c.658921.1887653 1.315399.3772868 1.969428.5655621l3.894728 1.1266802c1.288409.3745633 2.566964.7481237 3.83561 1.1206629l3.776153 1.1145355c.624385.1852392 1.246279.3702185 1.865675.5549356l3.686336 1.1051381 3.626037 1.0987356 3.5654 1.092223 3.504425 1.0856003c1.736913.5411262 3.450834 1.0797275 5.141574 1.6157422l3.350514 1.0685622c.553249.1775127 1.103908.3547335 1.65197.53166l3.257155 1.058009c1.075294.3514803 2.140144.7017651 3.194495 1.050836l3.131496 1.043553c.516647.1733125 1.030656.3463169 1.542018.519011l3.036366 1.032422c.500751.1714435.998841.3425721 1.494264.5133835l2.940478 1.0210434c.484726.1695334.966772.3387449 1.446129.5076323l2.84383 1.0094172c.937153.3351637 1.863497.6690127 2.778976 1.0015287l2.713785.9935302c17.873848 6.5966285 31.379148 12.6526867 40.066125 18.0214177l1.82844 1.150694c54.642836 34.718429 97.215047 90.143018 127.63135 158.853825 24.845369 56.125999 40.370927 119.271193 44.478167 173.419635 4.865654 64.228856 2.775969 148.904627-7.619745 223.17632-6.348505 45.356595-15.615061 86.380997-28.092724 121.629141-14.73629 41.628539-33.830518 75.015052-58.456044 98.806698l-1.176979 1.116045c-32.957889 30.921604-80.05499 49.639347-141.134118 60.436983l-2.703957.471899c-.902308.155437-1.80566.309019-2.710223.460771l-2.717486.449793-2.725747.438965-2.735002.428287-2.745256.417759c-.458453.068757-.917374.137082-1.376785.204978l-2.762504.402247-2.775249.392094-2.78899.382091c-.466032.062856-.932678.125302-1.399959.18734l-2.811471.367367c-.469903.060421-.940483.120441-1.41176.180063l-2.836194.35298c-.474149.058042-.949036.115693-1.424683.172954l-2.863159.338931c-.478767.055719-.958336.111056-1.438726.166014l-2.892367.325219-2.913085.316265-2.934799.307461c-.490998.050518-.982943.100676-1.475854.150476l-2.96924.294536-2.993445.286108-3.018648.277828-3.044847.269699-3.072043.261721-3.100235.253891-3.129425.246211-3.15961.238683c-.529172.039161-1.059644.078015-1.591436.116564l-3.206757.22767-3.239435.220515-3.273109.21351-3.307779.206656-3.343446.199952c-.560269.032775-1.122065.065276-1.68541.097508l-3.398815.190176-3.436975.183846-3.47613.177666-3.516282.171636-3.55743.165757-3.599576.160026-3.642718.154446-3.686856.149017-3.731991.143736-3.778123.138606-5.755862.198618-3.897813.126436-3.947433.121832-6.016367.174439-6.133618.164922-6.254233.155908-4.856749.100491c-156.187472 3.117585-256.804321-5.522949-317.752881-25.768116-30.325825-10.073272-52.682019-23.556786-68.328712-41.409373-13.831864-15.7819-21.0079869-32.724487-25.1252857-53.567409l-.1906971-.974778-.296014-1.559423-.224453-1.230239-.2757272-1.576525-.2821381-1.686615-.3648104-2.270419-.8124566-5.254913-.1276685-.877093c-.4442852-3.237593-.5466738-6.189111-.4781393-9.391141l.021216-.841713.0381185-1.067324.0538023-1.124306.1912721-3.233823-.1742117-.978809-.1997528-1.161129-.2014204-1.209791-.2030368-1.258061-.2046022-1.305938-.2061166-1.353424-.3119024-2.118317-.3150222-2.222957-.3179695-2.326276-.2135321-1.607598-.3224987-2.495536-.3249863-2.59533-.3273014-2.693802-.4397053-3.742629-.4431059-3.912207-.3343152-3.043554-.3358257-3.135858-.4498192-4.322439-.5649967-5.625728-.3401435-3.491848-.3407919-3.577541-.568959-6.149406-.4555827-5.084154-.4555092-5.227096-.4550271-5.366905-.4541362-5.503581-.5657949-7.066901-.562966-7.26944-.5593388-7.465859-.3335303-4.57125-.5282834-7.428903-.2949681-4.249728-.4380292-6.450192-.2890291-4.350266-.4289865-6.600157-.282911-4.44968-.2804136-4.489132-.415875-6.807275-.4100946-6.895029-.5376337-9.328828-.526956-9.482317-.3880717-7.2116-.2552582-4.854949-.3776314-7.352798-.371238-7.436708-.364748-7.52001-.3581612-7.602707-.235067-5.114114-.461108-10.336961-.3378202-7.847154-.3308464-7.927423-.4301131-10.69371-.3141978-8.112356-.3069015-8.190601-.2004996-5.503571-.2945258-8.319662-.2869713-8.396289-.2793203-8.47231-.2715722-8.547723-.3498768-11.513225-.2531175-8.721328-.3249192-11.742495-.2341358-8.891628-.2258397-8.963602c-.0220528-.894706-.0435438-1.784786-.0644764-2.671015l-.118919-5.277323-.1056716-5.22196-.0479171-2.601812-.0781861-4.694262-.0541646-3.711754-.076035-6.259921-.0481621-5.109544-.0445883-6.565431-.0233412-5.433395-.0125257-5.628329-.001052-6.933059.0268504-11.38417.0558736-11.624554.1053299-15.386758.1189111-14.200714.4582198-46.155078.2162586-22.541568.1680083-20.585777.1178417-18.928732.0519378-12.526026.0229715-9.997161.0040699-9.698988-.0110485-7.703604-.0146527-5.049689-.0330685-7.470211-.0295311-4.925024-.0556836-7.329609-.0448063-4.86222-.0573184-5.414492c-.0118839-1.051036-.0242103-2.102299-.036982-3.154243l-.0819981-6.323437-.0928262-6.361456-.1037937-6.42118-.1204205-6.788189-.0288734-1.222797-.0766697-2.448076-.1283355-3.274204-.1478903-3.277854-.2389229-4.7748051-.403843-7.3351472-.5011939-8.4261186c-.2142091-3.4929776.0308926-6.998963.7290274-10.4281591 4.6694171-22.9358947 19.092334-40.9845598 40.353835-52.2422171 16.96723-8.9839024 37.944806-13.62177073 63.249804-14.88668513.401073-.02006829.803565-.03971197 1.207479-.05893125l2.440546-.11022468 2.474707-.10004957 2.508927-.08988481 2.543202-.07973042c.853453-.02488556 1.712628-.04808045 2.577535-.0695864l2.611924-.05945275c.438189-.0090649.877814-.01770799 1.318875-.0259295l2.663615-.0442717c.446812-.00653602.895062-.01265089 1.344753-.01834481l2.715433-.02911399 2.75005-.01902181 2.784722-.00969617zm-.036554 40.00038149h-6.649657l-2.597561.0254385-2.561962.0269452-2.52636.0364253c-.418094.0068607-.834704.0141163-1.24983.0217667l-2.47296.0506398-2.437359.0601124c-.40326.010808-.805036.0220105-1.205329.0336076l-2.383959.0743159-2.348357.0837812-2.312757.0932436-2.277157.1027031-1.125228.0548979c-9.188944.4593254-17.435666 1.434467-24.740164 2.9252913 45.345721 92.7408871 71.359451 203.7586781 78.05949 332.6236701 6.953677 133.909149-7.423045 275.931785-43.034637 425.201351l-1.085639 4.525537-.055879.22062-17.773155 66.959809-.052717.180424c39.531444 26.390308 129.761747 44.679985 344.406352 40.102053l6.206289-.154035c1.037178-.026648 2.075704-.053812 3.115501-.081535l6.253418-.173388 6.280244-.188863c97.532677-3.057958 203.407825-12.434913 256.030667-62.635934 82.075811-79.296525 89.840096-309.331376 82.075811-411.823479-6.74572-88.933268-51.344408-237.593077-155.08116-302.41946-3.446003-2.129702-8.339441-4.585404-14.690038-7.334691l-1.768117-.757061c-.300709-.127381-.604432-.255364-.911167-.383943l-1.876583-.778623c-1.912758-.785744-3.934064-1.592777-6.064115-2.420441l-2.166307-.834516c-.734191-.280448-1.480471-.563165-2.238849-.848125l-2.311432-.861586c-.78258-.289423-1.577265-.581066-2.384062-.874903l-2.456733-.888072c-.831029-.298202-1.674176-.598576-2.52945-.901095l-2.60221-.913973-2.675014-.926704c-.90381-.311008-1.819761-.624112-2.747861-.93929l-2.820754-.951728-2.893688-.964021-2.966668-.976168c-.500528-.163699-1.0041-.327898-1.510715-.492594l-3.076218-.994114-3.149308-1.005895c-.530978-.168623-1.065003-.337731-1.602076-.50732l-3.259023-1.023294-3.332221-1.03471-3.405464-1.045979c-.573684-.175261-1.15042-.350986-1.730212-.527171l-3.515409-1.06261c-.592013-.178015-1.187083-.356484-1.785209-.535404l-3.625454-1.078913-3.698872-1.089598c-.622599-.182482-1.248259-.365403-1.876981-.54876l-3.80908-1.105353c-.640972-.185089-1.285009-.370609-1.93211-.556555l-3.919387-1.120778-3.992981-1.130878-4.066617-1.140834c-1.367817-.38192-2.747914-.765476-4.140298-1.150642l-4.214023-1.1603042c-.708483-.1941811-1.42004-.3887588-2.134671-.58373l-4.324692-1.1745242c-1.453867-.3930658-2.92004-.787681-4.398526-1.1838215l-4.472403-1.1929725-4.546326-1.2019774c-113.299203-29.250719-230.510275-45.9651677-349.550627-49.3667009-.495228-.0137144-.988973-.0270324-1.481234-.039954l-2.935768-.072773-2.900166-.063262-2.864567-.053754c-.474461-.0081668-.947438-.0159376-1.418933-.0233124l-2.811165-.0394975-2.775565-.0299969c-.459627-.0042079-.917771-.0080201-1.374432-.0114366zm-76.170126 9.7009547-.469388.2214368c-12.296941 5.9026438-19.602139 14.5365536-21.915593 25.9001003l.096726 1.5851774.054274.9329493.348859 1.1243095c28.069009 91.1658276 44.133639 200.3291286 48.223509 327.2654746 4.100237 127.355864-4.14808 262.330255-24.712569 404.427251.02279.32998.056456.641655.101127.934064.078727.515748.15744 1.032085.236492 1.54894l.481226 3.10678c2.225476 14.10524 5.227046 28.488476 16.14296 41.719744l15.213048-57.311782 1.050224-4.376479c34.827984-145.982811 49.079376-284.763872 42.718195-415.527799l-.201169-4.000472c-6.632312-127.56236-32.472302-236.854899-77.367921-327.5496949zm-20.154842 117.2972559.013576 3.766439c.003645 1.19196.006839 2.382301.009595 3.571019l.011387 7.112835c.002117 2.364447.002591 4.722391.001531 7.073818l-.007673 7.034709-.016225 6.995508-.024122 6.956216-.031367 6.916829-.037958 6.877353-.043897 6.837782-.049183 6.79812-.111608 13.476885-.124913 13.317129-.497723 48.503809-.088932 9.426503-.080251 9.334357-.069366 9.2419-.039108 6.109748-.046326 9.087112-.021708 6.006268-.013604 5.964714-.004847 5.923068c-.000084 1.967405.0014 3.927853.004562 5.88133l.014625 5.8395.02534 5.797578c.005153.962764.010779 1.923778.016893 2.883039l.042638 5.73452c.016235 1.904487.034528 3.801948.054988 5.692368l.067988 5.650122c.09961 7.505292.235633 14.897683.415034 22.17619 2.690816 109.247399 7.04613 194.107853 11.365137 254.727659l.517998 7.158031c.66571 9.056555 1.328934 17.535847 1.983421 25.438414 12.050139-108.926142 16.474844-213.318761 13.267692-312.934864-2.874065-89.201708-11.718483-169.359944-26.503594-240.376008zm347.235125 67.732681c35.916467-14.673428 81.55595-11.845001 129.625677 5.615417 45.403449 16.762204 87.806416 50.628735 115.803207 92.948407 30.533339 46.153892 41.992199 98.831328 29.798599 150.193106-12.351739 51.802959-43.931479 90.984766-87.502048 111.684922-41.61547 19.771299-90.959882 20.95496-135.962369 3.074427-92.792411-36.315662-139.617166-125.645465-126.113504-247.126684l.206411-1.802717c7.003073-59.279571 32.955739-97.759684 74.144027-114.586878zm122.748285 24.395692c-43.754482-15.892854-84.498052-18.417865-115.184316-5.881201-34.366304 14.040119-56.112825 46.660467-62.036538 100.081991l-.360217 3.378524c-11.345827 111.169405 30.857433 190.422825 113.932759 222.935705 39.943848 15.870492 83.504293 14.825575 120.042927-2.533745 38.08551-18.094232 65.678853-52.330012 76.627699-98.249246 10.844844-45.680578.60038-92.775321-27.021969-134.528991-25.665031-38.795008-64.662536-69.941653-106.000345-85.203037zm-110.860011 41.40843c20.378262-15.159729 48.647377-18.770252 79.013736-12.473167 26.622777 5.520777 52.727428 18.444006 68.91949 33.9869 31.614279 30.506522 46.441151 63.085162 46.441151 104.645958 0 74.015567-54.802764 134.029114-122.895103 133.55257-43.885276-.307132-85.146374-33.348843-107.687761-79.69227-.532405-1.094585-1.067716-2.300579-1.601996-3.604816l-.400455-.996394c-.066689-.169067-.133347-.339618-.199966-.511627l-.399183-1.049342c-.132863-.355475-.265507-.716577-.397872-1.083099l-.396194-1.115621c-.131744-.377157-.263147-.759529-.394146-1.146909l-.391729-1.176964-.388943-1.205784c-.064571-.203297-.129011-.407743-.193311-.613313l-.384072-1.2467c-.063713-.209963-.127271-.420997-.190668-.633078l-.378369-1.28484c-.125434-.432329-.250156-.868639-.374107-1.308723l-.369475-1.331373-.364475-1.352789c-.060308-.227181-.120393-.455203-.180246-.68404l-.356281-1.382598-.175942-.69825-.347256-1.409632-.340779-1.42611c-.056237-.23899-.112188-.478615-.167846-.718849l-.330371-1.448516-.32297-1.46191c-.053191-.244699-.106059-.489905-.158595-.735591l-.311178-1.479687c-.05118-.247508-.102013-.495446-.152491-.743787l-.298555-1.494687c-.04903-.249854-.09769-.50006-.145972-.750593l-.285101-1.506911c-.093483-.503473-.185394-1.008048-.275671-1.513518l-.265872-1.51889-.255702-1.523029c-.041749-.254114-.083059-.50835-.123923-.762681l-.239757-1.526922-.228666-1.527976-.110058-.763997-.211337-1.527242c-.102695-.763216-.200885-1.52567-.294362-2.286668l-.180608-1.519848c-.058067-.505831-.113978-1.01081-.167671-1.514731l-.154365-1.508379c-.049196-.501598-.096113-1.001931-.140689-1.500795l-.126645-1.491974c-.019916-.247859-.039232-.4953-.05794-.742295l-.104886-1.476432c-.032487-.490228-.062481-.978473-.089918-1.464527-.220379-3.904053-.303706-7.918925-.268324-11.958618l.020441-1.616996c.031132-1.887565.087584-3.778038.167491-5.662679l.074192-1.613774c.013308-.268657.027084-.537143.041323-.805434l.090935-1.607196.101772-1.601282.112347-1.594144.122662-1.585784c.042577-.527065.08683-1.052533.132715-1.5762l.142507-1.565393.15204-1.553364c.02612-.257823.052626-.515094.079512-.771788l.165848-1.533025.174728-1.517938c.029846-.251664.060052-.502649.090612-.752929l.187557-1.493013.195785-1.474867c.033302-.244231.066936-.487655.100896-.730247l.207637-1.445356.215212-1.424153.222526-1.401726.22958-1.378077c.038836-.227641.077956-.454246.117353-.679788l.23967-1.34031.246072-1.313602c.041531-.21664.083318-.432117.125355-.646404l.255184-1.271248c.043018-.209429.086274-.417617.129765-.624539l.26371-1.226142c.088811-.403516.178515-.801765.269068-1.194543l.274164-1.16172c.184418-.763267.372059-1.503837.562577-2.220079l.287889-1.055913.291943-1.018198c.097961-.332977.196554-.659465.295736-.979259 7.308556-23.565201 20.923092-42.044123 43.516621-58.851826zm74.952726 7.110198c-25.255561-5.237256-47.839738-2.352812-63.015293 8.936537-19.293206 14.352538-30.340196 29.346545-36.351674 48.729539-.213902.68969-.425391 1.423931-.633713 2.199201l-.248418.949791c-.082267.323012-.163979.652362-.245088.987827l-.24147 1.024509c-.039927.173733-.079691.348939-.119287.525588l-.235499 1.076997-.231156 1.110298-.226525 1.142248-.221603 1.172843-.216393 1.202088-.210893 1.229978-.205103 1.256518-.199025 1.281704c-.032648.215641-.065031.432275-.097143.649875l-.189364 1.316947-.182562 1.338753-.17547 1.359206-.16809 1.378306-.160419 1.396054-.152459 1.412449c-.024731.2367-.049117.474026-.073154.71195l-.139977 1.434507-.131294 1.44752c-.021143.242263-.041911.485011-.0623.728218l-.117727 1.464505-.055353.73595-.103508 1.478447-.093667 1.486052c-.014775.248234-.029128.496728-.043052.745455l-.078363 1.494922-.067799 1.499145c-.03121.750403-.05835 1.501882-.081257 2.253677l-.040122 1.503785c-.01146.501252-.020991 1.002419-.028544 1.503275l-.016678 1.501411c-.004632.50001-.004632.999483-.004632 1.498196l.008033 1.493627c.023737 2.484821.100536 4.944973.236426 7.352278.012244.216913.02508.434381.038499.652378l.087451 1.314103c.01572.220003.032007.440482.048854.661409l.10772 1.33074c.01905.222617.038643.445631.05877.669014l.127114 1.344524.139556 1.352129.151609 1.358466.163272 1.363536c.028162.227608.056795.455374.085888.683273l.180037 1.368763c.030908.228321.062261.456721.094051.685174l.195926 1.371139.20603 1.371138c.035159.228453.070723.456852.106683.685173l.220459 1.36876.22959 1.36559.238332 1.361153.122323.678516.250715 1.352119.128296.673287.262222 1.340234.269407 1.330726c.045478.220925.091239.441401.137276.661402l.279453 1.314087.285664 1.30141.291485 1.287466c.049044.213345.098315.426056.147804.638107l.299487 1.264172.304334 1.247058.308793 1.228676.312861 1.209027c.052461.199797.105075.398722.157835.596749l.318234 1.177177.321329 1.154359.324035 1.130273.326351 1.10492c.054563.18197.109207.362831.163922.542556l.329095 1.064513c.054972.175077.109999.348966.165075.52164l.330962 1.021253.331721.99083.332089.959139.332069.926179c.055322.151546.110626.301666.165905.450334l.331308.874364c.055145.142751.11025.283998.165305.423713l.32967.819696.328091.781666c.272644.635191.543237 1.229448.810767 1.779468 19.511997 40.115224 54.575569 68.193983 89.842405 68.443102 56.530847.393328 102.755137-50.226083 102.755137-113.555363 0-35.93831-12.496726-63.39699-40.309984-90.235726-13.324605-12.790359-36.017974-24.024818-59.111667-28.813767z"/></svg>