<?xml version="1.0"?>
<svg xmlns="http://www.w3.org/2000/svg" id="Outline_expand" data-name="Outline expand" width="512" height="512" viewBox="0 0 512 512"><g id="_16_copy_3" data-name="16 copy 3"><g><path d="M203,104h16c0-3.1.986-4.287,3.146-6.879C225.038,93.649,229,88.9,229,80s-3.962-13.65-6.854-17.122C219.986,60.285,219,59.1,219,56s.985-4.286,3.146-6.877C225.038,45.65,229,40.9,229,32H213c0,3.1-.985,4.286-3.146,6.877C206.962,42.348,203,47.1,203,56s3.962,13.65,6.854,17.122C212.014,75.712,213,76.9,213,80s-.986,4.287-3.146,6.879C206.962,90.35,203,95.1,203,104Z"/><path d="M368,104h16c0-3.1.986-4.287,3.146-6.879C390.038,93.649,394,88.9,394,80s-3.962-13.65-6.854-17.122C384.986,60.285,384,59.1,384,56s.985-4.286,3.146-6.877C390.038,45.65,394,40.9,394,32H378c0,3.1-.985,4.286-3.146,6.877C371.962,42.348,368,47.1,368,56s3.962,13.65,6.854,17.122C377.014,75.712,378,76.9,378,80s-.986,4.287-3.146,6.879C371.962,90.35,368,95.1,368,104Z"/><path d="M120,88h16c0-3.1.986-4.287,3.146-6.879C142.038,77.649,146,72.9,146,64s-3.962-13.65-6.854-17.122C136.986,44.285,136,43.1,136,40s.985-4.286,3.146-6.877C142.038,29.65,146,24.9,146,16H130c0,3.1-.985,4.286-3.146,6.877C123.962,26.348,120,31.1,120,40s3.962,13.65,6.854,17.122C129.014,59.712,130,60.9,130,64s-.986,4.287-3.146,6.879C123.962,74.35,120,79.1,120,88Z"/><path d="M285,88h16c0-3.1.986-4.287,3.146-6.879C307.038,77.649,311,72.9,311,64s-3.962-13.65-6.854-17.122C301.986,44.285,301,43.1,301,40s.985-4.286,3.146-6.877C307.038,29.65,311,24.9,311,16H295c0,3.1-.985,4.286-3.146,6.877C288.962,26.348,285,31.1,285,40s3.962,13.65,6.854,17.122C294.014,59.712,295,60.9,295,64s-.986,4.287-3.146,6.879C288.962,74.35,285,79.1,285,88Z"/><path d="M478,120h-6V104H456v16H440V104H424v16H80v16H478a2,2,0,0,1,2,2V446a2,2,0,0,1-2,2H144v16H417.754l6.485,25.94A8,8,0,0,0,432,496h32a8,8,0,0,0,7.761-6.06L478.246,464A18.021,18.021,0,0,0,496,446V138A18.021,18.021,0,0,0,478,120ZM457.754,480H438.246l-4-16h27.508Z"/><path d="M32,446V138a2,2,0,0,1,2-2H64V120H34a18.021,18.021,0,0,0-18,18V446a18.021,18.021,0,0,0,17.754,18l6.485,25.942A8,8,0,0,0,48,496H80a8,8,0,0,0,7.761-6.06L94.246,464H128V448H34A2,2,0,0,1,32,446Zm45.754,18-4,16H54.246l-4-16Z"/><rect x="208" y="416" width="96" height="16"/><path d="M464,160a8,8,0,0,0-8-8H56a8,8,0,0,0-8,8V392a8,8,0,0,0,8,8H400V384H64V200H80a8.009,8.009,0,0,1,8,8V344a24,24,0,0,0,48,0V208a8,8,0,0,1,16,0V344a24,24,0,0,0,48,0V208a8,8,0,0,1,16,0V344a24,24,0,0,0,48,0V208a8,8,0,0,1,16,0V344a24,24,0,0,0,48,0V208a8,8,0,0,1,16,0V344a24,24,0,0,0,48,0V208a8,8,0,0,1,16,0V340a28.032,28.032,0,0,0,28,28h12v16H416v16h40a8,8,0,0,0,8-8ZM448,352H436a12.013,12.013,0,0,1-12-12V208a24,24,0,0,0-48,0V344a8,8,0,0,1-16,0V208a24,24,0,0,0-48,0V344a8,8,0,0,1-16,0V208a24,24,0,0,0-48,0V344a8,8,0,0,1-16,0V208a24,24,0,0,0-48,0V344a8,8,0,0,1-16,0V208a24,24,0,0,0-48,0V344a8,8,0,0,1-16,0V208a24.027,24.027,0,0,0-24-24H64V168H448Z"/><rect x="448" y="416" width="16" height="16"/><rect x="416" y="416" width="16" height="16"/><rect x="48" y="416" width="16" height="16"/><rect x="80" y="416" width="16" height="16"/></g></g></svg>
