<?xml version="1.0" encoding="UTF-8" standalone="no"?>
<svg
   xmlns:dc="http://purl.org/dc/elements/1.1/"
   xmlns:cc="http://creativecommons.org/ns#"
   xmlns:rdf="http://www.w3.org/1999/02/22-rdf-syntax-ns#"
   xmlns:svg="http://www.w3.org/2000/svg"
   xmlns="http://www.w3.org/2000/svg"
   xmlns:sodipodi="http://sodipodi.sourceforge.net/DTD/sodipodi-0.dtd"
   xmlns:inkscape="http://www.inkscape.org/namespaces/inkscape"
   id="boiler"
   enable-background="new 0 0 300 300"
   height="512"
   viewBox="0 0 300 300"
   width="512"
   version="1.1"
   sodipodi:docname="icon.svg"
   inkscape:version="0.92.4 (5da689c313, 2019-01-14)">
  <metadata
     id="metadata23">
    <rdf:RDF>
      <cc:Work
         rdf:about="">
        <dc:format>image/svg+xml</dc:format>
        <dc:type
           rdf:resource="http://purl.org/dc/dcmitype/StillImage" />
      </cc:Work>
    </rdf:RDF>
  </metadata>
  <defs
     id="defs21" />
  <sodipodi:namedview
     pagecolor="#ffffff"
     bordercolor="#666666"
     borderopacity="1"
     objecttolerance="10"
     gridtolerance="10"
     guidetolerance="10"
     inkscape:pageopacity="0"
     inkscape:pageshadow="2"
     inkscape:window-width="3130"
     inkscape:window-height="1698"
     id="namedview19"
     showgrid="false"
     inkscape:zoom="1.84375"
     inkscape:cx="115.49005"
     inkscape:cy="253.28994"
     inkscape:window-x="313"
     inkscape:window-y="147"
     inkscape:window-maximized="0"
     inkscape:current-layer="boiler" />
  <path
     inkscape:connector-curvature="0"
     id="path10"
     d="M 202.748,46 H 179.457 C 177.675,39.019 171.439,34 164,34 h -12 c -7.436,0 -13.673,5.019 -15.456,12 H 113.252 C 97.123,46 84,59.121 84,75.25 v 137.5 C 84,228.879 97.123,242 113.252,242 H 116 v 4 h -8 c -2.209,0 -4,1.789 -4,4 0,2.211 1.791,4 4,4 h 28.542 c 1.783,6.984 8.018,12 15.458,12 h 12 c 7.449,0 13.682,-5.015 15.46,-12 H 208 c 2.209,0 4,-1.789 4,-4 0,-2.211 -1.791,-4 -4,-4 h -8 v -4 h 2.748 C 218.877,242 232,228.879 232,212.75 V 75.25 C 232,59.121 218.877,46 202.748,46 Z M 152,42 h 12 c 2.959,0 5.526,1.598 6.91,4 h -25.821 c 1.384,-2.402 3.953,-4 6.911,-4 z M 112,166 H 92 v -48 h 20 z m 52,92 h -12 c -2.959,0 -5.526,-1.598 -6.91,-4 h 25.823 c -1.383,2.403 -3.95,4 -6.913,4 z m 28,-12 h -68 v -4 h 68 z m 10.748,-12 H 113.252 C 101.533,234 92,224.469 92,212.75 V 174 h 20 v 3.059 c 0,7.137 5.805,12.941 12.941,12.941 h 66.117 c 7.137,0 12.941,-5.805 12.941,-12.941 V 174 h 20 v 38.75 C 224,224.469 214.467,234 202.748,234 Z M 120,177.059 v -70.117 c 0,-2.727 2.217,-4.941 4.941,-4.941 h 66.117 c 2.725,0 4.941,2.215 4.941,4.941 v 70.117 c 0,2.727 -2.217,4.941 -4.941,4.941 H 124.941 C 122.217,182 120,179.785 120,177.059 Z M 204,118 h 20 v 48 h -20 z m 20,-8 h -20 v -3.059 C 204,99.805 198.195,94 191.059,94 H 124.942 C 117.805,94 112,99.805 112,106.941 V 110 H 92 V 75.25 C 92,63.531 101.533,54 113.252,54 h 89.496 C 214.467,54 224,63.531 224,75.25 Z" />
  <g
     id="g5273"
     transform="matrix(0.11689253,0,0,0.11689253,130.10731,111.98669)"
     style="stroke-width:5.01261711">
    <g
       id="g5216"
       style="stroke-width:5.01261711">
	<g
   id="g5214"
   style="stroke-width:5.01261711">
		<path
   id="path5212"
   d="m 25.383,290.5 c -7.2,-77.5 25.9,-147.7 80.8,-192.3 21.4,-17.4 53.4,-2.5 53.4,25 v 0 c 0,10.1 -4.8,19.4 -12.6,25.7 -38.9,31.7 -62.3,81.7 -56.6,136.9 7.4,71.9 65,130.1 136.8,138.1 93.7,10.5 173.3,-62.9 173.3,-154.5 0,-48.6 -22.5,-92.1 -57.6,-120.6 -7.8,-6.3 -12.5,-15.6 -12.5,-25.6 v 0 c 0,-27.2 31.5,-42.6 52.7,-25.6 50.2,40.5 82.4,102.4 82.4,171.8 0,126.9 -107.8,229.2 -236.7,219.9 -106.6,-7.5 -193.5,-92.4 -203.4,-198.8 z M 244.883,0 c -18,0 -32.5,14.6 -32.5,32.5 v 149.7 c 0,18 14.6,32.5 32.5,32.5 17.9,0 32.5,-14.6 32.5,-32.5 V 32.5 c 0,-17.9 -14.5,-32.5 -32.5,-32.5 z"
   inkscape:connector-curvature="0"
   style="stroke-width:5.01261711" />

	</g>

</g>
    <g
       id="g5218"
       style="stroke-width:5.01261711">
</g>
    <g
       id="g5220"
       style="stroke-width:5.01261711">
</g>
    <g
       id="g5222"
       style="stroke-width:5.01261711">
</g>
    <g
       id="g5224"
       style="stroke-width:5.01261711">
</g>
    <g
       id="g5226"
       style="stroke-width:5.01261711">
</g>
    <g
       id="g5228"
       style="stroke-width:5.01261711">
</g>
    <g
       id="g5230"
       style="stroke-width:5.01261711">
</g>
    <g
       id="g5232"
       style="stroke-width:5.01261711">
</g>
    <g
       id="g5234"
       style="stroke-width:5.01261711">
</g>
    <g
       id="g5236"
       style="stroke-width:5.01261711">
</g>
    <g
       id="g5238"
       style="stroke-width:5.01261711">
</g>
    <g
       id="g5240"
       style="stroke-width:5.01261711">
</g>
    <g
       id="g5242"
       style="stroke-width:5.01261711">
</g>
    <g
       id="g5244"
       style="stroke-width:5.01261711">
</g>
    <g
       id="g5246"
       style="stroke-width:5.01261711">
</g>
  </g>
</svg>
