<svg height="960" viewBox="0 0 960 960" width="960" xmlns="http://www.w3.org/2000/svg"><path d="m481 5c75.023884 0 133.719583 6.9564237 176.88249 21.552892 50.408838 17.0468364 83.163319 46.0272107 92.209314 87.751262.603736 2.784692.908196 5.625923.908196 8.47531v693.536218c0 3.065248-.352337 6.120338-1.050073 9.105118-8.395919 35.916117-35.636027 61.941386-76.870472 78.472535-2.122982.851116-4.289729 1.680346-6.500388 2.487845l-1.905609.686824c-13.733979 4.884154-29.126562 8.950022-46.211823 12.234048l-2.394979.453165c-.80199.149367-1.607646.297045-2.41697.44304l-2.438983.432935-2.461015.422852-2.483068.412793c-1.662734.271846-3.340185.537-5.032379.795492l-2.549351.382743c-.426736.062959-.854394.125503-1.282975.187631l-2.582563.367793-2.604728.357854-2.626916.347937-2.649123.338041-2.671352.328168-1.344017.160389-2.704732.313399c-.90529.102829-1.814293.204022-2.727012.303581l-2.749312.293785c-.460078.048149-.921086.095891-1.383025.143226l-2.7828.279131-2.805152.269391-2.827524.259671-2.849917.249974-2.87233.240298-1.907412.152659-.394676.542336c-12.017106 16.259422-31.203546 26.867627-52.8357 27.219664h-46.083624c-22.07452 0-41.702624-10.689607-53.919236-27.220758l-.391764-.538242-1.900584-.151925-2.866979-.239848c-.475956-.040779-.950975-.08196-1.425058-.123545l-2.833263-.254347-2.810813-.264042c-.466599-.044816-.932263-.090037-1.396994-.135663l-2.777175-.278625c-.921991-.094499-1.840249-.190623-2.754777-.288375l-2.732399-.298148-2.710043-.307943c-.449812-.052141-.898693-.104692-1.346644-.157651l-2.676548-.322678c-.888464-.109199-1.77321-.220041-2.654243-.332528l-2.63196-.342401c-.436804-.057891-.872681-.116194-1.307631-.17491l-2.598574-.357253-2.576345-.367182c-2.137696-.310128-4.252257-.630622-6.343738-.961541l-2.498703-.40211-2.476566-.41214-1.229988-.209838-2.443401-.427226c-13.377956-2.37746-25.753861-5.212555-37.143427-8.522028l-2.059965-.606954c-7.171861-2.142658-13.944681-4.477831-20.322509-7.009832l-1.048542-.419481c-41.203915-16.611018-68.280612-42.845608-76.196613-79.00229-.615217-2.81003-.925518-5.678226-.925518-8.554814v-693.536218c0-2.849387.30446-5.690618.908196-8.47531 9.045995-41.7240513 41.800476-70.7044256 92.209314-87.751262 43.162907-14.5964683 101.858606-21.552892 176.88249-21.552892zm-37.474993 905.796425.152137.095706c4.151463 2.602918 9.061409 4.107869 14.322856 4.107869h45c4.739221 0 9.193255-1.221029 13.064791-3.365632-7.633057.153835-15.462585.230577-23.489438.230577h-2.186937c-16.461371-.029221-32.08094-.384164-46.863409-1.06852zm255.629074-71.17083-1.06838.466544c-38.919 16.75716-111.24247 24.276626-218.533726 24.276626-92.922352 0-159.468603-5.630356-200.671414-18.047644 17.487602 17.354917 48.251031 29.749604 92.290579 37.184592 17.958876 2.536778 37.905754 4.330559 59.843131 5.380539.012999.40308.034833.803928.065314 1.202357 18.91178 1.184724 39.41196 1.776336 61.495768 1.776336 12.95338 0 25.364935-.203543 37.234667-.610628.092789-.780765.153386-1.571146.179263-2.370297 88.762919-4.254539 145.151185-20.674014 169.164798-49.258425zm-206.031944-793.2720128c-142.212478 0-218.944508 25.9421777-230.196092 77.8265328v693.955921c.045712.20874.09261.417036.140695.624889 4.709026 2.526892 10.521382 4.934215 17.443347 7.180592l1.597893.509511c1.617134.506686 3.291992 1.004843 5.024601 1.494l1.75186.48614 1.790367.480036 1.82888.473826c3.388254.862926 6.970708 1.694019 10.747532 2.490375l2.079362.430914c1.399094.284955 2.823894.565248 4.274407.840738l2.195057.409616c2.352701.431345 4.765722.849852 7.239032 1.255509l2.493404.401373c2.513498.397089 5.087273.781323 7.721293 1.152691l2.654101.367079c8.468235 1.148832 17.540485 2.168599 27.215717 3.058912l3.075379.276848c1.54771.136271 3.11045.269315 4.688217.399128l3.175566.25532 3.215628.246704 3.255684.238085c.545951.038962 1.093571.077566 1.64286.11581l3.315752.225152 3.35579.216526 3.395819.207898c.569306.033931 1.140279.067502 1.712919.100713l3.45585.19495 3.495863.186316 3.535867.177678 3.575864.169037 3.615854.160394 3.655838.151747c.612637.024571 1.226941.048781 1.84291.072631l3.715798.138774c1.24526.044816 2.497182.088189 3.755763.130121l3.795721.121465c.635949.019522 1.273563.038684 1.912842.057486l3.855644.108476 3.895583.099814 3.935516.09115 3.975441.082481 4.015359.07381c.672552.011579 1.346768.022797 2.022646.033653l4.075223.0608 4.115123.052122c.689178.007963 1.380018.015565 2.072521.022806l4.174959.039101 4.214841.030416 4.254716.021729 4.294583.01304 4.334443.004347 4.334709-.004347 4.295075-.013041 4.255433-.02173 4.215785-.030418 4.17613-.039103 4.136468-.047786c.686106-.008687 1.370559-.017736 2.053358-.027147l4.076961-.060804 4.037281-.069479 3.997594-.078152c.662958-.013747 1.324262-.027857 1.983912-.042327l3.938051-.091156 3.898345-.099822c.646415-.017359 1.291176-.035079 1.934281-.05316l3.838776-.112816 3.799052-.121476c.629865-.020967 1.258075-.042295 1.884629-.063984l3.739456-.13446c.619931-.023131 1.238206-.046622 1.854826-.070475l3.679843-.147437 3.640093-.156086c.603369-.026735 1.205082-.053831 1.805138-.081286l3.580453-.169054 3.540686-.177696 3.50091-.186336 3.461128-.194972 3.421338-.203606 3.381542-.212237c.560273-.036092 1.118888-.072543 1.675845-.109354l3.321834-.225179c1.100642-.076497 2.194649-.154432 3.282019-.233803l3.242199-.242425c.537047-.041123 1.072435-.082605 1.606164-.124445l3.182453-.255353c1.054179-.086554 2.101717-.174543 3.142615-.263968l3.102768-.27258 3.062916-.28119c1.521493-.142747 3.028039-.288722 4.519634-.437923l2.963252-.302702 2.923374-.311303c1.451717-.157801 2.888477-.318826 4.310276-.483074l2.823649-.332792c2.8037-.337088 5.547545-.687062 8.231506-1.04991l2.663997-.36714c1.762689-.24762 3.498757-.50096 5.208196-.760017l2.544184-.392871c3.365612-.529545 6.624686-1.081949 9.777147-1.657183l2.210666-.41055c5.84392-1.104526 11.278325-2.286499 16.303467-3.537308l1.865244-.472263c24.30647-6.260174 38.636288-14.172266 43.019475-22.699899l.003892-.00814v-683.647536c-8.36364-38.5767385-52.938668-62.8036279-133.725084-72.6806684-24.900947-2.4964075-52.950812-3.7452134-84.152779-3.7452134z"/></svg>