<svg height="960" viewBox="0 0 960 960" width="960" xmlns="http://www.w3.org/2000/svg"><path d="m670.141249 294.314098c23.41455-3.048172 44.33919-4.018733 62.909059-2.807584l2.340943.143834 3.932657.214015 6.410315.309098 10.301435.448851 18.255385.738022 69.958506 2.699954 15.016995.604828 12.864617.554027 6.062398.286984 2.806299.143597 3.982715.223336 2.328801.147167 3.158382.224591 2.30608.144552 3.524365.171141 5.91829.242605 3.58264.151784 2.646292.131151 1.460576.083869.92692.059006 1.327623.094273.847586.067346.82106.071468.797512.076039.77694.081059 1.133349.131984.738531.095575.728378.102167.721199.109208c.119767.018814.239359.037939.358838.057386l.716013.120613.716276.128777.719516.137391.725731.146454.734924.155966.747093.165927 1.012041.236489c6.946306 1.677873 13.344697 4.415279 19.551725 9.47262 10.154982 8.274042 16.119456 20.56618 16.119456 33.911555v.772709l-.029271 1.469882-.059461 2.047719-.090494 2.335538-.120521 2.600224-.17722 3.337266-.215127 3.629313-.329725 5.03627-.207869 2.951555-.367498 4.909896-.30258 3.805302-.437471 5.193594-.412982 4.617404c-.101548 1.10437-.205351 2.211262-.311311 3.318445l-.128181 1.328617-.229189 2.323173-.276033 2.714706c-.059124.572902-.118721 1.145121-.178793 1.716641l-.36615 3.420626c-.06198.568668-.124439 1.136607-.187379 1.703803l-.383427 3.394136c-.259484 2.25665-.526723 4.500924-.801836 6.731858l-.418591 3.336275c-.141509 1.108676-.285002 2.213897-.430493 3.315541l-.442486 3.294085c-2.840581 20.793066-6.408182 40.251649-10.806261 57.54901-7.32667 28.815325-24.249418 51.669245-49.051158 70.376583-.176923.133448-.353817.266466-.530699.399063l-1.592025 1.182297c-.176951.130167-.353936.259944-.530974.389341l-1.062974.77192-1.064986.763314-1.067772.755207c-.178237.125219-.356622.250122-.535172.374718l-1.073397.743975-1.078114.737109-1.083603.730739-1.637385 1.085251-1.100703.716986-1.108895.712354-1.11786.708219-1.127597.70458-1.138105.701437-1.149388.698791-1.161441.696642-.585483.34767-1.18097.69435-1.79792 1.039976-1.217382.693011-1.233297.693344-1.249987.694174-1.267447.695501-1.28568.697324-1.304686.699644-1.324464.702461-1.345015.705773-2.057744 1.065957-2.108327 1.076205-1.434941.72399-1.459353.729787-1.484538.736078-1.510496.742867-1.537225.750153-2.357646 1.139975-1.607429.770538-2.466572 1.172882-2.535403 1.194861-2.606842 1.218514-4.510569 2.087975-2.810089 1.289786-9.706181 4.427029-6.10537 2.801012-4.233004 1.965704-3.74815 1.768422-3.450631 1.660655-3.455633 1.694885c-24.057089 11.693043-51.893513 16.673373-84.675864 17.263369l-.811607.013816-2.424057.031714-2.412734.017097-1.605261.003267-2.407645-.007317-2.412862-.021998-1.614536-.022832-1.62145-.029376-1.630201-.035925-2.465731-.066184-2.495759-.080962-1.683586-.062196-1.701526-.068781-1.721305-.075374-2.623063-.125438-2.677903-.140311-1.818798-.101816-2.783088-.165155-2.854468-.180092-3.927717-.263401-3.045146-.215042-3.137204-.230059-4.33686-.33015-7.995026-.631791-14.74595-1.141933-4.180097-.295113-3.090957-.191711-1.679102-.087048-2.292374-.088937-2.060437-.043857-.930872-.009195-.37794-.002205-2.673117-.001225-2.869291.011082-3.304006.030221-1.848292.027227-1.182083.022069-2.256357.053811-1.079812.031864-1.567046.054167-1.512146.061994-1.466591.070028-.957034.051249-1.411431.083873-.928912.06067-1.841384.133026-1.837921.149015-1.856609.16549-1.897445.182453-4.767258.484001-2.225099.212619-1.457168.129675-1.443415.120162-1.435861.110775-1.434505.10151-1.439349.092369-1.45039.083353-1.467631.074461-1.491071.065692-1.520708.057047c-.256266.008794-.514025.017234-.773406.025321l-1.576788.044312-1.621924.035978-1.673257.027767-1.73079.01968-1.794521.011717-1.864451.003879c-43.104434 0-72.107555-20.17492-82.62861-58.088789l-.159231-.571408-.819719-2.882784-1.411103-4.831178-7.302981-24.509455-1.030765-3.500873-.759602-2.597448-393.7536905 146.061219c-12.1071276 4.491049-25.6258008 2.857723-36.3064251-4.359846l-.4559911-.312742-9.0604945-6.30639c-5.3637058-3.733309-9.7310228-8.723926-12.7199912-14.535381l-10.48178877-20.379752c-10.36066449-20.144251-1.94173308-44.864365 18.56028877-54.497708l569.9138414-267.787027c14.059719-6.606279 29.230355-4.273915 40.385004 3.741456l.010247.007171 1.180131-.301899c11.829018-3.0062 23.270624-5.254938 34.327684-6.735344zm-195.877249 159.580902-419.249 171.399 4.5372983 3.158564 416.7777017-154.601564-.070778-.523777-.117885-.947346-.136038-1.223356-.328961-3.076715-.589028-5.766311zm.614303-56.461955-434.868288 204.333376 3.4340142 6.677189c.1208511-.059291.2433796-.116403.367557-.171268l.2620369-.111421 428.2483769-175.078921-1.522374-16.709752c-.433662-4.823371.625672-10.67102 2.737219-15.942461l.230243-.56252c.345007-.825097.715235-1.637124 1.111215-2.434222zm232.597041 128.320956c-.084484-.000639-.185778.002799-.300134.009661l-.378505.030205-.434391.046826-.467791.059523-.71512.104508-.452909.0741-.407606.073064-.339816.068106c-.149213.032159-.264571.060988-.333427.084278l-.58094.202592-.664379.24299-.747738.283357-.831019.323688-.914221.363988-.997342.404254-1.651693.681805-1.838271.772215-1.329037.564982-2.14864.922648-3.153931 1.370348-2.581908 1.132728-3.73065 1.650046-3.01372 1.342195-5.432991 2.436012-4.714793 2.127626-5.041571 2.286285-6.760531 3.080565-7.268893 3.327531-7.776016 3.573977-8.281901 3.8199-12.442188 5.760018-17.445007 8.110192-7.715265 3.597786.2-.013.545838-.037729.328162-.020271.388599-.025339.340401-.019661.759681-.046053 1.250319-.066947.293508-.016865.164492-.008135.229988-.011769.816012-.037231.834048-.0397.237952-.0103.184656-.007824.953344-.037176.81322-.032035 2.18678-.071965.157209-.004739 1.999728-.053145 2.663141-.055165 2.856821-.041664 1.812424-.01808 2.537062-.015565 2.680825-.005308.865664.002724c4.944501.030721 10.550291.318877 16.667432.738876l2.810426.199203c.474081.034564.950957.069773 1.430563.105573l2.909884.221462 2.972298.233042 10.849603.869184 4.839128.378442 3.2814.247754 3.32202.241078 3.359527.231794 3.393921.219904c3.374376.210857 6.794694.400419 10.24738.557314l24.333977-8.811383 9.23306-4.151871 9.749951-4.418058 6.597216-3.012722 3.911871-1.797095 6.631096-3.068073 5.450929-2.546955 5.033048-2.37702 3.500216-1.671066 4.300412-2.078913 2.950097-1.447139 2.713937-1.350959 2.477542-1.254653 2.240911-1.158219 1.693043-.894927c5.517898-2.951075 11.007915-6.041193 16.424226-9.226881l-40.8772-1.639485-19.582252-.750071-11.448151-.404422-5.407135-.171668-4.106457-.114938-3.790389-.085878-3.053256-.044087c-.090361-.000799-.179625-.001532-.267804-.0022zm124.075656 4.600999-.209765.13947-2.148681 1.407323-2.766616 1.791634-2.848347 1.821656-2.331758 1.47457-1.776898 1.113802-2.403114 1.492898-3.052224 1.874021-2.475089 1.501477-2.499939 1.499881-1.888618 1.121858-2.532855 1.489073c-.211664.123688-.423461.247263-.63538.370718l-1.57182.912142c-3.82184 2.209207-7.673877 4.372426-11.489507 6.439175l-2.251367 1.210187-1.080917.571477-2.342987 1.216014-3.039043 1.541954-2.867088 1.42749-3.109377 1.525308-2.207647 1.071282-2.91126 1.400384-3.079952 1.468546-3.918819 1.852342-4.162196 1.950743-6.700172 3.110914-5.590761 2.573171-.120816.056288c12.415413-2.079436 24.242956-5.453758 34.81496-10.682224.235032-.116237.47032-.232329.705859-.348281 1.296876-.63843 2.601279-1.27258 3.91218-1.90323.199243-.095853.398339-.191481.59758-.287032.390677-.187358.782016-.374464 1.173888-.561291.491136-.234151.982695-.467666 1.475034-.700782.351531-.166446.704149-.333013 1.057144-.499389.534223-.251793 1.068967-.50299 1.604506-.7538.260772-.122128.521494-.244053.782396-.365893 3.175091-1.482752 6.377062-2.952942 9.59089-4.420725l1.503576-.686151 7.732-3.527 3.413-1.564 1.331991-.610309 2.248009-1.039691.908-.422 1.692502-.787214c.201564-.094208.403061-.188486.604487-.282837l.063011-.030949.956-.449 1.876-.886 2.373738-1.129082c.224553-.107624.448976-.215368.673264-.323235.173085-.083242.346054-.166539.518939-.249912l.893938-.432134c.221889-.107524.443635-.215177.665231-.322962.474478-.230787.948793-.462434 1.422374-.694723.104843-.051425.209532-.102823.314184-.154253l-.314184.154253c.635725-.31182 1.27013-.624797 1.903092-.939017 1.599666-.794118 3.189731-1.595967 4.768639-2.407106.413892-.21263.82724-.426013 1.239785-.64006.256854-.133268.513451-.266821.769727-.400636 1.191144-.621961 2.375291-1.249562 3.551677-1.883444.183382-.098813.366246-.197601.548918-.296542l-.548918.296542c.666515-.359143 1.330539-.720303 1.991915-1.083588.195168-.107203.390075-.214574.584747-.322132l-.584747.322132c1.339258-.735634 2.667662-1.47998 3.983923-2.233936.204419-.117093.407743-.233955.610772-.35105l-.610772.35105c.348311-.199513.695772-.399699 1.042359-.600575.283053-.164053.565581-.328599.847512-.493614l.260887-.153976-.876497-.009624-2.391173-.044955-4.132504-.108573-8.199705-.269474zm-166.275-194.858-.607695.104968c-.230376.040463-.460989.081302-.691837.122517l.692408-.122617c-.410235.072052-.821217.145296-1.232948.219734l.54054-.097117c-.366378.065413-.73335.131773-1.100916.19908l.560376-.101963c-.429098.077577-.859009.15645-1.289732.236619l.729356-.134656c-.386808.070831-.774275.142711-1.162399.215641l.433043-.080985c-.468119.087128-.937198.175787-1.407237.265976l.974194-.184991c-.378645.071148-.757916.143295-1.137813.21644l.163619-.031449c-.328579.063047-.657626.126841-.987143.191382l.823524-.159933c-.472869.091046-.946709.18364-1.421519.27778l.597995-.117847c-.366806.071846-.734194.144618-1.102163.218317l.504168-.10047c-.430724.0854-.862247.172073-1.294568.260019l.7904-.159549c-.394615.079036-.789898.159137-1.185849.240304l.395449-.080755c-.382242.077759-.765107.156512-1.148597.236262l.753148-.155507c-.871383.178626-1.746003.362414-2.62386.551362-.307113.066103-.614669.132847-.92262.200223-.662593.144966-1.327666.293002-1.994577.44397-.049944.011306-.099669.022576-.149405.033862l.149405-.033862c-.545445.123472-1.092121.248904-1.640025.376296-.642043.149281-1.285485.301185-1.930613.455778-.537824.12888-1.076574.259569-1.616495.392126-.117516.028851-.234669.057688-.351878.086613l.351878-.086613c-.859078.210912-1.721121.426553-2.586129.646922-.18965.048315-.379165.096786-.568821.145484l.568821-.145484c-.418756.106682-.838207.214472-1.258353.32337l.689532-.177886c-.41791.107306-.83651.215712-1.255801.325218l.566269-.147332c-.465101.12055-.931054.242457-1.397858.365723l.831589-.218391c-1.339366.349804-2.685773.710834-4.039221 1.083091-.679225.186816-1.36074.376604-2.044031.569225-.110995.031289-.222695.062839-.334443.094465l.334443-.094465c-.43411.122376-.868938.245895-1.304482.370557l.970039-.276092c-.43644.123519-.873604.24819-1.311491.374015l.341452-.097923c-.359404.102869-.719297.206517-1.079677.310943l.738225-.21302c-.534627.153623-1.070331.308965-1.607114.466026l.868889-.253006c-.402466.116621-.805541.234212-1.209225.352775l.340336-.099769c-.364019.106511-.728534.213812-1.093545.321904l.753209-.222135c-.986705.289796-1.977048.585392-2.971028.886787-.172084.05218-.344508.104603-.517041.157201l.517041-.157201c-.414981.125831-.830597.252673-1.246846.380526l.729805-.223325c-.420016.128044-.840679.257121-1.261989.387231l.532184-.163906c-.422788.129861-.84623.260764-1.270326.392711l.738142-.228805c-.456982.141126-.914726.283467-1.373232.427024l.63509-.198219c-.425088.132256-.850834.265559-1.277236.39991l.642146-.201691c-.435731.136425-.87215.273948-1.309257.412569l.667111-.210878c-1.523216.479935-3.054818.97324-4.594805 1.479915-.693105.228043-1.387217.458561-2.083023.691782-.27815.09323-.556934.187015-.835988.281232l-1.193334.404982c-.198365.067663-.396865.135544-.595502.203642-.746865.256045-1.495552.515129-2.246167.777289-.179115.062558-.358051.12519-.537097.187996l.537097-.187996c-.499726.174535-1.000308.350432-1.501744.527693l.964647-.339697c-.415019.145582-.830626.292102-1.246822.439559l.282175-.099862c-.416154.147113-.832898.295165-1.25023.444156l.968055-.344294c-6.981924 2.47369-14.129389 5.21133-21.442393 8.212921l-1.394849.573521-2.774855 1.146901-2.754111 1.146078-4.089766 1.715903-2.697241 1.140676-2.672488 1.137177-3.959816 1.697532-2.605597 1.125084-2.576836 1.118909-2.546931 1.111969-4.999563 2.20006-2.450342 1.086562-4.796079 2.142364-3.501021 1.576847-2.286134 1.035547-4.452203 2.030013-3.229586 1.483552-2.098736.96905-5.048363 2.347101-3.825095 1.793693-4.499345 2.127094-3.362691 1.602202-3.892352 1.868377-4.83667 2.343483-4.595188 2.251112-2.335909 1.154862-3.802022 1.899272c-4.574249 2.304569-6.834777 7.073206-7.770647 10.695813l-.13057.534345-.111441.514446-.093055.491841c-.014018.07994-.027301.158824-.039865.236598l-.066866.452855c-.029239.21931-.052278.427605-.069535.623361l-.026927.374343c-.019466.356722-.013212.659229.004312.895337l.156084 1.734574 1.655063 18.183084 1.22995 13.172275.794731 8.268126.809159 8.098929.540736 5.10771.064.575.059.522.090161.694674.111189.767409.127883.805929.144105.843261.159858.879404.175139.91436.179665.897963.0794.386012.2646 1.250988.271 1.225.040137.182624c.051784.230129.104491.462327.158098.696541l.120765.526835.187.794.188.797.406067 1.673676.441216 1.771933.384717 1.512391.192.746.232.891.189.721.632062 2.378748.696938 2.572252.942181 3.409597.368819 1.312403.990351 3.502276 1.242649 4.315724.836 2.875.274.941 1.664 5.645.212.716 5.642644 18.904789.082356.280211.084541.281275.372459 1.263725.802921 2.711921.068079.234079.093657.316838.253343.873162.40269 1.375152.08731.305848.122868.420102.129132.454898.406964 1.413157.134036.476843.109989.383163.399011 1.422837.181196.643869c4.21844 14.687612 12.602006 23.933788 29.527792 27.049144l18.579901-8.567908 18.119526-8.475915 14.757785-6.882991 13.737783-6.386674 10.966065-5.080387 11.852808-5.468873 7.847736-3.604978 7.333724-3.354455 5.49775-2.503552 6.411726-2.904878 4.761809-2.14459 4.435789-1.985501 2.095842-.933179 2.465038-1.090567c-4.597413-4.257843-7.851215-9.388633-9.877904-15.461275l-.197027-.600064-.188602-.594695-.180308-.590417-.172142-.58723-.164109-.585134-.156204-.584129-.14843-.584216c-.024097-.097437-.047877-.194923-.07134-.292481l-.137013-.586391-.129565-.589204-.122246-.59311-.115058-.598106-.107999-.604192-.101073-.61137-.094274-.61964-.087607-.629-.08107-.63945-.074662-.650993-.068386-.663626-.062239-.67735-.056222-.692166-.050337-.708072-.04458-.725069-.038954-.743157-.048167-1.151039-.025459-.793152-.020288-.815059-.021023-1.26605-.010123-1.321478v-1.380588l.016305-1.939098.023041-1.532832.032037-1.604216.055952-2.256361.070124-2.398541.227576-6.878298.097557-3.490961.040342-1.930872.025709-1.826469.011731-1.683198.009197-5.835854.036817-7.846208.075905-9.81348.125106-12.119038.201745-16.003532.304127-20.749491.463059-28.049171zm226.560794 161.707487-.363057.260416c-.365305.259585-.736445.510703-1.113519.753475-3.991336 2.56975-8.374158 4.03102-13.409218 4.733896l-.629381.084424-.621877.076308-.619195.068572-.621333.061214-.628293.054234-.640074.047634-.992745.059902-.690617.032789-1.091159.039409-1.171901.028818-.83416.013958-1.34263.014004-1.466762.00682-3.278306-.00087c-1.694005 2.781728-3.455199 5.248965-5.299057 7.400854.940687-.036196 1.910058-.090963 2.906495-.163864l1.217576-.09695c2.256363-.193942 4.645423-.477013 7.166014-.849649l1.387904-.212141 1.413951-.229921 1.439955-.247719c.484315-.08554.972956-.174049 1.465918-.26553l1.491837-.283358c.250797-.048713.502673-.09817.755626-.14837l1.530638-.31013 1.556453-.327997 1.582226-.34588 1.607956-.363779c.497114-.11432.997852-.231168 1.50221-.350546l.156124-.165222c1.05184-1.129597 2.073762-2.281423 3.064051-3.456674.584309-.693451 1.157256-1.394619 1.718853-2.104178.292129-.369098.581117-.740373.866985-1.113953.678528-.886711 1.339643-1.78663 1.982512-2.699996zm-160.03001 6.940665-.482771.540843-1.516013 1.673005 3.237933.113162 18.66738.705793 72.345423 2.882427 1.632264.059618 1.130918-.772209 1.559556-1.076368 1.51492-1.054786 1.46782-1.031216 1.418257-1.005654 1.810715-1.298457.728814-.53131-.680379-.005673-16.31417-.195884-16.190663-.235199-10.865872-.179896-18.216357-.345909-10.31002-.226069-8.821099-.216994-7.355428-.203818-6.597106-.208667-2.39916-.084523-3.44876-.133265c-.736755.969549-1.509198 1.913919-2.316202 2.831049zm-36.403341-172.270183c-3.310995.254698-6.699328.565008-10.165.930932.050566.444495.073258.896881.064882 1.355927l-.511215 29.094646-.34876 21.656821-.262149 18.088926-.176011 13.871916-.139964 13.326437-.066001 8.189113-.033859 5.782647-.021064 6.680396-.003275 3.086703-.017102 2.207012-.03008 1.94029-.056281 2.483086-.112082 3.78838-.20526 6.202629-.07296 2.612102-.053158 2.401685-.021919 1.346114-.017078 1.690677-.00338 1.19401.008529 1.499374.010015.712097.013945.688289.017948.665419.022024.643489.026172.622498.047194.896441.036859.574126.063566.828285.048001.531624.052584.516265.08763.747655.09835.718381.071645.464221.116764.676632.084146.439323.089275.431006.143685.632971.155632.619539.110512.40713.116003.403508.121566.400825.127202.399081.065737.19918c1.855875 5.560826 5.653728 9.366191 13.614875 12.462562 1.331074-.351466 2.95188-.662821 4.56637-.884635l6.849593-7.568357c-4.669539-1.353061-8.013874-3.360481-10.753727-6.457549-2.877284-3.252416-4.337203-7.093497-4.959755-11.785078-.048486-.365394-.09187-.721041-.13067-1.076006l-.066383-.654955-.059073-.696389-.033938-.478046-.029864-.494037-.026034-.514282-.032402-.818684-.017523-.583499-.020772-.942446-.018686-1.40436-.008318-1.182699-.005056-1.776796v-2.084389l.027049-4.947546.128939-14.055765.188039-16.77519.620917-49.267991zm175.989557 5.362031.242647 2.683884.432837 4.935927.308952 3.63147.391025 4.748062.367117 4.640829.343196 4.533684.241692 3.33.228226 3.269815.214754 3.209668.201278 3.149556.187796 3.089481.174311 3.029443.160819 2.969441.147323 2.909475.133823 2.849547.081712 1.866422.11131 2.749745.0667 1.799922.088784 2.650047.075262 2.590276.061735 2.530541.048204 2.470844.034667 2.411183.015588 1.574327.012095 2.311829-.001456 2.252264-.0085 1.468436-.024049 2.153072-.023567 1.402341-.029597 1.375924-.035627 1.349515-.04166 1.323118-.047694 1.296731-.053728 1.270356-.059766 1.243991-.065803 1.217637c-.948039 16.591541-3.209347 34.579898-6.778564 53.97297l.303605-.005114.75163-.022343 1.059854-.042487.663589-.034616.630872-.039897.599581-.045389.569718-.051095.541283-.057011.514274-.06314c.083541-.011046.166017-.022356.247456-.033935l.476439-.072732.452999-.079391c.220878-.041396.433501-.085369.638673-.132038l.400646-.096968c.065198-.016772.129627-.033853.193318-.051246l.373517-.108151.357215-.115871c.291283-.099834.567072-.207932.831084-.324844l.311399-.144562c.102074-.049622.202502-.100689.301521-.153237l.29307-.162124.286047-.171222c.047169-.029308.094104-.059003.140836-.08909 2.007267-1.292343 3.875952-3.673743 5.585582-7.593733l.291518-.687154c.144976-.351197.288774-.713886.431383-1.088351l.283627-.764715.28043-.796621c.046471-.135456.092808-.272264.13901-.410432l.275593-.845421.272339-.878586c.090235-.298445.179924-.6025.269063-.912251l.265763-.946422.26244-.981095c.043462-.166433.086785-.334332.129967-.503707l.257414-1.034048.254035-1.06998.125742-.548621c.142518-.629131.285179-1.269449.427909-1.920421l.428318-1.984349c.071396-.335874.142789-.674279.214172-1.015148l.428083-2.074245c.0713-.350458.142569-.703247.213799-1.058299l.42683-2.156952.425428-2.208093.423573-2.256038c.070416-.379824.140735-.761513.210949-1.144999l.419942-2.321963.416955-2.361916c.069218-.396805.138293-.795141.207215-1.194942l.411625-2.415854c.068274-.405395.136376-.812121.204296-1.220113l.405277-2.462599c.067158-.412786.134117-.826705.200866-1.241688l.397909-2.502153.392431-2.524527.386499-2.543703.380117-2.559684.373279-2.572469.36599-2.582056.358248-2.588447.350053-2.591642.341404-2.59164.332304-2.588442.322749-2.582048.312743-2.572456.302284-2.55967.29137-2.543685c.047628-.422438.094781-.844077.141452-1.26485l.274153-2.513716.262108-2.489741.249611-2.462569.23666-2.432202.223256-2.398637c.072135-.793596.14196-1.581066.209401-2.361876l.195091-2.321919c.031297-.383479.06198-.76516.092038-1.144977l.172778-2.255989.157337-2.208042c.024911-.363833.04916-.725536.072737-1.085041l.133325-2.130125.085581-1.539233.059035-1.516811.105954-3.760678.106975-4.888047.17405-9.798083.14269-9.427787c.002709-.189578.010677-.377849.023763-.564676l-7.07248-.289589-1.614532-.073623-1.649407-.082099-2.25091-.125814-1.725044-.108992-2.056839-.145635-2.095321-.13901-3.513749-.202023-2.585947-.135293-5.347589-.259568zm-104.632076-2.202541-.690295 6.441035-.517687 4.744945-.690215 6.212193-.690188 6.08149-.517631 4.475373-.690174 5.852875-.690184 5.722303-.517653 4.206067-.690235 5.493914-.517708 4.03483-.690328 5.265669-.517793 3.863701-.345221 2.535072-.517873 3.741531-.517929 3.668257-.34532 2.404806-.518035 3.546176-.690825 4.614336-.690965 4.484212-.691119 4.354133-.518448 3.180265-.518548 3.107142-.518654 3.034039-.518766 2.960956-.518883 2.887893-.345989 1.884681-.346047 1.852223-.346104 1.819771-.346164 1.787326-.346226 1.754885-.519457 2.571516-.346387 1.673811c-.057736.276266-.115476.551182-.173218.824747l-.418966 1.955067-.394628 1.776641-.280447 1.23049-.44673 1.914923-.3152 1.322798-.329111 1.35979-.519763 2.109129-.551094 2.192579-.783565 3.053475-.624278 2.387804-.881212 3.314251-.785661 2.899421 3.693682.115666 5.179441.145822 5.541013.143095 5.855376.139837 6.122528.136046 7.95692.16392 11.541475.216168 11.781305.198051 11.768119.177087 9.884674.132944 7.972878.096128 7.634204.081695 9.943353.088149.047388.000047c3.717078-19.47479 6.074074-37.406789 7.07694-53.787226l.108285-1.864737.05887-1.158783.053084-1.186022.047297-1.213248.060088-1.870899.03282-1.281269.027027-1.308457.029675-2.013642.016632-2.074756.003585-2.135835-.004861-1.457804-.018171-2.23755-.031232-2.298531-.044298-2.359475-.057368-2.420383-.070443-2.481255-.083523-2.542089-.062951-1.728505-.105334-2.643399-.160813-3.619006-.135892-2.785063-.148997-2.845716-.162106-2.906331-.17522-2.96691-.18834-3.027453-.201464-3.08796-.289042-4.211337-.232106-3.228999-.162037-2.186215-.254009-3.329619-.45257-5.683401-.388369-4.667255-.411769-4.774302-.435183-4.881264c-.037241-.411226-.074726-.823566-.112456-1.237018-.048788-.534646-.054547-1.063296-.020129-1.582524l-8.498165-.347276-44.821833-1.725688-31.259073-1.221641c.056164.636036.051926 1.286758-.017981 1.945647zm-49.979027-4.034297-1.102583.003258c-.088026.000462-.17612.000974-.264281.001533.000182.044121-.000137.088183-.000742.132308l-.798961 59.55192-.477955 38.029595-.233071 20.628327-.116895 12.650182-.031056 5.59015.001634 3.152154.014308 1.994391.023067 1.345447.044045 1.312522.040882.733603.037437.4949.028425.309843.048156.442954.03597.285618.063762.431581c.021753.132146.043912.252704.066197.362052l.066949.294794.017248.068007.011596.005215c.353866.172345.870657.363056 1.567512.558272l.269794.07339.246277.063471.518325.124014.553394.120156c.095203.019708.191902.039257.290116.058649l.607598.114476.6448.11076.682855.1071.72176.103499.761519.099954.802131.096465.843594.093033.061422.006338c.211812-.615261.404531-1.238004.577691-1.867375l.706037-2.583735.892822-3.313259.633176-2.385996.795616-3.049166.740014-2.897859.684374-2.746265.476742-1.96004.586907-2.48028.403596-1.760222.251634-1.125799.351294-1.617088.336056-1.592376.504353-2.450299.336412-1.674681.504879-2.57373.336758-1.75695.50539-2.697106.505688-2.771105.505982-2.845084.506268-2.919043.337669-1.987108.506734-3.042265.507006-3.116171.507272-3.190058.507532-3.263925.338496-2.216977.507953-3.386992.508198-3.460805.338932-2.348201.678176-4.794771.508898-3.682128.50912-3.755861.679162-5.122479.509615-3.927832.339856-2.659482.850024-6.79191.510269-4.173314.510451-4.246916.51063-4.320498.510802-4.39406.510967-4.467603.511129-4.541125.681744-6.169167.682005-6.299792.341097-3.198865c.023768-.224018.05476-.44552.092719-.664299l-5.092355-.229511-5.512222-.271178-3.654216-.199338-3.248213-.20011c-4.0548-.242626-8.280256-.362537-12.676368-.359732z"/></svg>