<svg height="960" viewBox="0 0 960 960" width="960" xmlns="http://www.w3.org/2000/svg"><path d="m458.385346 4c.567321 0 1.133256 0 1.697805.01041787l3.370666.01853317 3.337432.02781751 3.304229.03711386c.54794.006961 1.094498.01430985 1.639674.0220468l3.254484.05108087 3.22136.06040723c.534134.01084573 1.06689.02208056 1.598268.03370474l3.171731.07441926c.525868.01318257 1.050358.02675499 1.573472.04071751l3.122174.0884583c.517611.01552391 1.033848.03143842 1.54871.04774378l3.072686.10252435 3.039734.11191671 3.006813.12132109 2.973922.13073746c.492915.02257494.98446.04554273 1.474637.06890362l2.924646.14488453c.484706.02493429.968044.05026218 1.450017.07598391l2.875439.15905861c.476509.02729814.951652.05499062 1.425431.0830777l2.826304.1732597 2.793585.18274208c.462873.03124788.924384.06289136 1.384534.09493069l2.744566.19698819c.909414.06724746 1.813388.13608032 2.711927.20650059l1.221408.09670987.670712-.24038238c3.928966-1.37041511 8.137221-2.14523088 12.516619-2.22161762h123.661669c22.09139 0 40 17.90861 40 40v803c0 18.335854-12.337241 33.79019-29.163473 38.514759l-.590527.159241-.613199.755897c-16.843149 20.536842-39.850374 36.428919-68.271708 47.675138l-1.124705.441516c-26.060944 10.149284-56.827562 16.547222-92.398192 19.423673l-2.81819.219776c-10.369973.779052-21.142714 1.263527-32.32061 1.459001-50.845966.889173-93.379276-4.492333-127.863346-16.68377-37.966863-13.422738-66.654861-35.350731-84.219495-65.809358-3.504189-6.076574-5.348809-12.967804-5.348809-19.982367v-789.2118547c0-16.010669 9.54711-30.4788948 24.267375-36.7761408 37.294102-15.9542053 94.421406-23.1855105 173.429649-23.1855105zm60.6144 310.875-70.882101.000958-3.631679.011687-3.685412.025655c-.412475.003627-.825945.007512-1.24041.011656l-2.498729.027969-3.792862.053595-3.846578.067567-2.594225.052806-2.618095.059017-3.971894.100169-2.677761.074543-2.701626.080754-2.725487.086965-2.749348.093177-2.773206.099389-4.204542.160731-2.832846.114919-4.293992.184029-4.347656.198008-4.401313.211988-4.454965.22597-2.99978.158415-4.544372.249274-4.598008.263258-4.65164.277244-4.705264.291228-3.166632.201923-4.794627.31454-4.848237.328529-6.5477.459798-4.973305.361171-6.714436.503325-6.809696.5282-5.169777.412476-6.976368.571737-5.294765.445131-5.348323.459127c-.597233.051792-1.195458.103843-1.794675.156153-.291627.025458-.581421.03813-.86883.038481l-.000838 530.336944c24.957422 43.278375 83.868173 64.105578 176.732254 62.48161 77.636539-1.357675 131.438871-17.575458 161.406995-48.653346l-96.406995-.00177c-11.045695 0-20-8.954305-20-20zm143.000254-270.875h-123l.001678 3.9959374c-.000332-.0000387-.000665-.0000774-.000998-.0001161l-.00068 799.0041787h123zm-29.333333 439v75h-66.666667v-75zm-176.128649-439h-3.787515c-72.858387.1337431-124.685973 6.7869614-155.482757 19.9616513v238.8363487l6.409275-.551029 5.395605-.453389 5.341095-.439011 5.286591-.424631 5.232091-.410249 5.177599-.395868 3.421462-.255921 6.770281-.492664 5.014156-.352717 6.600811-.44791 4.88707-.319148 4.832614-.304761 4.778165-.290371 3.155195-.185587 4.687428-.266389 3.094711-.169597 4.596707-.242402 3.034236-.153606 4.506003-.218414 2.973772-.137613 4.415316-.194423 2.913319-.121617 2.88914-.115219 2.864964-.108821 4.25212-.151232 2.80453-.092823 4.161478-.127234 2.744108-.076823 4.070851-.103233 2.683697-.060821 3.980242-.07923 2.623296-.044818 3.889649-.055224c.429164-.005336.857321-.010404 1.284472-.015207l3.817186-.036017 2.514602-.016008 3.726623-.012006 70.90154-.000967v-248.77l-.881903-.0662564c-.20495-.0151018-.41022-.0301197-.615813-.0450537l-.617743-.0445504-2.490272-.1731673-2.521153-.1651131-2.552035-.1570587-2.582915-.1490045-2.613796-.1409502-2.644678-.1328959c-.443353-.0214781-.887993-.0426206-1.333919-.0634275l-2.690999-.1208145-2.721881-.1127601c-.45622-.0181222-.913726-.0359087-1.37252-.0533597l-2.768202-.1006787c-.46394-.0161086-.929167-.0318816-1.395681-.047319l-2.814524-.0885973-2.845404-.0805429-2.876286-.0724887c-.481954-.0114102-.965195-.0224849-1.449723-.0332239l-2.922607-.0604073-2.953489-.0523529c-.494821-.0080543-.990929-.015773-1.488324-.0231561l-2.99981-.0402715-3.030691-.0322171-3.061572-.0241629-3.092454-.0161086z"/></svg>