<svg id="boiler" enable-background="new 0 0 300 300" height="512" viewBox="0 0 300 300" width="512" xmlns="http://www.w3.org/2000/svg"><g><circle cx="72" cy="202" r="4"/><circle cx="256" cy="110" r="4"/><path d="m52 226c-6.617 0-12 5.383-12 12s5.383 12 12 12 12-5.383 12-12-5.383-12-12-12zm0 16c-2.205 0-4-1.793-4-4s1.795-4 4-4 4 1.793 4 4-1.795 4-4 4z"/><path d="m253.656 63.656c1.023 0 2.047-.391 2.828-1.172 1.562-1.562 1.562-4.094 0-5.656l-2.828-2.828 2.828-2.828c1.562-1.562 1.562-4.094 0-5.656s-4.094-1.562-5.656 0l-2.828 2.828-2.828-2.828c-1.562-1.562-4.094-1.562-5.656 0s-1.562 4.094 0 5.656l2.828 2.828-2.828 2.828c-1.562 1.562-1.562 4.094 0 5.656.781.781 1.805 1.172 2.828 1.172s2.047-.391 2.828-1.172l2.828-2.828 2.828 2.828c.781.782 1.805 1.172 2.828 1.172z"/><path d="m202.748 46h-23.291c-1.782-6.981-8.018-12-15.457-12h-12c-7.436 0-13.673 5.019-15.456 12h-23.292c-16.129 0-29.252 13.121-29.252 29.25v137.5c0 16.129 13.123 29.25 29.252 29.25h2.748v4h-8c-2.209 0-4 1.789-4 4s1.791 4 4 4h28.542c1.783 6.984 8.018 12 15.458 12h12c7.449 0 13.682-5.015 15.46-12h28.54c2.209 0 4-1.789 4-4s-1.791-4-4-4h-8v-4h2.748c16.129 0 29.252-13.121 29.252-29.25v-137.5c0-16.129-13.123-29.25-29.252-29.25zm-50.748-4h12c2.959 0 5.526 1.598 6.91 4h-25.821c1.384-2.402 3.953-4 6.911-4zm-40 124h-20v-48h20zm52 92h-12c-2.959 0-5.526-1.598-6.91-4h25.823c-1.383 2.403-3.95 4-6.913 4zm28-12h-68v-4h68zm10.748-12h-89.496c-11.719 0-21.252-9.531-21.252-21.25v-38.75h20v3.059c0 7.137 5.805 12.941 12.941 12.941h66.117c7.137 0 12.941-5.805 12.941-12.941v-3.059h20v38.75c.001 11.719-9.532 21.25-21.251 21.25zm-82.748-56.941v-70.117c0-2.727 2.217-4.941 4.941-4.941h66.117c2.725 0 4.941 2.215 4.941 4.941v70.117c0 2.727-2.217 4.941-4.941 4.941h-66.117c-2.724 0-4.941-2.215-4.941-4.941zm84-59.059h20v48h-20zm20-8h-20v-3.059c0-7.136-5.805-12.941-12.941-12.941h-66.117c-7.137 0-12.942 5.805-12.942 12.941v3.059h-20v-34.75c0-11.719 9.533-21.25 21.252-21.25h89.496c11.719 0 21.252 9.531 21.252 21.25z"/><path d="m143.756 165.203c-1.045 1.945-.316 4.371 1.629 5.418.604.324 1.252.477 1.891.477 1.426 0 2.805-.762 3.527-2.105 4.299-7.996 2.404-17.527-4.713-23.715-5.021-4.363-5.668-10.891-1.574-15.871l10.574-12.867c1.402-1.707 1.156-4.227-.551-5.629-1.703-1.406-4.227-1.16-5.629.551l-10.574 12.867c-6.783 8.25-5.705 19.852 2.506 26.988 4.297 3.734 5.441 9.187 2.914 13.886z"/><path d="m167.756 165.203c-1.045 1.945-.316 4.371 1.629 5.418.604.324 1.252.477 1.891.477 1.426 0 2.805-.762 3.527-2.105 4.299-7.996 2.404-17.527-4.713-23.715-5.021-4.363-5.668-10.891-1.574-15.871l10.574-12.867c1.402-1.707 1.156-4.227-.551-5.629-1.703-1.406-4.223-1.16-5.629.551l-10.574 12.867c-6.783 8.25-5.705 19.852 2.506 26.988 4.297 3.734 5.441 9.187 2.914 13.886z"/></g></svg>