<svg height="960" viewBox="0 0 960 960" width="960" xmlns="http://www.w3.org/2000/svg"><path d="m554.470654 332.046559c1.987551-.095981 3.979492-.043517 5.959234.156954 8.328081.843311 15.885129 2.98495 23.520479 8.307048 4.016823 2.799861 7.160768 5.839249 9.813304 9.204398l.113329.145041 313.203 79.963 10.92.000651c21.870476 0 39.64141 17.552229 40 39.338527v20.061674c0 18.564326-12.772853 34.688855-30.844332 38.938075l-428.590149 100.776149c-25.106765 5.903456-49.155668-13.146596-49.155668-38.938076l-.000851-16.845-273.646-104.288-107.4425223 9.934595c-4.071141.376425-8.0602513.128084-11.8705237-.667569l-.352954-.077026-.3709039-.049393c-11.4755946-1.607923-22.0663659-6.85224-30.6027713-14.727707l-.4322783-.40271c-10.0369734-9.44178-16.75088129-22.172652-19.20185039-36.072788-2.5587214-14.511231-.31425612-29.411251 6.54015429-42.059863 8.0311982-14.820169 21.9486831-25.709643 39.1651389-28.745369 5.2273943-.921731 10.4973416-1.058428 15.6719032-.451145l.2646075.032975zm363.528562 147.684441-427.242667 85.112557c-.450642.089773-.90024.147739-1.34647.175447l-.000228 24.980996 428.590149-100.776148zm-309.208911-83.317746-.279207.020125-439.555098 25.623621 15.457089 5.961935c1.627331.627657 2.996665 1.634406 4.046053 2.880507l299.444074 114.118558 398.072-79.3-274.244577-70.015483c-.916671.376572-1.9041.621708-2.940334.710737zm-544.2299711-.661778c-2.0765786-.597324-4.2459032-.743333-6.4199174-.359996-9.4127037 1.659714-15.34892 12.61396-13.2589103 24.466994 1.311569 7.438277 5.47226 13.462892 10.7158552 16.508682 2.5969037 1.096711 5.3900322 1.481482 8.190945.987606 9.4127036-1.659714 15.34892-12.61396 13.2589102-24.466995-1.4132832-8.015127-6.1347317-14.388826-11.9545172-17.162822zm491.8397161-23.751476-465.0230311 22.455961c2.5683468 4.517069 4.4176297 9.578367 5.3663528 14.958843 1.6629556 9.43109.3904642 18.887009-3.3135136 26.894531l45.8973579-4.244335-20.67051-7.972046c-9.935046-3.831918-7.766181-18.391924 2.697013-19.290111l.319602-.023011 442.476895-25.794832.000182-1.582744c-1.031078-1.932603-1.999144-3.250034-2.904197-3.952293l-.168959-.124464c-.95325-.664448-2.512314-1.106281-4.677192-1.325499z"/></svg>