<svg id="Layer_1" enable-background="new 0 0 52 52" height="512" viewBox="0 0 52 52" width="512" xmlns="http://www.w3.org/2000/svg"><g id="_x37_6"><path d="m39.6 41.9c1 0 1.9-.4 2.6-1.1.6-.7 1-1.7.9-2.6s-.6-1.8-1.2-2.3c-.7-.5-1.6-.7-2.3-.5 1.5.4 2.1 1.7 2 2.7s-1 1.7-2 1.7c-.9 0-1.8-.7-2-1.7s.5-2.3 1.9-2.7c-.7-.2-1.6 0-2.3.5s-1.2 1.4-1.2 2.3c-.1.9.3 1.9.9 2.6.8.7 1.7 1.1 2.7 1.1z"/><path d="m19.3 40.7c.2.2.5.4.9.5.2 0 .3.1.5.1h.3 1.1 1.1.3c.2 0 .3 0 .5-.1.3-.1.6-.3.9-.5.2-.2.4-.6.5-.9 0-.2.1-.3.1-.5s0-.2 0-.3c0-.4-.1-.7-.1-1.1s-.1-.7-.1-1.1c0-.1 0-.4-.2-.7-.1-.3-.3-.5-.5-.6-.4-.3-1-.4-1.4-.3s-.7.2-1.1.3c.4.1.7.2 1.1.3s.5.2.7.4c0 .1.1.2.1.3s0 .2-.1.4c-.1.4-.1.7-.1 1.1s-.1.7-.1 1.1v.2.1s0 0-.1.1h-.1-.3-1.1-1.1-.3s0 0-.1 0c0 0-.1 0-.1-.1 0 0 0 0 0-.1v-.2c0-.4-.1-.7-.1-1.1s-.1-.7-.1-1.1c0-.2-.1-.3-.1-.4s0-.2.1-.3c.1-.2.3-.3.7-.4s.7-.2 1.1-.3c-.4-.1-.7-.2-1.1-.3-.3-.1-1-.1-1.4.3-.2.2-.4.4-.5.6-.1.3-.1.6-.1.7-.1.4-.1.7-.1 1.1s-.1.7-.1 1.1v.3c0 .2 0 .3.1.5 0 .4.2.7.4.9z"/><path d="m14.5 35.8c.4.1.5.2.7.4 0 .1.1.2.1.3s0 .2-.1.4c-.1.4-.1.7-.1 1.1s-.1.7-.1 1.1v.2.1s0 0-.1.1h-.1-.3-1.1-1.1-.3s0 0-.1 0c0 0-.1 0-.1-.1 0 0 0 0 0-.1v-.2c0-.4-.1-.7-.1-1.1s-.1-.7-.1-1.1c0-.2-.1-.3-.1-.4s0-.2.1-.3c.1-.2.3-.3.7-.4s.7-.2 1.1-.3c-.4-.1-.7-.2-1.1-.3-.3-.1-1-.1-1.4.3-.2.2-.4.4-.5.6-.1.3-.1.6-.2.7-.1.4-.1.7-.1 1.1s-.1.7-.1 1.1v.3c0 .2 0 .3.1.5.1.3.3.6.5.9.2.2.5.4.9.5.2 0 .3.1.5.1h.3 1.1 1.1.3c.2 0 .3 0 .5-.1.3-.1.6-.3.9-.5.2-.2.4-.6.5-.9 0-.2.1-.3.1-.5s0-.2 0-.3c0-.4-.1-.7-.1-1.1s-.1-.7-.1-1.1c0-.1 0-.4-.2-.7-.1-.3-.3-.5-.5-.6-.4-.3-1-.4-1.4-.3s-.7.2-1.1.3c.4.1.8.2 1.1.3z"/><path d="m47.8 46.2c1.6-.3 2.7-1.9 2.6-3.4 0-.2 0-.4-.1-.6 0-.1-.3-1.4-.3-1.3l-.4-1.7-1.4-6.9c-.3-1.4-1.8-2.5-3.2-2.4l-3.4.1c-4.7.2-9.3.3-14 .5 4.7.2 9.3.3 14 .5l3.5.1c.9 0 1.8.7 1.9 1.6 0 .1 1.7 9.6 1.6 9.5l.1.4v.3c0 .8-.6 1.5-1.3 1.7-.3.1-1 0-1.6 0-.2 0-5.6-.1-5.3-.1l-14-.1-14 .1c-.1 0-5.6.1-5.3.1-.3 0-.4 0-.6-.1-.2 0-.4-.1-.5-.2-.3-.2-.6-.5-.7-.9s-.1-.7.1-1.3c0-.1 1.3-7.2 1.2-6.9l.3-1.7c0-.3.1-.6.1-.8.2-.7.7-1.2 1.3-1.4.2-.1.4-.1.7-.1.1 0 4.7-.1 4.4-.1 4.7-.2 9.3-.3 14-.5-4.3-.2-8.6-.3-12.9-.5 1.2-3.7 1.1-9.7-.1-13.1-1.3 3.4-1.3 9.4-.2 13.1-1 0-4.9-.1-5.2-.1s-.7 0-1 .1c-1.1.3-1.9 1.1-2.3 2.2-.1.4-.1.6-.2.9s-1.9 9.2-1.8 8.6c-.1.3-.1.5-.2 1 0 .4 0 .8.1 1.2.2.8.7 1.4 1.3 1.9s1.5.7 2.2.6h1.6l-.1 1v.5c0 .2.1.6.2.9.2.4.7.8 1.2.9h.4c1.3.1 2.6.1 3.9.1s2.6 0 3.9-.1h.4c.5-.1.9-.4 1.2-.8.2-.3.2-.7.2-.9v-.5l-.1-1h6.4 7.4l-.1 1v.5c0 .2.1.6.2.9.2.4.7.8 1.2.9h.4c1.3.1 2.6.1 3.9.1s2.6 0 3.9-.1h.4c.5-.1.9-.4 1.2-.8.2-.3.2-.7.2-.9v-.5l-.1-1.1h.6c.8-.3 1.3-.3 2.2-.4zm-37.3 1.7c.1 0 .1 0 0 0zm8.1-.5v.5h-.1c-1.3-.1-2.6-.1-3.9-.1s-2.6 0-3.9.1h-.1v-.5l-.1-1h2.1 6.1zm25.1 0v.5h-.1c-1.3-.1-2.6-.1-3.9-.1s-2.6 0-3.9.1h-.1v-.5l-.1-1h5.1 3.1z"/><path d="m1.6 8.6c2-1.4 4.1-2.5 6.3-3.3 2.2-.7 4.5-1.1 6.7-1.1 2.3 0 4.5.4 6.7 1.1s4.3 1.9 6.3 3.3c-1.4-2-3.4-3.6-5.7-4.7s-4.8-1.7-7.3-1.7-5.1.6-7.3 1.7c-2.3 1.1-4.3 2.7-5.7 4.7z"/><path d="m14.6 7.4c-3.7 0-7.4 1.8-9.3 4.9 3-1.8 5.8-2.8 9.3-2.9 3.5 0 6.4 1.1 9.3 2.9-1.9-3-5.6-4.9-9.3-4.9z"/><path d="m14.6 12.6c-2.3 0-4.7 1.3-5.7 3.3 1-.4 2-.8 2.9-1 1.8-.4 3.7-.4 5.5 0 .9.2 1.9.6 2.9 1-.9-2-3.3-3.3-5.6-3.3z"/></g></svg>