<svg height="960" viewBox="0 0 960 960" width="960" xmlns="http://www.w3.org/2000/svg"><path d="m234.581071 37 1.567413.0107492c.841927.0063933 1.683442.0393674 2.523289.0988729l4.660974.3312778 9.226946.6620321 13.602993.9917536 11.118277.8252912 13.080995.9889673 10.683478.8230051 10.485976.8219898 10.288554.8209894 10.091216.8200036 9.89396.8190329 5.841728.49096 9.578523.8175106 7.520945.6533365 7.394881.6527476 9.066388.8151179 8.869562.8142243 5.227295.4881118 5.156485.4877988 6.765195.6499167 4.991331.4870806 8.161671.8111306 6.387891.6483095 6.262208.647789 4.731586.4979498c.526924.0558754 1.052444.1117452 1.57656.1676093l6.221979.6700995 4.578029.5022239 4.502233.5019272 4.426457.501634 4.3507.5013446 4.274963.5010585 4.199247.5007761 5.481247.6672684 5.346722.6667811 5.212244.6663022 5.077811.665832 3.720167.4990704 4.842669.6650291 3.543864.4984781 3.248179.4665299c.543556.0788112 1.088209.1581504 1.633958.2380176l4.941349.7330614 3.327129.5045465 3.353449.5172163 3.379767.5298849c.565488.0893697 1.132073.1792673 1.699754.2696927l3.419249.5488854 3.44557.5615509 3.471892.5742152 3.498215.5868783 3.524539.5995401 3.550864.6122008 3.577189.6248603 3.603516.6375185 3.629843.6501754 3.65617.6628313 3.6825.6754859 3.708829.6881393 3.735159.7007914 3.761491.7134423 3.787822.7260921c.633498.1220694 1.268093.2446658 1.903786.3677893l3.827322.7450644 3.853656.757711 3.87999.7703566 3.906327.7830008 3.932662.7956439 5.948377 1.2171689 3.998507.8272462 6.047148 1.2645666 4.064357.858841 4.090698.8714767 6.185439 1.3309044 4.156554.9030608 4.182899.9156923 4.209244.9283226 6.363264 1.4161631 4.27511.9598931 6.462067 1.463513 4.34098.991456 6.560877 1.5108516 6.620166 1.5392494 4.446384 1.0419407 4.472738 1.0545589 6.758519 1.6054947 4.538623 1.0860985c24.478457 5.881624 44.30286 23.831373 52.027744 47.682181l.066911.208536 189.287586 607.026001.128445.420011c10.023679 33.432393-8.472983 68.694467-41.500325 79.800805-.365527.123014-.732825.246117-1.101893.369308l-2.235663.740208-2.278185.74234c-.766485.247804-1.540062.495966-2.320734.744487l-2.363312.746644-2.405916.748814-2.448547.750996-2.491205.753191c-.418757.125715-.839293.251523-1.261607.377422l-2.555244.756506-2.597969.758731-2.640723.760968-2.683503.763219c-.450817.127391-.903418.254877-1.357802.382457l-2.747725.766616-2.790572.768896-2.833448.77119-2.876351.773494-2.91928.775813-2.962236.778141-3.005221.780484-3.048231.782838-3.09127.785204-3.134334.787583-3.177428.789975-3.220546.792377-3.263693.794794-3.306867.797221-3.350068.799662-5.106163 1.204094-3.458188.805816-5.268471 1.213384-3.566479.812047-3.609843.814561-3.653234.817087-3.696651.819625-3.740097.822177-3.783568.824739-5.756923 1.241942-5.854887 1.247778-5.952945 1.253655-4.02315.839056-6.116575 1.263543-4.132323.845686-4.176039.84836-6.346086 1.277579-4.285448.855098-4.32926.857814-9.657831 1.902951-7.17207 1.402871-9.467754 1.838046-4.69318.905118-6.988927 1.3403-9.223713 1.754634-4.571225.863419-6.806076 1.27776-6.745189 1.25692-8.89893 1.643483-8.790822 1.606448-4.354895.789339-6.481723 1.166655-8.547861 1.523152-6.340109 1.118077-4.193049.733822-8.305287 1.439898-4.112257.706077-8.143787 1.384418-4.031549.678342-5.996922 1.000182-5.936466.97939-5.876045.958599-3.883811.627518-5.775412.923958-7.6067 1.199618-5.634678.875475-5.574419.854702-5.514189.833933-3.642683.544418-5.413881.799326-5.35374.778566-5.29363.757809c-15.165222 2.154134-30.576844 2.1523-45.778693-.002018l-36.033066-5.104162c-24.345835-3.447436-44.626374-20.362292-52.493705-43.457025l-.145034-.434177-123.5 14.38-.182834.044222c-14.52286 3.390225-29.599621 3.416745-44.863091.258878l-.415075-.0881-158.7104551-24.830599c-25.4134519-3.970369-44.6520128-25.439168-45.6794778-51.140876l-.0255487-.780122-1.594148-62.269027c-.6792322-27.304854 19.400744-50.468923 46.4892978-53.762535l148.0383318-17.971841-91.375017-497.675516c-11.996848-63.38108 31.8593-122.2728646 96.545367-131.3734664 5.582602-.7850806 11.220822-1.1790176 16.870721-1.1790176zm-43.146543 52.70634-.055753.0141232c-23.473912 15.4939408-36.436045 43.2066508-30.911643 72.3928618l86.877613 473.173094c.449984.846197.784371 1.770792.978897 2.756532l.050414.275354 5.443586 32.224695 4.498216 24.498597.026731.161246c.108761.70979.101244 1.407166-.008418 2.073572l2.215173 13.110366c.731503 4.329946.825283 8.743649.278355 13.100758-3.064411 24.412707-25.146914 41.789985-49.515152 39.13166l-.739114-.086702-152.4387914-19.135497 1.4587749 56.810693c.1673184 6.553568 5.0789231 12.200095 11.5718843 13.370192l.320587.053921 159.8379382 25.006956c3.927545.877225 7.775357 1.426329 11.543657 1.647312 21.852706-3.012761 45.459609-17.736206 59.792899-39.328757 18.858858-28.299464 20.611086-78.990885 4.056516-151.643993l-.537645-2.343845-104.94828-483.745189c-2.689375-12.396316 15.276808-17.180834 19.230249-5.373794l.115476.362877 199.813944 661.712627.215053-.024198 1.199986-.591857 8.82471 30.46432c2.738154 9.476165 10.84178 16.518311 20.599508 17.900031l36.034988 5.104435c3.394187.481004 6.801265.81992 10.212403 1.016754l-.09654-.151876-.56486-.915275c-.471471-.77519-.94484-1.581544-1.420183-2.419159l-.571363-1.020151c-.095386-.172528-.190853-.346308-.286401-.521341l-.574259-1.065239c-.095874-.180048-.191829-.36135-.287866-.543907l-.577222-1.110411-.579234-1.140574c-.096708-.192612-.193501-.386481-.29038-.58161l-.582306-1.185888c-.097223-.200168-.194534-.401598-.291932-.604288l-.585444-1.231287c-.195501-.41548-.391356-.836011-.587572-1.261601l-.589729-1.291952-.591917-1.32234-.594133-1.352767-.596378-1.383231-.598653-1.413732-.600957-1.444272-.60329-1.47485-.605652-1.505464-.608044-1.536118-.610465-1.566807-.612915-1.597536-.615395-1.628302-.617903-1.659105-.620441-1.689946-.623008-1.720826-.625605-1.751742-.943339-2.685665-.632224-1.829199-.634922-1.860248-.63765-1.891334-.640407-1.922458-.643194-1.953621-.64601-1.98482-.648855-2.016057-.651728-2.047332-.983047-3.129722-.659042-2.125685-.662018-2.157092-.665025-2.188537-.66806-2.220019-1.007844-3.389141-191.252878-652.074958-.27268-.763566c-6.391813-17.682767-16.465622-34.53061-30.275595-50.563048l-.785687-.9066258c-10.68563-12.2321286-28.895576-15.3741412-55.72251-8.2884202zm70.791148-4.8620953c16.09878 18.4651803 27.85517 38.1286323 35.210055 58.9648423l.08648.255961.079534.258204 191.313249 652.28146.951568 3.200298.630434 2.095654.939667 3.086588.932412 3.018225.617535 1.97412.614245 1.943661.610931 1.91317.910127 2.812522.602533 1.836813.897409 2.697843.593976 1.760266.590507 1.729594.587014 1.698892.583495 1.66816.57995 1.637396.576379 1.606603.572784 1.575779.852377 2.305807.844142 2.236284.558143 1.45218.830226 2.120183.548785 1.374684.544998 1.343634.541184 1.312551c.089878.216167.179597.431037.269154.644611l.535416 1.265871.531538 1.234714.527635 1.203527c.087613.197987.175062.394673.262346.590058l.521733 1.156687.517765 1.125423c.085962.184963.171758.368623.257386.550978l.511767 1.07847c.084959.177134.16975.352963.254373.527484l.50571 1.031449c.083946.169294.167723.33728.25133.503957l.499596.98436c.082925.161441.165678.321573.248259.480395l.493425.937202c.245677.460734.4898.909665.732354 1.346775l.48301.858453c.080152.140447.160128.27958.239928.417397l.476685.811113c.158189.265107.315669.524947.472437.779516l.468162.747888c.233008.366031.464404.720191.694172 1.062462l.457364.668684c.151729.217607.30273.429925.453.636949 2.217902 3.059816 5.084414 5.310336 8.715028 6.703931l2.230673-.319486 5.288288-.769121 5.348717-.789821 5.40916-.81052 3.639693-.551847 5.509925-.845019 5.570402-.865719 5.63089-.886419 3.787537-.602446 7.655757-1.23249 3.868227-.630045 7.81717-1.28769 5.933517-.989917 8.005569-1.352088 6.074851-1.038216 6.135442-1.058915 8.274866-1.444086 8.382637-1.480886 6.35772-1.134814 4.272173-.768042 6.45881-1.169313 6.519481-1.190013 8.78704-1.618883 8.89495-1.655682 9.002891-1.692481 6.823021-1.293511 6.883767-1.31421 6.944525-1.33491 9.3539-1.812079 7.086341-1.383208 9.543035-1.876478 8.738277-1.732373 6.237642-1.251117 6.139649-1.244729 6.041644-1.238343 5.943632-1.231956 3.907964-.817756 5.780255-1.221311 5.682215-1.214923 3.733673-.806401 3.690093-.803563 3.646511-.800723 3.602924-.797885 5.322658-1.191505 3.493948-.790789 3.450352-.787949 3.406754-.785111 3.363153-.782273 3.319548-.779434 3.275942-.776595 3.232332-.773756 3.188719-.770918 4.701298-1.151054 3.079675-.763821 3.036052-.760983 2.992426-.758144 2.948799-.755305 2.905167-.752466 2.861533-.749628 2.817896-.74679 2.774256-.74395c.45874-.123755.91566-.247392 1.370763-.370911l2.708791-.739693c.447828-.123045.893838-.245972 1.338028-.368781l2.64332-.735435c.436916-.122336.872013-.244553 1.305291-.366653l2.577843-.731176 2.534187-.728338 2.490528-.7255 2.446868-.72266 2.403203-.719823 2.359537-.716983c.389617-.119261.777415-.238403 1.163393-.357427l2.294031-.712725 2.250357-.709887 2.206681-.707048 2.163001-.70421 2.119318-.701371 1.043278-.34962c12.675655-4.262533 19.74346-17.729402 15.943812-30.402528l-189.221817-606.817102c-3.381642-10.440919-12.226066-18.448759-23.319037-21.11415l-4.472689-1.070329-4.446069-1.05776-6.619183-1.563073-4.379502-1.026338-4.352869-1.013768-4.326232-1.001199-4.299592-.98863-6.399427-1.459379-4.232972-.957207-4.206318-.944638-4.179661-.93207-4.152998-.9195-4.126333-.906931-4.099663-.894362-6.099482-1.317976-4.032973-.86294-4.00629-.85037-3.979604-.837801-3.952914-.825233-3.926219-.812663-5.83927-1.195428-3.859467-.78124-3.83276-.768671-3.806049-.756103-3.779333-.743533-3.752615-.730964-3.725892-.718395-3.699165-.705826-3.672436-.693257-3.645701-.680688-3.618963-.668119-3.592221-.65555-3.565476-.64298-3.538727-.630412-3.511973-.617843-3.485217-.605273-3.458456-.592704-3.431691-.580136-3.404923-.567566-3.378151-.554997-3.351374-.542428-3.324595-.529859-3.297812-.51729-3.271024-.504721-3.244233-.492152-3.217438-.479583-3.190639-.467014-3.163836-.454444-3.439165-.48375-3.51398-.484203-3.588797-.484656-3.663615-.4851107-3.738434-.4855638-3.813256-.4860174-3.888078-.4864709-3.962903-.4869246-4.037728-.4873781-4.112557-.4878317-4.187385-.4882852-4.262216-.4887389c-.716606-.0814943-1.436329-.1630074-2.159171-.2445395l-4.374465-.4894192-4.4493-.4898728-4.524136-.4903264-4.598974-.4907799-7.038786-.7370204-4.786076-.4919139-4.860919-.4923674-4.935764-.4928211-5.010611-.4932746-5.085459-.4937282-5.160308-.4941817-5.23516-.4946354-5.310013-.4950889-8.105372-.7434839-8.2738-.7445043-5.60944-.4969033-8.554525-.7462053-5.796595-.4980372-8.835265-.7479062-5.983761-.4991711-6.058629-.4996247-6.133499-.5000783-9.340634-.7509678-9.509102-.7519885-9.677574-.7530089-9.846052-.7540295-10.014535-.7550501-10.183023-.7560706-8.226327-.6028506c2.352599 1.9135624 4.562983 4.0515641 6.628766 6.4163217zm11.778324 319.4897553 51.690185 238.259619c18.041673 77.921672 16.506308 134.014062-5.701511 168.404194l-.679293 1.035482c-5.408011 8.14697-11.894677 15.503289-19.101361 21.888156l99.996622-11.645451zm-34.769358 299.947-168.8460004 20.497 142.6757494 17.910225c13.699611 1.719648 26.199389-7.992032 27.919036-21.691643.278528-2.218898.257961-4.464215-.060426-6.675893l-.094216-.602306z"/></svg>