<svg height="960" viewBox="0 0 960 960" width="960" xmlns="http://www.w3.org/2000/svg"><path d="m617.991312 43.6013406 232.49956 4.8938397c21.758528.4579912 39.158234 18.2277944 39.158234 39.9911419v694.0566338c0 20.322547-15.238754 37.415058-35.428119 39.737864l-232.49956 26.749307c-7.138375.821277-14.366176-.295468-20.923809-3.232873l-60.879344-27.271149c-3.851999 16.276616-17.670537 28.852383-34.974154 30.570438l-332.498403 33.01335c-10.798409 1.072161-21.569031-2.288957-29.841122-9.312324l-52.6430978-44.696292c-8.9513029-7.600047-14.1109953-18.749446-14.1109953-30.491957v-259.003753c0-21.549538 17.071334-39.225742 38.6078161-39.975765l241.261791-8.402111c1.241367-.043232 2.484075-.028617 3.724082.043795l135.436311 7.908996.000317-400.6398367c0-19.5112529 14.076932-36.175731 33.313662-39.4372018l82.268727-13.9481628c2.486296-.4215365 5.006885-.6070088 7.528104-.5539401zm-502.14081 505.3091414v248.698838l42.643 36.205162v-274.293zm160.284 8.561-97.6409 3.847518v269.944l97.712139-9.701894c-.046446-.390947-.070337-.788812-.070337-1.192257zm214.8581-8.464482-194.8581 7.676482v262.899l194.8581-19.346482zm136.1569-465.2045176v724.3389996l42.067538-4.839506c-.000218-.007355-.000428-.014712-.000631-.022071l-.003841-.279905-.000066-718.3125176zm-20 1.485-72.268683 12.2531629.000739 419.8097627c3.876569 6.170349 6.110444 13.464305 6.110444 21.255159l-.0005 236.571915 66.158 29.635zm82.063-.179v715.8929996l160.436604-18.458526v-694.0566338zm-292.712502 490.8915176c50.356885 0 90.294118 48.743905 90.294118 108s-39.937233 108-90.294118 108-90.294118-48.743905-90.294118-108 39.937233-108 90.294118-108zm-4.794118 28.235294c-35.754374 0-65.5 35.36566-65.5 79.764706s29.745626 79.764706 65.5 79.764706c35.754375 0 65.5-35.36566 65.5-79.764706s-29.745625-79.764706-65.5-79.764706zm-34.593589-74.031838-204.933791 7.137026 17.346 4.316 229.13-9.028zm277.347811-426.221937 23.406016 1v60.480123h-23.406016z"/></svg>