<svg height="960" viewBox="0 0 960 960" width="960" xmlns="http://www.w3.org/2000/svg"><path d="m490.790548.72588909 5.290663.01172294 3.902414.01907726 5.115956.03919536 5.016432.05497207 2.470964.03342007 3.659962.05756764 3.604263.06651401 3.54866.07548437 4.645215.11464119 3.419287.09650851 2.248803.06936548 3.327193.11160571 4.350515.16295224 3.198703.13285375 3.143795.14200004 3.088979.15117032 2.028915.10588665 2.004622.10998011 1.980359.11408066 2.925105.17882508 2.870669.18809133 1.883584.13055397 2.780154.20358836 1.823328.14090755 1.799275.14506141 2.653874.22539618 1.739264.15547718 2.56399.24105315 1.679429.16593738 1.655544.1701339 2.438594.26308486 1.595954.18065629 1.572168.18487769 1.548409.18910619 1.524679.1933418 1.500976.19758452 1.477301.20183435c31.138222 4.33334854 54.315727 30.96031084 54.315727 62.39875494v809.3768784c0 2.775441-.288862 5.543344-.86192 8.258979-3.337629 15.816533-11.861903 29.49639-24.414254 40.201121-10.44515 8.907697-23.369094 15.563143-38.66119 20.502846-5.497442 1.775802-11.3704 3.348816-17.626692 4.725171l-1.797949.387898-1.818852.377228c-1.829317.371902-3.690048.727846-5.582375 1.067975l-1.902866.334862-1.923971.32435-1.945116.313869c-.325951.05144-.652784.102445-.980501.153015l-1.97691.298209c-.993764.146502-1.995495.289103-3.005217.427822l-2.030103.272266-2.051451.261945-2.07284.251656c-.347258.041087-.695409.081746-1.044454.121979l-2.104999.23628-2.126488.226071-2.148019.215891-2.169591.205745c-.726796.066895-1.457194.132103-2.191201.195631l-2.212854.185547c-.741231.060172-1.486077.118668-2.234546.175495l-2.256279.165476c-.755719.053492-1.515068.10532-2.278052.155488l-2.299867.145532c-.385131.023427-.771173.046441-1.158126.069042l-2.332664.130657c-.390603.020953-.782118.041493-1.174548.061623l-2.365552.115854-2.387528.106025-1.202018.049337-2.420569.091341c-.405267.01441-.811453.028414-1.218561.042012l-2.4537.076728-2.475838.067026-2.498017.057356-2.520237.047718-2.542496.03811c-.425607.005553-.852143.010707-1.279608.015463l-2.575963.02376c-.431189.003165-.86331.005934-1.296364.017787h-6.543409l-2.598324-.017787c-.431189-.003165-.861447-.006727-1.290773-.010687l-2.564797-.028536-2.542497-.03811-2.520236-.047718-2.498017-.057356-2.475839-.067026-2.4537-.076728c-.814214-.027197-1.624746-.056016-2.431602-.086462l-2.409545-.096228-2.387528-.106025c-.396089-.018489-.791262-.037387-1.185521-.056696l-2.354579-.120781-2.332664-.130657c-.773907-.045202-1.544167-.092055-2.310789-.140566l-2.288955-.150505c-.75935-.051829-1.515068-.10532-2.26716-.160478l-2.245408-.170482c-.744848-.058498-1.486077-.118669-2.223694-.180517l-2.202023-.190585c-.3652-.032605-.729499-.06563-1.092897-.099078l-2.16959-.205745-2.148019-.215891-2.126489-.226071-2.104998-.23628c-.349045-.040233-.697196-.080892-1.044454-.121979l-2.07284-.251656-2.051451-.261945-2.030104-.272266c-.336573-.04624-.672259-.092911-1.007058-.140014l-1.998158-.287808-1.97691-.298209c-.327717-.05057-.65455-.101575-.980501-.153015l-1.945116-.313869c-.644846-.106369-1.286167-.214483-1.923971-.32435l-1.902866-.334862c-1.892328-.340129-3.753058-.696073-5.582375-1.067975l-1.818852-.377228c-6.932177-1.466471-13.403633-3.168143-19.424641-5.113069-15.292096-4.939703-28.21604-11.595149-38.661191-20.502846-12.55235-10.704731-21.076624-24.384588-24.414253-40.201121-.573058-2.715635-.861921-5.483538-.861921-8.258979v-808.350787c0-31.853151 23.772356-58.6963133 55.393207-62.54290808.365981-.04451285.732973-.08877113 1.100976-.13277496l2.220166-.26097028 2.244464-.25486817 2.268776-.24877088 2.293103-.24267843 2.317442-.23659082 2.341796-.23050806 2.366165-.22443012 2.390548-.21835702 2.414944-.21228877 2.439355-.20622536 2.463779-.20016677 2.488219-.19411303 2.512671-.18806413 2.537139-.18202006 2.56162-.17598084 2.586115-.16994645 2.610624-.16391689 2.635148-.15789219 2.659685-.15187231 2.684237-.14585727 2.708803-.13984708 2.733383-.13384171 2.757977-.12784119 2.782585-.12184551 2.807207-.11585467 2.831843-.10986865 4.293989-.15358981 2.893496-.0949248 2.918181-.08895574 2.942881-.08299149 2.967595-.0770321 2.992323-.07107754 4.534879-.09546209 3.054205-.05621231 3.078981-.05027468 3.103773-.04434189 4.702174-.05539945 4.758034-.04207789 4.813941-.02877266 4.869897-.01794376zm107.72733 892.44670791-.921063.393085c-27.387294 11.617815-66.63847 17.242056-117.955573 17.242056-51.893919 0-91.449138-5.751387-118.874594-17.636088 16.849916 17.03615 56.475462 25.553751 118.874594 25.553751s102.024678-8.517601 118.876636-25.552804zm-103.952221-852.4467314h-9.817244l-3.105257.0168638-4.611939.0270319-3.043997.0249525-4.520048.0478257-4.464915.0603019-2.945979.0471326-2.921474.0526776-2.896971.0582225-2.872466.0637676-2.847962.0693126-2.823458.0748576-4.189241.1226832-4.134106.1351596-2.725441.0970376-4.042215.1559533-2.66418.1109001-2.639676.1164451-2.615171.1219902-2.590667.1275351-2.566163.1330802-3.803298.2100171-2.504902.1469427-2.480398.1524876-2.455894.1580327-2.431389.1635777-2.406885.1691227-2.38238.1746677-2.357877.1802127-2.333372.1857577-2.308868.1913027-2.284363.1968477-2.259859.2023928-2.235355.2079377-2.210851.2134828-2.186346.2190277-2.161842.2245728-2.137338.2301177-2.112834.2356628-2.088329.2412078-2.063825.2467527c-11.543846 1.4042791-20.222671 11.2041794-20.222671 22.8331253l.00042 796.7771686c.878935.286811 1.732525.701292 2.534849 1.248347 22.731402 15.499134 64.532196 23.609377 125.007762 23.609377s102.27636-8.110243 125.007762-23.609377c.802629-.547263 1.656563-.961852 2.535852-1.248675l-.000584-797.8005324c0-11.4776433-8.46161-21.1985869-19.829698-22.7806263l-1.346915-.1838678-2.067143-.268837-2.123266-.2604793-1.446692-.1690098-2.216807-.24655-2.272932-.2381924-2.329056-.2298347-1.583884-.1485801-1.608828-.1448655-2.460013-.2103336-1.671189-.1355793-2.553554-.1964042-2.609677-.1880466-2.665802-.179689-2.721927-.1713314-2.778051-.1629737-1.883214-.104006-2.871591-.1490444-2.927716-.1406867-2.98384-.1323291-3.039965-.1239714-2.057823-.0780046-3.133505-.110042-3.18963-.1016845-3.245754-.0933268-3.301878-.0849692-2.232432-.0520031-3.395419-.0710398-2.294793-.0427168-4.664417-.07429-3.563792-.0459669-4.839027-.0482885-3.694749-.0264658zm18.359756 668.7913924c18.225397 0 33 14.774603 33 33v81.746878c0 30.375661-24.624338 55-55 55h-22.568343c-30.375661 0-55-24.624339-55-55v-81.746878c0-18.225397 14.774604-33 33-33zm0 20h-66.568343c-7.179701 0-13 5.820298-13 13v81.746878c0 19.329966 15.670034 35 35 35h22.568343c19.329967 0 35-15.670034 35-35v-81.746878c0-7.179702-5.820298-13-13-13zm55.01485 35.440432c6.844379 0 12.392845 7.62914 12.392845 17.040162 0 9.411021-5.548466 17.040162-12.392845 17.040162s-12.392845-7.629141-12.392845-17.040162c0-9.411022 5.548466-17.040162 12.392845-17.040162z"/></svg>