<svg width="100" height="100" viewBox="0 0 100 100" xmlns="http://www.w3.org/2000/svg">
 <g>
  <title>background</title>
  <rect x="-1" y="-1" width="26.9998" height="26.9998" id="canvas_background" fill="none"/>
  <g id="canvasGrid" display="none">
   <rect id="svg_3" width="100%" height="100%" x="0" y="0" stroke-width="0" fill="url(#gridpattern)"/>
  </g>
 </g>
 <g>
  <title>Layer 1</title>
  <rect fill="#fff" stroke="#000" stroke-width="1.5" x="407" y="-55" width="0" height="1" id="svg_2"/>
  <rect fill="#000000" stroke="#000" stroke-width="0" stroke-opacity="null" x="92" y="0" width="3" height="100" id="svg_5"/>
  <rect fill="#000000" stroke="#000" stroke-width="0" stroke-opacity="null" x="5" y="0" width="3" height="100" id="svg_7"/>
  <path id="svg_6" d="m0.126368,89.12622l86.746249,-0.249993l12.999643,9.999726l-86.74762,-0.124997l-12.998272,-9.624736z" fill-opacity="null" stroke-opacity="null" stroke-width="0" stroke="#000" fill="#000000"/>
  <path id="svg_8" d="m0.12637,1.624304l86.74625,-0.25l12.99964,9.99973l-86.74762,-0.125l-12.99827,-9.62473z" fill-opacity="null" stroke-opacity="null" stroke-width="0" stroke="#000" fill="#000000"/>
  <path id="svg_9" d="m0.12637,14.124574l86.74625,-0.24999l12.99964,9.99972l-86.74762,-0.12499l-12.99827,-9.62474z" fill-opacity="null" stroke-opacity="null" stroke-width="0" stroke="#000" fill="#000000"/>
  <path id="svg_10" d="m0.12637,26.624854l86.74625,-0.25l12.99964,9.99973l-86.74762,-0.125l-12.99827,-9.62473z" fill-opacity="null" stroke-opacity="null" stroke-width="0" stroke="#000" fill="#000000"/>
  <path id="svg_11" d="m0.12637,39.125124l86.74625,-0.24999l12.99964,9.99972l-86.74762,-0.12499l-12.99827,-9.62474z" fill-opacity="null" stroke-opacity="null" stroke-width="0" stroke="#000" fill="#000000"/>
  <path id="svg_12" d="m0.12637,51.625394l86.74625,-0.24999l12.99964,9.99973l-86.74762,-0.125l-12.99827,-9.62474z" fill-opacity="null" stroke-opacity="null" stroke-width="0" stroke="#000" fill="#000000"/>
  <path id="svg_13" d="m0.12637,64.125674l86.74625,-0.24999l12.99964,9.99972l-86.74762,-0.125l-12.99827,-9.62473z" fill-opacity="null" stroke-opacity="null" stroke-width="0" stroke="#000" fill="#000000"/>
  <path id="svg_14" d="m0.12637,76.625944l86.74625,-0.24999l12.99964,9.99973l-86.74762,-0.125l-12.99827,-9.62474z" fill-opacity="null" stroke-opacity="null" stroke-width="0" stroke="#000" fill="#000000"/>
 </g>
</svg>
