<svg height="960" viewBox="0 0 960 960" width="960" xmlns="http://www.w3.org/2000/svg"><path d="m149.192574.09071949 3.613331.22938909 10.190719.61404905 34.55067 2.05185557 223.022025 13.1352587 489.772985 28.7515514c20.933796 1.2279401 37.326984 18.4012051 37.657696 39.2970276v143.5341301c0 17.521195-11.402966 33.00306-28.135698 38.199979l-2.87863.891522-4.213319 1.295246-2.739373.835515-2.683964.813162-2.628724.790838-2.135292.637757 19.911314 70.551222c4.492373 15.918118-1.27601 31.764503-12.687102 41.437573l-.351077.29418-.547135.444025 13.585255 48.134881c4.49246 15.918095-1.275839 31.764513-12.686882 41.437645l-.351075.294182-.546298.444292 13.584362 48.135128c4.49226 15.917989-1.276047 31.764232-12.687008 41.437281l-.351072.294179-.546282.443412 13.584358 48.135981c4.492253 15.917939-1.276002 31.764146-12.686901 41.437209l-.351071.294179-.546386.443631 13.584354 48.135833c4.492245 15.91789-1.275956 31.764061-12.686795 41.437137l-.351069.29418-.54649.44385 13.58435 48.135686c4.492348 15.918231-1.276184 31.764675-12.687425 41.437689l-.351082.294177-.186843.150448 13.118623 44.822868c.930457 3.179195 1.461861 6.45982 1.583388 9.766361l.019764.708914.007225.760243v19.785614c0 21.870476-17.552229 39.64141-39.338527 39.994641l-.661473.005359h-30.921838c-1.786873 0-3.570007-.119733-5.337506-.357712l-.756508-.109226-.116148-.019062-712.401005 4.493619c-21.747789.128505-39.531301-17.11061-40.2304725-38.688035l-.0159441-.655176-.0054048-.664408-.0001736-687.204-.0931271-.047923c-10.7452376-5.590877-18.6519002-15.484533-21.7246848-27.332667l-.1404887-.556803-.1207105-.505085c-.7056045-3.031388-1.0764977-6.09773-1.1359889-9.151012v-126.1141257c0-12.2020849 4.9848799-23.4547794 13.0646216-31.7119282l1.0800176-1.0858488c8.3712331-8.3493701 16.4932618-15.0495821 24.6921968-20.1083285l.820162-.5004033.820747-.489462c11.946034-7.04181893 24.44244-10.86287698 37.714829-10.10169401zm711.694426 812.14937151-712.95486.001458c-.793707.2273-1.631592.359547-2.502477.382187l-.269041.003492-10.945622-.000137v2.312l20.461403 63.337567c2.058787 6.372977-2.603686 12.899987-9.248926 13.070648l-.266855.00342-10.945622-.000635.000174 23.649909 716.841826-4.513 2.021162.513h30.921838v-19.785614zm-.494-91.754h-726.178v2.369l18.523 69.385h727.905zm-724.959-88.389 18.257 68.389h726.544l-17.721-62.793zm.507-93.426 18.881273 70.7268c.25626.959931.364392 1.917144.340618 2.850517l727.237109 5.597683-19.458-68.95zm-.938-98.838 19.819273 74.239753c.444861 1.666418.443322 3.324642.080249 4.864178l727.960478 10.238069-20.813-73.749zm-.788-103.641v5.363l20.607273 77.192706c.135094.506053.229022 1.011351.284158 1.512799l726.905569 15.588495-22.404-79.384zm0-102.624v12.661l18.815 70.481 726.577 20.305-21.086-74.714zm8.489-30.261-2.466727.921962-2.874483 1.057422-2.079934.754776-1.067856.38184v7.129l722.535 28.663.347327-.078323 1.645975-.387381 1.713256-.414111 1.780536-.440842 2.478706-.629371 2.598316-.676892 2.02723-.538854 2.646654-.717226zm12.456-162.7779999v143.3529999l752.84 36.157v-135.2349065l-542.488662-31.8508967-188.040095-11.0881299zm-30.465904 8.9938274-.873278.686238-.881373.7100129-.889468.7337782-.897563.7575336-.905657.7812794c-.303235.264383-.60782.5327221-.913753.8050154l-.921847.8287417c-.308632.2802005-.618613.5643538-.929943.8524582l-.938037.876165c-.157014.1480026-.314366.2969925-.472054.4469696l-.95018.9117069c-.159038.153925-.318413.3088367-.478125.464735l-.962322.947227-.970417.9708948c-1.006227 1.003482-1.628778 2.3075054-1.710079 3.5459945v125.5978213c0 .292305.03169.575871.094522.845805.052971.227642.126376.440569.218009.637921 1.072111.157846 2.113943.48899 3.082006.980696l.115463.060088 1.292017-.401983 1.116715-.355919 1.155849-.374995 1.194916-.394056 1.594503-.535956 13.351174-6.234476-.000174 1.462476.945-.351091.000166-141.936349c-3.267508 1.5749324-6.756198 3.8031573-10.46607 6.6812675zm779.722203 831.8570695h-758.907529m4.505096 0v44.634593"/></svg>