<svg height="960" viewBox="0 0 960 960" width="960" xmlns="http://www.w3.org/2000/svg"><path d="m383.503222 132.748832c6.407128-2.209018 13.270476-2.753878 19.945887-1.583442l520.718495 91.300388c19.040693 3.338507 32.969354 19.816137 33.091171 39.14691l2.693014 426.60985c.108155 17.900301-11.68562 33.696213-28.880175 38.674241l-12.526989 3.626713c-5.857315 1.695762-12.024802 2.029913-18.031043.976912l-20.686497-3.626713c-19.134688-3.354652-33.092635-19.972562-33.092635-39.39909l-.00045-343.662601-.453951.189054c-19.012862 7.797426-41.412683 10.443732-67.376589 8.705781l-.61046-.042835-1.291173.479978-2.037606.746158-2.011293.72493c-.666072.238103-1.327796.472664-1.985212.703682l-1.959361.68242-1.933742.661139-1.908352.639841c-.631912.209728-1.259631.415905-1.883195.618525l-1.858269.597194c-.615294.195507-1.226472.387457-1.833573.575844l-1.809108.554478-1.784874.533094c-10.046063 2.960246-18.935998 4.889678-26.858951 5.77422l-.673049.072871c-13.045183 1.368076-28.399689.404197-46.652631-2.63981l-.332611-.056564-.6317.22883c-13.831412 4.965633-25.805051 8.083793-36.415208 9.277543l-.721313.078409c-10.612512 1.112956-22.20521.536055-35.007812-1.551393l-.70263.284464c-13.668519 5.485056-26.929644 8.970957-39.85251 10.326205-13.856228 1.453132-27.901933.512605-42.006568-2.712489l-.339259-.079569-1.505661.349084c-13.677606 3.121291-27.952965 5.49162-42.822763 7.120888l-1.94291.208312c-4.933713.517409-9.815763.878761-14.645045 1.082796l-.205621.00792.000558 394.031625c0 18.610001-12.82887 34.734189-30.903882 38.952077l-.549325.124161-28.140484 6.154913c-8.614491 1.88417-17.610168.86891-25.588015-2.887886l-16.747342-7.886383c-14.014618-6.599533-22.958778-20.6976-22.958778-36.188351l-.000732-404.194156-260.1240896-13.965512c-5.9516257-.319559-11.7538656-1.964931-16.983673-4.812585l-.5581268-.309701-6.1771106-3.492202-15.1997258.000047c-21.4113832 0-38.9837422-16.848907-39.95784303-38.161879l-.02442448-.647201-.62643063-21.030914c-.52117583-17.497234 10.39539864-33.300762 26.94441544-39.00645zm23.038474 39.569524.385 614.549 17.754862-3.882731-.00084-428.027106c-.97854-1.497187-1.566922-3.272593-1.620748-5.181649l-.000744-46.067918c-.000281-.048601-.000209-.097267.000218-.145997l-.000057-32.626384c-.000884-.083115-.000732-.166419.000466-.249898l.000117-66.003124c0-6.055227 5.330752-10.698003 11.292736-9.916201l.275599.03995 470.495208 74.714015c4.730572.751208 8.250563 4.745996 8.424895 9.507075l.006331.27551 3.839957 409.910458 2.55324-.738755-2.688367-426.60985zm-19.999 1.693-346.4188525 119.436778.3158523 10.613222 324.9155312-105.977567c6.378261-2.080404 12.926285 2.58308 13.10093 9.239744l-.000461 131.754823 1.338036.07201v442.10279l7.130964 3.3572zm500.191 112.838.000754 401.625245 10.669246 1.869755-3.769696-402.398356zm-443.674 55.75-.000217 6.079927c10.31506.777274 21.081787.577663 32.300182-.598834 3.783562-.39679 7.51862-.845515 11.205175-1.346176zm-284.774696-28.672356-.020864.039944c-2.805314 5.163181-5.8611 9.441979-9.202527 12.79476l209.394087 11.242652v-4.306l-176.817667-12.377064c-.635546-.044491-1.253049-.147443-1.847624-.303235-8.702229.306514-15.917048-2.092845-21.31756-6.920867zm284.773696.909356v7.673l147.491155 14.014689c3.038985-1.153786 6.136635-2.448406 9.29295-3.883859zm0-32.606v12.478l245.966607 27.92934c2.586152.293653 4.829352 1.549123 6.413248 3.369014.80781.112133 1.604781.217824 2.391838.317796l1.580813.194699 1.55369.179057 1.526566.163414c1.00867.10373 1.999258.197031 2.971764.279905l1.445197.11649c.238606.018111.476081.035571.712427.052379l1.404512.093027c.231825.014201.46252.02775.692085.040647l1.363827.069565c4.950974.226392 9.354963.137342 13.211967-.26715 1.577865-.165474 3.258956-.404164 5.043271-.716071l1.082976-.195931 1.107751-.213502 1.132524-.231074 1.157299-.248646 1.182072-.266218 1.206847-.28379 1.23162-.301362 1.256395-.318934 1.281168-.336506 1.305943-.354078c.219721-.060477.440475-.121686.662261-.183628l1.343104-.380436 1.367878-.398008c.230044-.067799.46112-.13633.693229-.205593l.632121-.191406zm-350.3050002 25.804-23.893 7.793 12.9528313 7.323665 2.2097068.120192c.5040994-.505106 1.0154157-1.082385 1.5325094-1.73397l.3605304-.465156c.0602376-.079532.1205484-.160069.1809301-.241613l.363123-.501395.3647168-.525753.3662032-.550271.3675819-.574948c.0613726-.09789.1227981-.196815.1842744-.296778l.3694482-.612263.370558-.637339.3715602-.662575.3724547-.68797.3732416-.713524c.0622666-.121059.1245614-.243189.1868823-.366395l.3742204-.752155.3747384-.778108.3751487-.804221c.062553-.136221.1251187-.273538.1876947-.411952l.3755626-.843689.375704-.870201.3757378-.896872.375664-.923702zm53.9250002-17.589-33.705472 10.994135c.098811.190327.193039.385806.282441.586449 4.508154 10.117552 9.5487 13.942987 16.03677 13.594543 1.724451-.092612 3.579533-1.029489 5.507591-2.878886l.374068-.36936.375798-.39226c.313859-.336455.629424-.696878.946452-1.081556l.38112-.473273c.063632-.080825.127318-.162625.191057-.245403l.383053-.508405c.063942-.086695.127933-.174371.191971-.263031l.384776-.543785.385809-.56751c.064383-.096568.128804-.194129.193263-.292685l.387184-.603302c.0646-.102547.129233-.206094.193898-.310644l.38835-.639341c.064783-.108568.129593-.218142.194429-.328726l.389307-.675628c.259723-.458517.519793-.933252.780088-1.424354l.390594-.748945.390838-.773604.390988-.798373.391046-.823251.39101-.848241.390882-.873339.39066-.898547.390347-.923866c.065026-.156094.130036-.313247.195026-.471462l.389701-.962051c.064908-.162471.129792-.326009.194652-.490616l.388847-1.000482.388161-1.026241c.064631-.173192.12923-.347463.193794-.522814l.386959-1.065084.38604-1.091118zm78.462304-1.851356-.235399.452046c-2.939388 5.557149-6.210526 10.421137-9.816945 14.567936l143.36704 10.035374v-5.118l-91.404993-7.092539c-.831194-.064499-1.630738-.22887-2.387778-.48043l-.508533.039335-.721491.044348c-15.446915.829582-28.258262-3.265267-37.856063-12.045168zm217.918-72.199-.000304 45.660356 375.330139 49.799449c4.35412-.930854 8.391571-2.137314 12.112351-3.61938l.601144-.242976c13.254758-5.435952 21.604577-14.102083 25.049457-25.998393zm-231.124304 52.765356-45.572156 14.865449c.636414 1.132547 1.072589 2.452906 1.238711 3.954259l.085502.728914.092776.705673.100298.682642c.069429.447463.144038.879712.224157 1.297025l.124354.614803c.021429.100611.043212.200299.065355.299065l.137219.58159c.023603.095102.047577.189293.071926.282577l.150641.548847c.103486.358687.213144.702996.329305 1.033207l.179159.484777c1.687761 4.347503 4.636199 6.055919 9.70474 5.850854l.561383-.029927.578452-.044899c.097845-.008719.196411-.018053.295704-.027998l.60452-.066964c.10222-.01237.205178-.025343.308877-.038913l.631146-.088559c.213378-.031887.429766-.066129.649205-.102693l.667515-.116618c.112791-.020585.226356-.041742.3407-.063466 10.709934-2.034757 19.631847-10.633298 26.612967-26.835842l.483904-1.14276c.240376-.577562.478386-1.164407.714023-1.760578l.468109-1.204792zm100.72677-13.151633-.130815.323307c-4.574044 11.128678-9.882985 20.276939-15.952333 27.338589l61.877378 4.800737.000636-13.281958c-3.372272.70234-6.828363 1.171113-10.175488 1.32738-11.124871.519386-20.767101-2.265554-27.388173-9.630088-3.29714-3.667368-6.049553-7.288836-8.231205-10.877967zm-15.880549-14.520677-65.572053 21.38716c.246769.383377.473538.791569.677765 1.224721 5.842311 12.391156 15.359218 17.782653 30.47371 16.970923 13.541524-.727252 25.191831-13.185631 34.420578-39.582804zm61.674779-5.72969-29.075011 9.244c1.494265 2.576441 3.606473 5.422447 6.384905 8.512861 2.286596 2.543351 7.465462 3.437325 13.4583 2.907044l.822055-.081118c.55114-.059936 1.108227-.131558 1.669698-.214697l.845301-.133325c.141366-.023653.282958-.048021.42475-.073101l.852971-.159001c.284997-.055833.570602-.114493.85662-.175958l.859098-.192791c.967316-.22628 1.937112-.484264 2.90189-.773141z"/></svg>