<svg height="960" viewBox="0 0 960 960" width="960" xmlns="http://www.w3.org/2000/svg"><path d="m660.91156 6.85092004 8.035043.02394452 5.444839.01624168 8.200793.03319346 9.88594.05542763 7.61868.0560417 7.362589.06693109 7.108113.07827255 3.459133.04353059 6.729427.09613237 4.882633.08025905 3.177164.0574976 4.649362.09237503 5.982962.13490345 4.325965.11022739 2.807565.0779003 2.746672.08149854 2.685982.08515327 2.625492.08886452 3.825264.14037898 3.690298.14904715 3.556016.15790604 2.296412.11028647 2.237235.11436503 2.178261.11850009c.35814.02009775.713832.04037014 1.067078.06081836l2.090178.12480863 2.031708.12908497 1.97344.13341782 1.915374.13780716 1.85751.14225302c.304774.02408247.607146.04835253.907119.07281137l1.771093.14902777c.290396.02521865.578403.05062844.864024.07623053l1.68513.15592963 1.628073.1606016 1.571219.1653299c.257144.0279522.511926.0561037.764353.0844558l1.486316.1725285c.243018.029159.483688.0585209.722014.0880869l1.401868.1798542c1.831748.243096 3.514038.4994038 5.049025.7695263l.894175.1583416 1.76019.3177524 1.723286.3195159 1.687158.3216852 1.651803.3242603 1.617222.3272409 1.583415.3306274c.261128.0554094.52088.1109767.779271.1667105l1.534155.3364678 1.502283.3408686 1.471185.3456751c.242649.0580356.484034.1162884.724172.1747668l1.425988.3536456c.705638.1782442 1.400341.3586712 2.084542.5415092l1.35453.3689583c.223464.0620514.445794.1243875.667006.187017l1.313977.3793631 1.28791.3868069c.212522.0651106.42399.1305484.634421.1963216l1.250259.3987331c5.983972 1.9473236 11.122283 4.1910301 15.80817 6.9372698 17.28111 10.1278734 26.323783 26.59961 26.323783 45.4521002v806.2869277c0 10.701769-4.288361 20.957258-11.906299 28.473566-10.846362 10.701661-20.928323 19.161962-30.573392 25.444021-12.400308 8.076612-24.653923 13.027337-37.752433 13.86154l-1.427469.089309-3.474518.200827-3.355908.169984-3.23554.145107-2.969882.121061-4.298995.160709-3.990097.138425-5.786074.188519-5.349208.165557-11.116638.327445-9.475752.268104-13.266834.365332-40.219606 1.072604-116.754285 3.03029-10.03098.242811c-40.063353.937113-79.424592 1.466535-118.972469 1.654981l-9.891372.040046-9.902234.026071c-13.211592.025547-26.460381.013154-39.779282-.030841l-10.002836-.040332c-5.008505-.023332-10.028028-.051384-15.060303-.084025l-10.082068-.071363c-10.1001-.077405-20.255839-.172819-30.481105-.285201l-10.248956-.118c-3.424387-.041192-6.857013-.084232-10.298393-.129079l-10.350916-.139927-10.406524-.150545-36.604895-.586047-25.047234-.366017-6.478177-.072359-3.252626-.010373-2.161875-.017289c-34.233303-.370888-51.469022-5.303702-69.610914-20.139757l-.940188-.772709-2.026953-1.688339-2.223614-1.879875-2.004301-1.713721-3.038795-2.62533-3.312478-2.890822-3.588499-3.158178-4.442121-3.939109-4.187834-3.737354-6.4747436-5.813474c-8.4219219-7.585366-13.230422-18.387563-13.230422-29.721872v-798.9381682c0-3.7185651.2458665-7.2257216.9014724-10.8416209 1.3490817-7.4406639 4.0102666-14.3570332 10.0424233-21.2384729 4.7560359-5.4321889 9.8688409-9.1029031 15.6772979-12.2928089 3.124239-1.7157792 6.300217-3.1630703 9.01388-4.2030587 26.032994-9.9769272 50.441822-14.0481414 76.750903-14.0481414l1.636727-.0030242 9.150202-.0619068 24.962965-.2610097 165.516977-2.07315895 43.108095-.52797445 43.527316-.50416899 25.138523-.2680023 18.410014-.1778569 18.463185-.15230826 10.741033-.06866424 5.25988-.02513094 7.382139-.0208561 8.123038-.00383495 46.220168-.0962458 27.38364-.02197338zm-8.318346 40.99996266h-12.190676l-71.173465.1249958-6.54455.0217333-12.237541.070222-19.104682.1530292-24.975625.2429134-31.932194.3489261-47.848669.5661987-154.429258 1.946173-47.87528.5699318-20.994891.1980348-6.829042.0270017c-21.066641.1124029-40.218878 3.3855725-60.948167 11.3298991-3.065758 1.174926-6.743611 3.1947402-8.51632 5.2194708-.342941.3912252-.602137 1.400722-.7204 2.977602l-.034123.5465711c-.004791.0945743-.009127.1908823-.012999.2889153l-.024332.6088284v799.1416708l4.055656 3.645009 4.112226 3.678995 3.307115 2.94426 3.604326 3.190907 3.78425 3.324854 3.018048 2.627538 2.744364 2.364561 1.792668 1.527943 1.652984 1.393732 1.513281 1.259506 1.153206.945144.62263.496781c.103593.081585.207112.162566.310576.242948l.620301.475128.620001.460918c.206729.151292.413575.300245.620705.446891l.622411.433044c4.261254 2.912232 8.712236 4.867264 14.792657 6.12487l.901616.179091.925883.169315c1.563918.274145 3.233124.508309 5.028508.706262l1.092539.114456 1.123824.105946 1.156112.097617 1.189403.089469 1.223696.081502 1.258992.073716 1.295291.06611 1.332592.058686 1.370897.051442 1.410203.04438c.238365.006818.47841.01335.720155.019598l1.471044.034125 1.512857.027515 1.555673.021086 1.599493.014837 2.483592.010935.85086.000717.773057.002683 3.367616.03144 9.574014.124579 66.519221 1.02604 10.479606.141497 10.425218.130316c19.06501.228513 37.872052.399431 56.510444.506046l10.150207.051736c1.689092.007547 3.376925.014552 5.063565.02101l10.10607.032151c11.774973.024085 23.498091.024085 35.192372.005737l10.017144-.029871c45.050202-.166745 89.769222-.772344 135.477937-1.916004l4.995179-.127026 77.358757-2.004071 43.295144-1.134003 25.377226-.676986 20.122229-.55194 14.075573-.402865 9.802058-.297041 7.821887-.255777 5.393457-.193997 4.415702-.177363 3.658132-.167046 2.126615-.108749 2.42179-.136286 2.593276-.162861c3.905111-.315201 8.410802-1.89887 13.508959-4.75316l.83192-.473995.842299-.496273c.564991-.338275 1.136896-.691403 1.715704-1.059387l.873389-.563117.883738-.585403.894078-.60769.90441-.62998.914736-.652272c.306631-.221139.614983-.445994.925052-.674565l.935363-.696861.945664-.719158c.316938-.243436.635591-.490589.955959-.741459l.966245-.76376.976524-.786064c.16361-.132869.327648-.266668.492114-.401396l.991928-.819524.499812-.418128 1.007314-.852987 1.017563-.8753 1.027803-.897614 1.038035-.91993 1.048261-.942248 1.058478-.964568 1.068688-.986891 1.078889-1.009214 1.089084-1.031541 1.099271-1.05387 1.109449-1.076199.821963-.805629v-805.8679917c0-6.8445743-4.137753-10.9642877-18.060054-14.6741842l-1.11956-.2920774-1.160833-.2906276-1.202725-.2894311c-.203979-.0481528-.40973-.0962664-.617264-.1443459l-1.266718-.2881109-1.310153-.2875471c-.222013-.0478916-.445861-.0957703-.671558-.1436413l-1.376462-.2871762c-.233142-.0478614-.468157-.0957258-.70506-.1435982l-1.444161-.2873749-2.252506-.4319829-1.56008-.2889716-2.43764-.4370363-.976202-.164361c-1.007818-.1625043-2.110422-.3194523-3.307268-.4709658l-1.228241-.1497065-1.290948-.1461106-1.353535-.1425418-1.416-.139-1.478346-.1354853-1.540571-.1319977c-.26194-.0217105-.526468-.0432767-.793581-.0646994l-1.63368-.126817-1.695603-.1233971-1.757404-.1200042-1.819085-.1166384-1.880645-.1132997-1.942083-.1099881-2.003402-.1067035-2.0646-.103446-2.125676-.1002156-2.186632-.0970122-3.393975-.1395713-2.338493-.0891224-3.621201-.1278633-3.756993-.1209604-3.892376-.1141488-4.027352-.1074286-5.579062-.1329424-4.34071-.0921035-5.995393-.1128406-6.231967-.1016516-4.828647-.0690262-4.960768-.0629457-5.092482-.0569564-5.223789-.0510587-7.168602-.0590617-7.400344-.0489556-11.532919-.0549586-7.399729-.0232336-5.957849-.0127441zm51.969003 421.9990593c5.522847 0 10 4.477153 10 10v409.725525c0 5.268171-4.087135 9.632843-9.343957 9.978457l-8.352984.544142-11.392205.725032-9.48439.587314-9.225646.555798-7.490417.43909-10.184812.577956-8.449669.461245-8.191096.429726-6.628423.334027-7.717157.371937-6.233534.285869-6.05408.263979-5.874649.242087-4.570546.177908-3.352567.124236-6.511419.224828-4.197471.132371-5.085452.14576-2.965207.076947-3.653198.086055-5.572443.113864-5.858084.09993-6.143831.086003-5.338214.061034-5.536784.051369-5.735416.041706-5.934107.032048-9.908003.031194-9.351651.006949-6.72786-.006934-11.17787-.031109-11.686579-.055742-12.195335-.080373-12.704136-.105003-11.53353-.112081-17.152345-.192822c-5.47532-.06616-9.879176-4.52355-9.879176-9.99927v-416.431052c0-5.522847 4.477153-10 10-10zm-10.000217 19.999058h-257.395v396.547l12.72298.133319 15.110657.133857 9.682874.070389 10.901366.063063 10.475556.042542 10.049665.022169h10.881492l9.967966-.024815 9.45821-.049304 7.857627-.063218 7.467078-.081948 5.094445-.069997 3.932012-.062873 4.735547-.087182 4.536095-.096726 6.354035-.160163 3.791052-.108922 4.882159-.153503 6.068803-.209654 5.232486-.19592 6.489136-.260554 6.718357-.288319 6.947543-.316084 7.176694-.343851 8.662382-.436254 6.378314-.33475 6.537371-.354033 9.419499-.528044 8.32191-.482693 8.550847-.510464 11.757191-.723819 11.233651-.714249zm10.000217-432.1733418c5.522847 0 10 4.4771525 10 10v386.9999998c0 5.522848-4.477153 10-10 10l-277.394243-.000005c-5.522847 0-10-4.477147-10-10v-385.2689141c0-5.4957401 4.434931-9.9615842 9.930538-9.9997587l249.2064-1.7313273zm-38.188217 20.0693418-229.207 1.592v365.338h229.207zm28.188-.07h-8.188v367h8.188zm-140.615441 185.069765c31.708914 0 57.332935 26.136501 57.332935 58.279594s-25.624021 58.279594-57.332935 58.279594c-31.708915 0-57.332936-26.136501-57.332936-58.279594s25.624021-58.279594 57.332936-58.279594zm0 20c-20.573603 0-37.332936 17.09452-37.332936 38.279594s16.759333 38.279594 37.332936 38.279594c20.573602 0 37.332935-17.09452 37.332935-38.279594s-16.759333-38.279594-37.332935-38.279594zm2.839976 11.279594c14.619302 0 26.470588 12.088312 26.470588 27 0 14.911689-11.851286 27-26.470588 27s-26.470589-12.088311-26.470589-27c0-14.911688 11.851287-27 26.470589-27zm-2.839976-201.6781617c44.779544 0 80.999403 36.9442567 80.999403 82.4193917 0 45.475134-36.219859 82.419391-80.999403 82.419391s-80.999404-36.944257-80.999404-82.419391c0-45.475135 36.21986-82.4193917 80.999404-82.4193917zm0 19.9999997c-33.644232 0-60.999404 27.902276-60.999404 62.419392s27.355172 62.419391 60.999404 62.419391c33.644231 0 60.999403-27.902275 60.999403-62.419391s-27.355172-62.419392-60.999403-62.419392zm4.259964 14.139797c26.141258 0 47.332935 21.615511 47.332935 48.279595 0 26.664083-21.191677 48.279594-47.332935 48.279594-26.141259 0-47.332936-21.615511-47.332936-48.279594 0-26.664084 21.191677-48.279595 47.332936-48.279595z" fill-rule="evenodd"/></svg>