<svg height="960" viewBox="0 0 960 960" width="960" xmlns="http://www.w3.org/2000/svg"><path d="m478.250293 6.36451716c22.776941-.92805928 44.711069-.1716585 64.453812 2.90113534 23.633357 3.6783355 53.007325 12.6356792 81.284966 25.2066875 33.046745 14.6911445 63.043651 33.4809788 86.73445 55.5124513 56.285991 52.3436667 94.276479 129.2268467 94.276479 198.6990137v387.085032c0 26.906455-11.395958 50.591064-29.894375 70.803812-6.243448 6.822056-12.889626 12.773991-19.556555 17.868333-2.359858 1.803218-4.572914 3.382399-6.592356 4.735928l-.363224.242382-.692341.455789-.645777.417096-.683125.431547-.580965.356235c-2.400406 1.439871-5.069816 2.356038-7.833449 2.697787l-.356833.039254-.463377 1.085508c-45.219847 104.278222-125.619735 163.974143-239.043511 177.34733l-3.592779.406911c-92.15796 10.011973-168.917762-12.432953-224.769767-60.285194-45.283765-38.797705-73.723923-92.581639-79.74658-144.736806l-.140986-1.266749-.878344-1.038965c-20.554152-24.561652-32.895643-54.339587-33.165656-89.876342v-379.825422c0-71.075395 45.921421-145.322071 114.352836-197.749708 17.499901-13.4072701 40.565305-27.0887138 66.67323-38.6518311 32.63167-14.4524633 68.260917-24.8921626 106.019311-30.0163429l.429919-.05778541 1.350226-.17478525 1.438093-.1763573 1.522317-.1771946 2.154476-.23629193 1.704673-.17629082 2.384394-.23241996 1.867194-.17138663 1.930775-.16806022 1.990711-.16399904 2.047005-.15920308 2.099656-.15367235 1.427222-.09901276 1.447923-.09601039 2.953634-.1821428 2.261538-.12710666 1.527723-.07980554 2.31893-.11176568zm-223.750293 641.90859384c-15.035952 0-27.253469 12.067157-27.496316 27.045237l-.003684.454763.001641 52.797066c1.323538 2.470697 2.122204 5.209278 2.32123 8.043285 3.088255 43.974697 27.080969 91.494595 66.633794 125.382211 47.288809 40.515564 113.027757 59.737941 194.424517 50.895057 102.197473-11.102658 172.008311-62.938156 211.741056-157.370478l-12.079238.291058-2.455975 4.529126-.085023.15355c-47.444784 83.937429-110.34145 130.323324-188.200853 138.142851-38.252813 3.841782-74.519786-4.099957-108.732232-23.646334-34.431219-17.00146-66.491947-48.05206-96.097381-92.838996-1.652534-2.336673-3.298933-4.708831-4.938897-7.11553-.150014-.220151-.291172-.446209-.423134-.677632-.700457-1.2284-1.350688-2.413974-1.95057-3.559303l-.583095-1.132011c-2.17083-4.288687-3.601234-7.998671-4.284428-11.275456-.537171-2.576416-.754528-5.743254-.690415-9.609306l.025944-1.123706c.005589-.190487.011809-.382583.018654-.5763l.048549-1.181842c.009332-.200247.019281-.402138.029844-.605684l.070706-1.241248.085229-1.281555c.015404-.216983.031405-.435669.047999-.656069l.072078-.916555v-65.426199c0-15.187831-12.312169-27.5-27.5-27.5zm412.296242 108.101177-30.814242.730022-3.581 6.37869-1.104648 2.114786c-27.150516 51.547205-60.896007 87.350254-101.09669 107.043168 54.375146-15.003241 99.819025-53.574407 136.59658-116.266666zm-53.922266 1.276442-24.999762.584568-33.055964.763728-55.562026 1.258409-62.504485 1.367844-44.166366.924038-37.40885.741875-29.486367.545302-18.43722.314532-.603936.009284.808034 1.271381c1.173713 1.836731 2.350276 3.649029 3.529696 5.43692 28.079729 39.669034 57.621191 68.372573 88.692317 86.287389 22.326066 10.933754 45.517026 15.037124 69.605211 12.430324 59.386544-6.426756 107.109411-43.371101 143.589718-111.935594zm-175.117936-683.1900013c-62.940089 26.2200403-101.118797 74.3774583-101.876077 139.6068843l-.01148 1.981869-.000405 362.50954-.006053 4.477146-.019729 5.779392-.023884 4.195778-.020396 2.732752-.051885 5.314811-.048927 3.857706-.057804 3.750935-.066948 3.647127-.076355 3.546278-.086027 3.44839-.095965 3.353464-.069628 2.184366-.07424 2.14437-.120182 3.14348-.131003 3.058422-.093476 1.993155-.098483 1.957544-.103566 1.922811-.108728 1.888954-.113969 1.855976-.119288 1.823874-.124686 1.792649-.130162 1.762302-.205683 2.588471-.144196 1.690271-.149947 1.662995-.155776 1.636595-.161684 1.611072-.167671 1.586427-.173736 1.562659-.179879 1.539767-.186101 1.517755-.192401 1.496617-.098588.740657-.201998 1.466558-.208496 1.447615-.215071 1.429548-.221724 1.412359-.228456 1.396048-.235267 1.380613-.242155 1.366056c-.040938.226512-.082166.452454-.123686.677844l-.252637 1.345864c-.042694.223257-.085684.445998-.12897.668242-4.750587 24.390777-13.394474 41.753193-28.151141 55.58602l-.001431 10.230553 2.066087-.031267 24.553071-.418865 26.196579-.486747 23.078728-.452414 29.209-.595913 38.62342-.818093 41.899052-.916702 42.146544-.945964 24.587483-.561068 24.767781-.571273 41.461693-.968861 41.36633-.981012 19.300007-.466952c1.749132-.543462 3.645515-.609001 5.475974-.133356l31.533443-.763242c1.749982-.547539 3.592858-.859346 5.485647-.90531l5.609161-.137271.426871-.31177c.318866-.234823.644008-.47721.975029-.727091l.500892-.380433c4.886979-3.734245 9.794709-8.129326 14.334909-13.090286 12.312005-13.453014 19.402299-28.189014 19.402299-43.798583v-387.085032c0-57.592284-32.920794-124.215679-81.516342-169.407549-20.184557-18.770812-46.488787-35.2475818-75.743545-48.252974-7.442282-3.3085145-14.958001-6.3321531-22.370493-9.0306312-42.070597-11.6046698-99.51713-7.5682917-147.61358 12.4680779zm12.392039-25.8332564-1.016079.1254647-2.346229.3194315c-33.289901 4.6772994-64.741784 13.9626653-93.561445 26.7268016-23.217064 10.2827639-43.554036 22.3458147-58.544881 33.8308119-59.402665 45.510404-98.679445 109.01389-98.679445 165.997289v378.652826c0 17.325145 3.902712 32.624502 10.99959 46.259259l.00041-24.766245c0-26.233526 21.266474-47.5 47.5-47.5 25.97119 0 47.074174 20.843272 47.493636 46.714501l.006364.785499.000997 25.331339c3.369023-6.677901 5.935911-14.37403 7.901103-23.49135l.314909-1.498185c.051608-.251815.102781-.504694.153521-.758646l.271498-1.390098.236225-1.261021.22974-1.276374.223324-1.292571.216977-1.309618.2107-1.327509.103018-.670729.201414-1.355936.195311-1.375945.189276-1.396801.183311-1.418503.177415-1.441054.171588-1.464449.165832-1.488693.160144-1.513783.229702-2.319571.146228-1.580212.140783-1.608267.135407-1.637167.130101-1.666915.124864-1.697508.119696-1.72895.170007-2.654229.107081-1.811257.102155-1.845661.097301-1.880914.092514-1.917011.129948-2.945055.11957-3.031039.109425-3.119881.099514-3.211582.089838-3.30614.054632-2.258038.07423-3.470089.065177-3.572268.038538-2.43969.050611-3.748919.05441-5.169853.039981-5.371829.026107-5.580579.013968-7.2796.000392-362.471479c0-74.982981 43.652597-130.6631198 114.196498-160.050812 6.554356-2.7304613 13.265466-5.1875699 20.083098-7.3711977zm237.85328 482.9178897c20.338004-.958887 38.085448 16.460291 40.687522 38.661449 2.669959 22.780368-11.548201 43.109301-32.599391 44.484091-20.595008 1.344998-38.676248-16.201341-41.304605-38.626752-2.669959-22.780369 11.548201-43.109302 32.599391-44.484092zm-125.211766-7.038529c21.157411-.99679 39.654897 17.158742 42.369388 40.319062 2.783513 23.749219-12.014663 44.907452-33.894893 46.336384-21.424049 1.39914-40.269412-16.888717-43.011323-40.282979-2.783513-23.749219 12.014664-44.907453 33.894894-46.336384zm-139.546975-14.077058c22.796224-1.072595 42.793792 18.555644 45.73312 43.634288 3.01062 25.686922-12.94759 48.503754-36.4859 50.04097-23.082129 1.507425-43.455739-18.263468-46.424756-43.595433-3.010621-25.686921 12.947589-48.503754 36.485899-50.04097zm285.582232 62.105187c-1.459573-12.453225-10.886771-21.601536-20.137211-20.997418-8.794259.574327-15.456694 10.100186-14.038723 22.198454 1.459573 12.453225 10.886771 21.601536 20.137211 20.997418 8.794259-.574327 15.456694-10.100185 14.038723-22.198454zm-123.529899-5.380915c-1.573127-13.422076-11.764448-23.311906-21.843929-22.653645-9.623299.628468-16.86575 10.983627-15.334226 24.050746 1.573126 13.422076 11.764448 23.311906 21.843929 22.653645 9.623299-.628468 16.86575-10.983627 15.334226-24.050746zm-136.183244-10.761832c-1.800233-15.359778-13.519801-26.732644-25.257362-25.966099-11.28138.736753-19.683864 12.750511-17.925233 27.755332 1.800234 15.359778 13.519802 26.732644 25.257363 25.9661 11.28138-.736753 19.683863-12.750512 17.925232-27.755333zm88.957403-417.486049c83.842008-3.89636 159.717662 70.590213 171.032135 167.126464 11.470364 97.866321-47.699076 182.465988-133.000884 188.036792-84.845626 5.541012-162.146421-69.472977-173.575182-166.984342-11.470364-97.866321 47.699076-182.465988 133.000884-188.036792zm151.168105 169.454616c-10.259977-87.539179-78.90673-154.15514-152.407789-149.355008-73.044877 4.770341-124.658592 78.566933-114.440217 165.751154 10.259977 87.539179 78.90673 154.15514 152.407789 149.355008 73.044877-4.770341 124.658592-78.566933 114.440217-165.751154zm-152.551523-114.151765c58.030703-2.702419 110.280053 48.589019 118.053357 114.911652 7.893425 67.347514-33.005494 125.824238-92.192535 129.689565-58.730859 3.835535-111.96177-47.820635-119.813593-114.813193-7.893425-67.347514 33.005494-125.824238 92.192535-129.689565zm98.189327 117.239803c-6.683039-57.020371-51.259909-100.278514-98.6462-97.183858-46.93011 3.064864-80.273304 50.738513-73.631868 107.403928 6.683039 57.020371 51.259909 100.278514 98.6462 97.183858 46.93011-3.064864 80.273304-50.738513 73.631868-107.403928z"/></svg>