<svg height="960" viewBox="0 0 960 960" width="960" xmlns="http://www.w3.org/2000/svg"><path d="m507.67172 206.064878c1.58818-.088061 3.133286-.111309 4.635044-.060094l.078236.003216.272634.003922.352366.008078.988707.031293 1.64863.080207.794648.055581.972618.081051.509178.050561 10.566575 1.144518 6.614326.700044c11.841858 1.235868 23.925184 2.439325 36.045274 3.568162l3.231738.297147 6.33922.572646 3.107331.275367 6.089726.528497 2.982244.252999 4.394879.365252 4.30047.34796 4.205804.330448 4.110885.312714 4.01571.29476 1.968619.139802 2.897936.200485 3.759493.249935 3.637678.229831 2.646693.159022 3.418005.194016 2.478838.131859 2.405001.120032 2.330025.108095 2.253911.096046 2.176658.083886 2.098265.071616 2.673774.076208 1.910919.042552 1.596065.023405 2.531157.050003 11.527732.213379-.200147.001755c.532781 0 1.06551.010644 1.597866.031927l-.061451-.003102 5.963072.107023.639697.013399 9.426457.177874 1.420759.020055 1.465463.014861 1.509658.009688 2.346242.004879 2.442825-.006638 2.537695-.018086 3.528205-.041795 3.689751-.061845 3.274176-.069374 103.319-5.427 3.07119-.218902.576349-.028854.431979-.018503c.190091-.008143.380232-.014928.57041-.020357l.893546-.017562 1.270949-.004871.500633.003009.740335.013426.849922.025011c4.895199.168474 9.74401.846632 14.506163 2.027125l.951263.242795c5.302068 1.396033 10.421342 3.403425 15.31292 6.011853 4.783441 2.55819 9.274212 5.650253 13.380505 9.232758 4.087296 3.564187 7.786682 7.597103 11.048146 12.050763 7.706304 10.551154 15.657394 22.569184 23.490154 35.872355 9.816715 16.675719 18.883185 34.444384 26.866488 53.182632 9.380909 22.023792 16.989159 44.785192 22.484728 68.19639 6.249961 26.595654 9.676855 53.589616 9.9148 80.879083v.697768c-.237997 27.275435-3.665923 54.265412-9.913121 80.834674-5.497238 23.411871-13.104291 46.164578-22.489601 68.198699-7.991428 18.75108-17.07039 36.542537-26.864889 53.16551-7.835985 13.308647-15.795339 25.342574-23.48464 35.870447-3.22832 4.421626-6.918894 8.438174-10.994771 12.006073l-.841256.723026c-3.935461 3.3302-8.210015 6.233809-12.757439 8.639197l-.735471.385028c-4.281376 2.208934-8.765073 3.970672-13.39215 5.268374l-.92731.253348-1.07518.275458c-5.088008 1.260493-10.298754 1.948448-15.561438 2.042855l.232177-.003855-.740335.013426-1.226382.003007-.95084-.009844-1.141816-.031591-.9372-.043253-.563501-.036455-2.722317-.199043-103.22-5.42-2.596686-.054184-3.175429-.05613-2.052002-.029271-1.999317-.022711-1.946012-.01612-2.817717-.011748-1.586805.000076-1.977798.007644-1.906804.016176-1.834927.024756-4.870758.09254-17.753713.327923-11.260839.217841-1.932471.044694-2.013346.057416-2.09314.07003-2.913104.112808-2.275113.099042-3.151806.151097-2.451192.127464-3.38265.1886-3.511032.209678-4.565418.291347-1.880089.125535-3.850852.266317-4.756629.342982-4.263744.319879-4.361583.339223-4.456115.358076-3.021627.24895-3.061193.256967-3.099777.264839-6.311388.552714-4.827537.434121-4.904432.450365-3.961022.369655-4.614392.436787-4.598748.442066-6.84521.670161-6.749387.674749-4.428393.45022-6.508851.672671-7.276506.769635-10.326769 1.117495-.817224.069679-1.054116.070584-1.236873.063549-1.14881.043902c-.236288.007202-.470504.012492-.724617.015772l-.217037.001139-.772762.020909c-.757719.013881-1.526248.007447-2.305552-.011753l-1.572968-.06815-315.724459-18.433252-.98243-.069383-.468061-.036225-.626026-.054949c-3.785732-.347943-7.527839-.996719-11.200344-1.942898l-.667015-.1748c-.292035-.076741-.583191-.156786-.873413-.240121l-.686007-.19698-.440333-.129176c-1.949213-.583984-3.872509-1.251472-5.729207-1.987672-2.18786-.865068-4.332628-1.839042-6.37805-2.895629-4.413965-2.272623-8.570203-5.011732-12.429933-8.172899-3.358614-2.755218-6.461113-5.822038-9.264137-9.159634l-.659293-.795844-.596053-.740912-1.397381-1.777241c-2.103693-2.693512-4.243163-5.511969-6.430296-8.480726l-.460387-.626503c-5.249982-7.156471-10.483179-14.793648-15.626346-22.895665-1.508794-2.376629-3.003909-4.783058-4.475926-7.205855-1.74872-2.875668-3.472572-5.78679-5.169636-8.733082l-.363985-.63556-1.041962-.612823c-61.812945-36.824598-101.13500275-102.666156-101.9646467-175.579701l-.0133913-2.354476c0-73.841483 39.4927485-140.701272 101.960248-177.925332l1.043752-.615668.796969-1.383802c1.888972-3.264663 3.808076-6.481684 5.753528-9.648651l1.170403-1.894155c2.791663-4.495755 5.62471-8.871659 8.496115-13.135778 1.238605-1.837762 2.480528-3.649138 3.727025-5.437106l1.02725-1.467519c4.19956-5.972033 8.35665-11.546259 12.441038-16.737637l.600152-.759315.807914-.994065.597291-.712468c.592364-.696815 1.191056-1.374047 1.76824-2.001563 2.24722-2.453275 4.659382-4.738394 7.285316-6.899929 1.710378-1.401665 3.484495-2.723415 5.297081-3.946358 1.81302-1.224815 3.681325-2.363187 5.598523-3.412803l1.028675-.550896c.290797-.154888.583497-.306176.878032-.453832l.636677-.319177.429634-.212172c2.337494-1.136993 4.733993-2.141241 7.113494-2.9884 1.684338-.603028 3.390315-1.141541 5.114904-1.615343l.10722-.029297c4.715918-1.281537 9.562507-2.08375 14.522266-2.380559zm3.477732 39.933404-.290274.002152c-.244338.002907-.488366.008575-.732029.016995-.171467.005925-.342728.013212-.513788.021856l.513788-.021856c-1.933752.066822-3.844483.30692-5.704155.714691-2.425252.524265-4.776451 1.338417-7.010398 2.40545-2.233947 1.073201-4.350643 2.411618-6.313061 3.990579-1.950075 1.578962-3.745873 3.410805-5.338023 5.464689-.124178.160867-.249158.323074-.374929.486619l-1.152979 1.507906-1.193846 1.579502-1.232887 1.650485-1.270099 1.720858-1.305487 1.79062-1.339046 1.859768-.910439 1.277961-.924001 1.30824-.937022 1.33834-.949501 1.368257-.961439 1.397994-.972836 1.427549-.983691 1.456924-.994006 1.486117-1.003778 1.515128-1.013009 1.54396-1.0217 1.572609-1.029849 1.601077-1.037456 1.629365-1.044522 1.65747-1.051047 1.685395c-.821641 1.324026-1.648712 2.673394-2.480076 4.047715l-1.250126 2.080149c-.208843.349795-.41792.701137-.627212 1.05402l-1.25819 2.135748c-6.932686 11.847809-14.061027 25.360936-20.747441 40.320983-8.528495 19.070899-16.316455 40.491738-22.04943 63.793762-5.739146 23.326694-9.398623 48.534574-9.645468 75.14255.246845 26.589471 3.906322 51.785016 9.645468 75.105543 5.732975 23.302023 13.520935 44.710526 22.04943 63.775258 5.875939 13.146708 12.093166 25.173065 18.218976 35.934914l1.265963 2.208499c2.318019 4.015664 4.618593 7.847964 6.878106 11.489033l1.051047 1.686091 1.044522 1.658049 1.037456 1.629836c.172291.269278.344264.537374.515909.804283l1.025842 1.587188 1.017422 1.55854 1.008462 1.529719.998959 1.500723.988916 1.471553.978332 1.442211c.162143.237913.323822.474597.485027.710047l1.437716 2.085651.943329 1.353141.930579 1.323103.917288 1.292892 1.349826 1.882313.881691 1.216605.866506 1.185786 1.270099 1.720515 1.232887 1.650196.800348 1.060775 1.166804 1.531696.754602.981232c1.59215 2.060052 3.387948 3.885727 5.338023 5.470856 1.962418 1.578962 4.079114 2.911211 6.313061 3.984412s4.585146 1.881185 7.010398 2.411617c1.733289.37564 3.510932.608789 5.310229.692642.135504.006315.271286.011789.407182.016412l-.407182-.016412c.233362.010875.467088.019239.701129.025077l-.293947-.008665c.254062.008642.508521.014307.763312.016977l-.469365-.008312c.242997.006061.486333.009399.729952.009997l.713409-.006081c.148107 0 .308556-.006167.456663-.012335l.228332-.009252.691166-.033923.462834-.030839.759075-.083974 17.909277-1.915534 12.06194-1.23113 11.051115-1.089895 8.907309-.851265 8.366876-.776787 5.393323-.487246 5.458118-.48103c9.137846-.794649 18.448048-1.549243 27.442463-2.193009l2.453587-.174861 3.646363-.251402 3.59899-.23738 3.544248-.222286 2.328783-.139276 2.298995-.131774 2.267025-.123953 2.232871-.115817 2.196534-.10736 3.221895-.144493 2.096141-.084833 2.052163-.075266 2.006003-.065381 1.957658-.055179 1.907131-.04466 24.821445-.473761 2.639185-.045488 6.800387-.126522c.143136-.002326.286722-.004575.430754-.006748.176992-.002671.354654-.005226.53298-.007667l1.97624-.022196 2.026839-.01336c.341892-.001505.685792-.002652 1.031653-.003447l2.098288-.000587c.160804.00027.321993.00061.483563.00102l.097265.000255.537252.001708 2.176038.01188 1.34952.011191.792299.007773.134701.001227 2.197448.026946.519552.007054.528426.007991 2.297873.037828.086701.001181.020097.000733.207903.003267 2.015967.039563 2.361089.051402 3.593481.089028 2.426755.066928 3.680852.111117 2.477584.080854 3.895637.136492c7.974008.290535 16.134365.653033 24.137296 1.050171l5.308192.26948c1.759108.091265 3.506669.18383 5.238911.277287l5.146995.282636 7.973686.457948 6.66591.400077 6.311553.392428 9.819327.63551 8.477359.573078 8.963406.639001.275798.014976 3.066539.223772.655682.017733h.874757l.936697-.027028c2.158122-.09087 4.279755-.415051 6.351402-.959052 2.295658-.610615 4.517263-1.480277 6.633959-2.608988 2.110525-1.116376 4.109969-2.497967 5.955136-4.1016 1.838995-1.609801 3.536054-3.441644 5.035637-5.495528.119566-.163704.239903-.328782.361-.495228l1.110103-1.534859 1.14936-1.608066.78716-1.112362 1.210789-1.728491 1.245249-1.799794 1.27791-1.870384.869196-1.285786 1.328346-1.986447.901155-1.362502.913006-1.392816.924323-1.422922.935108-1.452814.94536-1.482495.955079-1.511965.964264-1.541223c.161446-.259297.323254-.519805.48541-.781518l.977044-1.584714.984896-1.613444c.164774-.27129.329854-.543768.495227-.817429l.995677-1.656142 1.002198-1.684343 1.093574-1.857551c.197036-.336548.39437-.674685.591985-1.014404l1.188912-2.057231c.198666-.346016.397577-.693599.596716-1.042741l1.19742-2.113516 1.202034-2.150604c6.421648-11.568171 13.004024-24.703918 19.169129-39.169712 7.886697-18.515796 15.076058-39.214999 20.346199-61.659696 5.27014-22.413857 8.633404-46.579376 8.855564-72.040136-.22216-25.479265-3.585424-49.650951-8.855564-72.077144-5.270141-22.450864-12.459502-43.156236-20.346199-61.672031-5.529328-12.978327-11.394304-24.880739-17.177937-35.546454l-1.237953-2.266523c-.206068-.374579-.411993-.747567-.617758-1.118955l-1.232509-2.209076c-1.435321-2.554727-2.860905-5.030367-4.270236-7.424406l-1.005258-1.698333-.999004-1.670179-.992217-1.641818c-.164774-.271262-.329243-.541333-.493396-.81021l-.981037-1.598891-.972917-1.570017-1.442985-2.300431-.950286-1.496926-.940301-1.467328-.929782-1.437526-.918731-1.407516-.907147-1.377301-.89503-1.346879-.882379-1.316252-.869196-1.285418-.85548-1.254378-.84123-1.223132-.826449-1.19168-1.210789-1.728097-.78716-1.112148-.770513-1.079974-1.123388-1.559185-.726562-.998638c-1.499583-2.047717-3.196642-3.891895-5.035637-5.495528-1.845167-1.609801-3.844611-2.979057-5.955136-4.107768-2.116696-1.128711-4.338301-1.998374-6.633959-2.60282-2.30183-.604446-4.665371-.937509-7.07211-.986851l-.215989-.005397-.66031-.000771-.43815.006168-.431979.018503-2.8603.208545-.155037.007815-4.593798.331412-17.097219 1.157039-7.659653.48862-7.364966.45125-8.79338.514808-5.589818.313983-5.195783.281543c-.873309.046368-1.749976.092428-2.62953.138133l-5.308192.269589c-8.892145.440963-17.978645.837052-26.787926 1.141588l-1.245007.042364-2.477584.080858-3.680852.111147-2.426755.066975-2.40227.060986-.901267.020705-.002524.000798-.046476.000202-1.425143.033045-2.089857.042955h-.018l-.238318.005309-.781682.013691-1.315293.024205-.391707.005795-2.106471.032387-.719529.008613-.230192.003787-.615808.006213-.678701.008703-.308299.002297-.648619.007198c-.185962.001715-.371501.003349-.55661.004902l-.554034.004414-.080737-.000514-.0572.00154-.4598.00246-1.591879.009208-2.145347.004562-.088287.00001-2.075066-.004094-2.026839-.012568c-.333656-.002815-.665204-.005993-.994594-.00954l-.319988-.004578-.641152-.006903-.692848-.011097-.296061-.003166-.340939-.006834-.613924-.009434-5.840855-.108508-3.508399-.070359-21.176215-.397824-1.842081-.027756c-.309085-.005991-.620412-.012431-.933935-.019312l-1.907131-.046536-1.957658-.056825-2.006003-.066802-2.052163-.076469-2.096141-.085826-3.221895-.145603-2.196534-.107857-2.232871-.116126-2.267025-.124084-3.4598-.200369-4.712226-.29211-2.393699-.156051-2.415846-.1623-3.660515-.254486-4.117279-.298469c-7.727982-.571672-15.647998-1.216678-23.456726-1.890105l-5.83094-.509698c-1.933531-.171207-3.855367-.34349-5.760769-.516145l-5.662164-.518382-2.045753-.191275-7.984064-.760182-9.427363-.92402-11.066885-1.118704-10.878426-1.136108-.601715-.065275-.611743-.063956-11.134549-1.205168-.462834-.037007-.462835-.024671-.456663-.018504-.456663-.012336c-.243054-.004739-.485879-.006747-.728422-.006034zm-42.794684 2.429058-14.146937.826276c-1.388047 4.18429-5.438325 7.069194-10.00883 6.829885l-.824045-.057004-.473097-.01805-.440229-.01279.18837.006343-.546654-.003404c-1.350151.008565-2.68765.139456-4.004424.392055l-.56304.115706c-1.637875.354058-3.253412.909667-4.793005 1.645017-1.538844.739269-3.005707 1.666569-4.350567 2.748582-1.361395 1.102312-2.614788 2.384293-3.714901 3.803412-7.22091 9.354342-14.706068 20.068753-22.122582 32.024466-9.387228 15.126953-18.080117 31.329823-25.731172 48.448138-8.95442 20.023328-16.222462 40.780616-21.467767 62.100474-5.772026 23.460335-8.984123 47.240973-9.336713 71.211577l-.019175 1.540977.019174 1.541526c.344561 23.408687 3.420009 46.640604 8.947136 69.576202l.389588 1.599676c5.243671 21.313216 12.50922 42.055875 21.468601 62.083818 7.646741 17.108663 16.335734 33.301259 25.732256 48.44319 7.407549 11.946569 14.881094 22.642857 22.117064 32.016712 1.0997 1.422879 2.350574 2.702284 3.694497 3.79486 1.357308 1.09209 2.822321 2.016076 4.374561 2.761781 1.531163.735579 3.145898 1.290912 4.798154 1.652299 1.486556.322168 3.018278.490822 4.562216.500494l.815046-.009412.770707-.037146.23068-.013715c4.681102-.374287 8.866568 2.538362 10.285448 6.803268l14.1481.826764c-7.345247-9.65335-14.857909-20.495834-22.289052-32.480456-10.084439-16.250467-19.410115-33.629571-27.625809-52.011201-9.668377-21.612842-17.525966-44.045735-23.213446-67.162841-6.443403-26.182217-9.974345-52.800684-10.22406-79.699247v-.371198c.249701-26.915831 3.780581-53.546935 10.223747-79.735111 5.688988-23.123235 13.548521-45.569803 23.211087-67.176642 8.22148-18.394573 17.551061-35.784187 27.626724-52.02051 7.433085-11.982426 14.948033-22.830517 22.292349-32.484771zm-59.029768 3.445619-214.792507 12.537253c-2.164343.129541-4.297855.487321-6.363539 1.048664-.752278.206676-1.495561.441168-2.228824.703691-1.056511.376172-2.091232.809079-3.0997 1.299613l-.636677.319177-.624254.332498c-.82715.452842-1.633289.943693-2.415377 1.472045-.802691.541575-1.581913 1.12229-2.334846 1.739323-1.108457.912478-2.159936 1.906384-3.143522 2.980157-.335453.364759-.662952.738535-.981929 1.121185l-.464683.571379-.412207.522792-1.272492 1.628202-.877213 1.134992-.899379 1.174301-.920738 1.213345-.94129 1.252125-.961035 1.290638-1.476809 2.007592c-.166356.227813-.333451.457204-.501268.688166l-1.015428 1.40459-1.031946 1.442043-1.047655 1.479231c-.351747.499246-.705978 1.004646-1.062558 1.516155l-.723923 1.041529c-.888334 1.282684-1.790495 2.602407-2.704477 3.958514-2.487555 3.694096-5.062668 7.65939-7.684265 11.881266-.226811.364928-.453975.731785-.681467 1.10056-.373552.605552-.747509 1.215497-1.122229 1.830563-.082071.134695-.164828.270716-.24762.406987l.24762-.406987c-.710454 1.166143-1.42365 2.350699-2.138794 3.553398-.639658 1.07551-1.28083 2.165578-1.923018 3.269951-.460009.791742-.92061 1.590442-1.381511 2.39642-.065006.112632-.129759.225972-.194518.339455l.194518-.339455c-5.033128 8.801454-10.101958 18.470923-14.934362 28.915448l-.618912 1.344786-.793579 1.745926c-2.373762 5.258896-4.683511 10.707448-6.896263 16.33441-.559461 1.422196-1.112678 2.855748-1.658578 4.300521l-1.032965 2.765066c-.773789 2.09969-1.532852 4.222317-2.275611 6.367368l-.73597 2.151916-.479747 1.426652c-1.18799 3.554002-2.328166 7.167441-3.414615 10.838766-1.095623 3.697892-2.13746 7.4535-3.118348 11.264343l-.39915 1.567198-.343049 1.373987-.424995 1.738947c-.56718 2.348186-1.110256 4.716518-1.626385 7.104391l-.281287 1.308126-.473719 2.278334-.449256 2.244184c-.689002 3.507573-1.321915 7.055358-1.8939488 10.641441l-.28915 1.848797-.314676 2.106432-.2872781 2.024542-.2107114 1.550184-.1321056 1.004866-.3468714 2.775925-.2486885 2.141312-.2315669 2.127492-.1396523 1.354323-.2188424 2.280693c-.1054863 1.142791-.2044634 2.288972-.2969359 3.438596l-.1374694 1.782509c-.3216252 4.347379-.5466924 8.740989-.6651757 13.180004l-.0408388 1.64279-.023769 1.265207-.0249688 1.980201c.2281501 24.488372 3.6873995 47.699573 9.10134 69.177029 5.407775 21.465116 12.764076 41.190318 20.804826 58.762221.99532 2.172976 2.001143 4.312812 3.01506 6.418745 3.06791 6.377242 6.210919 12.442884 9.362361 18.175714.092303.167909.184469.335271.276641.502349l-.276641-.502349c.252699.459687.505451.917234.758224 1.37263l-.481583-.870281c.289263.52434.57858 1.045871.8679 1.564577l-.386317-.694296c.174427.31425.348865.627476.5233.939674l-.136983-.245378c.749348 1.343465 1.498717 2.66798 2.247211 3.973262.166978.291189.334162.581855.501294.871558.412053.714249.823721 1.42254 1.234913 2.124931.113417.193737.226948.387281.34044.580374l-.34044-.580374c.470915.804407.941206 1.601076 1.41065 2.389932.148578.249675.297495.499274.446319.748083l-.446319-.748083c.637841 1.071836 1.274117 2.129252 1.908263 3.172067 1.368231 2.251971 2.726366 4.436096 4.068737 6.550577.626822.987431 1.250307 1.959595 1.869879 2.916308l1.233758 1.892775c.2047.312011.408923.622293.612648.930837l1.216194 1.830373c.403291.603141.804417 1.199282 1.20321 1.788368l1.189203 1.746043 1.174176 1.703394 1.158128 1.660424 1.141058 1.617132 1.122969 1.573518c.371194.517201.739204 1.027079 1.103857 1.529581l1.083726 1.485322.9798 1.329463c.178748.241313.356539.480682.533348.718099l1.04891 1.401032 1.024293 1.35386.99859 1.306348.971805 1.258494.943934 1.210302.83046 1.054924.292756.364592.298112.359545c1.218282 1.450624 2.56045 2.775466 4.002966 3.958824 1.664879 1.36355 3.465415 2.554343 5.370777 3.535359.90311.466494 1.829923.886949 2.775497 1.260824.820146.325188 1.654614.614605 2.501231.868251l.686007.196981.480563.126283c1.59312.410449 3.222031.69333 4.88162.845861l.285634.02513.721888.05161 214.786857 12.539562c-.160799-.200596-.31995-.402783-.477435-.60655-7.642887-9.900992-15.505606-21.154275-23.284555-33.699823-9.854491-15.879918-18.96794-32.86352-26.994428-50.821823-9.4316-21.083547-17.091842-42.953029-22.631437-65.46905-6.127184-24.897285-9.542022-50.177595-9.914447-75.700509l-.020318-1.701886v-.185599c.242305-26.118605 3.671425-51.982192 9.934608-77.43883 5.54109-22.522096 13.20346-44.405571 22.630258-65.485202 8.031058-17.968525 17.148408-34.962557 26.994885-50.829562 7.787729-12.554127 15.661436-23.824717 23.297907-33.717364zm-336.9367003 320.704394c8.7937254 13.010155 19.3879148 24.752313 31.4349853 34.8862-4.4724355-10.458551-8.4730563-21.101339-11.9543225-31.917562l-.9686803-.134538-3.114025-.439016-3.7519447-.546187-2.8897608-.435163-2.7909868-.433822-2.0287523-.324624-1.9737366-.324095zm-22.6149618-49.21306.4273698 1.544423c2.4042351 8.504166 5.4745317 16.737491 9.1524786 24.642792l.774868.189663 1.1068893.262881 1.561549.354967.8173461.17933 1.7074896.362212 1.8040917.366755 1.9001407.371071 1.9956365.375157 2.0905791.379015 2.1849685.382643 2.8631029.483059 3.0086415.487925 3.1530997.492344 1.4874111.224429-.1010016-.397343c-2.134379-8.46722-3.9323963-16.982422-5.3789275-25.539517-.471864.016495-.9509643-.001253-1.4343302-.054388l-6.1235821-.690616-3.0369974-.363049-1.3162878-.164936-1.727743-.227669-1.6502565-.237113-1.109604-.180182-.4516888-.08251-2.0983405-.422251-1.2584264-.261061-1.8150587-.38809-1.7310917-.384773-1.6506457-.382456-1.5737208-.381136-1.0081501-.25385-.9765694-.254004-1.4079228-.381939c-.0619706-.017255-.1237425-.034516-.1853171-.051783zm-5.7600322-45.477992c-.0088618.703534-.0133057 1.408108-.0133057 2.113699 0 6.712244.4021537 13.332548 1.1841647 19.839084l.1307239.089084c.0527756.036484.1057212.072784.1588597.108908l.4840643.320481.4981457.311801.3417321.203478.3507085.200271.360772.197325.3719227.194639.3841606.192213.3974856.190048.4118978.188143.4273972.186499.4439837.185115.4616575.183991.4804183.183128.5002664.182526.5212016.182183.543224.182102c.092433.030358.1858288.060723.2802102.091101l.8766537.273898.9335426.275472.9941005.277925.698189.18708.7278215.188821.7585413.190823.7903483.193085.8232423.195607 1.2989181.298711 1.3790451.305851 1.4628414.313871 1.5503069.32277 2.2926829.461792.5474384.093242.7635276.114239 1.1958876.163884 2.0578309.262135 3.2940597.394018 2.3909649.27044c-.9517173-9.295893-1.4807318-18.634926-1.5680713-28.009459l.0023428.280585c-.3240653-.007002-.6507756-.029758-.9793108-.068913l-4.690934-.548061-2.4603299-.277091-3.3889294-.366374-2.5466317-.260109-1.8550029-.178471-2.0900806-.186035-1.4885351-.119158-.7468005-.054176-1.2652536-.08294-1.3619572-.079038-1.45842-.075105-1.5546422-.071142-2.2221194-.088637-1.7782249-.061777zm35.6846943-42.507342-1.7320182.177038-1.3569139.146508-1.3275925.150236-1.9362039.23221-1.8696978.240254-1.2093595.164538-1.7581438.253206-1.1346942.172983c-.1866157.029105-.3719801.058346-.5560911.087722l-1.0896109.177868-1.0594369.181048-1.0291681.184168-.9988048.187227-.9683466.190225-.9377937.193163-.9071461.19604-.8764038.198856-.8455668.201611c-.1383527.033828-.2754167.067768-.4111898.10182l-.7991336.20563-.7680596.208233c-.1254152.03492-.2495317.069945-.3723476.105075l-.7212712.212024c-.2352106.071087-.4652027.142583-.6899606.214477l-.6585551.216867-.627055.219198c-.5093945.183618-.9858776.3696-1.4292027.557788l-.7767863.341326c-.7812247.329978-1.5821916.553012-2.3861267.675375-1.2599535 5.29032-2.2625063 10.677748-2.9961925 16.148038l.2955586.008955 1.9902523.065145 1.8903613.070093 1.7907357.075073 1.1386075.052833 1.0945262.055071 1.5593089.086825.984667.060711 1.3948891.09533 1.1609248.088702 1.6847925.141425 2.3266782.214028 2.0384835.201044 2.196467.227575 2.3549354.254126 3.8305912.431019 3.6070941.422293.0035879-.044878.2983962-3.718572c.1057142-1.224228.2183376-2.444397.3377399-3.659151l.113276-1.145358.2808876-2.62805c.0830861-.750412.1684501-1.496879.2555392-2.234646l.1094022-.918023.4480555-3.535494.1757988-1.301787c.1001367-.73199.2020813-1.458101.3042307-2.167191l.0900652-.625431zm8.7353429-39.612024-.893278.109963c-.1756818.022208-.3496893.044597-.5220195.067167l-1.0138259.137575c-.1656075.023286-.3295311.046751-.4917676.070391l-.9531477.143948c-.1554751.02434-.3092566.048854-.4613413.073539l-.8921203.150168-.8512415.154229c-.1384584.02604-.275207.052246-.4102427.078617l-.7896323.160195-.7483655.164086-.7069436.167911c-.1114508.02758-.224328.056067-.3386281.085462l-.7028492.187265-.7368395.209041c-.1256302.036654-.25267.074215-.381116.112682l-.7875243.24168c-.2681152.084184-.5418285.171993-.8211134.263423l-.8545422.285152-.8878106.306869-.9209185.328572c-.1562365.05657-.3138458.114044-.4728246.172421l-.9702795.361102-1.0029863.382772-1.0355326.404429-1.0679186.426072-1.100144.447702-1.1322091.469319-1.1641136.490923-1.1958578.512513-1.2274415.534091-.1225432.052029c-2.5818354 4.934045-4.9216579 10.009495-7.0041349 15.211341l.1131585-.023819 1.1869329-.253056c.400763-.08328.8066505-.165494 1.2176799-.246651l1.2485314-.240314c.4213306-.079056.8478204-.157067 1.2794869-.234044l1.3105466-.22784c.2210186-.03746.4433356-.074664.6669533-.111614l1.3573316-.21866 1.3886519-.212623c.4681155-.069876.9414685-.138757 1.4200762-.206654l1.4516049-.20075 1.4832376-.194915 1.5149747-.189145c.2551463-.031047.5116193-.061857.7694212-.09243l1.5627755-.180617 1.594773-.175014 1.6268746-.169479 1.6590805-.164011c.2792031-.026883.5597523-.053541.84165-.079975l1.7075847-.155933c.7949915-.070686 1.5765112-.046304 2.3333264.063748l.0664735-.308319c.4212612-1.892637.8618795-3.790425 1.3235605-5.701806l.2913556-1.196201.5319362-2.138964.4117378-1.616362c.7306058-2.838473 1.4982386-5.668362 2.3015375-8.487201zm15.3829511-43.225025-.924283.782403c-8.2900081 7.07498-15.8790584 14.916915-22.6517254 23.412821l.2116857-.035819.7725026-.125927 1.1915422-.182704 1.2310384-.175343c.2084737-.028614.4186002-.056925.630383-.084934l1.2905992-.164441 1.3305174-.157265c.4501777-.051234.9070365-.101284 1.3706046-.150164l1.4108606-.143135c.2385075-.023275.4786993-.046259.7205791-.068956l1.4715611-.132732c.2486454-.02155.4989857-.042814.7510244-.063795l1.5326416-.122496.8756851-.065434c.8269471-2.344568 1.6801913-4.686278 2.5671878-7.046032l.8263684-2.176493c.3871453-1.010606.7800923-2.022622 1.1786594-3.035811 1.3534528-3.441792 2.7567668-6.859959 4.2125678-10.263743z"/></svg>